<svg xmlns="http://www.w3.org/2000/svg" viewBox="0 0 1920 1080"><defs><style>.cls-1{fill:#fff;}.cls-2{fill:#1a1a1a;}.cls-3,.cls-4{fill:none;stroke-miterlimit:10;}.cls-3{stroke:#447ef7;}.cls-4{stroke:#e65a3a;}</style></defs><g id="Layer_1" data-name="Layer 1"><polygon class="cls-1" points="720.39 1089.67 781.99 1089.67 841.7 1089.67 842.15 1089.67 901.29 1089.67 1018.71 1089.67 1077.84 1089.67 1078.29 1089.67 1138 1089.67 1199.61 1089.67 1284.14 1089.67 1930.8 1089.67 1930.8 -9.68 1424.95 -9.68 1369.84 -9.68 1314.91 -9.68 1305.98 -9.68 1305.95 -9.68 1184.13 -9.68 1158.71 -9.68 761.29 -9.68 735.86 -9.68 614.05 -9.68 614.02 -9.68 605.09 -9.68 550.15 -9.68 495.05 -9.68 -10.81 -9.68 -10.81 1089.67 635.84 1089.67 720.39 1089.67"/></g><g id="Layer_4" data-name="Layer 4"><rect class="cls-2" x="753.37" y="499.19" width="32.04" height="32.06"/><rect class="cls-2" x="721.31" y="467.15" width="32.06" height="32.04"/><rect class="cls-2" x="753.37" y="467.15" width="32.04" height="16.96"/><rect class="cls-2" x="721.32" y="514.29" width="32.04" height="16.96"/><path class="cls-2" d="M833.12,500.36l-10.86-2.42c-5.52-1.2-9.14-4.14-9.14-8.62,0-5.17,4.65-8.62,11.21-8.62,6.9,0,12.24,4.14,12.59,10.34l7.76-2.07c-1-8.62-9.49-14.83-20-14.83-11.21,0-19,6.56-19,15.87,0,7.24,5.86,12.68,14.49,14.66l10.52,2.41c4.83,1.13,8.1,4.66,8.1,8.46,0,5.86-5.17,9.83-12.24,9.83-9,0-15.52-5.69-15.52-13.63l-8.11,1.73c.69,11,10.52,18.8,23.46,18.8,11.9,0,20-7.08,20-17.25C846.4,507.77,841.06,502.08,833.12,500.36Z"/><path class="cls-2" d="M872.27,487.08c-12.59,0-21.56,9.48-21.56,22.59s9,22.6,21.56,22.6,21.56-9.49,21.56-22.6S884.87,487.08,872.27,487.08Zm0,38.37c-8.27,0-14.4-6.81-14.4-15.78s6.13-15.95,14.4-15.95,14.41,6.9,14.41,15.95S880.55,525.45,872.27,525.45Z"/><path class="cls-2" d="M916.26,479a6.25,6.25,0,0,1,4.82,1.9l1.73-6.9a12.57,12.57,0,0,0-7.42-2.07c-6.72,0-11.55,5.69-11.55,13.45v2.76h-7.08V495h7.08v36.22h6.9v-36.3h10.34v-6.56H910.74v-3C910.74,481.56,912.81,479,916.26,479Z"/><path class="cls-2" d="M946.61,524.68a16.19,16.19,0,0,1-4.48.51c-3.45,0-5.87-1.89-5.87-5.34v-25h9.66v-6.73h-9.66V476.9h-6.55v5.87c0,3.45-1.73,5.6-4.66,5.6h-4v6.56h8.28v25.95c0,6.9,4.66,11.39,11.21,11.39a15.49,15.49,0,0,0,6.21-1Z"/><path class="cls-2" d="M970.58,487.08c-12.59,0-21.56,9.48-21.56,22.59s9,22.6,21.56,22.6,21.56-9.49,21.56-22.6S983.18,487.08,970.58,487.08Zm0,38.37c-8.27,0-14.4-6.81-14.4-15.78s6.13-15.95,14.4-15.95S985,500.62,985,509.67,978.86,525.45,970.58,525.45Z"/><path class="cls-2" d="M1020.26,487.08a17.6,17.6,0,0,0-15.27,8.71l-.6-7.68h-5.87v60.37h6.9V523.56a17.67,17.67,0,0,0,15,8.36c11.73,0,20.52-9.48,20.52-22.59C1041,496.56,1032.16,487.08,1020.26,487.08Zm-.69,38.11c-8.28,0-14.32-6.55-14.32-15.69s6.21-15.78,14.49-15.78,14.06,6.64,14.06,15.78S1027.85,525.19,1019.57,525.19Z"/><path class="cls-2" d="M1067.52,524.68a16.26,16.26,0,0,1-4.49.51c-3.45,0-5.86-1.89-5.86-5.34v-25h9.66v-6.73h-9.66V476.9h-6.56v5.87c0,3.45-1.72,5.6-4.65,5.6h-2.76v6.56h7.07v25.95c0,6.9,4.65,11.39,11.21,11.39a15.52,15.52,0,0,0,6.21-1Z"/><path class="cls-2" d="M1110.55,509.33c0-12.94-8.19-22.25-19.92-22.25-11.9,0-20.7,9.48-20.7,22.59s9,22.6,21,22.6c9,0,17.08-5.52,18.8-13.11l-7.41-2.76c-.69,5.52-5.52,9.23-11.73,9.23-7.25,0-12.59-5.52-13.11-13.28h32.94C1110.55,511.4,1110.55,510.28,1110.55,509.33Zm-33.12-3.62a13,13,0,0,1,13.11-12.16,12.71,12.71,0,0,1,12.94,12.16Z"/><path class="cls-2" d="M1148,514a12.29,12.29,0,0,1-12.08,11.47c-8.28,0-14.14-6.72-14.14-15.86s5.86-15.87,13.8-15.87c6.21,0,11,4.74,11.73,11.12l7.41-2.58c-1.38-8.8-9.48-15.18-19-15.18-12.16,0-21.22,9.48-21.22,22.59s8.8,22.6,21.39,22.6a19.69,19.69,0,0,0,19.66-15.87Z"/><path class="cls-2" d="M1182,487.08c-6.29,0-11.81,2.84-14.14,7.5v-22h-6.9v58.64h6.9V507.77c.17-7.93,5.52-13.79,13.45-13.79,6.21,0,10.52,4.83,10.52,11.38v25.87h6.9V505C1198.68,494.67,1191.61,487.08,1182,487.08Z"/><path class="cls-3" d="M1140.56,911.74q4.41,17.16,8.81,34.33a777.89,777.89,0,0,1-94,17.38L1053,944.86q23.14-2.83,46.1-7.07L1096,921.4Q1118.39,917.26,1140.56,911.74Z"/><path class="cls-3" d="M1131.76,877.42l4.65,18.16q-21.63,5.4-43.56,9.45,1.58,8.19,3.13,16.37-22.44,4.15-45.08,6.91l-4.44-35.12A705.84,705.84,0,0,0,1131.76,877.42Z"/><path class="cls-3" d="M1050.9,928.33l-4.44-35.14A713.78,713.78,0,0,1,960,898.45q0,9.36,0,18.73,22.25,0,44.48-1.35.53,8.32,1,16.65Q1028.28,931.08,1050.9,928.33Z"/><path class="cls-3" d="M1055.33,963.46q-1.17-9.3-2.35-18.59-23.13,2.82-46.39,4.24l-1.05-16.63q-22.74,1.38-45.54,1.38v35.39A787.13,787.13,0,0,0,1055.33,963.46Z"/><path class="cls-3" d="M1140.56,911.74q4.41,17.16,8.81,34.33a766.9,766.9,0,0,0,91.44-29l-6.91-17.46q-21.89,8.49-44.21,15.55l-5.16-15.88Q1162.72,906.21,1140.56,911.74Z"/><path class="cls-3" d="M1131.76,877.42l4.65,18.16q21.64-5.4,43-12.14,2.56,7.93,5.15,15.87,21.83-6.91,43.23-15.2l-13-33A696,696,0,0,1,1131.76,877.42Z"/><path class="cls-3" d="M779.44,911.74q-4.4,17.16-8.81,34.33a777.89,777.89,0,0,0,94,17.38L867,944.86q-23.13-2.83-46.1-7.07,1.56-8.19,3.13-16.39Q801.61,917.26,779.44,911.74Z"/><path class="cls-3" d="M788.25,877.42q-2.34,9.09-4.66,18.16,21.64,5.4,43.56,9.45L824,921.4q22.44,4.15,45.08,6.91,2.21-17.55,4.43-35.12A705.32,705.32,0,0,1,788.25,877.42Z"/><path class="cls-3" d="M869.1,928.33l4.44-35.14A713.91,713.91,0,0,0,960,898.45v18.73q-22.26,0-44.49-1.35-.51,8.32-1,16.65Q891.73,931.08,869.1,928.33Z"/><path class="cls-3" d="M864.67,963.46q1.17-9.3,2.35-18.59,23.13,2.82,46.39,4.24l1.05-16.63q22.74,1.38,45.54,1.38v35.39A787.26,787.26,0,0,1,864.67,963.46Z"/><path class="cls-3" d="M779.44,911.74q-4.4,17.16-8.81,34.33a766.9,766.9,0,0,1-91.44-29q3.46-8.73,6.91-17.46,21.89,8.49,44.22,15.55,2.58-7.94,5.15-15.88Q757.28,906.21,779.44,911.74Z"/><path class="cls-3" d="M788.25,877.42q-2.34,9.09-4.66,18.16-21.65-5.4-43-12.14l-5.16,15.87q-21.81-6.91-43.23-15.2l13-33A695.6,695.6,0,0,0,788.25,877.42Z"/><path class="cls-3" d="M379.59,673.53,365,685.28a764.32,764.32,0,0,1-59.2-86.92l30.43-18.16q12.93,22.09,27.07,42.81l-13.72,9.53Q364,653.75,379.59,673.53Z"/><path class="cls-3" d="M420.3,640.89q-13.83,11.1-27.66,22.19Q377.37,643.75,363.25,623q6.84-4.77,13.69-9.53-13.8-20.24-26.45-41.83l16.1-9.6A692.74,692.74,0,0,0,420.3,640.89Z"/><path class="cls-3" d="M392.62,663.1l27.68-22.21a668.92,668.92,0,0,0,61.88,68.32l-13,13.61q-16.84-16.2-32.76-33.75l-12.31,11.31Q407.87,682.43,392.62,663.1Z"/><path class="cls-3" d="M365,685.29l14.64-11.75q15.58,19.79,32.24,38.14l12.3-11.3q16.29,18,33.55,34.55l-24.49,25.7A738.91,738.91,0,0,1,365,685.29Z"/><path class="cls-3" d="M314,539.53q10.56,20.88,22.15,40.67l-30.43,18.16a804.9,804.9,0,0,1-40.56-79.13q-2.52-5.67-5-11.41,2.46-5.74,5-11.42a803.78,803.78,0,0,1,40.56-79.13l30.43,18.16Q324.6,455.22,314,476.1q-1.23,2.44-2.45,4.9-6.57,13.19-12.69,26.82,6.14,13.62,12.69,26.81Q312.79,537.09,314,539.53Z"/><path class="cls-3" d="M608.74,845.43l-17.14,31.1a737.7,737.7,0,0,1-82.41-52.15q5.55-7.57,11.09-15.17,19.37,14.13,39.5,26.85l9-14.1Q588.42,834.38,608.74,845.43Z"/><path class="cls-3" d="M625.86,814.35,616.8,830.8Q597,820,577.74,807.87l-9,14.09q-19.66-12.44-38.62-26.26,10.49-14.33,21-28.66A669.41,669.41,0,0,0,625.86,814.35Z"/><path class="cls-3" d="M530.13,795.72l21-28.68a661.87,661.87,0,0,1-68.9-57.81l-13,13.61q16.84,16.2,34.57,31l-10.72,12.84Q511.2,781.9,530.13,795.72Z"/><path class="cls-3" d="M509.17,824.37l11.1-15.16q-19.36-14.13-37.91-29.67l10.72-12.82q-18.13-15.21-35.39-31.79l-24.49,25.7A731.23,731.23,0,0,0,509.17,824.37Z"/><path class="cls-3" d="M608.74,845.43l-17.14,31.1a752.08,752.08,0,0,0,87.58,40.56q3.45-8.73,6.91-17.45-21.89-8.48-43.27-18.37l7.12-15.12Q629.06,856.48,608.74,845.43Z"/><path class="cls-3" d="M625.86,814.35,616.8,830.8q19.85,10.8,40.26,20.24-3.57,7.56-7.12,15.11,20.89,9.68,42.31,18l13.06-33A680.16,680.16,0,0,1,625.86,814.35Z"/><path class="cls-3" d="M1614.25,598.36a760.83,760.83,0,0,1-59.2,86.92l-14.64-11.75q15.58-19.78,30.06-41-6.87-4.75-13.71-9.53,14.12-20.71,27.06-42.81Z"/><path class="cls-3" d="M1543.06,613.48l13.7,9.53q-14.13,20.73-29.39,40.07l-27.67-22.19a691.44,691.44,0,0,0,53.71-78.84l16.1,9.6Q1556.86,593.23,1543.06,613.48Z"/><path class="cls-3" d="M1527.38,663.1l-27.67-22.21a669,669,0,0,1-61.89,68.32l13,13.61q16.85-16.2,32.76-33.75l12.31,11.31Q1512.14,682.43,1527.38,663.1Z"/><path class="cls-3" d="M1555.05,685.29q-7.33-5.88-14.64-11.75-15.59,19.79-32.25,38.14l-12.3-11.3q-16.29,18-33.54,34.55l24.49,25.7A741.26,741.26,0,0,0,1555.05,685.29Z"/><path class="cls-3" d="M1659.78,507.82q-2.46,5.73-5,11.41a804.9,804.9,0,0,1-40.56,79.13l-30.43-18.16q11.58-19.79,22.15-40.67c.83-1.63,1.64-3.26,2.46-4.9q6.55-13.18,12.68-26.81Q1615,494.19,1608.43,481c-.82-1.64-1.63-3.27-2.46-4.9q-10.56-20.88-22.15-40.67l30.43-18.16a803.78,803.78,0,0,1,40.56,79.13Q1657.33,502.07,1659.78,507.82Z"/><path class="cls-3" d="M1311.26,845.43l17.14,31.1a737.82,737.82,0,0,0,82.42-52.15l-11.1-15.17q-19.37,14.13-39.5,26.85l-9-14.1Q1331.59,834.38,1311.26,845.43Z"/><path class="cls-3" d="M1294.14,814.35l9.06,16.45Q1323,820,1342.26,807.87l9,14.09q19.66-12.44,38.62-26.26l-21-28.66A669.41,669.41,0,0,1,1294.14,814.35Z"/><path class="cls-3" d="M1389.87,795.72l-21-28.68a661.87,661.87,0,0,0,68.9-57.81l13,13.61q-16.85,16.2-34.57,31l10.72,12.84Q1408.81,781.9,1389.87,795.72Z"/><path class="cls-3" d="M1410.83,824.37l-11.09-15.16q19.35-14.13,37.9-29.67-5.36-6.4-10.72-12.82,18.13-15.21,35.4-31.79l24.49,25.7A732.38,732.38,0,0,1,1410.83,824.37Z"/><path class="cls-3" d="M1311.26,845.43l17.14,31.1a751.94,751.94,0,0,1-87.57,40.56l-6.92-17.45q21.88-8.48,43.27-18.37-3.56-7.56-7.12-15.12Q1290.94,856.48,1311.26,845.43Z"/><path class="cls-3" d="M1294.14,814.35l9.06,16.45Q1283.36,841.6,1263,851l7.11,15.11q-20.89,9.68-42.31,18l-13-33A680.78,680.78,0,0,0,1294.14,814.35Z"/><path class="cls-3" d="M1140.56,103.89q4.41-17.16,8.81-34.33a779.87,779.87,0,0,0-94-17.39L1053,70.77q23.14,2.82,46.1,7.07L1096,94.22Q1118.39,98.38,1140.56,103.89Z"/><path class="cls-3" d="M1131.76,138.21l4.65-18.16q-21.63-5.4-43.56-9.45,1.58-8.19,3.13-16.38-22.44-4.14-45.08-6.91l-4.44,35.13A705.84,705.84,0,0,1,1131.76,138.21Z"/><path class="cls-3" d="M1050.9,87.3l-4.44,35.14A711.76,711.76,0,0,0,960,117.18q0-9.36,0-18.74,22.25,0,44.48,1.35.53-8.31,1-16.64Q1028.28,84.53,1050.9,87.3Z"/><path class="cls-3" d="M1055.33,52.17q-1.17,9.3-2.35,18.59-23.13-2.82-46.39-4.24l-1.05,16.63Q982.8,81.77,960,81.77V46.38A787.13,787.13,0,0,1,1055.33,52.17Z"/><path class="cls-3" d="M1140.56,103.89q4.41-17.16,8.81-34.33a765.09,765.09,0,0,1,91.44,29q-3.45,8.73-6.91,17.45-21.89-8.48-44.21-15.54l-5.16,15.88Q1162.72,109.42,1140.56,103.89Z"/><path class="cls-3" d="M1131.76,138.21l4.65-18.16q21.64,5.39,43,12.14,2.56-7.93,5.15-15.87,21.83,6.92,43.23,15.2l-13,33A694.21,694.21,0,0,0,1131.76,138.21Z"/><path class="cls-3" d="M779.44,103.89q-4.4-17.16-8.81-34.33a779.87,779.87,0,0,1,94-17.39L867,70.77q-23.13,2.82-46.1,7.07Q822.46,86,824,94.22,801.61,98.38,779.44,103.89Z"/><path class="cls-3" d="M788.25,138.21q-2.34-9.09-4.66-18.16,21.64-5.4,43.56-9.45L824,94.22q22.44-4.14,45.08-6.91,2.21,17.56,4.43,35.13A705.32,705.32,0,0,0,788.25,138.21Z"/><path class="cls-3" d="M869.1,87.3l4.44,35.14A711.88,711.88,0,0,1,960,117.18V98.44q-22.26,0-44.49,1.35-.51-8.31-1-16.64Q891.73,84.53,869.1,87.3Z"/><path class="cls-3" d="M864.67,52.17q1.17,9.3,2.35,18.59,23.13-2.82,46.39-4.24l1.05,16.63Q937.2,81.77,960,81.77V46.38A787.26,787.26,0,0,0,864.67,52.17Z"/><path class="cls-3" d="M779.44,103.89q-4.4-17.16-8.81-34.33a765.09,765.09,0,0,0-91.44,29q3.46,8.73,6.91,17.45,21.89-8.48,44.22-15.54,2.58,7.94,5.15,15.88Q757.28,109.42,779.44,103.89Z"/><path class="cls-3" d="M788.25,138.21q-2.34-9.09-4.66-18.16-21.65,5.39-43,12.14l-5.16-15.87q-21.81,6.92-43.23,15.2l13,33A693.79,693.79,0,0,1,788.25,138.21Z"/><path class="cls-3" d="M349.53,383.09l13.72,9.53q-14.13,20.72-27.07,42.81l-30.43-18.16A763.43,763.43,0,0,1,365,330.35l14.64,11.75Q364,361.89,349.53,383.09Z"/><path class="cls-3" d="M420.3,374.74a692.74,692.74,0,0,0-53.71,78.84l-16.1-9.6q12.64-21.6,26.45-41.83-6.85-4.75-13.69-9.53,14.12-20.73,29.39-40.08Z"/><path class="cls-3" d="M392.62,352.53l27.68,22.21a670.1,670.1,0,0,1,61.88-68.33q-6.48-6.8-13-13.6-16.84,16.2-32.76,33.75l-12.31-11.31Q407.87,333.21,392.62,352.53Z"/><path class="cls-3" d="M365,330.34l14.64,11.75q15.58-19.79,32.24-38.15l12.3,11.31q16.29-18,33.55-34.55L433.2,255A738.91,738.91,0,0,0,365,330.34Z"/><path class="cls-3" d="M350.49,571.65q12.64,21.58,26.45,41.83-6.85,4.75-13.69,9.53-14.13-20.71-27.07-42.81Q324.6,560.42,314,539.53q-1.23-2.44-2.45-4.9-6.57-13.18-12.69-26.81Q305,494.19,311.58,481q1.21-2.46,2.45-4.9,10.56-20.88,22.15-40.67,12.93-22.1,27.07-42.81,6.84,4.77,13.69,9.53-13.8,20.24-26.45,41.83l16.1,9.6q-15.27,26.1-28.7,54.24,13.41,28.13,28.7,54.23Z"/><path class="cls-3" d="M608.74,170.19,591.6,139.1a739.06,739.06,0,0,0-82.41,52.14l11.09,15.18q19.37-14.14,39.5-26.85l9,14.1Q588.42,181.24,608.74,170.19Z"/><path class="cls-3" d="M625.86,201.28l-9.06-16.45Q597,195.62,577.74,207.76l-9-14.09q-19.66,12.44-38.62,26.26l21,28.65A669.33,669.33,0,0,1,625.86,201.28Z"/><path class="cls-3" d="M530.13,219.91l21,28.67a664.37,664.37,0,0,0-68.9,57.81l-13-13.6q16.84-16.2,34.57-31.05l-10.72-12.83Q511.2,233.72,530.13,219.91Z"/><path class="cls-3" d="M509.17,191.25l11.1,15.17q-19.36,14.13-37.91,29.66l10.72,12.83q-18.13,15.2-35.39,31.79L433.2,255A732.58,732.58,0,0,1,509.17,191.25Z"/><path class="cls-3" d="M608.74,170.19,591.6,139.1a752.08,752.08,0,0,1,87.58-40.56q3.45,8.71,6.91,17.45-21.89,8.48-43.27,18.37l7.12,15.12Q629.06,159.16,608.74,170.19Z"/><path class="cls-3" d="M625.86,201.28l-9.06-16.45q19.85-10.8,40.26-20.24-3.57-7.56-7.12-15.11,20.89-9.67,42.31-18l13.06,33A682.63,682.63,0,0,0,625.86,201.28Z"/><path class="cls-3" d="M1614.25,417.27l-30.43,18.16q-12.93-22.1-27.06-42.81,6.85-4.77,13.71-9.53-14.45-21.21-30.06-41l14.64-11.75A760.83,760.83,0,0,1,1614.25,417.27Z"/><path class="cls-3" d="M1569.51,444l-16.1,9.6a691.44,691.44,0,0,0-53.71-78.84l27.67-22.2q15.26,19.35,29.39,40.08l-13.7,9.53Q1556.86,422.39,1569.51,444Z"/><path class="cls-3" d="M1527.38,352.53l-27.67,22.21a670.18,670.18,0,0,0-61.89-68.33q6.5-6.8,13-13.6,16.85,16.2,32.76,33.75l12.31-11.31Q1512.14,333.21,1527.38,352.53Z"/><path class="cls-3" d="M1555.05,330.34q-7.33,5.88-14.64,11.75-15.59-19.79-32.25-38.15l-12.3,11.31q-16.29-18-33.54-34.55l24.49-25.7A741.26,741.26,0,0,1,1555.05,330.34Z"/><path class="cls-3" d="M1621.11,507.82q-6.13,13.62-12.68,26.81c-.82,1.64-1.63,3.27-2.46,4.9q-10.56,20.88-22.15,40.67-12.93,22.09-27.06,42.81l-13.7-9.53q13.8-20.24,26.45-41.83l-16.1-9.6q15.27-26.1,28.7-54.23-13.39-28.14-28.7-54.24l16.1-9.6q-12.65-21.6-26.45-41.83l13.7-9.53q14.12,20.72,27.06,42.81,11.58,19.79,22.15,40.67c.83,1.63,1.64,3.26,2.46,4.9Q1615,494.19,1621.11,507.82Z"/><path class="cls-3" d="M1311.26,170.19q8.58-15.54,17.14-31.09a739.18,739.18,0,0,1,82.42,52.14l-11.1,15.18q-19.37-14.14-39.5-26.85l-9,14.1Q1331.59,181.24,1311.26,170.19Z"/><path class="cls-3" d="M1294.14,201.28l9.06-16.45q19.85,10.78,39.06,22.93l9-14.09q19.66,12.44,38.62,26.26l-21,28.65A669.33,669.33,0,0,0,1294.14,201.28Z"/><path class="cls-3" d="M1389.87,219.91l-21,28.67a664.37,664.37,0,0,1,68.9,57.81l13-13.6q-16.85-16.2-34.57-31.05l10.72-12.83Q1408.81,233.72,1389.87,219.91Z"/><path class="cls-3" d="M1410.83,191.25q-5.55,7.59-11.09,15.17,19.35,14.13,37.9,29.66-5.36,6.42-10.72,12.83,18.13,15.2,35.4,31.79l24.49-25.7A733.73,733.73,0,0,0,1410.83,191.25Z"/><path class="cls-3" d="M1311.26,170.19q8.58-15.54,17.14-31.09a751.94,751.94,0,0,0-87.57-40.56q-3.46,8.71-6.92,17.45,21.88,8.48,43.27,18.37-3.56,7.56-7.12,15.12Q1290.94,159.16,1311.26,170.19Z"/><path class="cls-3" d="M1294.14,201.28l9.06-16.45Q1283.36,174,1263,164.59l7.11-15.11q-20.89-9.67-42.31-18l-13,33A682.49,682.49,0,0,1,1294.14,201.28Z"/><path class="cls-4" d="M1199.61,1089.67q-2.76-11.45-5.5-22.88-28.72,7.64-57.81,13.38c.57,3.16,1.13,6.33,1.7,9.5"/><path class="cls-4" d="M1132.26,1057.5q2,11.34,4,22.67-28.86,5.68-58,9.5l-.44.06s0,0,0-.06q-2.86-24.27-5.74-48.55a864.34,864.34,0,0,0,110.59-21.82q3,12.57,6,25.13Q1160.68,1051.9,1132.26,1057.5Z"/><path class="cls-4" d="M1077.84,1089.67q-2.86-24.27-5.74-48.55A866.84,866.84,0,0,1,960,1048.4v25.93q28.85,0,57.67-1.87l1,17.21"/><path class="cls-4" d="M1284.14,1089.67q20.11-7.26,39.95-15.46-4.47-12.09-9-24.16-28.37,11.75-57.32,21.52l-6.69-22q-28.27,9.56-57,17.2,2.75,11.43,5.5,22.88"/><path class="cls-4" d="M1182.7,1019.3q3,12.57,6,25.13,28.07-7.47,55.7-16.8,3.35,11,6.68,22,28.31-9.57,56.06-21-8.46-22.81-16.93-45.62A860,860,0,0,1,1182.7,1019.3Z"/><path class="cls-4" d="M782,1089.67c.57-3.17,1.13-6.33,1.7-9.5q-29.06-5.75-57.8-13.38-2.75,11.43-5.5,22.88"/><path class="cls-4" d="M847.89,1041.12q-2.88,24.27-5.74,48.55s0,0,0,.06l-.44-.06q-29.12-3.81-58-9.5l4-22.67q-28.4-5.6-56.48-13.07,3-12.57,6-25.13A864.34,864.34,0,0,0,847.89,1041.12Z"/><path class="cls-4" d="M842.15,1089.67q2.88-24.27,5.74-48.55A867,867,0,0,0,960,1048.4v25.93q-28.86,0-57.68-1.87-.51,8.6-1,17.21"/><path class="cls-4" d="M720.39,1089.67q2.75-11.45,5.5-22.88-28.73-7.65-57-17.2l-6.69,22q-28.94-9.78-57.33-21.52-4.47,12.08-9,24.16,19.83,8.19,39.94,15.46"/><path class="cls-4" d="M737.31,1019.3q-3,12.57-6,25.13-28.05-7.47-55.7-16.8-3.33,11-6.68,22-28.29-9.57-56.06-21,8.46-22.81,16.93-45.62A860.18,860.18,0,0,0,737.31,1019.3Z"/><path class="cls-4" d="M207.45,737.14l-19,16.26A1062.18,1062.18,0,0,1,111.7,633.11L151.16,608q16.76,30.57,35.09,59.23l-17.78,13.19Q187.22,709.77,207.45,737.14Z"/><path class="cls-4" d="M260.22,692l-35.86,30.71q-19.79-26.78-38.11-55.47L204,654q-17.88-28-34.28-57.88l20.88-13.29A962.57,962.57,0,0,0,260.22,692Z"/><path class="cls-4" d="M224.34,722.7,260.22,692a908.66,908.66,0,0,0,80.24,94.54l-16.81,18.83q-21.84-22.43-42.48-46.7l-16,15.65Q244.11,749.46,224.34,722.7Z"/><path class="cls-4" d="M188.47,753.41l19-16.25q20.22,27.38,41.81,52.78l15.95-15.64q21.12,24.87,43.49,47.81Q292.83,839.9,277,857.67A1002.87,1002.87,0,0,1,188.47,753.41Z"/><path class="cls-4" d="M122.44,551.7q13.69,28.9,28.72,56.29L111.7,633.11a1140.87,1140.87,0,0,1-52.58-109.5q-3.27-7.85-6.44-15.79,3.16-7.95,6.44-15.8a1139.72,1139.72,0,0,1,52.58-109.5l39.46,25.12q-15,27.39-28.72,56.29c-1.06,2.25-2.12,4.5-3.18,6.77q-8.51,18.26-16.44,37.12,7.94,18.85,16.44,37.1Q120.85,548.33,122.44,551.7Z"/><path class="cls-4" d="M504.56,975q-11.12,21.53-22.22,43A950.39,950.39,0,0,1,375.48,945.9q7.18-10.5,14.39-21,25.11,19.56,51.2,37.16,5.83-9.77,11.66-19.52Q478.22,959.74,504.56,975Z"/><path class="cls-4" d="M526.76,932,515,954.78Q489.29,939.86,464.37,923l-11.64,19.51q-25.51-17.22-50.08-36.34l27.18-39.66A862.23,862.23,0,0,0,526.76,932Z"/><path class="cls-4" d="M402.64,906.23l27.19-39.68a876.68,876.68,0,0,1-89.34-80l-16.81,18.83q21.84,22.41,44.82,43L354.59,866.1Q378.08,887.12,402.64,906.23Z"/><path class="cls-4" d="M375.46,945.89l14.38-21q-25.09-19.54-49.14-41l13.89-17.75q-23.5-21-45.89-44Q292.83,839.9,277,857.67A968.25,968.25,0,0,0,375.46,945.89Z"/><path class="cls-4" d="M504.56,975q-11.12,21.53-22.22,43a947.41,947.41,0,0,0,113.55,56.13q4.47-12.08,9-24.15-28.38-11.74-56.11-25.43L558,1003.7Q530.91,990.32,504.56,975Z"/><path class="cls-4" d="M526.76,932,515,954.78q25.72,14.94,52.2,28-4.62,10.46-9.23,20.91,27.09,13.38,54.86,24.86,8.46-22.81,16.93-45.62A858.54,858.54,0,0,1,526.76,932Z"/><path class="cls-4" d="M1808.3,633.11a1058.51,1058.51,0,0,1-76.76,120.29l-19-16.26q20.22-27.39,39-56.73-8.9-6.58-17.77-13.19,18.3-28.65,35.08-59.23Z"/><path class="cls-4" d="M1716,654l17.76,13.18q-18.33,28.69-38.11,55.47L1659.78,692a961.18,961.18,0,0,0,69.62-109.11l20.88,13.29Q1733.9,626,1716,654Z"/><path class="cls-4" d="M1695.66,722.7,1659.78,692a908.66,908.66,0,0,1-80.24,94.54l16.81,18.83q21.84-22.43,42.49-46.7l16,15.65Q1675.9,749.46,1695.66,722.7Z"/><path class="cls-4" d="M1731.53,753.41l-19-16.25q-20.21,27.38-41.81,52.78l-16-15.64q-21.11,24.87-43.49,47.81,15.87,17.79,31.75,35.56A1001.65,1001.65,0,0,0,1731.53,753.41Z"/><path class="cls-4" d="M1867.32,507.82q-3.16,7.95-6.44,15.79a1140.87,1140.87,0,0,1-52.58,109.5L1768.84,608q15-27.39,28.73-56.29,1.59-3.37,3.18-6.78,8.49-18.25,16.44-37.1-7.93-18.85-16.44-37.12c-1.06-2.27-2.12-4.52-3.18-6.77q-13.71-28.9-28.73-56.29l39.46-25.12A1139.72,1139.72,0,0,1,1860.88,492Q1864.15,499.87,1867.32,507.82Z"/><path class="cls-4" d="M1415.45,975l22.21,43a950.39,950.39,0,0,0,106.86-72.17l-14.38-21q-25.11,19.55-51.21,37.16l-11.65-19.52Q1441.8,959.74,1415.45,975Z"/><path class="cls-4" d="M1393.24,932q5.88,11.38,11.75,22.76,25.73-14.92,50.64-31.74,5.82,9.75,11.65,19.51,25.5-17.22,50.07-36.34l-27.17-39.66A862.34,862.34,0,0,1,1393.24,932Z"/><path class="cls-4" d="M1517.37,906.23l-27.19-39.68a877.75,877.75,0,0,0,89.34-80l16.81,18.83q-21.86,22.41-44.83,43l13.91,17.76Q1541.92,887.12,1517.37,906.23Z"/><path class="cls-4" d="M1544.54,945.89l-14.38-21q25.1-19.54,49.15-41l-13.9-17.75q23.5-21,45.89-44,15.87,17.79,31.75,35.56A967.18,967.18,0,0,1,1544.54,945.89Z"/><path class="cls-4" d="M1415.45,975l22.21,43a947.28,947.28,0,0,1-113.54,56.13l-9-24.15q28.38-11.74,56.11-25.43L1362,1003.7Q1389.11,990.32,1415.45,975Z"/><path class="cls-4" d="M1393.24,932q5.88,11.38,11.75,22.76-25.73,14.94-52.19,28l9.22,20.91q-27.09,13.38-54.86,24.86l-16.92-45.62A860.66,860.66,0,0,0,1393.24,932Z"/><path class="cls-4" d="M1306-9.68h0q-7.87,21.18-15.73,42.38h0A861.47,861.47,0,0,0,1182.69-3.67c.48-2,1-4,1.44-6"/><path class="cls-4" d="M735.86-9.68l1.44,6A861.47,861.47,0,0,0,629.76,32.69h0Q621.88,11.49,614-9.68h0"/><path class="cls-4" d="M168.47,335.21q8.9,6.59,17.78,13.2-18.31,28.65-35.09,59.23L111.7,382.52a1061.29,1061.29,0,0,1,76.76-120.29l19,16.26Q187.23,305.87,168.47,335.21Z"/><path class="cls-4" d="M260.22,323.65A962.57,962.57,0,0,0,190.6,432.76l-20.88-13.29Q186.1,389.59,204,361.59l-17.75-13.18q18.31-28.7,38.11-55.47Z"/><path class="cls-4" d="M224.34,292.93l35.88,30.72a909.82,909.82,0,0,1,80.24-94.55l-16.81-18.82q-21.84,22.41-42.48,46.7l-16-15.65Q244.11,266.17,224.34,292.93Z"/><path class="cls-4" d="M188.47,262.22l19,16.25q20.22-27.37,41.81-52.78l15.95,15.64q21.12-24.87,43.49-47.82L277,158A1002.87,1002.87,0,0,0,188.47,262.22Z"/><path class="cls-4" d="M169.72,596.16Q186.1,626,204,654l-17.75,13.18Q167.94,638.57,151.16,608q-15-27.39-28.72-56.29-1.59-3.37-3.18-6.78-8.51-18.25-16.44-37.1,7.94-18.85,16.44-37.12c1.06-2.27,2.12-4.52,3.18-6.77q13.69-28.9,28.72-56.29,16.76-30.57,35.09-59.23L204,361.59q-17.88,28-34.28,57.88l20.88,13.29q-19.82,36.12-37.23,75.06,17.4,38.93,37.23,75.05Z"/><path class="cls-4" d="M504.56,40.6q-11.12-21.52-22.22-43A950.39,950.39,0,0,0,375.48,69.73l14.39,21Q415,71.16,441.07,53.56l11.66,19.52Q478.22,55.89,504.56,40.6Z"/><path class="cls-4" d="M526.76,83.61Q520.88,72.22,515,60.85q-25.72,14.92-50.64,31.73l-11.64-19.5q-25.51,17.2-50.08,36.34l27.18,39.66A862.23,862.23,0,0,1,526.76,83.61Z"/><path class="cls-4" d="M402.64,109.4l27.19,39.68a875.5,875.5,0,0,0-89.34,80l-16.81-18.83q21.84-22.41,44.82-43l-13.91-17.76Q378.08,128.5,402.64,109.4Z"/><path class="cls-4" d="M375.46,69.74q7.2,10.49,14.38,21-25.09,19.55-49.14,41.05l13.89,17.75q-23.5,21-45.89,44L277,158A968.25,968.25,0,0,1,375.46,69.74Z"/><path class="cls-4" d="M550.15-9.68,548.74-9,558,11.93Q530.89,25.31,504.55,40.6l-22.21-43q6.33-3.67,12.71-7.24"/><path class="cls-4" d="M605.09-9.68Q581.3.41,558,11.93l9.22,20.91Q540.76,45.9,515,60.85l11.75,22.76a856.72,856.72,0,0,1,103-50.91h0Q621.9,11.49,614.05-9.68h0"/><path class="cls-4" d="M1808.3,382.52l-39.46,25.12q-16.75-30.57-35.08-59.23,8.88-6.62,17.77-13.2-18.73-29.34-39-56.72l19-16.26A1058.51,1058.51,0,0,1,1808.3,382.52Z"/><path class="cls-4" d="M1750.28,419.47l-20.88,13.29a961.18,961.18,0,0,0-69.62-109.11l35.87-30.71q19.77,26.78,38.11,55.47L1716,361.59Q1733.88,389.6,1750.28,419.47Z"/><path class="cls-4" d="M1695.66,292.93l-35.88,30.72a909.82,909.82,0,0,0-80.24-94.55q8.42-9.4,16.81-18.82,21.84,22.41,42.49,46.7l16-15.65Q1675.9,266.17,1695.66,292.93Z"/><path class="cls-4" d="M1731.53,262.22l-19,16.25q-20.21-27.37-41.81-52.78l-16,15.64q-21.11-24.87-43.49-47.82L1643.05,158A1001.65,1001.65,0,0,1,1731.53,262.22Z"/><path class="cls-4" d="M1817.19,507.82q-7.95,18.85-16.44,37.1-1.59,3.41-3.18,6.78-13.71,28.9-28.73,56.29-16.75,30.57-35.08,59.23L1716,654q17.88-28,34.28-57.88l-20.88-13.29q19.81-36.12,37.23-75.05-17.39-38.94-37.23-75.06l20.88-13.29q-16.38-29.88-34.28-57.88l17.76-13.18q18.3,28.65,35.08,59.23,15,27.39,28.73,56.29c1.06,2.25,2.12,4.5,3.18,6.77Q1809.24,489,1817.19,507.82Z"/><path class="cls-4" d="M1415.45,40.6l22.21-43a950.39,950.39,0,0,1,106.86,72.17l-14.38,21Q1505,71.16,1478.93,53.56l-11.65,19.52Q1441.8,55.89,1415.45,40.6Z"/><path class="cls-4" d="M1393.24,83.61,1405,60.85q25.73,14.92,50.64,31.73,5.82-9.75,11.65-19.5,25.5,17.2,50.07,36.34l-27.17,39.66A862.34,862.34,0,0,0,1393.24,83.61Z"/><path class="cls-4" d="M1517.37,109.4q-13.61,19.83-27.19,39.68a877.75,877.75,0,0,1,89.34,80l16.81-18.83q-21.86-22.41-44.83-43l13.91-17.76Q1541.92,128.5,1517.37,109.4Z"/><path class="cls-4" d="M1544.54,69.74l-14.38,21q25.1,19.55,49.15,41.05-7,8.86-13.9,17.75,23.5,21,45.89,44L1643.05,158A967.18,967.18,0,0,0,1544.54,69.74Z"/><path class="cls-4" d="M1425-9.68q6.38,3.56,12.71,7.24l-22.22,43Q1389.12,25.3,1362,11.93q4.62-10.45,9.23-20.92l-1.41-.69"/><path class="cls-4" d="M1314.91-9.68Q1338.7.41,1362,11.93l-9.23,20.91q26.46,13.06,52.2,28-5.88,11.37-11.75,22.76a858.21,858.21,0,0,0-103-50.91h0q7.86-21.19,15.72-42.37"/></g></svg>