<svg id="Layer_1" data-name="Layer 1" xmlns="http://www.w3.org/2000/svg" xmlns:xlink="http://www.w3.org/1999/xlink" viewBox="0 0 1920 1080"><defs><style>.cls-1{fill:url(#linear-gradient);}.cls-2{fill:#f2f2f2;}</style><linearGradient id="linear-gradient" x1="960" y1="7.12" x2="960" y2="1072.09" gradientUnits="userSpaceOnUse"><stop offset="0" stop-color="#a5aff5"/><stop offset="1" stop-color="#004b97"/></linearGradient></defs><rect class="cls-1" x="-10.81" y="-9.67" width="1941.61" height="1099.35"/><rect x="-32.66" y="1015.03" width="82.71" height="76.43"/><rect x="368.69" y="936.02" width="76.43" height="76.43"/><rect x="447.7" y="936.02" width="76.43" height="76.43"/><rect x="289.67" y="936.02" width="76.43" height="76.43"/><rect x="210.66" y="936.02" width="76.43" height="76.43"/><rect x="526.71" y="936.02" width="76.43" height="76.43"/><rect x="131.65" y="936.02" width="76.43" height="76.43"/><rect x="684.74" y="936.02" width="76.43" height="76.43"/><rect x="605.73" y="936.02" width="76.43" height="76.43"/><rect x="131.65" y="303.91" width="76.43" height="76.43"/><rect x="131.65" y="382.92" width="76.43" height="76.43"/><rect x="131.65" y="461.94" width="76.43" height="76.43"/><rect x="763.76" y="936.02" width="76.43" height="76.43"/><rect x="131.65" y="224.89" width="76.43" height="76.43"/><rect x="131.65" y="777.99" width="76.43" height="76.43"/><rect x="131.65" y="857" width="76.43" height="76.43"/><rect x="131.65" y="698.98" width="76.43" height="76.43"/><rect x="131.65" y="619.96" width="76.43" height="76.43"/><rect x="1711.92" y="540.95" width="76.43" height="76.43"/><rect x="1790.94" y="619.96" width="76.43" height="76.43"/><rect x="1553.89" y="936.02" width="76.43" height="76.43"/><rect x="842.77" y="936.02" width="76.43" height="76.43"/><rect x="1632.91" y="936.02" width="76.43" height="76.43"/><rect x="1790.94" y="857" width="76.43" height="76.43"/><rect x="1790.94" y="936.02" width="76.43" height="76.43"/><rect x="131.65" y="145.88" width="76.43" height="76.43"/><rect x="1790.94" y="777.99" width="76.43" height="76.43"/><rect x="1790.94" y="698.98" width="76.43" height="76.43"/><rect x="1711.92" y="936.02" width="76.43" height="76.43"/><rect x="1000.8" y="936.02" width="76.43" height="76.43"/><rect x="1079.81" y="936.02" width="76.43" height="76.43"/><rect x="921.78" y="936.02" width="76.43" height="76.43"/><rect x="1158.83" y="936.02" width="76.43" height="76.43"/><rect x="1474.88" y="936.02" width="76.43" height="76.43"/><rect x="1395.87" y="936.02" width="76.43" height="76.43"/><rect x="1316.85" y="936.02" width="76.43" height="76.43"/><rect x="1237.84" y="936.02" width="76.43" height="76.43"/><rect x="1395.87" y="461.94" width="76.43" height="76.43"/><rect x="1000.8" y="461.94" width="76.43" height="76.43"/><rect x="921.78" y="461.94" width="76.43" height="76.43"/><rect x="842.77" y="461.94" width="76.43" height="76.43"/><rect x="763.76" y="461.94" width="76.43" height="76.43"/><rect x="210.66" y="145.88" width="76.43" height="76.43"/><rect x="1158.83" y="461.94" width="76.43" height="76.43"/><rect x="1316.85" y="461.94" width="76.43" height="76.43"/><rect x="1790.94" y="540.95" width="76.43" height="76.43"/><rect x="1237.84" y="461.94" width="76.43" height="76.43"/><rect x="605.73" y="461.94" width="76.43" height="76.43"/><rect x="1711.92" y="303.91" width="76.43" height="76.43"/><rect x="1711.92" y="224.89" width="76.43" height="76.43"/><rect x="1711.92" y="382.92" width="76.43" height="76.43"/><rect x="684.74" y="461.94" width="76.43" height="76.43"/><rect x="1711.92" y="461.94" width="76.43" height="76.43"/><rect x="447.7" y="461.94" width="76.43" height="76.43"/><rect x="1711.92" y="145.88" width="76.43" height="76.43"/><rect x="526.71" y="461.94" width="76.43" height="76.43"/><rect x="1079.81" y="461.94" width="76.43" height="76.43"/><rect x="763.76" y="145.88" width="76.43" height="76.43"/><rect x="605.73" y="145.88" width="76.43" height="76.43"/><rect x="921.78" y="145.88" width="76.43" height="76.43"/><rect x="842.77" y="145.88" width="76.43" height="76.43"/><rect x="684.74" y="145.88" width="76.43" height="76.43"/><rect x="368.69" y="145.88" width="76.43" height="76.43"/><rect x="526.71" y="145.88" width="76.43" height="76.43"/><rect x="289.67" y="145.88" width="76.43" height="76.43"/><rect x="447.7" y="145.88" width="76.43" height="76.43"/><rect x="1474.88" y="145.88" width="76.43" height="76.43"/><rect x="1395.87" y="145.88" width="76.43" height="76.43"/><rect x="1632.91" y="145.88" width="76.43" height="76.43"/><rect x="1553.89" y="145.88" width="76.43" height="76.43"/><rect x="1000.8" y="145.88" width="76.43" height="76.43"/><rect x="1316.85" y="145.88" width="76.43" height="76.43"/><rect x="1079.81" y="145.88" width="76.43" height="76.43"/><rect x="1158.83" y="145.88" width="76.43" height="76.43"/><rect x="1237.84" y="145.88" width="76.43" height="76.43"/><rect x="131.65" y="540.95" width="76.43" height="76.43"/><rect x="52.63" y="857" width="76.43" height="76.43"/><rect x="52.63" y="777.99" width="76.43" height="76.43"/><rect x="52.63" y="936.02" width="76.43" height="76.43"/><rect x="52.63" y="619.96" width="76.43" height="76.43"/><rect x="52.63" y="698.98" width="76.43" height="76.43"/><rect x="210.66" y="1015.03" width="76.43" height="76.43"/><rect x="210.66" y="66.87" width="76.43" height="76.43"/><rect x="52.63" y="1015.03" width="76.43" height="76.43"/><rect x="131.65" y="1015.03" width="76.43" height="76.43"/><rect x="52.63" y="382.92" width="76.43" height="76.43"/><rect x="52.63" y="145.88" width="76.43" height="76.43"/><rect x="52.63" y="66.87" width="76.43" height="76.43"/><rect x="52.63" y="540.95" width="76.43" height="76.43"/><rect x="131.65" y="66.87" width="76.43" height="76.43"/><rect x="52.63" y="224.89" width="76.43" height="76.43"/><rect x="52.63" y="303.91" width="76.43" height="76.43"/><rect x="52.63" y="461.94" width="76.43" height="76.43"/><rect x="368.69" y="1015.03" width="76.43" height="76.43"/><rect x="289.67" y="1015.03" width="76.43" height="76.43"/><rect x="1395.87" y="1015.03" width="76.43" height="76.43"/><rect x="1474.88" y="1015.03" width="76.43" height="76.43"/><rect x="1316.85" y="1015.03" width="76.43" height="76.43"/><rect x="1158.83" y="1015.03" width="76.43" height="76.43"/><rect x="1237.84" y="1015.03" width="76.43" height="76.43"/><rect x="447.7" y="1015.03" width="76.43" height="76.43"/><rect x="1711.92" y="1015.03" width="76.43" height="76.43"/><rect x="1632.91" y="1015.03" width="76.43" height="76.43"/><rect x="1553.89" y="1015.03" width="76.43" height="76.43"/><rect x="1790.94" y="1015.03" width="76.43" height="76.43"/><rect x="763.76" y="1015.03" width="76.43" height="76.43"/><rect x="605.73" y="1015.03" width="76.43" height="76.43"/><rect x="684.74" y="1015.03" width="76.43" height="76.43"/><rect x="526.71" y="1015.03" width="76.43" height="76.43"/><rect x="1790.94" y="461.94" width="76.43" height="76.43"/><rect x="1000.8" y="1015.03" width="76.43" height="76.43"/><rect x="842.77" y="1015.03" width="76.43" height="76.43"/><rect x="1079.81" y="1015.03" width="76.43" height="76.43"/><rect x="921.78" y="1015.03" width="76.43" height="76.43"/><rect x="921.78" y="540.95" width="76.43" height="76.43"/><rect x="842.77" y="540.95" width="76.43" height="76.43"/><rect x="763.76" y="540.95" width="76.43" height="76.43"/><rect x="1000.8" y="540.95" width="76.43" height="76.43"/><rect x="526.71" y="540.95" width="76.43" height="76.43"/><rect x="1079.81" y="540.95" width="76.43" height="76.43"/><rect x="684.74" y="540.95" width="76.43" height="76.43"/><rect x="1790.94" y="66.87" width="76.43" height="76.43"/><rect x="1711.92" y="66.87" width="76.43" height="76.43"/><rect x="605.73" y="540.95" width="76.43" height="76.43"/><rect x="1790.94" y="224.89" width="76.43" height="76.43"/><rect x="1790.94" y="303.91" width="76.43" height="76.43"/><rect x="1790.94" y="145.88" width="76.43" height="76.43"/><rect x="1158.83" y="540.95" width="76.43" height="76.43"/><rect x="1790.94" y="382.92" width="76.43" height="76.43"/><rect x="1237.84" y="540.95" width="76.43" height="76.43"/><rect x="1316.85" y="540.95" width="76.43" height="76.43"/><rect x="1395.87" y="540.95" width="76.43" height="76.43"/><rect x="1395.87" y="66.87" width="76.43" height="76.43"/><rect x="684.74" y="66.87" width="76.43" height="76.43"/><rect x="605.73" y="66.87" width="76.43" height="76.43"/><rect x="921.78" y="66.87" width="76.43" height="76.43"/><rect x="842.77" y="66.87" width="76.43" height="76.43"/><rect x="763.76" y="66.87" width="76.43" height="76.43"/><rect x="368.69" y="66.87" width="76.43" height="76.43"/><rect x="447.7" y="66.87" width="76.43" height="76.43"/><rect x="526.71" y="66.87" width="76.43" height="76.43"/><rect x="1316.85" y="66.87" width="76.43" height="76.43"/><rect x="1474.88" y="66.87" width="76.43" height="76.43"/><rect x="289.67" y="66.87" width="76.43" height="76.43"/><rect x="1000.8" y="66.87" width="76.43" height="76.43"/><rect x="1553.89" y="66.87" width="76.43" height="76.43"/><rect x="1632.91" y="66.87" width="76.43" height="76.43"/><rect x="1237.84" y="66.87" width="76.43" height="76.43"/><rect x="1079.81" y="66.87" width="76.43" height="76.43"/><rect x="1158.83" y="66.87" width="76.43" height="76.43"/><rect x="605.73" y="382.92" width="76.43" height="76.43"/><rect x="684.74" y="303.91" width="76.43" height="76.43"/><rect x="763.76" y="303.91" width="76.43" height="76.43"/><rect x="842.77" y="303.91" width="76.43" height="76.43"/><rect x="1000.8" y="303.91" width="76.43" height="76.43"/><rect x="921.78" y="303.91" width="76.43" height="76.43"/><rect x="368.69" y="303.91" width="76.43" height="76.43"/><rect x="447.7" y="303.91" width="76.43" height="76.43"/><rect x="605.73" y="303.91" width="76.43" height="76.43"/><rect x="526.71" y="303.91" width="76.43" height="76.43"/><rect x="289.67" y="303.91" width="76.43" height="76.43"/><rect x="1474.88" y="303.91" width="76.43" height="76.43"/><rect x="1553.89" y="303.91" width="76.43" height="76.43"/><rect x="1395.87" y="303.91" width="76.43" height="76.43"/><rect x="1553.89" y="382.92" width="76.43" height="76.43"/><rect x="1079.81" y="303.91" width="76.43" height="76.43"/><rect x="1158.83" y="303.91" width="76.43" height="76.43"/><rect x="1316.85" y="303.91" width="76.43" height="76.43"/><rect x="1237.84" y="303.91" width="76.43" height="76.43"/><rect x="447.7" y="777.99" width="76.43" height="76.43"/><rect x="1000.8" y="777.99" width="76.43" height="76.43"/><rect x="921.78" y="777.99" width="76.43" height="76.43"/><rect x="842.77" y="777.99" width="76.43" height="76.43"/><rect x="684.74" y="777.99" width="76.43" height="76.43"/><rect x="763.76" y="777.99" width="76.43" height="76.43"/><rect x="1237.84" y="777.99" width="76.43" height="76.43"/><rect x="1079.81" y="777.99" width="76.43" height="76.43"/><rect x="1316.85" y="777.99" width="76.43" height="76.43"/><rect x="1158.83" y="777.99" width="76.43" height="76.43"/><rect x="1553.89" y="461.94" width="76.43" height="76.43"/><rect x="289.67" y="619.96" width="76.43" height="76.43"/><rect x="289.67" y="777.99" width="76.43" height="76.43"/><rect x="289.67" y="540.95" width="76.43" height="76.43"/><rect x="1395.87" y="777.99" width="76.43" height="76.43"/><rect x="526.71" y="777.99" width="76.43" height="76.43"/><rect x="605.73" y="777.99" width="76.43" height="76.43"/><rect x="289.67" y="382.92" width="76.43" height="76.43"/><rect x="368.69" y="777.99" width="76.43" height="76.43"/><rect x="289.67" y="461.94" width="76.43" height="76.43"/><rect x="1869.95" y="1015.03" width="76.43" height="76.43"/><rect x="684.74" y="382.92" width="76.43" height="76.43"/><rect x="526.71" y="382.92" width="76.43" height="76.43"/><rect x="1553.89" y="540.95" width="76.43" height="76.43"/><rect x="763.76" y="382.92" width="76.43" height="76.43"/><rect x="447.7" y="382.92" width="76.43" height="76.43"/><rect x="368.69" y="461.94" width="76.43" height="76.43"/><rect x="368.69" y="540.95" width="76.43" height="76.43"/><rect x="368.69" y="382.92" width="76.43" height="76.43"/><rect x="1316.85" y="382.92" width="76.43" height="76.43"/><rect x="1237.84" y="382.92" width="76.43" height="76.43"/><rect x="1395.87" y="382.92" width="76.43" height="76.43"/><rect x="368.69" y="619.96" width="76.43" height="76.43"/><rect x="1474.88" y="382.92" width="76.43" height="76.43"/><rect x="921.78" y="382.92" width="76.43" height="76.43"/><rect x="1158.83" y="382.92" width="76.43" height="76.43"/><rect x="1000.8" y="382.92" width="76.43" height="76.43"/><rect x="1079.81" y="382.92" width="76.43" height="76.43"/><rect x="842.77" y="382.92" width="76.43" height="76.43"/><rect x="1316.85" y="698.98" width="76.43" height="76.43"/><rect x="1079.81" y="698.98" width="76.43" height="76.43"/><rect x="1711.92" y="619.96" width="76.43" height="76.43"/><rect x="1158.83" y="698.98" width="76.43" height="76.43"/><rect x="1395.87" y="698.98" width="76.43" height="76.43"/><rect x="1553.89" y="619.96" width="76.43" height="76.43"/><rect x="1474.88" y="698.98" width="76.43" height="76.43"/><rect x="368.69" y="698.98" width="76.43" height="76.43"/><rect x="1553.89" y="698.98" width="76.43" height="76.43"/><rect x="526.71" y="698.98" width="76.43" height="76.43"/><rect x="1000.8" y="698.98" width="76.43" height="76.43"/><rect x="605.73" y="698.98" width="76.43" height="76.43"/><rect x="447.7" y="698.98" width="76.43" height="76.43"/><rect x="684.74" y="698.98" width="76.43" height="76.43"/><rect x="763.76" y="698.98" width="76.43" height="76.43"/><rect x="921.78" y="698.98" width="76.43" height="76.43"/><rect x="842.77" y="698.98" width="76.43" height="76.43"/><rect x="1237.84" y="698.98" width="76.43" height="76.43"/><rect x="210.66" y="698.98" width="76.43" height="76.43"/><rect x="210.66" y="777.99" width="76.43" height="76.43"/><rect x="210.66" y="619.96" width="76.43" height="76.43"/><rect x="605.73" y="224.89" width="76.43" height="76.43"/><rect x="368.69" y="857" width="76.43" height="76.43"/><rect x="210.66" y="540.95" width="76.43" height="76.43"/><rect x="526.71" y="857" width="76.43" height="76.43"/><rect x="447.7" y="857" width="76.43" height="76.43"/><rect x="289.67" y="857" width="76.43" height="76.43"/><rect x="210.66" y="857" width="76.43" height="76.43"/><rect x="210.66" y="461.94" width="76.43" height="76.43"/><rect x="447.7" y="224.89" width="76.43" height="76.43"/><rect x="289.67" y="224.89" width="76.43" height="76.43"/><rect x="526.71" y="224.89" width="76.43" height="76.43"/><rect x="368.69" y="224.89" width="76.43" height="76.43"/><rect x="210.66" y="382.92" width="76.43" height="76.43"/><rect x="210.66" y="303.91" width="76.43" height="76.43"/><rect x="210.66" y="224.89" width="76.43" height="76.43"/><rect x="447.7" y="619.96" width="76.43" height="76.43"/><rect x="1553.89" y="857" width="76.43" height="76.43"/><rect x="1632.91" y="857" width="76.43" height="76.43"/><rect x="1474.88" y="857" width="76.43" height="76.43"/><rect x="1395.87" y="857" width="76.43" height="76.43"/><rect x="447.7" y="540.95" width="76.43" height="76.43"/><rect x="1711.92" y="698.98" width="76.43" height="76.43"/><rect x="1316.85" y="857" width="76.43" height="76.43"/><rect x="1711.92" y="857" width="76.43" height="76.43"/><rect x="1711.92" y="777.99" width="76.43" height="76.43"/><rect x="763.76" y="857" width="76.43" height="76.43"/><rect x="605.73" y="857" width="76.43" height="76.43"/><rect x="842.77" y="857" width="76.43" height="76.43"/><rect x="684.74" y="857" width="76.43" height="76.43"/><rect x="921.78" y="857" width="76.43" height="76.43"/><rect x="1237.84" y="857" width="76.43" height="76.43"/><rect x="1000.8" y="857" width="76.43" height="76.43"/><rect x="1158.83" y="857" width="76.43" height="76.43"/><rect x="1079.81" y="857" width="76.43" height="76.43"/><rect x="1553.89" y="224.89" width="76.43" height="76.43"/><rect x="1395.87" y="619.96" width="76.43" height="76.43"/><rect x="1316.85" y="619.96" width="76.43" height="76.43"/><rect x="1474.88" y="619.96" width="76.43" height="76.43"/><rect x="1474.88" y="540.95" width="76.43" height="76.43"/><rect x="1474.88" y="461.94" width="76.43" height="76.43"/><rect x="684.74" y="224.89" width="76.43" height="76.43"/><rect x="1079.81" y="619.96" width="76.43" height="76.43"/><rect x="1237.84" y="619.96" width="76.43" height="76.43"/><rect x="1158.83" y="619.96" width="76.43" height="76.43"/><rect x="1632.91" y="540.95" width="76.43" height="76.43"/><rect x="1632.91" y="698.98" width="76.43" height="76.43"/><rect x="1632.91" y="777.99" width="76.43" height="76.43"/><rect x="1553.89" y="777.99" width="76.43" height="76.43"/><rect x="1632.91" y="619.96" width="76.43" height="76.43"/><rect x="921.78" y="619.96" width="76.43" height="76.43"/><rect x="1632.91" y="303.91" width="76.43" height="76.43"/><rect x="1632.91" y="382.92" width="76.43" height="76.43"/><rect x="1632.91" y="461.94" width="76.43" height="76.43"/><rect x="1000.8" y="619.96" width="76.43" height="76.43"/><rect x="1158.83" y="224.89" width="76.43" height="76.43"/><rect x="1079.81" y="224.89" width="76.43" height="76.43"/><rect x="1316.85" y="224.89" width="76.43" height="76.43"/><rect x="1237.84" y="224.89" width="76.43" height="76.43"/><rect x="1000.8" y="224.89" width="76.43" height="76.43"/><rect x="763.76" y="224.89" width="76.43" height="76.43"/><rect x="842.77" y="224.89" width="76.43" height="76.43"/><rect x="921.78" y="224.89" width="76.43" height="76.43"/><rect x="842.77" y="619.96" width="76.43" height="76.43"/><rect x="526.71" y="619.96" width="76.43" height="76.43"/><rect x="1395.87" y="224.89" width="76.43" height="76.43"/><rect x="684.74" y="619.96" width="76.43" height="76.43"/><rect x="763.76" y="619.96" width="76.43" height="76.43"/><rect x="605.73" y="619.96" width="76.43" height="76.43"/><rect x="1474.88" y="224.89" width="76.43" height="76.43"/><rect x="1474.88" y="777.99" width="76.43" height="76.43"/><rect x="1632.91" y="224.89" width="76.43" height="76.43"/><rect x="289.67" y="698.98" width="76.43" height="76.43"/><rect x="210.66" y="-16.16" width="76.43" height="80.44"/><rect x="131.65" y="-16.16" width="76.43" height="80.44"/><rect x="289.67" y="-16.16" width="76.43" height="80.44"/><rect x="52.63" y="-16.16" width="76.43" height="80.44"/><rect x="526.71" y="-16.16" width="76.43" height="80.44"/><rect x="-32.66" y="-16.16" width="82.71" height="80.44"/><rect x="605.73" y="-16.16" width="76.43" height="80.44"/><rect x="447.7" y="-16.16" width="76.43" height="80.44"/><rect x="1869.95" y="-16.16" width="76.43" height="80.44"/><rect x="-32.66" y="461.94" width="82.71" height="76.43"/><rect x="-32.66" y="382.92" width="82.71" height="76.43"/><rect x="-32.66" y="540.95" width="82.71" height="76.43"/><rect x="-32.66" y="66.87" width="82.71" height="76.43"/><rect x="-32.66" y="145.88" width="82.71" height="76.43"/><rect x="-32.66" y="303.91" width="82.71" height="76.43"/><rect x="-32.66" y="224.89" width="82.71" height="76.43"/><rect x="1079.81" y="-16.16" width="76.43" height="80.44"/><rect x="1553.89" y="-16.16" width="76.43" height="80.44"/><rect x="1316.85" y="-16.16" width="76.43" height="80.44"/><rect x="1395.87" y="-16.16" width="76.43" height="80.44"/><rect x="1474.88" y="-16.16" width="76.43" height="80.44"/><rect x="1790.94" y="-16.16" width="76.43" height="80.44"/><rect x="1632.91" y="-16.16" width="76.43" height="80.44"/><rect x="1711.92" y="-16.16" width="76.43" height="80.44"/><rect x="1000.8" y="-16.16" width="76.43" height="80.44"/><rect x="1237.84" y="-16.16" width="76.43" height="80.44"/><rect x="921.78" y="-16.16" width="76.43" height="80.44"/><rect x="763.76" y="-16.16" width="76.43" height="80.44"/><rect x="842.77" y="-16.16" width="76.43" height="80.44"/><rect x="1158.83" y="-16.16" width="76.43" height="80.44"/><rect x="-32.66" y="619.96" width="82.71" height="76.43"/><rect x="684.74" y="-16.16" width="76.43" height="80.44"/><rect x="368.69" y="-16.16" width="76.43" height="80.44"/><rect x="-32.66" y="698.98" width="82.71" height="76.43"/><rect x="-32.66" y="936.02" width="82.71" height="76.43"/><rect x="-32.66" y="777.99" width="82.71" height="76.43"/><rect x="-32.66" y="857" width="82.71" height="76.43"/><rect x="1869.95" y="936.02" width="76.43" height="76.43"/><rect x="1869.95" y="619.96" width="76.43" height="76.43"/><rect x="1869.95" y="698.98" width="76.43" height="76.43"/><rect x="1869.95" y="540.95" width="76.43" height="76.43"/><rect x="1869.95" y="461.94" width="76.43" height="76.43"/><rect x="1869.95" y="857" width="76.43" height="76.43"/><rect x="1869.95" y="224.89" width="76.43" height="76.43"/><rect x="1869.95" y="777.99" width="76.43" height="76.43"/><rect x="1869.95" y="145.88" width="76.43" height="76.43"/><rect x="1869.95" y="66.87" width="76.43" height="76.43"/><rect x="1869.95" y="303.91" width="76.43" height="76.43"/><rect x="1869.95" y="382.92" width="76.43" height="76.43"/><polygon class="cls-2" points="1100.14 539.96 1100.14 680.14 819.88 680.14 819.88 605.99 960.04 605.99 960.04 539.96 1100.14 539.96"/><polygon class="cls-2" points="1100.14 399.86 1100.14 474.01 960.04 474.01 960.04 539.96 819.86 539.96 819.86 399.86 1100.14 399.86"/></svg>