<svg id="Layer_1" data-name="Layer 1" xmlns="http://www.w3.org/2000/svg" xmlns:xlink="http://www.w3.org/1999/xlink" viewBox="0 0 1920 1080"><defs><style>.cls-1{fill:none;}.cls-2{fill:#fff;}.cls-3{clip-path:url(#clip-path);}.cls-4{opacity:0.2;}.cls-5{fill:#447ef7;}.cls-6{font-size:7.83px;font-family:ApfelGrotezk-Regular, Apfel Grotezk;}.cls-7{letter-spacing:-0.02em;}.cls-8{letter-spacing:0.01em;}.cls-9{letter-spacing:-0.01em;}.cls-10{letter-spacing:0em;}.cls-11{letter-spacing:-0.01em;}.cls-12{letter-spacing:-0.01em;}.cls-13{fill:#e65a3a;}.cls-14{fill:#c7e2fc;}.cls-15{fill:#fbd2bc;}.cls-16{fill:#934df7;}.cls-17{fill:#e96089;}.cls-18{fill:#e1c4fb;}.cls-19{fill:#f7d0dd;}.cls-20{fill:#51a652;}.cls-21{fill:#bde2aa;}.cls-22{fill:#fac144;}.cls-23{fill:#f9edb6;}</style><clipPath id="clip-path"><rect class="cls-1" x="-10.81" y="-9.67" width="1941.61" height="1099.35"/></clipPath></defs><rect class="cls-2" x="-10.81" y="-9.67" width="1941.61" height="1099.35"/><g class="cls-3"><g class="cls-4"><rect class="cls-5" x="1444.55" y="275.7" width="303.46" height="121.14" rx="8.2"/><text class="cls-6" transform="translate(1459.26 372.77)">A<tspan class="cls-7" x="4.76" y="0">D</tspan><tspan x="9.77" y="0">A COMPLIANT (</tspan><tspan class="cls-8" x="61.4" y="0">L</tspan><tspan x="65.37" y="0">A</tspan><tspan class="cls-9" x="70.13" y="0">R</tspan><tspan class="cls-10" x="74.8" y="0">GE TE</tspan><tspan class="cls-11" x="94.91" y="0">X</tspan><tspan x="99.52" y="0">T): Y</tspan><tspan x="0" y="9.4">A</tspan><tspan class="cls-7" x="4.76" y="9.4">D</tspan><tspan x="9.77" y="9.4">A COMPIANT (NORMAL TE</tspan><tspan class="cls-12" x="98.23" y="9.4">X</tspan><tspan x="102.84" y="9.4">T): Y</tspan></text><rect class="cls-13" x="1762.7" y="275.7" width="303.46" height="121.14" rx="8.2"/><text class="cls-6" transform="translate(1777.4 372.77)">A<tspan class="cls-7" x="4.76" y="0">D</tspan><tspan x="9.77" y="0">A COMPLIANT (</tspan><tspan class="cls-8" x="61.4" y="0">L</tspan><tspan x="65.37" y="0">A</tspan><tspan class="cls-9" x="70.13" y="0">R</tspan><tspan class="cls-10" x="74.8" y="0">GE TE</tspan><tspan class="cls-11" x="94.91" y="0">X</tspan><tspan x="99.52" y="0">T): Y</tspan><tspan x="0" y="9.4">A</tspan><tspan class="cls-7" x="4.76" y="9.4">D</tspan><tspan x="9.77" y="9.4">A COMPIANT (NORMAL TE</tspan><tspan class="cls-12" x="98.23" y="9.4">X</tspan><tspan x="102.84" y="9.4">T): Y</tspan></text><rect class="cls-14" x="1444.55" y="411.52" width="303.46" height="121.14" rx="8.2"/><text class="cls-6" transform="translate(1459.26 508.59)">A<tspan class="cls-7" x="4.76" y="0">D</tspan><tspan x="9.77" y="0">A COMPLIANT (</tspan><tspan class="cls-8" x="61.4" y="0">L</tspan><tspan x="65.37" y="0">A</tspan><tspan class="cls-9" x="70.13" y="0">R</tspan><tspan class="cls-10" x="74.8" y="0">GE TE</tspan><tspan class="cls-11" x="94.91" y="0">X</tspan><tspan x="99.52" y="0">T): Y</tspan><tspan x="0" y="9.4">A</tspan><tspan class="cls-7" x="4.76" y="9.4">D</tspan><tspan x="9.77" y="9.4">A COMPIANT (NORMAL TE</tspan><tspan class="cls-12" x="98.23" y="9.4">X</tspan><tspan x="102.84" y="9.4">T): Y</tspan></text><rect class="cls-15" x="1762.7" y="411.52" width="303.46" height="121.14" rx="8.2"/><text class="cls-6" transform="translate(1777.4 508.59)">A<tspan class="cls-7" x="4.76" y="0">D</tspan><tspan x="9.77" y="0">A COMPLIANT (</tspan><tspan class="cls-8" x="61.4" y="0">L</tspan><tspan x="65.37" y="0">A</tspan><tspan class="cls-9" x="70.13" y="0">R</tspan><tspan class="cls-10" x="74.8" y="0">GE TE</tspan><tspan class="cls-11" x="94.91" y="0">X</tspan><tspan x="99.52" y="0">T): Y</tspan><tspan x="0" y="9.4">A</tspan><tspan class="cls-7" x="4.76" y="9.4">D</tspan><tspan x="9.77" y="9.4">A COMPIANT (NORMAL TE</tspan><tspan class="cls-12" x="98.23" y="9.4">X</tspan><tspan x="102.84" y="9.4">T): Y</tspan></text><rect class="cls-16" x="1444.55" y="547.34" width="303.46" height="121.14" rx="8.2"/><text class="cls-6" transform="translate(1459.26 644.41)">A<tspan class="cls-7" x="4.76" y="0">D</tspan><tspan x="9.77" y="0">A COMPLIANT (</tspan><tspan class="cls-8" x="61.4" y="0">L</tspan><tspan x="65.37" y="0">A</tspan><tspan class="cls-9" x="70.13" y="0">R</tspan><tspan class="cls-10" x="74.8" y="0">GE TE</tspan><tspan class="cls-11" x="94.91" y="0">X</tspan><tspan x="99.52" y="0">T): Y</tspan><tspan x="0" y="9.4">A</tspan><tspan class="cls-7" x="4.76" y="9.4">D</tspan><tspan x="9.77" y="9.4">A COMPIANT (NORMAL TE</tspan><tspan class="cls-12" x="98.23" y="9.4">X</tspan><tspan x="102.84" y="9.4">T): Y</tspan></text><rect class="cls-17" x="1762.7" y="547.34" width="303.46" height="121.14" rx="8.2"/><text class="cls-6" transform="translate(1777.4 644.41)">A<tspan class="cls-7" x="4.76" y="0">D</tspan><tspan x="9.77" y="0">A COMPLIANT (</tspan><tspan class="cls-8" x="61.4" y="0">L</tspan><tspan x="65.37" y="0">A</tspan><tspan class="cls-9" x="70.13" y="0">R</tspan><tspan class="cls-10" x="74.8" y="0">GE TE</tspan><tspan class="cls-11" x="94.91" y="0">X</tspan><tspan x="99.52" y="0">T): Y</tspan><tspan x="0" y="9.4">A</tspan><tspan class="cls-7" x="4.76" y="9.4">D</tspan><tspan x="9.77" y="9.4">A COMPIANT (NORMAL TE</tspan><tspan class="cls-12" x="98.23" y="9.4">X</tspan><tspan x="102.84" y="9.4">T): Y</tspan></text><rect class="cls-18" x="1444.55" y="683.16" width="303.46" height="121.14" rx="8.2"/><text class="cls-6" transform="translate(1459.26 780.23)">A<tspan class="cls-7" x="4.76" y="0">D</tspan><tspan x="9.77" y="0">A COMPLIANT (</tspan><tspan class="cls-8" x="61.4" y="0">L</tspan><tspan x="65.37" y="0">A</tspan><tspan class="cls-9" x="70.13" y="0">R</tspan><tspan class="cls-10" x="74.8" y="0">GE TE</tspan><tspan class="cls-11" x="94.91" y="0">X</tspan><tspan x="99.52" y="0">T): Y</tspan><tspan x="0" y="9.4">A</tspan><tspan class="cls-7" x="4.76" y="9.4">D</tspan><tspan x="9.77" y="9.4">A COMPIANT (NORMAL TE</tspan><tspan class="cls-12" x="98.23" y="9.4">X</tspan><tspan x="102.84" y="9.4">T): Y</tspan></text><rect class="cls-19" x="1762.7" y="683.16" width="303.46" height="121.14" rx="8.2"/><text class="cls-6" transform="translate(1777.4 780.23)">A<tspan class="cls-7" x="4.76" y="0">D</tspan><tspan x="9.77" y="0">A COMPLIANT (</tspan><tspan class="cls-8" x="61.4" y="0">L</tspan><tspan x="65.37" y="0">A</tspan><tspan class="cls-9" x="70.13" y="0">R</tspan><tspan class="cls-10" x="74.8" y="0">GE TE</tspan><tspan class="cls-11" x="94.91" y="0">X</tspan><tspan x="99.52" y="0">T): Y</tspan><tspan x="0" y="9.4">A</tspan><tspan class="cls-7" x="4.76" y="9.4">D</tspan><tspan x="9.77" y="9.4">A COMPIANT (NORMAL TE</tspan><tspan class="cls-12" x="98.23" y="9.4">X</tspan><tspan x="102.84" y="9.4">T): Y</tspan></text><rect x="1472.04" y="302.96" width="12.77" height="12.78"/><rect x="1459.26" y="290.19" width="12.78" height="12.78"/><rect x="1472.04" y="290.19" width="12.77" height="6.76"/><rect x="1459.26" y="308.98" width="12.77" height="6.76"/><path d="M1495,308c0,3.16,2.62,5.43,6.19,5.43,2.82,0,4.88-1.58,4.88-3.92a3.79,3.79,0,0,0-3.23-3.37l-4.19-1c-3.44-.79-5.78-3-5.78-5.85,0-3.71,3.1-6.33,7.57-6.33,4.19,0,7.56,2.48,8,5.92l-3.09.82c-.14-2.47-2.27-4.12-5-4.12s-4.47,1.37-4.47,3.44c0,1.78,1.44,3,3.64,3.43l4.33,1c3.17.69,5.3,2.95,5.3,5.84,0,4.06-3.23,6.88-8,6.88-5.15,0-9.07-3.1-9.35-7.5Z"/><path d="M1510.85,307.14c0-5.23,3.57-9,8.59-9s8.6,3.78,8.6,9-3.58,9-8.6,9S1510.85,312.37,1510.85,307.14Zm14.34,0c0-3.61-2.45-6.36-5.75-6.36s-5.74,2.75-5.74,6.36,2.44,6.29,5.74,6.29S1525.19,310.72,1525.19,307.14Z"/><path d="M1534.78,297.44v1.21h4.12v2.61h-4.12v14.48H1532V301.3h-2.82v-2.76H1532v-1.1c0-3.09,1.92-5.36,4.61-5.36a5,5,0,0,1,2.95.83l-.69,2.75a2.47,2.47,0,0,0-1.92-.76C1535.6,294.9,1534.78,295.93,1534.78,297.44Z"/><path d="M1538.9,298.65h1.59c1.16,0,1.85-.86,1.85-2.24v-2.34H1545v4.47h3.85v2.69H1545v10a2.08,2.08,0,0,0,2.33,2.13,6.27,6.27,0,0,0,1.79-.21l.07,2.62a6.31,6.31,0,0,1-2.48.41,4.28,4.28,0,0,1-4.47-4.54V301.26h-3.3Z"/><path d="M1550,307.14c0-5.23,3.58-9,8.6-9s8.6,3.78,8.6,9-3.58,9-8.6,9S1550,312.37,1550,307.14Zm14.34,0c0-3.61-2.44-6.36-5.74-6.36s-5.74,2.75-5.74,6.36,2.44,6.29,5.74,6.29S1564.38,310.72,1564.38,307.14Z"/><path d="M1586.7,307c0,5.23-3.51,9-8.19,9a7,7,0,0,1-6-3.33v9.93h-2.75V298.54h2.34l.24,3.07a7,7,0,0,1,6.08-3.48C1583.19,298.13,1586.7,301.91,1586.7,307Zm-2.86.07c0-3.64-2.3-6.29-5.6-6.29s-5.78,2.65-5.78,6.29,2.41,6.26,5.71,6.26S1583.84,310.72,1583.84,307.07Z"/><path d="M1587.59,298.65h1.1c1.17,0,1.86-.86,1.86-2.24v-2.34h2.61v4.47H1597v2.69h-3.85v10a2.08,2.08,0,0,0,2.34,2.13,6.31,6.31,0,0,0,1.79-.21l.06,2.62a6.22,6.22,0,0,1-2.47.41,4.28,4.28,0,0,1-4.47-4.54V301.26h-2.82Z"/><path d="M1606.64,316.15c-4.82,0-8.39-3.78-8.39-9s3.51-9,8.25-9,7.94,3.72,7.94,8.87c0,.38,0,.83,0,1.21h-13.14c.21,3.09,2.34,5.29,5.23,5.29,2.48,0,4.4-1.48,4.68-3.68l3,1.1C1613.45,314,1610.21,316.15,1606.64,316.15Zm5-10.59a5.06,5.06,0,0,0-5.15-4.85,5.18,5.18,0,0,0-5.23,4.85Z"/><path d="M1624.55,316.15c-5,0-8.53-3.78-8.53-9s3.61-9,8.46-9a7.48,7.48,0,0,1,7.57,6.05l-3,1a4.75,4.75,0,0,0-4.68-4.44c-3.16,0-5.5,2.68-5.5,6.33s2.34,6.32,5.64,6.32a4.89,4.89,0,0,0,4.81-4.57l3,1A7.85,7.85,0,0,1,1624.55,316.15Z"/><path d="M1649.58,305.28v10.46h-2.75V305.42a4.22,4.22,0,0,0-4.19-4.54,5.28,5.28,0,0,0-5.37,5.5v9.36h-2.75V292.36h2.75v8.76a6.15,6.15,0,0,1,5.64-3C1646.76,298.13,1649.58,301.16,1649.58,305.28Z"/><rect x="1790.1" y="302.96" width="12.77" height="12.78"/><rect x="1777.32" y="290.19" width="12.78" height="12.78"/><rect x="1790.1" y="290.19" width="12.77" height="6.76"/><rect x="1777.32" y="308.98" width="12.77" height="6.76"/><path d="M1813.1,308c0,3.16,2.61,5.43,6.19,5.43,2.82,0,4.88-1.58,4.88-3.92a3.8,3.8,0,0,0-3.23-3.37l-4.2-1c-3.44-.79-5.78-3-5.78-5.85,0-3.71,3.1-6.33,7.57-6.33,4.19,0,7.56,2.48,8,5.92l-3.1.82c-.14-2.47-2.27-4.12-5-4.12s-4.47,1.37-4.47,3.44c0,1.78,1.45,3,3.65,3.43l4.33,1c3.16.69,5.29,2.95,5.29,5.84,0,4.06-3.23,6.88-8,6.88-5.16,0-9.08-3.1-9.36-7.5Z"/><path d="M1828.91,307.14c0-5.23,3.58-9,8.6-9s8.59,3.78,8.59,9-3.57,9-8.59,9S1828.91,312.37,1828.91,307.14Zm14.34,0c0-3.61-2.44-6.36-5.74-6.36s-5.74,2.75-5.74,6.36,2.44,6.29,5.74,6.29S1843.25,310.72,1843.25,307.14Z"/><path d="M1852.84,297.44v1.21H1857v2.61h-4.13v14.48h-2.75V301.3h-2.82v-2.76h2.82v-1.1c0-3.09,1.93-5.36,4.61-5.36a5,5,0,0,1,3,.83l-.69,2.75a2.48,2.48,0,0,0-1.93-.76C1853.67,294.9,1852.84,295.93,1852.84,297.44Z"/><path d="M1857,298.65h1.58c1.17,0,1.86-.86,1.86-2.24v-2.34H1863v4.47h3.85v2.69H1863v10a2.08,2.08,0,0,0,2.34,2.13,6.31,6.31,0,0,0,1.79-.21l.06,2.62a6.22,6.22,0,0,1-2.47.41,4.28,4.28,0,0,1-4.47-4.54V301.26H1857Z"/><path d="M1868.11,307.14c0-5.23,3.57-9,8.59-9s8.6,3.78,8.6,9-3.58,9-8.6,9S1868.11,312.37,1868.11,307.14Zm14.34,0c0-3.61-2.45-6.36-5.75-6.36s-5.74,2.75-5.74,6.36,2.44,6.29,5.74,6.29S1882.45,310.72,1882.45,307.14Z"/><path d="M1904.76,307c0,5.23-3.51,9-8.18,9a7.07,7.07,0,0,1-6-3.33v9.93h-2.75V298.54h2.34l.24,3.07a7,7,0,0,1,6.09-3.48C1901.25,298.13,1904.76,301.91,1904.76,307Zm-2.85.07c0-3.64-2.31-6.29-5.61-6.29s-5.77,2.65-5.77,6.29,2.4,6.26,5.7,6.26S1901.91,310.72,1901.91,307.07Z"/><path d="M1905.65,298.65h1.1c1.17,0,1.86-.86,1.86-2.24v-2.34h2.61v4.47h3.85v2.69h-3.85v10a2.09,2.09,0,0,0,2.34,2.13,6.27,6.27,0,0,0,1.79-.21l.07,2.62a6.31,6.31,0,0,1-2.48.41,4.28,4.28,0,0,1-4.47-4.54V301.26h-2.82Z"/><path d="M1924.7,316.15c-4.81,0-8.39-3.78-8.39-9s3.51-9,8.25-9,8,3.72,8,8.87c0,.38,0,.83,0,1.21h-13.13c.2,3.09,2.34,5.29,5.22,5.29,2.48,0,4.41-1.48,4.68-3.68l3,1.1C1931.51,314,1928.28,316.15,1924.7,316.15Zm5-10.59a5.07,5.07,0,0,0-5.16-4.85,5.18,5.18,0,0,0-5.23,4.85Z"/><rect x="1472.04" y="439.08" width="12.77" height="12.78"/><rect x="1459.26" y="426.3" width="12.78" height="12.78"/><rect x="1472.04" y="426.3" width="12.77" height="6.76"/><rect x="1459.26" y="445.1" width="12.77" height="6.76"/><path d="M1495,444.08c0,3.17,2.62,5.43,6.19,5.43,2.82,0,4.88-1.58,4.88-3.91a3.77,3.77,0,0,0-3.23-3.37l-4.19-1c-3.44-.79-5.78-2.95-5.78-5.84,0-3.72,3.1-6.33,7.57-6.33,4.19,0,7.56,2.48,8,5.92l-3.09.82c-.14-2.47-2.27-4.13-5-4.13s-4.47,1.38-4.47,3.44c0,1.79,1.44,3,3.64,3.44l4.33,1c3.17.69,5.3,3,5.3,5.85,0,4.06-3.23,6.88-8,6.88-5.15,0-9.07-3.1-9.35-7.5Z"/><path d="M1510.85,443.26c0-5.23,3.57-9,8.59-9s8.6,3.78,8.6,9-3.58,9-8.6,9S1510.85,448.48,1510.85,443.26Zm14.34,0c0-3.61-2.45-6.36-5.75-6.36s-5.74,2.75-5.74,6.36,2.44,6.29,5.74,6.29S1525.19,446.83,1525.19,443.26Z"/><path d="M1534.78,433.56v1.2h4.12v2.62h-4.12v14.47H1532V437.41h-2.82v-2.75H1532v-1.1c0-3.09,1.92-5.36,4.61-5.36a5,5,0,0,1,2.95.82l-.69,2.75A2.5,2.5,0,0,0,1537,431C1535.6,431,1534.78,432.05,1534.78,433.56Z"/><path d="M1538.9,434.76h1.59c1.16,0,1.85-.85,1.85-2.23v-2.34H1545v4.47h3.85v2.68H1545v10a2.08,2.08,0,0,0,2.33,2.14,6.27,6.27,0,0,0,1.79-.21l.07,2.61a6.12,6.12,0,0,1-2.48.42,4.28,4.28,0,0,1-4.47-4.54V437.38h-3.3Z"/><path d="M1550,443.26c0-5.23,3.58-9,8.6-9s8.6,3.78,8.6,9-3.58,9-8.6,9S1550,448.48,1550,443.26Zm14.34,0c0-3.61-2.44-6.36-5.74-6.36s-5.74,2.75-5.74,6.36,2.44,6.29,5.74,6.29S1564.38,446.83,1564.38,443.26Z"/><path d="M1586.7,443.12c0,5.23-3.51,9-8.19,9a7,7,0,0,1-6-3.34v9.94h-2.75V434.66h2.34l.24,3.06a7,7,0,0,1,6.08-3.47C1583.19,434.25,1586.7,438,1586.7,443.12Zm-2.86.07c0-3.65-2.3-6.29-5.6-6.29s-5.78,2.64-5.78,6.29,2.41,6.26,5.71,6.26S1583.84,446.83,1583.84,443.19Z"/><path d="M1587.59,434.76h1.1c1.17,0,1.86-.85,1.86-2.23v-2.34h2.61v4.47H1597v2.68h-3.85v10a2.08,2.08,0,0,0,2.34,2.14,6.31,6.31,0,0,0,1.79-.21l.06,2.61a6,6,0,0,1-2.47.42,4.28,4.28,0,0,1-4.47-4.54V437.38h-2.82Z"/><path d="M1606.64,452.27c-4.82,0-8.39-3.79-8.39-9s3.51-9,8.25-9,7.94,3.71,7.94,8.87c0,.38,0,.82,0,1.2h-13.14c.21,3.1,2.34,5.3,5.23,5.3,2.48,0,4.4-1.48,4.68-3.68l3,1.1C1613.45,450.06,1610.21,452.27,1606.64,452.27Zm5-10.59a5.06,5.06,0,0,0-5.15-4.85,5.18,5.18,0,0,0-5.23,4.85Z"/><path d="M1624.55,452.27c-5,0-8.53-3.79-8.53-9s3.61-9,8.46-9a7.47,7.47,0,0,1,7.57,6.05l-3,1a4.75,4.75,0,0,0-4.68-4.43c-3.16,0-5.5,2.68-5.5,6.32s2.34,6.33,5.64,6.33a4.89,4.89,0,0,0,4.81-4.57l3,1A7.86,7.86,0,0,1,1624.55,452.27Z"/><path d="M1649.58,441.4v10.45h-2.75V441.54a4.22,4.22,0,0,0-4.19-4.54,5.28,5.28,0,0,0-5.37,5.5v9.35h-2.75V428.47h2.75v8.77a6.13,6.13,0,0,1,5.64-3C1646.76,434.25,1649.58,437.27,1649.58,441.4Z"/><rect x="1790.1" y="439.08" width="12.77" height="12.78"/><rect x="1777.32" y="426.3" width="12.78" height="12.78"/><rect x="1790.1" y="426.3" width="12.77" height="6.76"/><rect x="1777.32" y="445.1" width="12.77" height="6.76"/><path d="M1813.1,444.08c0,3.17,2.61,5.43,6.19,5.43,2.82,0,4.88-1.58,4.88-3.91a3.78,3.78,0,0,0-3.23-3.37l-4.2-1c-3.44-.79-5.78-2.95-5.78-5.84,0-3.72,3.1-6.33,7.57-6.33,4.19,0,7.56,2.48,8,5.92l-3.1.82c-.14-2.47-2.27-4.13-5-4.13s-4.47,1.38-4.47,3.44c0,1.79,1.45,3,3.65,3.44l4.33,1c3.16.69,5.29,3,5.29,5.85,0,4.06-3.23,6.88-8,6.88-5.16,0-9.08-3.1-9.36-7.5Z"/><path d="M1828.91,443.26c0-5.23,3.58-9,8.6-9s8.59,3.78,8.59,9-3.57,9-8.59,9S1828.91,448.48,1828.91,443.26Zm14.34,0c0-3.61-2.44-6.36-5.74-6.36s-5.74,2.75-5.74,6.36,2.44,6.29,5.74,6.29S1843.25,446.83,1843.25,443.26Z"/><path d="M1852.84,433.56v1.2H1857v2.62h-4.13v14.47h-2.75V437.41h-2.82v-2.75h2.82v-1.1c0-3.09,1.93-5.36,4.61-5.36a5,5,0,0,1,3,.82l-.69,2.75A2.51,2.51,0,0,0,1855,431C1853.67,431,1852.84,432.05,1852.84,433.56Z"/><path d="M1857,434.76h1.58c1.17,0,1.86-.85,1.86-2.23v-2.34H1863v4.47h3.85v2.68H1863v10a2.08,2.08,0,0,0,2.34,2.14,6.31,6.31,0,0,0,1.79-.21l.06,2.61a6,6,0,0,1-2.47.42,4.28,4.28,0,0,1-4.47-4.54V437.38H1857Z"/><path d="M1868.11,443.26c0-5.23,3.57-9,8.59-9s8.6,3.78,8.6,9-3.58,9-8.6,9S1868.11,448.48,1868.11,443.26Zm14.34,0c0-3.61-2.45-6.36-5.75-6.36s-5.74,2.75-5.74,6.36,2.44,6.29,5.74,6.29S1882.45,446.83,1882.45,443.26Z"/><path d="M1904.76,443.12c0,5.23-3.51,9-8.18,9a7.05,7.05,0,0,1-6-3.34v9.94h-2.75V434.66h2.34l.24,3.06a7,7,0,0,1,6.09-3.47C1901.25,434.25,1904.76,438,1904.76,443.12Zm-2.85.07c0-3.65-2.31-6.29-5.61-6.29s-5.77,2.64-5.77,6.29,2.4,6.26,5.7,6.26S1901.91,446.83,1901.91,443.19Z"/><path d="M1905.65,434.76h1.1c1.17,0,1.86-.85,1.86-2.23v-2.34h2.61v4.47h3.85v2.68h-3.85v10a2.09,2.09,0,0,0,2.34,2.14,6.27,6.27,0,0,0,1.79-.21l.07,2.61a6.12,6.12,0,0,1-2.48.42,4.28,4.28,0,0,1-4.47-4.54V437.38h-2.82Z"/><path d="M1924.7,452.27c-4.81,0-8.39-3.79-8.39-9s3.51-9,8.25-9,8,3.71,8,8.87c0,.38,0,.82,0,1.2h-13.13c.2,3.1,2.34,5.3,5.22,5.3,2.48,0,4.41-1.48,4.68-3.68l3,1.1C1931.51,450.06,1928.28,452.27,1924.7,452.27Zm5-10.59a5.07,5.07,0,0,0-5.16-4.85,5.18,5.18,0,0,0-5.23,4.85Z"/><rect x="1472.04" y="574.79" width="12.77" height="12.78"/><rect x="1459.26" y="562.02" width="12.78" height="12.78"/><rect x="1472.04" y="562.02" width="12.77" height="6.76"/><rect x="1459.26" y="580.81" width="12.77" height="6.76"/><path d="M1495,579.8c0,3.16,2.62,5.43,6.19,5.43,2.82,0,4.88-1.58,4.88-3.92a3.79,3.79,0,0,0-3.23-3.37l-4.19-1c-3.44-.79-5.78-3-5.78-5.85,0-3.71,3.1-6.33,7.57-6.33,4.19,0,7.56,2.48,8,5.92l-3.09.82c-.14-2.47-2.27-4.12-5-4.12s-4.47,1.37-4.47,3.44c0,1.78,1.44,2.95,3.64,3.44l4.33,1c3.17.69,5.3,3,5.3,5.84,0,4.06-3.23,6.88-8,6.88-5.15,0-9.07-3.1-9.35-7.5Z"/><path d="M1510.85,579c0-5.23,3.57-9,8.59-9s8.6,3.78,8.6,9-3.58,9-8.6,9S1510.85,584.2,1510.85,579Zm14.34,0c0-3.61-2.45-6.36-5.75-6.36s-5.74,2.75-5.74,6.36,2.44,6.29,5.74,6.29S1525.19,582.55,1525.19,579Z"/><path d="M1534.78,569.27v1.21h4.12v2.61h-4.12v14.48H1532V573.13h-2.82v-2.76H1532v-1.1c0-3.09,1.92-5.36,4.61-5.36a5,5,0,0,1,2.95.83l-.69,2.75a2.47,2.47,0,0,0-1.92-.76C1535.6,566.73,1534.78,567.76,1534.78,569.27Z"/><path d="M1538.9,570.48h1.59c1.16,0,1.85-.86,1.85-2.24v-2.33H1545v4.46h3.85v2.69H1545v10a2.08,2.08,0,0,0,2.33,2.13,6.27,6.27,0,0,0,1.79-.21l.07,2.62a6.31,6.31,0,0,1-2.48.41,4.28,4.28,0,0,1-4.47-4.54V573.09h-3.3Z"/><path d="M1550,579c0-5.23,3.58-9,8.6-9s8.6,3.78,8.6,9-3.58,9-8.6,9S1550,584.2,1550,579Zm14.34,0c0-3.61-2.44-6.36-5.74-6.36s-5.74,2.75-5.74,6.36,2.44,6.29,5.74,6.29S1564.38,582.55,1564.38,579Z"/><path d="M1586.7,578.83c0,5.23-3.51,9-8.19,9a7,7,0,0,1-6-3.33v9.93h-2.75V570.37h2.34l.24,3.07a7,7,0,0,1,6.08-3.48C1583.19,570,1586.7,573.74,1586.7,578.83Zm-2.86.07c0-3.64-2.3-6.29-5.6-6.29s-5.78,2.65-5.78,6.29,2.41,6.26,5.71,6.26S1583.84,582.55,1583.84,578.9Z"/><path d="M1587.59,570.48h1.1c1.17,0,1.86-.86,1.86-2.24v-2.33h2.61v4.46H1597v2.69h-3.85v10a2.08,2.08,0,0,0,2.34,2.13,6.31,6.31,0,0,0,1.79-.21l.06,2.62a6.22,6.22,0,0,1-2.47.41,4.28,4.28,0,0,1-4.47-4.54V573.09h-2.82Z"/><path d="M1606.64,588c-4.82,0-8.39-3.78-8.39-9s3.51-9,8.25-9,7.94,3.72,7.94,8.87c0,.38,0,.83,0,1.21h-13.14c.21,3.09,2.34,5.29,5.23,5.29,2.48,0,4.4-1.48,4.68-3.68l3,1.1C1613.45,585.78,1610.21,588,1606.64,588Zm5-10.59a5.06,5.06,0,0,0-5.15-4.85,5.18,5.18,0,0,0-5.23,4.85Z"/><path d="M1624.55,588c-5,0-8.53-3.78-8.53-9s3.61-9,8.46-9a7.48,7.48,0,0,1,7.57,6l-3,1a4.75,4.75,0,0,0-4.68-4.44c-3.16,0-5.5,2.68-5.5,6.33s2.34,6.32,5.64,6.32a4.89,4.89,0,0,0,4.81-4.57l3,1A7.85,7.85,0,0,1,1624.55,588Z"/><path d="M1649.58,577.11v10.46h-2.75V577.25a4.22,4.22,0,0,0-4.19-4.54,5.28,5.28,0,0,0-5.37,5.5v9.36h-2.75V564.19h2.75V573a6.15,6.15,0,0,1,5.64-3C1646.76,570,1649.58,573,1649.58,577.11Z"/><rect x="1790.1" y="574.79" width="12.77" height="12.78"/><rect x="1777.32" y="562.02" width="12.78" height="12.78"/><rect x="1790.1" y="562.02" width="12.77" height="6.76"/><rect x="1777.32" y="580.81" width="12.77" height="6.76"/><path d="M1813.1,579.8c0,3.16,2.61,5.43,6.19,5.43,2.82,0,4.88-1.58,4.88-3.92a3.8,3.8,0,0,0-3.23-3.37l-4.2-1c-3.44-.79-5.78-3-5.78-5.85,0-3.71,3.1-6.33,7.57-6.33,4.19,0,7.56,2.48,8,5.92l-3.1.82c-.14-2.47-2.27-4.12-5-4.12s-4.47,1.37-4.47,3.44c0,1.78,1.45,2.95,3.65,3.44l4.33,1c3.16.69,5.29,3,5.29,5.84,0,4.06-3.23,6.88-8,6.88-5.16,0-9.08-3.1-9.36-7.5Z"/><path d="M1828.91,579c0-5.23,3.58-9,8.6-9s8.59,3.78,8.59,9-3.57,9-8.59,9S1828.91,584.2,1828.91,579Zm14.34,0c0-3.61-2.44-6.36-5.74-6.36s-5.74,2.75-5.74,6.36,2.44,6.29,5.74,6.29S1843.25,582.55,1843.25,579Z"/><path d="M1852.84,569.27v1.21H1857v2.61h-4.13v14.48h-2.75V573.13h-2.82v-2.76h2.82v-1.1c0-3.09,1.93-5.36,4.61-5.36a5,5,0,0,1,3,.83l-.69,2.75a2.48,2.48,0,0,0-1.93-.76C1853.67,566.73,1852.84,567.76,1852.84,569.27Z"/><path d="M1857,570.48h1.58c1.17,0,1.86-.86,1.86-2.24v-2.33H1863v4.46h3.85v2.69H1863v10a2.08,2.08,0,0,0,2.34,2.13,6.31,6.31,0,0,0,1.79-.21l.06,2.62a6.22,6.22,0,0,1-2.47.41,4.28,4.28,0,0,1-4.47-4.54V573.09H1857Z"/><path d="M1868.11,579c0-5.23,3.57-9,8.59-9s8.6,3.78,8.6,9-3.58,9-8.6,9S1868.11,584.2,1868.11,579Zm14.34,0c0-3.61-2.45-6.36-5.75-6.36S1871,575.36,1871,579s2.44,6.29,5.74,6.29S1882.45,582.55,1882.45,579Z"/><path d="M1904.76,578.83c0,5.23-3.51,9-8.18,9a7.07,7.07,0,0,1-6-3.33v9.93h-2.75V570.37h2.34l.24,3.07a7,7,0,0,1,6.09-3.48C1901.25,570,1904.76,573.74,1904.76,578.83Zm-2.85.07c0-3.64-2.31-6.29-5.61-6.29s-5.77,2.65-5.77,6.29,2.4,6.26,5.7,6.26S1901.91,582.55,1901.91,578.9Z"/><path d="M1905.65,570.48h1.1c1.17,0,1.86-.86,1.86-2.24v-2.33h2.61v4.46h3.85v2.69h-3.85v10a2.09,2.09,0,0,0,2.34,2.13,6.27,6.27,0,0,0,1.79-.21l.07,2.62a6.31,6.31,0,0,1-2.48.41,4.28,4.28,0,0,1-4.47-4.54V573.09h-2.82Z"/><path d="M1924.7,588c-4.81,0-8.39-3.78-8.39-9s3.51-9,8.25-9,8,3.72,8,8.87c0,.38,0,.83,0,1.21h-13.13c.2,3.09,2.34,5.29,5.22,5.29,2.48,0,4.41-1.48,4.68-3.68l3,1.1C1931.51,585.78,1928.28,588,1924.7,588Zm5-10.59a5.07,5.07,0,0,0-5.16-4.85,5.18,5.18,0,0,0-5.23,4.85Z"/><rect x="1472.04" y="710.51" width="12.77" height="12.78"/><rect x="1459.26" y="697.73" width="12.78" height="12.78"/><rect x="1472.04" y="697.73" width="12.77" height="6.76"/><rect x="1459.26" y="716.53" width="12.77" height="6.76"/><path d="M1495,715.51c0,3.16,2.62,5.43,6.19,5.43,2.82,0,4.88-1.58,4.88-3.92a3.79,3.79,0,0,0-3.23-3.37l-4.19-1c-3.44-.79-5.78-3-5.78-5.84,0-3.72,3.1-6.33,7.57-6.33,4.19,0,7.56,2.47,8,5.91l-3.09.83c-.14-2.48-2.27-4.13-5-4.13s-4.47,1.38-4.47,3.44c0,1.79,1.44,3,3.64,3.44l4.33,1c3.17.69,5.3,3,5.3,5.85,0,4-3.23,6.87-8,6.87-5.15,0-9.07-3.09-9.35-7.49Z"/><path d="M1510.85,714.68c0-5.22,3.57-9,8.59-9s8.6,3.78,8.6,9-3.58,9-8.6,9S1510.85,719.91,1510.85,714.68Zm14.34,0c0-3.61-2.45-6.36-5.75-6.36s-5.74,2.75-5.74,6.36,2.44,6.3,5.74,6.3S1525.19,718.26,1525.19,714.68Z"/><path d="M1534.78,705v1.2h4.12v2.62h-4.12v14.47H1532V708.84h-2.82v-2.75H1532V705c0-3.1,1.92-5.37,4.61-5.37a5,5,0,0,1,2.95.83l-.69,2.75a2.51,2.51,0,0,0-1.92-.76C1535.6,702.44,1534.78,703.48,1534.78,705Z"/><path d="M1538.9,706.19h1.59c1.16,0,1.85-.86,1.85-2.23v-2.34H1545v4.47h3.85v2.68H1545v10a2.07,2.07,0,0,0,2.33,2.13,6.31,6.31,0,0,0,1.79-.2l.07,2.61a6.13,6.13,0,0,1-2.48.41,4.28,4.28,0,0,1-4.47-4.54V708.81h-3.3Z"/><path d="M1550,714.68c0-5.22,3.58-9,8.6-9s8.6,3.78,8.6,9-3.58,9-8.6,9S1550,719.91,1550,714.68Zm14.34,0c0-3.61-2.44-6.36-5.74-6.36s-5.74,2.75-5.74,6.36,2.44,6.3,5.74,6.3S1564.38,718.26,1564.38,714.68Z"/><path d="M1586.7,714.55c0,5.22-3.51,9-8.19,9a7,7,0,0,1-6-3.34v9.94h-2.75V706.09h2.34l.24,3.06a7,7,0,0,1,6.08-3.47C1583.19,705.68,1586.7,709.46,1586.7,714.55Zm-2.86.07c0-3.65-2.3-6.3-5.6-6.3s-5.78,2.65-5.78,6.3,2.41,6.25,5.71,6.25S1583.84,718.26,1583.84,714.62Z"/><path d="M1587.59,706.19h1.1c1.17,0,1.86-.86,1.86-2.23v-2.34h2.61v4.47H1597v2.68h-3.85v10a2.08,2.08,0,0,0,2.34,2.13,6.36,6.36,0,0,0,1.79-.2l.06,2.61a6,6,0,0,1-2.47.41,4.28,4.28,0,0,1-4.47-4.54V708.81h-2.82Z"/><path d="M1606.64,723.69c-4.82,0-8.39-3.78-8.39-9s3.51-9,8.25-9,7.94,3.71,7.94,8.87c0,.38,0,.82,0,1.2h-13.14c.21,3.09,2.34,5.3,5.23,5.3,2.48,0,4.4-1.48,4.68-3.68l3,1.1C1613.45,721.49,1610.21,723.69,1606.64,723.69Zm5-10.59a5,5,0,0,0-5.15-4.84,5.17,5.17,0,0,0-5.23,4.84Z"/><path d="M1624.55,723.69c-5,0-8.53-3.78-8.53-9s3.61-9,8.46-9a7.47,7.47,0,0,1,7.57,6.05l-3,1a4.76,4.76,0,0,0-4.68-4.44c-3.16,0-5.5,2.69-5.5,6.33s2.34,6.33,5.64,6.33a4.89,4.89,0,0,0,4.81-4.58l3,1A7.85,7.85,0,0,1,1624.55,723.69Z"/><path d="M1649.58,712.83v10.45h-2.75V713a4.21,4.21,0,0,0-4.19-4.54,5.28,5.28,0,0,0-5.37,5.5v9.35h-2.75V699.9h2.75v8.77a6.13,6.13,0,0,1,5.64-3C1646.76,705.68,1649.58,708.7,1649.58,712.83Z"/><rect x="1790.1" y="710.51" width="12.77" height="12.78"/><rect x="1777.32" y="697.73" width="12.78" height="12.78"/><rect x="1790.1" y="697.73" width="12.77" height="6.76"/><rect x="1777.32" y="716.53" width="12.77" height="6.76"/><path d="M1813.1,715.51c0,3.16,2.61,5.43,6.19,5.43,2.82,0,4.88-1.58,4.88-3.92a3.8,3.8,0,0,0-3.23-3.37l-4.2-1c-3.44-.79-5.78-3-5.78-5.84,0-3.72,3.1-6.33,7.57-6.33,4.19,0,7.56,2.47,8,5.91l-3.1.83c-.14-2.48-2.27-4.13-5-4.13s-4.47,1.38-4.47,3.44c0,1.79,1.45,3,3.65,3.44l4.33,1c3.16.69,5.29,3,5.29,5.85,0,4-3.23,6.87-8,6.87-5.16,0-9.08-3.09-9.36-7.49Z"/><path d="M1828.91,714.68c0-5.22,3.58-9,8.6-9s8.59,3.78,8.59,9-3.57,9-8.59,9S1828.91,719.91,1828.91,714.68Zm14.34,0c0-3.61-2.44-6.36-5.74-6.36s-5.74,2.75-5.74,6.36,2.44,6.3,5.74,6.3S1843.25,718.26,1843.25,714.68Z"/><path d="M1852.84,705v1.2H1857v2.62h-4.13v14.47h-2.75V708.84h-2.82v-2.75h2.82V705c0-3.1,1.93-5.37,4.61-5.37a5,5,0,0,1,3,.83l-.69,2.75a2.51,2.51,0,0,0-1.93-.76C1853.67,702.44,1852.84,703.48,1852.84,705Z"/><path d="M1857,706.19h1.58c1.17,0,1.86-.86,1.86-2.23v-2.34H1863v4.47h3.85v2.68H1863v10a2.08,2.08,0,0,0,2.34,2.13,6.36,6.36,0,0,0,1.79-.2l.06,2.61a6,6,0,0,1-2.47.41,4.28,4.28,0,0,1-4.47-4.54V708.81H1857Z"/><path d="M1868.11,714.68c0-5.22,3.57-9,8.59-9s8.6,3.78,8.6,9-3.58,9-8.6,9S1868.11,719.91,1868.11,714.68Zm14.34,0c0-3.61-2.45-6.36-5.75-6.36s-5.74,2.75-5.74,6.36,2.44,6.3,5.74,6.3S1882.45,718.26,1882.45,714.68Z"/><path d="M1904.76,714.55c0,5.22-3.51,9-8.18,9a7.08,7.08,0,0,1-6-3.34v9.94h-2.75V706.09h2.34l.24,3.06a7,7,0,0,1,6.09-3.47C1901.25,705.68,1904.76,709.46,1904.76,714.55Zm-2.85.07c0-3.65-2.31-6.3-5.61-6.3s-5.77,2.65-5.77,6.3,2.4,6.25,5.7,6.25S1901.91,718.26,1901.91,714.62Z"/><path d="M1905.65,706.19h1.1c1.17,0,1.86-.86,1.86-2.23v-2.34h2.61v4.47h3.85v2.68h-3.85v10a2.08,2.08,0,0,0,2.34,2.13,6.31,6.31,0,0,0,1.79-.2l.07,2.61a6.13,6.13,0,0,1-2.48.41,4.28,4.28,0,0,1-4.47-4.54V708.81h-2.82Z"/><path d="M1924.7,723.69c-4.81,0-8.39-3.78-8.39-9s3.51-9,8.25-9,8,3.71,8,8.87c0,.38,0,.82,0,1.2h-13.13c.2,3.09,2.34,5.3,5.22,5.3,2.48,0,4.41-1.48,4.68-3.68l3,1.1C1931.51,721.49,1928.28,723.69,1924.7,723.69Zm5-10.59a5.06,5.06,0,0,0-5.16-4.84,5.17,5.17,0,0,0-5.23,4.84Z"/></g><g class="cls-4"><rect class="cls-20" x="172.03" y="275.31" width="303.46" height="121.14" rx="8.2"/><text class="cls-6" transform="translate(186.73 372.38)">A<tspan class="cls-7" x="4.76" y="0">D</tspan><tspan x="9.77" y="0">A COMPLIANT (</tspan><tspan class="cls-8" x="61.4" y="0">L</tspan><tspan x="65.37" y="0">A</tspan><tspan class="cls-9" x="70.13" y="0">R</tspan><tspan class="cls-10" x="74.8" y="0">GE TE</tspan><tspan class="cls-11" x="94.91" y="0">X</tspan><tspan x="99.52" y="0">T): Y</tspan><tspan x="0" y="9.4">A</tspan><tspan class="cls-7" x="4.76" y="9.4">D</tspan><tspan x="9.77" y="9.4">A COMPIANT (NORMAL TE</tspan><tspan class="cls-12" x="98.23" y="9.4">X</tspan><tspan x="102.84" y="9.4">T): Y</tspan></text><rect class="cls-13" x="-146.11" y="275.31" width="303.46" height="121.14" rx="8.2"/><rect class="cls-21" x="172.03" y="411.14" width="303.46" height="121.14" rx="8.2"/><text class="cls-6" transform="translate(186.73 508.2)">A<tspan class="cls-7" x="4.76" y="0">D</tspan><tspan x="9.77" y="0">A COMPLIANT (</tspan><tspan class="cls-8" x="61.4" y="0">L</tspan><tspan x="65.37" y="0">A</tspan><tspan class="cls-9" x="70.13" y="0">R</tspan><tspan class="cls-10" x="74.8" y="0">GE TE</tspan><tspan class="cls-11" x="94.91" y="0">X</tspan><tspan x="99.52" y="0">T): Y</tspan><tspan x="0" y="9.4">A</tspan><tspan class="cls-7" x="4.76" y="9.4">D</tspan><tspan x="9.77" y="9.4">A COMPIANT (NORMAL TE</tspan><tspan class="cls-12" x="98.23" y="9.4">X</tspan><tspan x="102.84" y="9.4">T): Y</tspan></text><rect class="cls-15" x="-146.11" y="411.14" width="303.46" height="121.14" rx="8.2"/><rect class="cls-22" x="172.03" y="546.96" width="303.46" height="121.14" rx="8.2"/><text class="cls-6" transform="translate(186.73 644.03)">A<tspan class="cls-7" x="4.76" y="0">D</tspan><tspan x="9.77" y="0">A COMPLIANT (</tspan><tspan class="cls-8" x="61.4" y="0">L</tspan><tspan x="65.37" y="0">A</tspan><tspan class="cls-9" x="70.13" y="0">R</tspan><tspan class="cls-10" x="74.8" y="0">GE TE</tspan><tspan class="cls-11" x="94.91" y="0">X</tspan><tspan x="99.52" y="0">T): Y</tspan><tspan x="0" y="9.4">A</tspan><tspan class="cls-7" x="4.76" y="9.4">D</tspan><tspan x="9.77" y="9.4">A COMPIANT (NORMAL TE</tspan><tspan class="cls-12" x="98.23" y="9.4">X</tspan><tspan x="102.84" y="9.4">T): Y</tspan></text><rect class="cls-17" x="-146.11" y="546.96" width="303.46" height="121.14" rx="8.2"/><rect class="cls-23" x="172.03" y="682.78" width="303.46" height="121.14" rx="8.2"/><text class="cls-6" transform="translate(186.73 779.85)">A<tspan class="cls-7" x="4.76" y="0">D</tspan><tspan x="9.77" y="0">A COMPLIANT (</tspan><tspan class="cls-8" x="61.4" y="0">L</tspan><tspan x="65.37" y="0">A</tspan><tspan class="cls-9" x="70.13" y="0">R</tspan><tspan class="cls-10" x="74.8" y="0">GE TE</tspan><tspan class="cls-11" x="94.91" y="0">X</tspan><tspan x="99.52" y="0">T): Y</tspan><tspan x="0" y="9.4">A</tspan><tspan class="cls-7" x="4.76" y="9.4">D</tspan><tspan x="9.77" y="9.4">A COMPIANT (NORMAL TE</tspan><tspan class="cls-12" x="98.23" y="9.4">X</tspan><tspan x="102.84" y="9.4">T): Y</tspan></text><rect class="cls-19" x="-146.11" y="682.78" width="303.46" height="121.14" rx="8.2"/><path d="M-3.16,298.26H-2c1.16,0,1.85-.85,1.85-2.23v-2.34H2.42v4.47H6.27v2.68H2.42v10A2.08,2.08,0,0,0,4.75,313a6.27,6.27,0,0,0,1.79-.21l.07,2.61a6.12,6.12,0,0,1-2.48.42,4.28,4.28,0,0,1-4.47-4.54V300.88H-3.16Z"/><path d="M15.89,315.77c-4.81,0-8.39-3.79-8.39-9s3.51-9,8.26-9,7.94,3.71,7.94,8.87a11.93,11.93,0,0,1,0,1.2H10.53c.21,3.1,2.34,5.3,5.23,5.3,2.47,0,4.4-1.48,4.67-3.68l3,1.1C22.7,313.57,19.47,315.77,15.89,315.77Zm5-10.59a5.07,5.07,0,0,0-5.16-4.85,5.18,5.18,0,0,0-5.23,4.85Z"/><path d="M33.81,315.77c-5,0-8.53-3.79-8.53-9s3.61-9,8.46-9a7.46,7.46,0,0,1,7.56,6.05l-2.95,1a4.76,4.76,0,0,0-4.68-4.43c-3.16,0-5.5,2.68-5.5,6.32s2.34,6.33,5.64,6.33a4.9,4.9,0,0,0,4.81-4.57l3,1A7.86,7.86,0,0,1,33.81,315.77Z"/><path d="M58.84,304.9v10.45H56.09V305a4.22,4.22,0,0,0-4.2-4.54,5.28,5.28,0,0,0-5.36,5.5v9.35H43.78V292h2.75v8.77a6.13,6.13,0,0,1,5.64-3C56,297.75,58.84,300.78,58.84,304.9Z"/><rect x="199.36" y="302.58" width="12.77" height="12.78"/><rect x="186.57" y="289.8" width="12.78" height="12.78"/><rect x="199.36" y="289.8" width="12.77" height="6.76"/><rect x="186.58" y="308.6" width="12.77" height="6.76"/><path d="M222.35,307.58c0,3.17,2.62,5.44,6.19,5.44,2.82,0,4.88-1.59,4.88-3.92a3.77,3.77,0,0,0-3.23-3.37l-4.19-1c-3.44-.79-5.78-2.95-5.78-5.84,0-3.71,3.09-6.33,7.56-6.33,4.2,0,7.57,2.48,8,5.92l-3.09.82c-.14-2.47-2.27-4.12-5-4.12s-4.47,1.37-4.47,3.43c0,1.79,1.44,3,3.64,3.44l4.33,1c3.17.69,5.3,3,5.3,5.85,0,4.06-3.23,6.88-8,6.88-5.16,0-9.08-3.1-9.35-7.5Z"/><path d="M238.17,306.76c0-5.23,3.57-9,8.59-9s8.6,3.78,8.6,9-3.58,9-8.6,9S238.17,312,238.17,306.76Zm14.34,0c0-3.61-2.45-6.36-5.75-6.36s-5.74,2.75-5.74,6.36,2.44,6.29,5.74,6.29S252.51,310.33,252.51,306.76Z"/><path d="M262.1,297.06v1.2h4.12v2.62H262.1v14.47h-2.75V300.91h-2.82v-2.75h2.82v-1.1c0-3.09,1.92-5.36,4.6-5.36a5,5,0,0,1,3,.82l-.69,2.75a2.5,2.5,0,0,0-1.92-.75C262.92,294.52,262.1,295.55,262.1,297.06Z"/><path d="M266.22,298.26h1.58c1.17,0,1.86-.85,1.86-2.23v-2.34h2.61v4.47h3.86v2.68h-3.86v10a2.09,2.09,0,0,0,2.34,2.14,6.27,6.27,0,0,0,1.79-.21l.07,2.61a6.12,6.12,0,0,1-2.48.42,4.28,4.28,0,0,1-4.47-4.54V300.88h-3.3Z"/><path d="M277.36,306.76c0-5.23,3.58-9,8.6-9s8.59,3.78,8.59,9-3.57,9-8.59,9S277.36,312,277.36,306.76Zm14.34,0c0-3.61-2.44-6.36-5.74-6.36s-5.74,2.75-5.74,6.36,2.44,6.29,5.74,6.29S291.7,310.33,291.7,306.76Z"/><path d="M314,306.62c0,5.23-3.51,9-8.19,9a7,7,0,0,1-6-3.34v9.94H297.1V298.16h2.34l.24,3.06a7,7,0,0,1,6.08-3.47C310.51,297.75,314,301.53,314,306.62Zm-2.86.07c0-3.65-2.3-6.29-5.6-6.29s-5.78,2.64-5.78,6.29,2.41,6.26,5.71,6.26S311.16,310.33,311.16,306.69Z"/><path d="M314.91,298.26H316c1.17,0,1.86-.85,1.86-2.23v-2.34h2.61v4.47h3.85v2.68h-3.85v10a2.08,2.08,0,0,0,2.34,2.14,6.31,6.31,0,0,0,1.79-.21l.06,2.61a6,6,0,0,1-2.47.42,4.28,4.28,0,0,1-4.47-4.54V300.88h-2.82Z"/><path d="M334,315.77c-4.82,0-8.39-3.79-8.39-9s3.5-9,8.25-9,7.94,3.71,7.94,8.87c0,.38,0,.83,0,1.2H328.59c.21,3.1,2.34,5.3,5.23,5.3,2.48,0,4.4-1.48,4.68-3.68l2.95,1.1C340.77,313.57,337.53,315.77,334,315.77Zm5-10.59a5.06,5.06,0,0,0-5.15-4.85,5.17,5.17,0,0,0-5.23,4.85Z"/><path d="M351.87,315.77c-5,0-8.53-3.79-8.53-9s3.61-9,8.46-9a7.47,7.47,0,0,1,7.57,6.05l-3,1a4.75,4.75,0,0,0-4.68-4.43c-3.16,0-5.5,2.68-5.5,6.32s2.34,6.33,5.64,6.33a4.89,4.89,0,0,0,4.81-4.57l3,1A7.86,7.86,0,0,1,351.87,315.77Z"/><path d="M376.9,304.9v10.45h-2.75V305A4.22,4.22,0,0,0,370,300.5a5.28,5.28,0,0,0-5.37,5.5v9.35h-2.75V292h2.75v8.77a6.13,6.13,0,0,1,5.64-3C374.08,297.75,376.9,300.78,376.9,304.9Z"/><path d="M-3.16,434.38H-2c1.16,0,1.85-.86,1.85-2.23v-2.34H2.42v4.47H6.27V437H2.42v10a2.07,2.07,0,0,0,2.33,2.13,6.7,6.7,0,0,0,1.79-.2l.07,2.61a6.13,6.13,0,0,1-2.48.41,4.28,4.28,0,0,1-4.47-4.54V437H-3.16Z"/><path d="M15.89,451.88c-4.81,0-8.39-3.78-8.39-9s3.51-9,8.26-9,7.94,3.71,7.94,8.87c0,.37,0,.82,0,1.2H10.53c.21,3.09,2.34,5.3,5.23,5.3,2.47,0,4.4-1.48,4.67-3.68l3,1.1C22.7,449.68,19.47,451.88,15.89,451.88Zm5-10.59a5.07,5.07,0,0,0-5.16-4.85,5.18,5.18,0,0,0-5.23,4.85Z"/><path d="M33.81,451.88c-5,0-8.53-3.78-8.53-9s3.61-9,8.46-9a7.46,7.46,0,0,1,7.56,6.05l-2.95,1a4.76,4.76,0,0,0-4.68-4.44c-3.16,0-5.5,2.69-5.5,6.33s2.34,6.33,5.64,6.33a4.9,4.9,0,0,0,4.81-4.58l3,1A7.85,7.85,0,0,1,33.81,451.88Z"/><path d="M58.84,441v10.45H56.09V441.16a4.22,4.22,0,0,0-4.2-4.54,5.27,5.27,0,0,0-5.36,5.5v9.35H43.78V428.09h2.75v8.77a6.13,6.13,0,0,1,5.64-3C56,433.87,58.84,436.89,58.84,441Z"/><rect x="199.36" y="438.7" width="12.77" height="12.78"/><rect x="186.57" y="425.92" width="12.78" height="12.78"/><rect x="199.36" y="425.92" width="12.77" height="6.76"/><rect x="186.58" y="444.71" width="12.77" height="6.76"/><path d="M222.35,443.7c0,3.16,2.62,5.43,6.19,5.43,2.82,0,4.88-1.58,4.88-3.92a3.79,3.79,0,0,0-3.23-3.37l-4.19-1c-3.44-.79-5.78-3-5.78-5.85,0-3.71,3.09-6.32,7.56-6.32,4.2,0,7.57,2.47,8,5.91l-3.09.83c-.14-2.48-2.27-4.13-5-4.13s-4.47,1.38-4.47,3.44c0,1.79,1.44,3,3.64,3.44l4.33,1c3.17.69,5.3,3,5.3,5.85,0,4.05-3.23,6.87-8,6.87-5.16,0-9.08-3.09-9.35-7.49Z"/><path d="M238.17,442.87c0-5.22,3.57-9,8.59-9s8.6,3.78,8.6,9-3.58,9-8.6,9S238.17,448.1,238.17,442.87Zm14.34,0c0-3.61-2.45-6.36-5.75-6.36s-5.74,2.75-5.74,6.36,2.44,6.3,5.74,6.3S252.51,446.45,252.51,442.87Z"/><path d="M262.1,433.18v1.2h4.12V437H262.1v14.48h-2.75V437h-2.82v-2.75h2.82v-1.1c0-3.1,1.92-5.37,4.6-5.37a5,5,0,0,1,3,.83l-.69,2.75a2.51,2.51,0,0,0-1.92-.76C262.92,430.63,262.1,431.67,262.1,433.18Z"/><path d="M266.22,434.38h1.58c1.17,0,1.86-.86,1.86-2.23v-2.34h2.61v4.47h3.86V437h-3.86v10a2.08,2.08,0,0,0,2.34,2.13,6.7,6.7,0,0,0,1.79-.2l.07,2.61a6.13,6.13,0,0,1-2.48.41,4.28,4.28,0,0,1-4.47-4.54V437h-3.3Z"/><path d="M277.36,442.87c0-5.22,3.58-9,8.6-9s8.59,3.78,8.59,9-3.57,9-8.59,9S277.36,448.1,277.36,442.87Zm14.34,0c0-3.61-2.44-6.36-5.74-6.36s-5.74,2.75-5.74,6.36,2.44,6.3,5.74,6.3S291.7,446.45,291.7,442.87Z"/><path d="M314,442.74c0,5.22-3.51,9-8.19,9a7,7,0,0,1-6-3.34v9.94H297.1V434.28h2.34l.24,3.06a7,7,0,0,1,6.08-3.47C310.51,433.87,314,437.65,314,442.74Zm-2.86.07c0-3.65-2.3-6.3-5.6-6.3s-5.78,2.65-5.78,6.3,2.41,6.25,5.71,6.25S311.16,446.45,311.16,442.81Z"/><path d="M314.91,434.38H316c1.17,0,1.86-.86,1.86-2.23v-2.34h2.61v4.47h3.85V437h-3.85v10a2.08,2.08,0,0,0,2.34,2.13,6.75,6.75,0,0,0,1.79-.2l.06,2.61a6,6,0,0,1-2.47.41,4.28,4.28,0,0,1-4.47-4.54V437h-2.82Z"/><path d="M334,451.88c-4.82,0-8.39-3.78-8.39-9s3.5-9,8.25-9,7.94,3.71,7.94,8.87c0,.37,0,.82,0,1.2H328.59c.21,3.09,2.34,5.3,5.23,5.3,2.48,0,4.4-1.48,4.68-3.68l2.95,1.1C340.77,449.68,337.53,451.88,334,451.88Zm5-10.59a5.06,5.06,0,0,0-5.15-4.85,5.17,5.17,0,0,0-5.23,4.85Z"/><path d="M351.87,451.88c-5,0-8.53-3.78-8.53-9s3.61-9,8.46-9a7.47,7.47,0,0,1,7.57,6.05l-3,1a4.75,4.75,0,0,0-4.68-4.44c-3.16,0-5.5,2.69-5.5,6.33s2.34,6.33,5.64,6.33a4.89,4.89,0,0,0,4.81-4.58l3,1A7.85,7.85,0,0,1,351.87,451.88Z"/><path d="M376.9,441v10.45h-2.75V441.16a4.21,4.21,0,0,0-4.19-4.54,5.27,5.27,0,0,0-5.37,5.5v9.35h-2.75V428.09h2.75v8.77a6.13,6.13,0,0,1,5.64-3C374.08,433.87,376.9,436.89,376.9,441Z"/><path d="M-3.16,570.1H-2c1.16,0,1.85-.86,1.85-2.24v-2.34H2.42V570H6.27v2.68H2.42v10a2.08,2.08,0,0,0,2.33,2.13,6.27,6.27,0,0,0,1.79-.21l.07,2.61a6.12,6.12,0,0,1-2.48.42,4.28,4.28,0,0,1-4.47-4.54V572.71H-3.16Z"/><path d="M15.89,587.6c-4.81,0-8.39-3.79-8.39-9s3.51-9,8.26-9,7.94,3.71,7.94,8.87a11.93,11.93,0,0,1,0,1.2H10.53c.21,3.1,2.34,5.3,5.23,5.3,2.47,0,4.4-1.48,4.67-3.68l3,1.1C22.7,585.4,19.47,587.6,15.89,587.6Zm5-10.59a5.07,5.07,0,0,0-5.16-4.85A5.18,5.18,0,0,0,10.49,577Z"/><path d="M33.81,587.6c-5,0-8.53-3.79-8.53-9s3.61-9,8.46-9a7.46,7.46,0,0,1,7.56,6l-2.95,1a4.76,4.76,0,0,0-4.68-4.43c-3.16,0-5.5,2.68-5.5,6.32s2.34,6.33,5.64,6.33a4.9,4.9,0,0,0,4.81-4.57l3,1A7.86,7.86,0,0,1,33.81,587.6Z"/><path d="M58.84,576.73v10.45H56.09V576.87a4.22,4.22,0,0,0-4.2-4.54,5.28,5.28,0,0,0-5.36,5.5v9.35H43.78V563.8h2.75v8.77a6.13,6.13,0,0,1,5.64-3C56,569.58,58.84,572.61,58.84,576.73Z"/><rect x="199.36" y="574.41" width="12.77" height="12.78"/><rect x="186.57" y="561.63" width="12.78" height="12.78"/><rect x="199.36" y="561.63" width="12.77" height="6.76"/><rect x="186.58" y="580.43" width="12.77" height="6.76"/><path d="M222.35,579.41c0,3.17,2.62,5.44,6.19,5.44,2.82,0,4.88-1.59,4.88-3.92a3.77,3.77,0,0,0-3.23-3.37l-4.19-1c-3.44-.79-5.78-3-5.78-5.84,0-3.71,3.09-6.33,7.56-6.33,4.2,0,7.57,2.48,8,5.92l-3.09.82c-.14-2.47-2.27-4.12-5-4.12s-4.47,1.37-4.47,3.43c0,1.79,1.44,3,3.64,3.44l4.33,1c3.17.69,5.3,3,5.3,5.85,0,4.06-3.23,6.88-8,6.88-5.16,0-9.08-3.1-9.35-7.5Z"/><path d="M238.17,578.59c0-5.23,3.57-9,8.59-9s8.6,3.78,8.6,9-3.58,9-8.6,9S238.17,583.81,238.17,578.59Zm14.34,0c0-3.61-2.45-6.36-5.75-6.36S241,575,241,578.59s2.44,6.29,5.74,6.29S252.51,582.16,252.51,578.59Z"/><path d="M262.1,568.89v1.21h4.12v2.61H262.1v14.47h-2.75V572.74h-2.82V570h2.82v-1.1c0-3.09,1.92-5.36,4.6-5.36a5,5,0,0,1,3,.82l-.69,2.75a2.5,2.5,0,0,0-1.92-.75C262.92,566.35,262.1,567.38,262.1,568.89Z"/><path d="M266.22,570.1h1.58c1.17,0,1.86-.86,1.86-2.24v-2.34h2.61V570h3.86v2.68h-3.86v10a2.09,2.09,0,0,0,2.34,2.13,6.27,6.27,0,0,0,1.79-.21l.07,2.61a6.12,6.12,0,0,1-2.48.42,4.28,4.28,0,0,1-4.47-4.54V572.71h-3.3Z"/><path d="M277.36,578.59c0-5.23,3.58-9,8.6-9s8.59,3.78,8.59,9-3.57,9-8.59,9S277.36,583.81,277.36,578.59Zm14.34,0c0-3.61-2.44-6.36-5.74-6.36s-5.74,2.75-5.74,6.36,2.44,6.29,5.74,6.29S291.7,582.16,291.7,578.59Z"/><path d="M314,578.45c0,5.23-3.51,9-8.19,9a7,7,0,0,1-6-3.34v9.94H297.1V570h2.34l.24,3.06a7,7,0,0,1,6.08-3.47C310.51,569.58,314,573.36,314,578.45Zm-2.86.07c0-3.65-2.3-6.29-5.6-6.29s-5.78,2.64-5.78,6.29,2.41,6.26,5.71,6.26S311.16,582.16,311.16,578.52Z"/><path d="M314.91,570.1H316c1.17,0,1.86-.86,1.86-2.24v-2.34h2.61V570h3.85v2.68h-3.85v10a2.08,2.08,0,0,0,2.34,2.13,6.31,6.31,0,0,0,1.79-.21l.06,2.61a6,6,0,0,1-2.47.42,4.28,4.28,0,0,1-4.47-4.54V572.71h-2.82Z"/><path d="M334,587.6c-4.82,0-8.39-3.79-8.39-9s3.5-9,8.25-9,7.94,3.71,7.94,8.87c0,.38,0,.83,0,1.2H328.59c.21,3.1,2.34,5.3,5.23,5.3,2.48,0,4.4-1.48,4.68-3.68l2.95,1.1C340.77,585.4,337.53,587.6,334,587.6Zm5-10.59a5.06,5.06,0,0,0-5.15-4.85,5.17,5.17,0,0,0-5.23,4.85Z"/><path d="M351.87,587.6c-5,0-8.53-3.79-8.53-9s3.61-9,8.46-9a7.47,7.47,0,0,1,7.57,6l-3,1a4.75,4.75,0,0,0-4.68-4.43c-3.16,0-5.5,2.68-5.5,6.32s2.34,6.33,5.64,6.33a4.89,4.89,0,0,0,4.81-4.57l3,1A7.86,7.86,0,0,1,351.87,587.6Z"/><path d="M376.9,576.73v10.45h-2.75V576.87a4.22,4.22,0,0,0-4.19-4.54,5.28,5.28,0,0,0-5.37,5.5v9.35h-2.75V563.8h2.75v8.77a6.13,6.13,0,0,1,5.64-3C374.08,569.58,376.9,572.61,376.9,576.73Z"/><path d="M-3.16,705.81H-2c1.16,0,1.85-.86,1.85-2.24v-2.33H2.42v4.47H6.27v2.68H2.42v10a2.08,2.08,0,0,0,2.33,2.13,6.27,6.27,0,0,0,1.79-.21l.07,2.62a6.31,6.31,0,0,1-2.48.41,4.28,4.28,0,0,1-4.47-4.54V708.42H-3.16Z"/><path d="M15.89,723.31c-4.81,0-8.39-3.78-8.39-9s3.51-9,8.26-9,7.94,3.72,7.94,8.87c0,.38,0,.83,0,1.21H10.53c.21,3.09,2.34,5.29,5.23,5.29,2.47,0,4.4-1.48,4.67-3.68l3,1.1C22.7,721.11,19.47,723.31,15.89,723.31Zm5-10.59a5.07,5.07,0,0,0-5.16-4.85,5.18,5.18,0,0,0-5.23,4.85Z"/><path d="M33.81,723.31c-5,0-8.53-3.78-8.53-9s3.61-9,8.46-9a7.47,7.47,0,0,1,7.56,6.05l-2.95,1a4.76,4.76,0,0,0-4.68-4.44c-3.16,0-5.5,2.68-5.5,6.33s2.34,6.32,5.64,6.32A4.9,4.9,0,0,0,38.62,716l3,1A7.85,7.85,0,0,1,33.81,723.31Z"/><path d="M58.84,712.45V722.9H56.09V712.58a4.22,4.22,0,0,0-4.2-4.54,5.28,5.28,0,0,0-5.36,5.51v9.35H43.78V699.52h2.75v8.76a6.15,6.15,0,0,1,5.64-3C56,705.29,58.84,708.32,58.84,712.45Z"/><rect x="199.36" y="710.12" width="12.77" height="12.78"/><rect x="186.57" y="697.35" width="12.78" height="12.78"/><rect x="199.36" y="697.35" width="12.77" height="6.76"/><rect x="186.58" y="716.14" width="12.77" height="6.76"/><path d="M222.35,715.13c0,3.16,2.62,5.43,6.19,5.43,2.82,0,4.88-1.58,4.88-3.92a3.79,3.79,0,0,0-3.23-3.37l-4.19-1c-3.44-.79-5.78-3-5.78-5.85,0-3.71,3.09-6.32,7.56-6.32,4.2,0,7.57,2.47,8,5.91l-3.09.83c-.14-2.48-2.27-4.13-5-4.13s-4.47,1.37-4.47,3.44c0,1.79,1.44,2.95,3.64,3.44l4.33,1c3.17.69,5.3,3,5.3,5.84,0,4.06-3.23,6.88-8,6.88-5.16,0-9.08-3.09-9.35-7.5Z"/><path d="M238.17,714.3c0-5.22,3.57-9,8.59-9s8.6,3.79,8.6,9-3.58,9-8.6,9S238.17,719.53,238.17,714.3Zm14.34,0c0-3.61-2.45-6.36-5.75-6.36S241,710.69,241,714.3s2.44,6.29,5.74,6.29S252.51,717.88,252.51,714.3Z"/><path d="M262.1,704.61v1.2h4.12v2.61H262.1V722.9h-2.75V708.46h-2.82v-2.75h2.82v-1.1c0-3.1,1.92-5.37,4.6-5.37a5,5,0,0,1,3,.83l-.69,2.75a2.47,2.47,0,0,0-1.92-.76C262.92,702.06,262.1,703.09,262.1,704.61Z"/><path d="M266.22,705.81h1.58c1.17,0,1.86-.86,1.86-2.24v-2.33h2.61v4.47h3.86v2.68h-3.86v10a2.09,2.09,0,0,0,2.34,2.13,6.27,6.27,0,0,0,1.79-.21l.07,2.62a6.31,6.31,0,0,1-2.48.41,4.28,4.28,0,0,1-4.47-4.54V708.42h-3.3Z"/><path d="M277.36,714.3c0-5.22,3.58-9,8.6-9s8.59,3.79,8.59,9-3.57,9-8.59,9S277.36,719.53,277.36,714.3Zm14.34,0c0-3.61-2.44-6.36-5.74-6.36s-5.74,2.75-5.74,6.36,2.44,6.29,5.74,6.29S291.7,717.88,291.7,714.3Z"/><path d="M314,714.16c0,5.23-3.51,9-8.19,9a7,7,0,0,1-6-3.33v9.93H297.1V705.71h2.34l.24,3.06a7,7,0,0,1,6.08-3.48C310.51,705.29,314,709.08,314,714.16Zm-2.86.07c0-3.64-2.3-6.29-5.6-6.29s-5.78,2.65-5.78,6.29,2.41,6.26,5.71,6.26S311.16,717.88,311.16,714.23Z"/><path d="M314.91,705.81H316c1.17,0,1.86-.86,1.86-2.24v-2.33h2.61v4.47h3.85v2.68h-3.85v10a2.08,2.08,0,0,0,2.34,2.13,6.31,6.31,0,0,0,1.79-.21l.06,2.62a6.22,6.22,0,0,1-2.47.41,4.28,4.28,0,0,1-4.47-4.54V708.42h-2.82Z"/><path d="M334,723.31c-4.82,0-8.39-3.78-8.39-9s3.5-9,8.25-9,7.94,3.72,7.94,8.87c0,.38,0,.83,0,1.21H328.59c.21,3.09,2.34,5.29,5.23,5.29,2.48,0,4.4-1.48,4.68-3.68l2.95,1.1C340.77,721.11,337.53,723.31,334,723.31Zm5-10.59a5.06,5.06,0,0,0-5.15-4.85,5.17,5.17,0,0,0-5.23,4.85Z"/><path d="M351.87,723.31c-5,0-8.53-3.78-8.53-9s3.61-9,8.46-9a7.48,7.48,0,0,1,7.57,6.05l-3,1a4.75,4.75,0,0,0-4.68-4.44c-3.16,0-5.5,2.68-5.5,6.33s2.34,6.32,5.64,6.32a4.89,4.89,0,0,0,4.81-4.57l3,1A7.85,7.85,0,0,1,351.87,723.31Z"/><path d="M376.9,712.45V722.9h-2.75V712.58A4.22,4.22,0,0,0,370,708a5.28,5.28,0,0,0-5.37,5.51v9.35h-2.75V699.52h2.75v8.76a6.15,6.15,0,0,1,5.64-3C374.08,705.29,376.9,708.32,376.9,712.45Z"/></g><rect class="cls-5" x="490.13" y="275.7" width="303.46" height="121.14" rx="8.2"/><text class="cls-6" transform="translate(504.83 372.77)">A<tspan class="cls-7" x="4.76" y="0">D</tspan><tspan x="9.77" y="0">A COMPLIANT (</tspan><tspan class="cls-8" x="61.4" y="0">L</tspan><tspan x="65.37" y="0">A</tspan><tspan class="cls-9" x="70.13" y="0">R</tspan><tspan class="cls-10" x="74.8" y="0">GE TE</tspan><tspan class="cls-11" x="94.91" y="0">X</tspan><tspan x="99.52" y="0">T): Y</tspan><tspan x="0" y="9.4">A</tspan><tspan class="cls-7" x="4.76" y="9.4">D</tspan><tspan x="9.77" y="9.4">A COMPIANT (NORMAL TE</tspan><tspan class="cls-12" x="98.23" y="9.4">X</tspan><tspan x="102.84" y="9.4">T): Y</tspan></text><rect class="cls-20" x="1126.41" y="275.7" width="303.46" height="121.14" rx="8.2"/><text class="cls-6" transform="translate(1141.11 372.77)">A<tspan class="cls-7" x="4.76" y="0">D</tspan><tspan x="9.77" y="0">A COMPLIANT (</tspan><tspan class="cls-8" x="61.4" y="0">L</tspan><tspan x="65.37" y="0">A</tspan><tspan class="cls-9" x="70.13" y="0">R</tspan><tspan class="cls-10" x="74.8" y="0">GE TE</tspan><tspan class="cls-11" x="94.91" y="0">X</tspan><tspan x="99.52" y="0">T): Y</tspan><tspan x="0" y="9.4">A</tspan><tspan class="cls-7" x="4.76" y="9.4">D</tspan><tspan x="9.77" y="9.4">A COMPIANT (NORMAL TE</tspan><tspan class="cls-12" x="98.23" y="9.4">X</tspan><tspan x="102.84" y="9.4">T): Y</tspan></text><rect class="cls-13" x="808.27" y="275.7" width="303.46" height="121.14" rx="8.2"/><text class="cls-6" transform="translate(822.97 372.77)">A<tspan class="cls-7" x="4.76" y="0">D</tspan><tspan x="9.77" y="0">A COMPLIANT (</tspan><tspan class="cls-8" x="61.4" y="0">L</tspan><tspan x="65.37" y="0">A</tspan><tspan class="cls-9" x="70.13" y="0">R</tspan><tspan class="cls-10" x="74.8" y="0">GE TE</tspan><tspan class="cls-11" x="94.91" y="0">X</tspan><tspan x="99.52" y="0">T): Y</tspan><tspan x="0" y="9.4">A</tspan><tspan class="cls-7" x="4.76" y="9.4">D</tspan><tspan x="9.77" y="9.4">A COMPIANT (NORMAL TE</tspan><tspan class="cls-12" x="98.23" y="9.4">X</tspan><tspan x="102.84" y="9.4">T): Y</tspan></text><rect class="cls-14" x="490.13" y="411.52" width="303.46" height="121.14" rx="8.2"/><text class="cls-6" transform="translate(504.83 508.59)">A<tspan class="cls-7" x="4.76" y="0">D</tspan><tspan x="9.77" y="0">A COMPLIANT (</tspan><tspan class="cls-8" x="61.4" y="0">L</tspan><tspan x="65.37" y="0">A</tspan><tspan class="cls-9" x="70.13" y="0">R</tspan><tspan class="cls-10" x="74.8" y="0">GE TE</tspan><tspan class="cls-11" x="94.91" y="0">X</tspan><tspan x="99.52" y="0">T): Y</tspan><tspan x="0" y="9.4">A</tspan><tspan class="cls-7" x="4.76" y="9.4">D</tspan><tspan x="9.77" y="9.4">A COMPIANT (NORMAL TE</tspan><tspan class="cls-12" x="98.23" y="9.4">X</tspan><tspan x="102.84" y="9.4">T): Y</tspan></text><rect class="cls-21" x="1126.41" y="411.52" width="303.46" height="121.14" rx="8.2"/><text class="cls-6" transform="translate(1141.11 508.59)">A<tspan class="cls-7" x="4.76" y="0">D</tspan><tspan x="9.77" y="0">A COMPLIANT (</tspan><tspan class="cls-8" x="61.4" y="0">L</tspan><tspan x="65.37" y="0">A</tspan><tspan class="cls-9" x="70.13" y="0">R</tspan><tspan class="cls-10" x="74.8" y="0">GE TE</tspan><tspan class="cls-11" x="94.91" y="0">X</tspan><tspan x="99.52" y="0">T): Y</tspan><tspan x="0" y="9.4">A</tspan><tspan class="cls-7" x="4.76" y="9.4">D</tspan><tspan x="9.77" y="9.4">A COMPIANT (NORMAL TE</tspan><tspan class="cls-12" x="98.23" y="9.4">X</tspan><tspan x="102.84" y="9.4">T): Y</tspan></text><rect class="cls-15" x="808.27" y="411.52" width="303.46" height="121.14" rx="8.2"/><text class="cls-6" transform="translate(822.97 508.59)">A<tspan class="cls-7" x="4.76" y="0">D</tspan><tspan x="9.77" y="0">A COMPLIANT (</tspan><tspan class="cls-8" x="61.4" y="0">L</tspan><tspan x="65.37" y="0">A</tspan><tspan class="cls-9" x="70.13" y="0">R</tspan><tspan class="cls-10" x="74.8" y="0">GE TE</tspan><tspan class="cls-11" x="94.91" y="0">X</tspan><tspan x="99.52" y="0">T): Y</tspan><tspan x="0" y="9.4">A</tspan><tspan class="cls-7" x="4.76" y="9.4">D</tspan><tspan x="9.77" y="9.4">A COMPIANT (NORMAL TE</tspan><tspan class="cls-12" x="98.23" y="9.4">X</tspan><tspan x="102.84" y="9.4">T): Y</tspan></text><rect class="cls-16" x="490.13" y="547.34" width="303.46" height="121.14" rx="8.2"/><text class="cls-6" transform="translate(504.83 644.41)">A<tspan class="cls-7" x="4.76" y="0">D</tspan><tspan x="9.77" y="0">A COMPLIANT (</tspan><tspan class="cls-8" x="61.4" y="0">L</tspan><tspan x="65.37" y="0">A</tspan><tspan class="cls-9" x="70.13" y="0">R</tspan><tspan class="cls-10" x="74.8" y="0">GE TE</tspan><tspan class="cls-11" x="94.91" y="0">X</tspan><tspan x="99.52" y="0">T): Y</tspan><tspan x="0" y="9.4">A</tspan><tspan class="cls-7" x="4.76" y="9.4">D</tspan><tspan x="9.77" y="9.4">A COMPIANT (NORMAL TE</tspan><tspan class="cls-12" x="98.23" y="9.4">X</tspan><tspan x="102.84" y="9.4">T): Y</tspan></text><rect class="cls-22" x="1126.41" y="547.34" width="303.46" height="121.14" rx="8.2"/><text class="cls-6" transform="translate(1141.11 644.41)">A<tspan class="cls-7" x="4.76" y="0">D</tspan><tspan x="9.77" y="0">A COMPLIANT (</tspan><tspan class="cls-8" x="61.4" y="0">L</tspan><tspan x="65.37" y="0">A</tspan><tspan class="cls-9" x="70.13" y="0">R</tspan><tspan class="cls-10" x="74.8" y="0">GE TE</tspan><tspan class="cls-11" x="94.91" y="0">X</tspan><tspan x="99.52" y="0">T): Y</tspan><tspan x="0" y="9.4">A</tspan><tspan class="cls-7" x="4.76" y="9.4">D</tspan><tspan x="9.77" y="9.4">A COMPIANT (NORMAL TE</tspan><tspan class="cls-12" x="98.23" y="9.4">X</tspan><tspan x="102.84" y="9.4">T): Y</tspan></text><rect class="cls-17" x="808.27" y="547.34" width="303.46" height="121.14" rx="8.2"/><text class="cls-6" transform="translate(822.97 644.41)">A<tspan class="cls-7" x="4.76" y="0">D</tspan><tspan x="9.77" y="0">A COMPLIANT (</tspan><tspan class="cls-8" x="61.4" y="0">L</tspan><tspan x="65.37" y="0">A</tspan><tspan class="cls-9" x="70.13" y="0">R</tspan><tspan class="cls-10" x="74.8" y="0">GE TE</tspan><tspan class="cls-11" x="94.91" y="0">X</tspan><tspan x="99.52" y="0">T): Y</tspan><tspan x="0" y="9.4">A</tspan><tspan class="cls-7" x="4.76" y="9.4">D</tspan><tspan x="9.77" y="9.4">A COMPIANT (NORMAL TE</tspan><tspan class="cls-12" x="98.23" y="9.4">X</tspan><tspan x="102.84" y="9.4">T): Y</tspan></text><rect class="cls-18" x="490.13" y="683.16" width="303.46" height="121.14" rx="8.2"/><text class="cls-6" transform="translate(504.83 780.23)">A<tspan class="cls-7" x="4.76" y="0">D</tspan><tspan x="9.77" y="0">A COMPLIANT (</tspan><tspan class="cls-8" x="61.4" y="0">L</tspan><tspan x="65.37" y="0">A</tspan><tspan class="cls-9" x="70.13" y="0">R</tspan><tspan class="cls-10" x="74.8" y="0">GE TE</tspan><tspan class="cls-11" x="94.91" y="0">X</tspan><tspan x="99.52" y="0">T): Y</tspan><tspan x="0" y="9.4">A</tspan><tspan class="cls-7" x="4.76" y="9.4">D</tspan><tspan x="9.77" y="9.4">A COMPIANT (NORMAL TE</tspan><tspan class="cls-12" x="98.23" y="9.4">X</tspan><tspan x="102.84" y="9.4">T): Y</tspan></text><rect class="cls-23" x="1126.41" y="683.16" width="303.46" height="121.14" rx="8.2"/><text class="cls-6" transform="translate(1141.11 780.23)">A<tspan class="cls-7" x="4.76" y="0">D</tspan><tspan x="9.77" y="0">A COMPLIANT (</tspan><tspan class="cls-8" x="61.4" y="0">L</tspan><tspan x="65.37" y="0">A</tspan><tspan class="cls-9" x="70.13" y="0">R</tspan><tspan class="cls-10" x="74.8" y="0">GE TE</tspan><tspan class="cls-11" x="94.91" y="0">X</tspan><tspan x="99.52" y="0">T): Y</tspan><tspan x="0" y="9.4">A</tspan><tspan class="cls-7" x="4.76" y="9.4">D</tspan><tspan x="9.77" y="9.4">A COMPIANT (NORMAL TE</tspan><tspan class="cls-12" x="98.23" y="9.4">X</tspan><tspan x="102.84" y="9.4">T): Y</tspan></text><rect class="cls-19" x="808.27" y="683.16" width="303.46" height="121.14" rx="8.2"/><text class="cls-6" transform="translate(822.97 780.23)">A<tspan class="cls-7" x="4.76" y="0">D</tspan><tspan x="9.77" y="0">A COMPLIANT (</tspan><tspan class="cls-8" x="61.4" y="0">L</tspan><tspan x="65.37" y="0">A</tspan><tspan class="cls-9" x="70.13" y="0">R</tspan><tspan class="cls-10" x="74.8" y="0">GE TE</tspan><tspan class="cls-11" x="94.91" y="0">X</tspan><tspan x="99.52" y="0">T): Y</tspan><tspan x="0" y="9.4">A</tspan><tspan class="cls-7" x="4.76" y="9.4">D</tspan><tspan x="9.77" y="9.4">A COMPIANT (NORMAL TE</tspan><tspan class="cls-12" x="98.23" y="9.4">X</tspan><tspan x="102.84" y="9.4">T): Y</tspan></text><rect x="517.61" y="302.96" width="12.77" height="12.78"/><rect x="504.83" y="290.19" width="12.78" height="12.78"/><rect x="517.61" y="290.19" width="12.77" height="6.76"/><rect x="504.83" y="308.98" width="12.77" height="6.76"/><path d="M540.61,308c0,3.16,2.61,5.43,6.19,5.43,2.81,0,4.88-1.58,4.88-3.92a3.8,3.8,0,0,0-3.23-3.37l-4.2-1c-3.44-.79-5.78-3-5.78-5.85,0-3.71,3.1-6.33,7.57-6.33,4.19,0,7.56,2.48,8,5.92l-3.1.82c-.14-2.47-2.27-4.12-5-4.12s-4.47,1.37-4.47,3.44c0,1.78,1.45,3,3.65,3.43l4.33,1c3.16.69,5.29,2.95,5.29,5.84,0,4.06-3.23,6.88-8,6.88-5.16,0-9.08-3.1-9.36-7.5Z"/><path d="M556.42,307.14c0-5.23,3.58-9,8.6-9s8.59,3.78,8.59,9-3.57,9-8.59,9S556.42,312.37,556.42,307.14Zm14.34,0c0-3.61-2.44-6.36-5.74-6.36s-5.74,2.75-5.74,6.36,2.44,6.29,5.74,6.29S570.76,310.72,570.76,307.14Z"/><path d="M580.35,297.44v1.21h4.13v2.61h-4.13v14.48H577.6V301.3h-2.82v-2.76h2.82v-1.1c0-3.09,1.93-5.36,4.61-5.36a5,5,0,0,1,3,.83l-.69,2.75a2.48,2.48,0,0,0-1.93-.76C581.18,294.9,580.35,295.93,580.35,297.44Z"/><path d="M584.48,298.65h1.58c1.17,0,1.86-.86,1.86-2.24v-2.34h2.61v4.47h3.85v2.69h-3.85v10a2.08,2.08,0,0,0,2.34,2.13,6.31,6.31,0,0,0,1.79-.21l.06,2.62a6.22,6.22,0,0,1-2.47.41,4.28,4.28,0,0,1-4.47-4.54V301.26h-3.3Z"/><path d="M595.62,307.14c0-5.23,3.57-9,8.59-9s8.6,3.78,8.6,9-3.58,9-8.6,9S595.62,312.37,595.62,307.14Zm14.34,0c0-3.61-2.45-6.36-5.75-6.36s-5.74,2.75-5.74,6.36,2.44,6.29,5.74,6.29S610,310.72,610,307.14Z"/><path d="M632.27,307c0,5.23-3.51,9-8.18,9a7.07,7.07,0,0,1-6-3.33v9.93h-2.75V298.54h2.34l.24,3.07a7,7,0,0,1,6.09-3.48C628.76,298.13,632.27,301.91,632.27,307Zm-2.85.07c0-3.64-2.31-6.29-5.61-6.29s-5.77,2.65-5.77,6.29,2.4,6.26,5.7,6.26S629.42,310.72,629.42,307.07Z"/><path d="M633.16,298.65h1.1c1.17,0,1.86-.86,1.86-2.24v-2.34h2.61v4.47h3.85v2.69h-3.85v10a2.09,2.09,0,0,0,2.34,2.13,6.27,6.27,0,0,0,1.79-.21l.07,2.62a6.31,6.31,0,0,1-2.48.41,4.28,4.28,0,0,1-4.47-4.54V301.26h-2.82Z"/><path d="M652.21,316.15c-4.81,0-8.39-3.78-8.39-9s3.51-9,8.25-9S660,301.85,660,307c0,.38,0,.83,0,1.21H646.85c.2,3.09,2.34,5.29,5.22,5.29,2.48,0,4.41-1.48,4.68-3.68l3,1.1C659,314,655.79,316.15,652.21,316.15Zm5-10.59a5.07,5.07,0,0,0-5.16-4.85,5.18,5.18,0,0,0-5.23,4.85Z"/><path d="M670.13,316.15c-5,0-8.53-3.78-8.53-9s3.61-9,8.46-9a7.47,7.47,0,0,1,7.56,6.05l-3,1a4.74,4.74,0,0,0-4.67-4.44c-3.17,0-5.5,2.68-5.5,6.33s2.33,6.32,5.64,6.32a4.9,4.9,0,0,0,4.81-4.57l3,1A7.83,7.83,0,0,1,670.13,316.15Z"/><path d="M695.16,305.28v10.46h-2.75V305.42a4.22,4.22,0,0,0-4.2-4.54,5.28,5.28,0,0,0-5.36,5.5v9.36H680.1V292.36h2.75v8.76a6.15,6.15,0,0,1,5.64-3C692.34,298.13,695.16,301.16,695.16,305.28Z"/><rect x="835.68" y="302.96" width="12.77" height="12.78"/><rect x="822.89" y="290.19" width="12.78" height="12.78"/><rect x="835.67" y="290.19" width="12.77" height="6.76"/><rect x="822.9" y="308.98" width="12.77" height="6.76"/><path d="M858.67,308c0,3.16,2.61,5.43,6.19,5.43,2.82,0,4.88-1.58,4.88-3.92a3.79,3.79,0,0,0-3.23-3.37l-4.19-1c-3.44-.79-5.78-3-5.78-5.85,0-3.71,3.09-6.33,7.56-6.33,4.2,0,7.57,2.48,8,5.92l-3.09.82c-.14-2.47-2.27-4.12-5-4.12S859.5,297,859.5,299c0,1.78,1.44,3,3.64,3.43l4.33,1c3.17.69,5.3,2.95,5.3,5.84,0,4.06-3.23,6.88-8,6.88-5.16,0-9.08-3.1-9.35-7.5Z"/><path d="M874.49,307.14c0-5.23,3.57-9,8.59-9s8.6,3.78,8.6,9-3.58,9-8.6,9S874.49,312.37,874.49,307.14Zm14.33,0c0-3.61-2.44-6.36-5.74-6.36s-5.74,2.75-5.74,6.36,2.44,6.29,5.74,6.29S888.82,310.72,888.82,307.14Z"/><path d="M898.42,297.44v1.21h4.12v2.61h-4.12v14.48h-2.75V301.3h-2.82v-2.76h2.82v-1.1c0-3.09,1.92-5.36,4.6-5.36a5,5,0,0,1,3,.83l-.69,2.75a2.47,2.47,0,0,0-1.92-.76C899.24,294.9,898.42,295.93,898.42,297.44Z"/><path d="M902.54,298.65h1.58c1.17,0,1.86-.86,1.86-2.24v-2.34h2.61v4.47h3.85v2.69h-3.85v10a2.09,2.09,0,0,0,2.34,2.13,6.27,6.27,0,0,0,1.79-.21l.07,2.62a6.31,6.31,0,0,1-2.48.41,4.28,4.28,0,0,1-4.47-4.54V301.26h-3.3Z"/><path d="M913.68,307.14c0-5.23,3.58-9,8.6-9s8.59,3.78,8.59,9-3.57,9-8.59,9S913.68,312.37,913.68,307.14Zm14.34,0c0-3.61-2.44-6.36-5.74-6.36s-5.74,2.75-5.74,6.36,2.44,6.29,5.74,6.29S928,310.72,928,307.14Z"/><path d="M950.33,307c0,5.23-3.5,9-8.18,9a7,7,0,0,1-6-3.33v9.93h-2.75V298.54h2.34l.24,3.07a7,7,0,0,1,6.08-3.48C946.83,298.13,950.33,301.91,950.33,307Zm-2.85.07c0-3.64-2.3-6.29-5.6-6.29s-5.78,2.65-5.78,6.29,2.41,6.26,5.71,6.26S947.48,310.72,947.48,307.07Z"/><path d="M951.23,298.65h1.1c1.17,0,1.85-.86,1.85-2.24v-2.34h2.62v4.47h3.85v2.69H956.8v10a2.08,2.08,0,0,0,2.34,2.13,6.24,6.24,0,0,0,1.78-.21l.07,2.62a6.22,6.22,0,0,1-2.47.41,4.28,4.28,0,0,1-4.47-4.54V301.26h-2.82Z"/><path d="M970.28,316.15c-4.82,0-8.39-3.78-8.39-9s3.5-9,8.25-9,7.94,3.72,7.94,8.87c0,.38,0,.83,0,1.21H964.91c.21,3.09,2.34,5.29,5.23,5.29,2.47,0,4.4-1.48,4.67-3.68l3,1.1C977.08,314,973.85,316.15,970.28,316.15Zm5-10.59a5.07,5.07,0,0,0-5.16-4.85,5.16,5.16,0,0,0-5.22,4.85Z"/><path d="M988.19,316.15c-5,0-8.53-3.78-8.53-9s3.61-9,8.46-9a7.48,7.48,0,0,1,7.57,6.05l-3,1a4.75,4.75,0,0,0-4.68-4.44c-3.16,0-5.5,2.68-5.5,6.33s2.34,6.32,5.64,6.32a4.89,4.89,0,0,0,4.81-4.57l3,1A7.85,7.85,0,0,1,988.19,316.15Z"/><path d="M1013.22,305.28v10.46h-2.75V305.42a4.22,4.22,0,0,0-4.2-4.54,5.28,5.28,0,0,0-5.36,5.5v9.36h-2.75V292.36h2.75v8.76a6.15,6.15,0,0,1,5.64-3C1010.4,298.13,1013.22,301.16,1013.22,305.28Z"/><rect x="1153.74" y="302.96" width="12.77" height="12.78"/><rect x="1140.96" y="290.19" width="12.78" height="12.78"/><rect x="1153.74" y="290.19" width="12.77" height="6.76"/><rect x="1140.96" y="308.98" width="12.77" height="6.76"/><path d="M1176.73,308c0,3.16,2.62,5.43,6.19,5.43,2.82,0,4.89-1.58,4.89-3.92a3.8,3.8,0,0,0-3.24-3.37l-4.19-1c-3.44-.79-5.78-3-5.78-5.85,0-3.71,3.1-6.33,7.57-6.33,4.19,0,7.56,2.48,8,5.92l-3.09.82c-.14-2.47-2.27-4.12-5-4.12s-4.47,1.37-4.47,3.44c0,1.78,1.44,3,3.64,3.43l4.34,1c3.16.69,5.29,2.95,5.29,5.84,0,4.06-3.23,6.88-8,6.88-5.16,0-9.08-3.1-9.36-7.5Z"/><path d="M1192.55,307.14c0-5.23,3.58-9,8.6-9s8.59,3.78,8.59,9-3.57,9-8.59,9S1192.55,312.37,1192.55,307.14Zm14.34,0c0-3.61-2.44-6.36-5.74-6.36s-5.75,2.75-5.75,6.36,2.45,6.29,5.75,6.29S1206.89,310.72,1206.89,307.14Z"/><path d="M1216.48,297.44v1.21h4.13v2.61h-4.13v14.48h-2.75V301.3h-2.82v-2.76h2.82v-1.1c0-3.09,1.93-5.36,4.61-5.36a5,5,0,0,1,3,.83l-.68,2.75a2.51,2.51,0,0,0-1.93-.76C1217.31,294.9,1216.48,295.93,1216.48,297.44Z"/><path d="M1220.61,298.65h1.58c1.17,0,1.85-.86,1.85-2.24v-2.34h2.62v4.47h3.85v2.69h-3.85v10a2.08,2.08,0,0,0,2.34,2.13,6.24,6.24,0,0,0,1.78-.21l.07,2.62a6.26,6.26,0,0,1-2.47.41,4.28,4.28,0,0,1-4.47-4.54V301.26h-3.3Z"/><path d="M1231.75,307.14c0-5.23,3.57-9,8.59-9s8.6,3.78,8.6,9-3.58,9-8.6,9S1231.75,312.37,1231.75,307.14Zm14.33,0c0-3.61-2.44-6.36-5.74-6.36s-5.74,2.75-5.74,6.36,2.44,6.29,5.74,6.29S1246.08,310.72,1246.08,307.14Z"/><path d="M1268.4,307c0,5.23-3.51,9-8.18,9a7.05,7.05,0,0,1-6-3.33v9.93h-2.75V298.54h2.34l.24,3.07a7,7,0,0,1,6.09-3.48C1264.89,298.13,1268.4,301.91,1268.4,307Zm-2.86.07c0-3.64-2.3-6.29-5.6-6.29s-5.78,2.65-5.78,6.29,2.41,6.26,5.71,6.26S1265.54,310.72,1265.54,307.07Z"/><path d="M1269.29,298.65h1.1c1.17,0,1.86-.86,1.86-2.24v-2.34h2.61v4.47h3.85v2.69h-3.85v10a2.08,2.08,0,0,0,2.34,2.13,6.27,6.27,0,0,0,1.79-.21l.07,2.62a6.31,6.31,0,0,1-2.48.41,4.28,4.28,0,0,1-4.47-4.54V301.26h-2.82Z"/><path d="M1288.34,316.15c-4.81,0-8.39-3.78-8.39-9s3.51-9,8.25-9,8,3.72,8,8.87c0,.38,0,.83,0,1.21H1283c.2,3.09,2.33,5.29,5.22,5.29,2.48,0,4.4-1.48,4.68-3.68l3,1.1C1295.15,314,1291.92,316.15,1288.34,316.15Zm5-10.59a5.07,5.07,0,0,0-5.16-4.85,5.18,5.18,0,0,0-5.23,4.85Z"/><path d="M1306.25,316.15c-5,0-8.52-3.78-8.52-9s3.61-9,8.45-9a7.47,7.47,0,0,1,7.57,6.05l-3,1a4.74,4.74,0,0,0-4.67-4.44c-3.17,0-5.51,2.68-5.51,6.33s2.34,6.32,5.64,6.32a4.9,4.9,0,0,0,4.82-4.57l3,1A7.84,7.84,0,0,1,1306.25,316.15Z"/><path d="M1331.28,305.28v10.46h-2.75V305.42a4.22,4.22,0,0,0-4.19-4.54,5.27,5.27,0,0,0-5.36,5.5v9.36h-2.76V292.36H1319v8.76a6.12,6.12,0,0,1,5.63-3C1328.46,298.13,1331.28,301.16,1331.28,305.28Z"/><rect x="517.61" y="439.08" width="12.77" height="12.78"/><rect x="504.83" y="426.3" width="12.78" height="12.78"/><rect x="517.61" y="426.3" width="12.77" height="6.76"/><rect x="504.83" y="445.1" width="12.77" height="6.76"/><path d="M540.61,444.08c0,3.17,2.61,5.43,6.19,5.43,2.81,0,4.88-1.58,4.88-3.91a3.78,3.78,0,0,0-3.23-3.37l-4.2-1c-3.44-.79-5.78-2.95-5.78-5.84,0-3.72,3.1-6.33,7.57-6.33,4.19,0,7.56,2.48,8,5.92l-3.1.82c-.14-2.47-2.27-4.13-5-4.13s-4.47,1.38-4.47,3.44c0,1.79,1.45,3,3.65,3.44l4.33,1c3.16.69,5.29,3,5.29,5.85,0,4.06-3.23,6.88-8,6.88-5.16,0-9.08-3.1-9.36-7.5Z"/><path d="M556.42,443.26c0-5.23,3.58-9,8.6-9s8.59,3.78,8.59,9-3.57,9-8.59,9S556.42,448.48,556.42,443.26Zm14.34,0c0-3.61-2.44-6.36-5.74-6.36s-5.74,2.75-5.74,6.36,2.44,6.29,5.74,6.29S570.76,446.83,570.76,443.26Z"/><path d="M580.35,433.56v1.2h4.13v2.62h-4.13v14.47H577.6V437.41h-2.82v-2.75h2.82v-1.1c0-3.09,1.93-5.36,4.61-5.36a5,5,0,0,1,3,.82l-.69,2.75a2.51,2.51,0,0,0-1.93-.75C581.18,431,580.35,432.05,580.35,433.56Z"/><path d="M584.48,434.76h1.58c1.17,0,1.86-.85,1.86-2.23v-2.34h2.61v4.47h3.85v2.68h-3.85v10a2.08,2.08,0,0,0,2.34,2.14,6.31,6.31,0,0,0,1.79-.21l.06,2.61a6,6,0,0,1-2.47.42,4.28,4.28,0,0,1-4.47-4.54V437.38h-3.3Z"/><path d="M595.62,443.26c0-5.23,3.57-9,8.59-9s8.6,3.78,8.6,9-3.58,9-8.6,9S595.62,448.48,595.62,443.26Zm14.34,0c0-3.61-2.45-6.36-5.75-6.36s-5.74,2.75-5.74,6.36,2.44,6.29,5.74,6.29S610,446.83,610,443.26Z"/><path d="M632.27,443.12c0,5.23-3.51,9-8.18,9a7.05,7.05,0,0,1-6-3.34v9.94h-2.75V434.66h2.34l.24,3.06a7,7,0,0,1,6.09-3.47C628.76,434.25,632.27,438,632.27,443.12Zm-2.85.07c0-3.65-2.31-6.29-5.61-6.29s-5.77,2.64-5.77,6.29,2.4,6.26,5.7,6.26S629.42,446.83,629.42,443.19Z"/><path d="M633.16,434.76h1.1c1.17,0,1.86-.85,1.86-2.23v-2.34h2.61v4.47h3.85v2.68h-3.85v10a2.09,2.09,0,0,0,2.34,2.14,6.27,6.27,0,0,0,1.79-.21l.07,2.61a6.12,6.12,0,0,1-2.48.42,4.28,4.28,0,0,1-4.47-4.54V437.38h-2.82Z"/><path d="M652.21,452.27c-4.81,0-8.39-3.79-8.39-9s3.51-9,8.25-9S660,438,660,443.12c0,.38,0,.82,0,1.2H646.85c.2,3.1,2.34,5.3,5.22,5.3,2.48,0,4.41-1.48,4.68-3.68l3,1.1C659,450.06,655.79,452.27,652.21,452.27Zm5-10.59a5.07,5.07,0,0,0-5.16-4.85,5.18,5.18,0,0,0-5.23,4.85Z"/><path d="M670.13,452.27c-5,0-8.53-3.79-8.53-9s3.61-9,8.46-9a7.46,7.46,0,0,1,7.56,6.05l-3,1A4.74,4.74,0,0,0,670,436.9c-3.17,0-5.5,2.68-5.5,6.32s2.33,6.33,5.64,6.33a4.9,4.9,0,0,0,4.81-4.57l3,1A7.84,7.84,0,0,1,670.13,452.27Z"/><path d="M695.16,441.4v10.45h-2.75V441.54a4.22,4.22,0,0,0-4.2-4.54,5.28,5.28,0,0,0-5.36,5.5v9.35H680.1V428.47h2.75v8.77a6.13,6.13,0,0,1,5.64-3C692.34,434.25,695.16,437.27,695.16,441.4Z"/><rect x="835.68" y="439.08" width="12.77" height="12.78"/><rect x="822.89" y="426.3" width="12.78" height="12.78"/><rect x="835.67" y="426.3" width="12.77" height="6.76"/><rect x="822.9" y="445.1" width="12.77" height="6.76"/><path d="M858.67,444.08c0,3.17,2.61,5.43,6.19,5.43,2.82,0,4.88-1.58,4.88-3.91a3.77,3.77,0,0,0-3.23-3.37l-4.19-1c-3.44-.79-5.78-2.95-5.78-5.84,0-3.72,3.09-6.33,7.56-6.33,4.2,0,7.57,2.48,8,5.92l-3.09.82c-.14-2.47-2.27-4.13-5-4.13s-4.47,1.38-4.47,3.44c0,1.79,1.44,3,3.64,3.44l4.33,1c3.17.69,5.3,3,5.3,5.85,0,4.06-3.23,6.88-8,6.88-5.16,0-9.08-3.1-9.35-7.5Z"/><path d="M874.49,443.26c0-5.23,3.57-9,8.59-9s8.6,3.78,8.6,9-3.58,9-8.6,9S874.49,448.48,874.49,443.26Zm14.33,0c0-3.61-2.44-6.36-5.74-6.36s-5.74,2.75-5.74,6.36,2.44,6.29,5.74,6.29S888.82,446.83,888.82,443.26Z"/><path d="M898.42,433.56v1.2h4.12v2.62h-4.12v14.47h-2.75V437.41h-2.82v-2.75h2.82v-1.1c0-3.09,1.92-5.36,4.6-5.36a5,5,0,0,1,3,.82l-.69,2.75a2.5,2.5,0,0,0-1.92-.75C899.24,431,898.42,432.05,898.42,433.56Z"/><path d="M902.54,434.76h1.58c1.17,0,1.86-.85,1.86-2.23v-2.34h2.61v4.47h3.85v2.68h-3.85v10a2.09,2.09,0,0,0,2.34,2.14,6.27,6.27,0,0,0,1.79-.21l.07,2.61a6.12,6.12,0,0,1-2.48.42,4.28,4.28,0,0,1-4.47-4.54V437.38h-3.3Z"/><path d="M913.68,443.26c0-5.23,3.58-9,8.6-9s8.59,3.78,8.59,9-3.57,9-8.59,9S913.68,448.48,913.68,443.26Zm14.34,0c0-3.61-2.44-6.36-5.74-6.36s-5.74,2.75-5.74,6.36,2.44,6.29,5.74,6.29S928,446.83,928,443.26Z"/><path d="M950.33,443.12c0,5.23-3.5,9-8.18,9a7,7,0,0,1-6-3.34v9.94h-2.75V434.66h2.34l.24,3.06a7,7,0,0,1,6.08-3.47C946.83,434.25,950.33,438,950.33,443.12Zm-2.85.07c0-3.65-2.3-6.29-5.6-6.29s-5.78,2.64-5.78,6.29,2.41,6.26,5.71,6.26S947.48,446.83,947.48,443.19Z"/><path d="M951.23,434.76h1.1c1.17,0,1.85-.85,1.85-2.23v-2.34h2.62v4.47h3.85v2.68H956.8v10a2.08,2.08,0,0,0,2.34,2.14,6.24,6.24,0,0,0,1.78-.21l.07,2.61a6,6,0,0,1-2.47.42,4.28,4.28,0,0,1-4.47-4.54V437.38h-2.82Z"/><path d="M970.28,452.27c-4.82,0-8.39-3.79-8.39-9s3.5-9,8.25-9,7.94,3.71,7.94,8.87c0,.38,0,.82,0,1.2H964.91c.21,3.1,2.34,5.3,5.23,5.3,2.47,0,4.4-1.48,4.67-3.68l3,1.1C977.08,450.06,973.85,452.27,970.28,452.27Zm5-10.59a5.07,5.07,0,0,0-5.16-4.85,5.16,5.16,0,0,0-5.22,4.85Z"/><path d="M988.19,452.27c-5,0-8.53-3.79-8.53-9s3.61-9,8.46-9a7.47,7.47,0,0,1,7.57,6.05l-3,1a4.75,4.75,0,0,0-4.68-4.43c-3.16,0-5.5,2.68-5.5,6.32s2.34,6.33,5.64,6.33A4.89,4.89,0,0,0,993,445l3,1A7.86,7.86,0,0,1,988.19,452.27Z"/><path d="M1013.22,441.4v10.45h-2.75V441.54a4.22,4.22,0,0,0-4.2-4.54,5.28,5.28,0,0,0-5.36,5.5v9.35h-2.75V428.47h2.75v8.77a6.13,6.13,0,0,1,5.64-3C1010.4,434.25,1013.22,437.27,1013.22,441.4Z"/><rect x="1153.74" y="439.08" width="12.77" height="12.78"/><rect x="1140.96" y="426.3" width="12.78" height="12.78"/><rect x="1153.74" y="426.3" width="12.77" height="6.76"/><rect x="1140.96" y="445.1" width="12.77" height="6.76"/><path d="M1176.73,444.08c0,3.17,2.62,5.43,6.19,5.43,2.82,0,4.89-1.58,4.89-3.91a3.78,3.78,0,0,0-3.24-3.37l-4.19-1c-3.44-.79-5.78-2.95-5.78-5.84,0-3.72,3.1-6.33,7.57-6.33,4.19,0,7.56,2.48,8,5.92l-3.09.82c-.14-2.47-2.27-4.13-5-4.13s-4.47,1.38-4.47,3.44c0,1.79,1.44,3,3.64,3.44l4.34,1c3.16.69,5.29,3,5.29,5.85,0,4.06-3.23,6.88-8,6.88-5.16,0-9.08-3.1-9.36-7.5Z"/><path d="M1192.55,443.26c0-5.23,3.58-9,8.6-9s8.59,3.78,8.59,9-3.57,9-8.59,9S1192.55,448.48,1192.55,443.26Zm14.34,0c0-3.61-2.44-6.36-5.74-6.36s-5.75,2.75-5.75,6.36,2.45,6.29,5.75,6.29S1206.89,446.83,1206.89,443.26Z"/><path d="M1216.48,433.56v1.2h4.13v2.62h-4.13v14.47h-2.75V437.41h-2.82v-2.75h2.82v-1.1c0-3.09,1.93-5.36,4.61-5.36a5,5,0,0,1,3,.82l-.68,2.75a2.54,2.54,0,0,0-1.93-.75C1217.31,431,1216.48,432.05,1216.48,433.56Z"/><path d="M1220.61,434.76h1.58c1.17,0,1.85-.85,1.85-2.23v-2.34h2.62v4.47h3.85v2.68h-3.85v10a2.08,2.08,0,0,0,2.34,2.14,6.24,6.24,0,0,0,1.78-.21l.07,2.61a6.07,6.07,0,0,1-2.47.42,4.28,4.28,0,0,1-4.47-4.54V437.38h-3.3Z"/><path d="M1231.75,443.26c0-5.23,3.57-9,8.59-9s8.6,3.78,8.6,9-3.58,9-8.6,9S1231.75,448.48,1231.75,443.26Zm14.33,0c0-3.61-2.44-6.36-5.74-6.36s-5.74,2.75-5.74,6.36,2.44,6.29,5.74,6.29S1246.08,446.83,1246.08,443.26Z"/><path d="M1268.4,443.12c0,5.23-3.51,9-8.18,9a7,7,0,0,1-6-3.34v9.94h-2.75V434.66h2.34l.24,3.06a7,7,0,0,1,6.09-3.47C1264.89,434.25,1268.4,438,1268.4,443.12Zm-2.86.07c0-3.65-2.3-6.29-5.6-6.29s-5.78,2.64-5.78,6.29,2.41,6.26,5.71,6.26S1265.54,446.83,1265.54,443.19Z"/><path d="M1269.29,434.76h1.1c1.17,0,1.86-.85,1.86-2.23v-2.34h2.61v4.47h3.85v2.68h-3.85v10a2.08,2.08,0,0,0,2.34,2.14,6.27,6.27,0,0,0,1.79-.21l.07,2.61a6.12,6.12,0,0,1-2.48.42,4.28,4.28,0,0,1-4.47-4.54V437.38h-2.82Z"/><path d="M1288.34,452.27c-4.81,0-8.39-3.79-8.39-9s3.51-9,8.25-9,8,3.71,8,8.87c0,.38,0,.82,0,1.2H1283c.2,3.1,2.33,5.3,5.22,5.3,2.48,0,4.4-1.48,4.68-3.68l3,1.1C1295.15,450.06,1291.92,452.27,1288.34,452.27Zm5-10.59a5.07,5.07,0,0,0-5.16-4.85,5.18,5.18,0,0,0-5.23,4.85Z"/><path d="M1306.25,452.27c-5,0-8.52-3.79-8.52-9s3.61-9,8.45-9a7.46,7.46,0,0,1,7.57,6.05l-3,1a4.74,4.74,0,0,0-4.67-4.43c-3.17,0-5.51,2.68-5.51,6.32s2.34,6.33,5.64,6.33a4.9,4.9,0,0,0,4.82-4.57l3,1A7.85,7.85,0,0,1,1306.25,452.27Z"/><path d="M1331.28,441.4v10.45h-2.75V441.54a4.22,4.22,0,0,0-4.19-4.54,5.27,5.27,0,0,0-5.36,5.5v9.35h-2.76V428.47H1319v8.77a6.1,6.1,0,0,1,5.63-3C1328.46,434.25,1331.28,437.27,1331.28,441.4Z"/><rect x="517.61" y="574.79" width="12.77" height="12.78"/><rect x="504.83" y="562.02" width="12.78" height="12.78"/><rect x="517.61" y="562.02" width="12.77" height="6.76"/><rect x="504.83" y="580.81" width="12.77" height="6.76"/><path d="M540.61,579.8c0,3.16,2.61,5.43,6.19,5.43,2.81,0,4.88-1.58,4.88-3.92a3.8,3.8,0,0,0-3.23-3.37l-4.2-1c-3.44-.79-5.78-3-5.78-5.85,0-3.71,3.1-6.33,7.57-6.33,4.19,0,7.56,2.48,8,5.92l-3.1.82c-.14-2.47-2.27-4.12-5-4.12s-4.47,1.37-4.47,3.44c0,1.78,1.45,2.95,3.65,3.44l4.33,1c3.16.69,5.29,3,5.29,5.84,0,4.06-3.23,6.88-8,6.88-5.16,0-9.08-3.1-9.36-7.5Z"/><path d="M556.42,579c0-5.23,3.58-9,8.6-9s8.59,3.78,8.59,9-3.57,9-8.59,9S556.42,584.2,556.42,579Zm14.34,0c0-3.61-2.44-6.36-5.74-6.36s-5.74,2.75-5.74,6.36,2.44,6.29,5.74,6.29S570.76,582.55,570.76,579Z"/><path d="M580.35,569.27v1.21h4.13v2.61h-4.13v14.48H577.6V573.13h-2.82v-2.76h2.82v-1.1c0-3.09,1.93-5.36,4.61-5.36a5,5,0,0,1,3,.83l-.69,2.75a2.48,2.48,0,0,0-1.93-.76C581.18,566.73,580.35,567.76,580.35,569.27Z"/><path d="M584.48,570.48h1.58c1.17,0,1.86-.86,1.86-2.24v-2.33h2.61v4.46h3.85v2.69h-3.85v10a2.08,2.08,0,0,0,2.34,2.13,6.31,6.31,0,0,0,1.79-.21l.06,2.62a6.22,6.22,0,0,1-2.47.41,4.28,4.28,0,0,1-4.47-4.54V573.09h-3.3Z"/><path d="M595.62,579c0-5.23,3.57-9,8.59-9s8.6,3.78,8.6,9-3.58,9-8.6,9S595.62,584.2,595.62,579ZM610,579c0-3.61-2.45-6.36-5.75-6.36s-5.74,2.75-5.74,6.36,2.44,6.29,5.74,6.29S610,582.55,610,579Z"/><path d="M632.27,578.83c0,5.23-3.51,9-8.18,9a7.07,7.07,0,0,1-6-3.33v9.93h-2.75V570.37h2.34l.24,3.07A7,7,0,0,1,624,570C628.76,570,632.27,573.74,632.27,578.83Zm-2.85.07c0-3.64-2.31-6.29-5.61-6.29S618,575.26,618,578.9s2.4,6.26,5.7,6.26S629.42,582.55,629.42,578.9Z"/><path d="M633.16,570.48h1.1c1.17,0,1.86-.86,1.86-2.24v-2.33h2.61v4.46h3.85v2.69h-3.85v10a2.09,2.09,0,0,0,2.34,2.13,6.27,6.27,0,0,0,1.79-.21l.07,2.62a6.31,6.31,0,0,1-2.48.41,4.28,4.28,0,0,1-4.47-4.54V573.09h-2.82Z"/><path d="M652.21,588c-4.81,0-8.39-3.78-8.39-9s3.51-9,8.25-9,7.95,3.72,7.95,8.87c0,.38,0,.83,0,1.21H646.85c.2,3.09,2.34,5.29,5.22,5.29,2.48,0,4.41-1.48,4.68-3.68l3,1.1C659,585.78,655.79,588,652.21,588Zm5-10.59a5.07,5.07,0,0,0-5.16-4.85,5.18,5.18,0,0,0-5.23,4.85Z"/><path d="M670.13,588c-5,0-8.53-3.78-8.53-9s3.61-9,8.46-9a7.47,7.47,0,0,1,7.56,6l-3,1a4.74,4.74,0,0,0-4.67-4.44c-3.17,0-5.5,2.68-5.5,6.33s2.33,6.32,5.64,6.32a4.9,4.9,0,0,0,4.81-4.57l3,1A7.83,7.83,0,0,1,670.13,588Z"/><path d="M695.16,577.11v10.46h-2.75V577.25a4.22,4.22,0,0,0-4.2-4.54,5.28,5.28,0,0,0-5.36,5.5v9.36H680.1V564.19h2.75V573a6.15,6.15,0,0,1,5.64-3C692.34,570,695.16,573,695.16,577.11Z"/><rect x="835.68" y="574.79" width="12.77" height="12.78"/><rect x="822.89" y="562.02" width="12.78" height="12.78"/><rect x="835.67" y="562.02" width="12.77" height="6.76"/><rect x="822.9" y="580.81" width="12.77" height="6.76"/><path d="M858.67,579.8c0,3.16,2.61,5.43,6.19,5.43,2.82,0,4.88-1.58,4.88-3.92a3.79,3.79,0,0,0-3.23-3.37l-4.19-1c-3.44-.79-5.78-3-5.78-5.85,0-3.71,3.09-6.33,7.56-6.33,4.2,0,7.57,2.48,8,5.92l-3.09.82c-.14-2.47-2.27-4.12-5-4.12s-4.47,1.37-4.47,3.44c0,1.78,1.44,2.95,3.64,3.44l4.33,1c3.17.69,5.3,3,5.3,5.84,0,4.06-3.23,6.88-8,6.88-5.16,0-9.08-3.1-9.35-7.5Z"/><path d="M874.49,579c0-5.23,3.57-9,8.59-9s8.6,3.78,8.6,9-3.58,9-8.6,9S874.49,584.2,874.49,579Zm14.33,0c0-3.61-2.44-6.36-5.74-6.36s-5.74,2.75-5.74,6.36,2.44,6.29,5.74,6.29S888.82,582.55,888.82,579Z"/><path d="M898.42,569.27v1.21h4.12v2.61h-4.12v14.48h-2.75V573.13h-2.82v-2.76h2.82v-1.1c0-3.09,1.92-5.36,4.6-5.36a5,5,0,0,1,3,.83l-.69,2.75a2.47,2.47,0,0,0-1.92-.76C899.24,566.73,898.42,567.76,898.42,569.27Z"/><path d="M902.54,570.48h1.58c1.17,0,1.86-.86,1.86-2.24v-2.33h2.61v4.46h3.85v2.69h-3.85v10a2.09,2.09,0,0,0,2.34,2.13,6.27,6.27,0,0,0,1.79-.21l.07,2.62a6.31,6.31,0,0,1-2.48.41,4.28,4.28,0,0,1-4.47-4.54V573.09h-3.3Z"/><path d="M913.68,579c0-5.23,3.58-9,8.6-9s8.59,3.78,8.59,9-3.57,9-8.59,9S913.68,584.2,913.68,579ZM928,579c0-3.61-2.44-6.36-5.74-6.36s-5.74,2.75-5.74,6.36,2.44,6.29,5.74,6.29S928,582.55,928,579Z"/><path d="M950.33,578.83c0,5.23-3.5,9-8.18,9a7,7,0,0,1-6-3.33v9.93h-2.75V570.37h2.34l.24,3.07a7,7,0,0,1,6.08-3.48C946.83,570,950.33,573.74,950.33,578.83Zm-2.85.07c0-3.64-2.3-6.29-5.6-6.29s-5.78,2.65-5.78,6.29,2.41,6.26,5.71,6.26S947.48,582.55,947.48,578.9Z"/><path d="M951.23,570.48h1.1c1.17,0,1.85-.86,1.85-2.24v-2.33h2.62v4.46h3.85v2.69H956.8v10a2.08,2.08,0,0,0,2.34,2.13,6.24,6.24,0,0,0,1.78-.21l.07,2.62a6.22,6.22,0,0,1-2.47.41,4.28,4.28,0,0,1-4.47-4.54V573.09h-2.82Z"/><path d="M970.28,588c-4.82,0-8.39-3.78-8.39-9s3.5-9,8.25-9,7.94,3.72,7.94,8.87c0,.38,0,.83,0,1.21H964.91c.21,3.09,2.34,5.29,5.23,5.29,2.47,0,4.4-1.48,4.67-3.68l3,1.1C977.08,585.78,973.85,588,970.28,588Zm5-10.59a5.07,5.07,0,0,0-5.16-4.85,5.16,5.16,0,0,0-5.22,4.85Z"/><path d="M988.19,588c-5,0-8.53-3.78-8.53-9s3.61-9,8.46-9a7.48,7.48,0,0,1,7.57,6l-3,1a4.75,4.75,0,0,0-4.68-4.44c-3.16,0-5.5,2.68-5.5,6.33s2.34,6.32,5.64,6.32a4.89,4.89,0,0,0,4.81-4.57l3,1A7.85,7.85,0,0,1,988.19,588Z"/><path d="M1013.22,577.11v10.46h-2.75V577.25a4.22,4.22,0,0,0-4.2-4.54,5.28,5.28,0,0,0-5.36,5.5v9.36h-2.75V564.19h2.75V573a6.15,6.15,0,0,1,5.64-3C1010.4,570,1013.22,573,1013.22,577.11Z"/><rect x="1153.74" y="574.79" width="12.77" height="12.78"/><rect x="1140.96" y="562.02" width="12.78" height="12.78"/><rect x="1153.74" y="562.02" width="12.77" height="6.76"/><rect x="1140.96" y="580.81" width="12.77" height="6.76"/><path d="M1176.73,579.8c0,3.16,2.62,5.43,6.19,5.43,2.82,0,4.89-1.58,4.89-3.92a3.8,3.8,0,0,0-3.24-3.37l-4.19-1c-3.44-.79-5.78-3-5.78-5.85,0-3.71,3.1-6.33,7.57-6.33,4.19,0,7.56,2.48,8,5.92l-3.09.82c-.14-2.47-2.27-4.12-5-4.12s-4.47,1.37-4.47,3.44c0,1.78,1.44,2.95,3.64,3.44l4.34,1c3.16.69,5.29,3,5.29,5.84,0,4.06-3.23,6.88-8,6.88-5.16,0-9.08-3.1-9.36-7.5Z"/><path d="M1192.55,579c0-5.23,3.58-9,8.6-9s8.59,3.78,8.59,9-3.57,9-8.59,9S1192.55,584.2,1192.55,579Zm14.34,0c0-3.61-2.44-6.36-5.74-6.36s-5.75,2.75-5.75,6.36,2.45,6.29,5.75,6.29S1206.89,582.55,1206.89,579Z"/><path d="M1216.48,569.27v1.21h4.13v2.61h-4.13v14.48h-2.75V573.13h-2.82v-2.76h2.82v-1.1c0-3.09,1.93-5.36,4.61-5.36a5,5,0,0,1,3,.83l-.68,2.75a2.51,2.51,0,0,0-1.93-.76C1217.31,566.73,1216.48,567.76,1216.48,569.27Z"/><path d="M1220.61,570.48h1.58c1.17,0,1.85-.86,1.85-2.24v-2.33h2.62v4.46h3.85v2.69h-3.85v10a2.08,2.08,0,0,0,2.34,2.13,6.24,6.24,0,0,0,1.78-.21l.07,2.62a6.26,6.26,0,0,1-2.47.41,4.28,4.28,0,0,1-4.47-4.54V573.09h-3.3Z"/><path d="M1231.75,579c0-5.23,3.57-9,8.59-9s8.6,3.78,8.6,9-3.58,9-8.6,9S1231.75,584.2,1231.75,579Zm14.33,0c0-3.61-2.44-6.36-5.74-6.36s-5.74,2.75-5.74,6.36,2.44,6.29,5.74,6.29S1246.08,582.55,1246.08,579Z"/><path d="M1268.4,578.83c0,5.23-3.51,9-8.18,9a7.05,7.05,0,0,1-6-3.33v9.93h-2.75V570.37h2.34l.24,3.07a7,7,0,0,1,6.09-3.48C1264.89,570,1268.4,573.74,1268.4,578.83Zm-2.86.07c0-3.64-2.3-6.29-5.6-6.29s-5.78,2.65-5.78,6.29,2.41,6.26,5.71,6.26S1265.54,582.55,1265.54,578.9Z"/><path d="M1269.29,570.48h1.1c1.17,0,1.86-.86,1.86-2.24v-2.33h2.61v4.46h3.85v2.69h-3.85v10a2.08,2.08,0,0,0,2.34,2.13A6.27,6.27,0,0,0,1279,585l.07,2.62a6.31,6.31,0,0,1-2.48.41,4.28,4.28,0,0,1-4.47-4.54V573.09h-2.82Z"/><path d="M1288.34,588c-4.81,0-8.39-3.78-8.39-9s3.51-9,8.25-9,8,3.72,8,8.87c0,.38,0,.83,0,1.21H1283c.2,3.09,2.33,5.29,5.22,5.29,2.48,0,4.4-1.48,4.68-3.68l3,1.1C1295.15,585.78,1291.92,588,1288.34,588Zm5-10.59a5.07,5.07,0,0,0-5.16-4.85,5.18,5.18,0,0,0-5.23,4.85Z"/><path d="M1306.25,588c-5,0-8.52-3.78-8.52-9s3.61-9,8.45-9a7.47,7.47,0,0,1,7.57,6l-3,1a4.74,4.74,0,0,0-4.67-4.44c-3.17,0-5.51,2.68-5.51,6.33s2.34,6.32,5.64,6.32a4.9,4.9,0,0,0,4.82-4.57l3,1A7.84,7.84,0,0,1,1306.25,588Z"/><path d="M1331.28,577.11v10.46h-2.75V577.25a4.22,4.22,0,0,0-4.19-4.54,5.27,5.27,0,0,0-5.36,5.5v9.36h-2.76V564.19H1319V573a6.12,6.12,0,0,1,5.63-3C1328.46,570,1331.28,573,1331.28,577.11Z"/><rect x="517.61" y="710.51" width="12.77" height="12.78"/><rect x="504.83" y="697.73" width="12.78" height="12.78"/><rect x="517.61" y="697.73" width="12.77" height="6.76"/><rect x="504.83" y="716.53" width="12.77" height="6.76"/><path d="M540.61,715.51c0,3.16,2.61,5.43,6.19,5.43,2.81,0,4.88-1.58,4.88-3.92a3.8,3.8,0,0,0-3.23-3.37l-4.2-1c-3.44-.79-5.78-3-5.78-5.84,0-3.72,3.1-6.33,7.57-6.33,4.19,0,7.56,2.47,8,5.91l-3.1.83c-.14-2.48-2.27-4.13-5-4.13s-4.47,1.38-4.47,3.44c0,1.79,1.45,3,3.65,3.44l4.33,1c3.16.69,5.29,3,5.29,5.85,0,4-3.23,6.87-8,6.87-5.16,0-9.08-3.09-9.36-7.49Z"/><path d="M556.42,714.68c0-5.22,3.58-9,8.6-9s8.59,3.78,8.59,9-3.57,9-8.59,9S556.42,719.91,556.42,714.68Zm14.34,0c0-3.61-2.44-6.36-5.74-6.36s-5.74,2.75-5.74,6.36,2.44,6.3,5.74,6.3S570.76,718.26,570.76,714.68Z"/><path d="M580.35,705v1.2h4.13v2.62h-4.13v14.47H577.6V708.84h-2.82v-2.75h2.82V705c0-3.1,1.93-5.37,4.61-5.37a5,5,0,0,1,3,.83l-.69,2.75a2.51,2.51,0,0,0-1.93-.76C581.18,702.44,580.35,703.48,580.35,705Z"/><path d="M584.48,706.19h1.58c1.17,0,1.86-.86,1.86-2.23v-2.34h2.61v4.47h3.85v2.68h-3.85v10a2.08,2.08,0,0,0,2.34,2.13,6.36,6.36,0,0,0,1.79-.2l.06,2.61a6,6,0,0,1-2.47.41,4.28,4.28,0,0,1-4.47-4.54V708.81h-3.3Z"/><path d="M595.62,714.68c0-5.22,3.57-9,8.59-9s8.6,3.78,8.6,9-3.58,9-8.6,9S595.62,719.91,595.62,714.68Zm14.34,0c0-3.61-2.45-6.36-5.75-6.36s-5.74,2.75-5.74,6.36,2.44,6.3,5.74,6.3S610,718.26,610,714.68Z"/><path d="M632.27,714.55c0,5.22-3.51,9-8.18,9a7.08,7.08,0,0,1-6-3.34v9.94h-2.75V706.09h2.34l.24,3.06a7,7,0,0,1,6.09-3.47C628.76,705.68,632.27,709.46,632.27,714.55Zm-2.85.07c0-3.65-2.31-6.3-5.61-6.3S618,711,618,714.62s2.4,6.25,5.7,6.25S629.42,718.26,629.42,714.62Z"/><path d="M633.16,706.19h1.1c1.17,0,1.86-.86,1.86-2.23v-2.34h2.61v4.47h3.85v2.68h-3.85v10a2.08,2.08,0,0,0,2.34,2.13,6.31,6.31,0,0,0,1.79-.2l.07,2.61a6.13,6.13,0,0,1-2.48.41,4.28,4.28,0,0,1-4.47-4.54V708.81h-2.82Z"/><path d="M652.21,723.69c-4.81,0-8.39-3.78-8.39-9s3.51-9,8.25-9,7.95,3.71,7.95,8.87c0,.38,0,.82,0,1.2H646.85c.2,3.09,2.34,5.3,5.22,5.3,2.48,0,4.41-1.48,4.68-3.68l3,1.1C659,721.49,655.79,723.69,652.21,723.69Zm5-10.59a5.06,5.06,0,0,0-5.16-4.84,5.17,5.17,0,0,0-5.23,4.84Z"/><path d="M670.13,723.69c-5,0-8.53-3.78-8.53-9s3.61-9,8.46-9a7.46,7.46,0,0,1,7.56,6.05l-3,1a4.75,4.75,0,0,0-4.67-4.44c-3.17,0-5.5,2.69-5.5,6.33s2.33,6.33,5.64,6.33a4.9,4.9,0,0,0,4.81-4.58l3,1A7.83,7.83,0,0,1,670.13,723.69Z"/><path d="M695.16,712.83v10.45h-2.75V713a4.22,4.22,0,0,0-4.2-4.54,5.28,5.28,0,0,0-5.36,5.5v9.35H680.1V699.9h2.75v8.77a6.13,6.13,0,0,1,5.64-3C692.34,705.68,695.16,708.7,695.16,712.83Z"/><rect x="835.68" y="710.51" width="12.77" height="12.78"/><rect x="822.89" y="697.73" width="12.78" height="12.78"/><rect x="835.67" y="697.73" width="12.77" height="6.76"/><rect x="822.9" y="716.53" width="12.77" height="6.76"/><path d="M858.67,715.51c0,3.16,2.61,5.43,6.19,5.43,2.82,0,4.88-1.58,4.88-3.92a3.79,3.79,0,0,0-3.23-3.37l-4.19-1c-3.44-.79-5.78-3-5.78-5.84,0-3.72,3.09-6.33,7.56-6.33,4.2,0,7.57,2.47,8,5.91l-3.09.83c-.14-2.48-2.27-4.13-5-4.13s-4.47,1.38-4.47,3.44c0,1.79,1.44,3,3.64,3.44l4.33,1c3.17.69,5.3,3,5.3,5.85,0,4-3.23,6.87-8,6.87-5.16,0-9.08-3.09-9.35-7.49Z"/><path d="M874.49,714.68c0-5.22,3.57-9,8.59-9s8.6,3.78,8.6,9-3.58,9-8.6,9S874.49,719.91,874.49,714.68Zm14.33,0c0-3.61-2.44-6.36-5.74-6.36s-5.74,2.75-5.74,6.36,2.44,6.3,5.74,6.3S888.82,718.26,888.82,714.68Z"/><path d="M898.42,705v1.2h4.12v2.62h-4.12v14.47h-2.75V708.84h-2.82v-2.75h2.82V705c0-3.1,1.92-5.37,4.6-5.37a5,5,0,0,1,3,.83l-.69,2.75a2.51,2.51,0,0,0-1.92-.76C899.24,702.44,898.42,703.48,898.42,705Z"/><path d="M902.54,706.19h1.58c1.17,0,1.86-.86,1.86-2.23v-2.34h2.61v4.47h3.85v2.68h-3.85v10a2.08,2.08,0,0,0,2.34,2.13,6.31,6.31,0,0,0,1.79-.2l.07,2.61a6.13,6.13,0,0,1-2.48.41,4.28,4.28,0,0,1-4.47-4.54V708.81h-3.3Z"/><path d="M913.68,714.68c0-5.22,3.58-9,8.6-9s8.59,3.78,8.59,9-3.57,9-8.59,9S913.68,719.91,913.68,714.68Zm14.34,0c0-3.61-2.44-6.36-5.74-6.36s-5.74,2.75-5.74,6.36,2.44,6.3,5.74,6.3S928,718.26,928,714.68Z"/><path d="M950.33,714.55c0,5.22-3.5,9-8.18,9a7,7,0,0,1-6-3.34v9.94h-2.75V706.09h2.34l.24,3.06a7,7,0,0,1,6.08-3.47C946.83,705.68,950.33,709.46,950.33,714.55Zm-2.85.07c0-3.65-2.3-6.3-5.6-6.3s-5.78,2.65-5.78,6.3,2.41,6.25,5.71,6.25S947.48,718.26,947.48,714.62Z"/><path d="M951.23,706.19h1.1c1.17,0,1.85-.86,1.85-2.23v-2.34h2.62v4.47h3.85v2.68H956.8v10a2.08,2.08,0,0,0,2.34,2.13,6.28,6.28,0,0,0,1.78-.2l.07,2.61a6,6,0,0,1-2.47.41,4.27,4.27,0,0,1-4.47-4.54V708.81h-2.82Z"/><path d="M970.28,723.69c-4.82,0-8.39-3.78-8.39-9s3.5-9,8.25-9,7.94,3.71,7.94,8.87c0,.38,0,.82,0,1.2H964.91c.21,3.09,2.34,5.3,5.23,5.3,2.47,0,4.4-1.48,4.67-3.68l3,1.1C977.08,721.49,973.85,723.69,970.28,723.69Zm5-10.59a5.06,5.06,0,0,0-5.16-4.84,5.16,5.16,0,0,0-5.22,4.84Z"/><path d="M988.19,723.69c-5,0-8.53-3.78-8.53-9s3.61-9,8.46-9a7.47,7.47,0,0,1,7.57,6.05l-3,1a4.76,4.76,0,0,0-4.68-4.44c-3.16,0-5.5,2.69-5.5,6.33s2.34,6.33,5.64,6.33A4.89,4.89,0,0,0,993,716.4l3,1A7.85,7.85,0,0,1,988.19,723.69Z"/><path d="M1013.22,712.83v10.45h-2.75V713a4.22,4.22,0,0,0-4.2-4.54,5.28,5.28,0,0,0-5.36,5.5v9.35h-2.75V699.9h2.75v8.77a6.13,6.13,0,0,1,5.64-3C1010.4,705.68,1013.22,708.7,1013.22,712.83Z"/><rect x="1153.74" y="710.51" width="12.77" height="12.78"/><rect x="1140.96" y="697.73" width="12.78" height="12.78"/><rect x="1153.74" y="697.73" width="12.77" height="6.76"/><rect x="1140.96" y="716.53" width="12.77" height="6.76"/><path d="M1176.73,715.51c0,3.16,2.62,5.43,6.19,5.43,2.82,0,4.89-1.58,4.89-3.92a3.8,3.8,0,0,0-3.24-3.37l-4.19-1c-3.44-.79-5.78-3-5.78-5.84,0-3.72,3.1-6.33,7.57-6.33,4.19,0,7.56,2.47,8,5.91l-3.09.83c-.14-2.48-2.27-4.13-5-4.13s-4.47,1.38-4.47,3.44c0,1.79,1.44,3,3.64,3.44l4.34,1c3.16.69,5.29,3,5.29,5.85,0,4-3.23,6.87-8,6.87-5.16,0-9.08-3.09-9.36-7.49Z"/><path d="M1192.55,714.68c0-5.22,3.58-9,8.6-9s8.59,3.78,8.59,9-3.57,9-8.59,9S1192.55,719.91,1192.55,714.68Zm14.34,0c0-3.61-2.44-6.36-5.74-6.36s-5.75,2.75-5.75,6.36,2.45,6.3,5.75,6.3S1206.89,718.26,1206.89,714.68Z"/><path d="M1216.48,705v1.2h4.13v2.62h-4.13v14.47h-2.75V708.84h-2.82v-2.75h2.82V705c0-3.1,1.93-5.37,4.61-5.37a5,5,0,0,1,3,.83l-.68,2.75a2.55,2.55,0,0,0-1.93-.76C1217.31,702.44,1216.48,703.48,1216.48,705Z"/><path d="M1220.61,706.19h1.58c1.17,0,1.85-.86,1.85-2.23v-2.34h2.62v4.47h3.85v2.68h-3.85v10a2.08,2.08,0,0,0,2.34,2.13,6.28,6.28,0,0,0,1.78-.2l.07,2.61a6.08,6.08,0,0,1-2.47.41,4.27,4.27,0,0,1-4.47-4.54V708.81h-3.3Z"/><path d="M1231.75,714.68c0-5.22,3.57-9,8.59-9s8.6,3.78,8.6,9-3.58,9-8.6,9S1231.75,719.91,1231.75,714.68Zm14.33,0c0-3.61-2.44-6.36-5.74-6.36s-5.74,2.75-5.74,6.36,2.44,6.3,5.74,6.3S1246.08,718.26,1246.08,714.68Z"/><path d="M1268.4,714.55c0,5.22-3.51,9-8.18,9a7.06,7.06,0,0,1-6-3.34v9.94h-2.75V706.09h2.34l.24,3.06a7,7,0,0,1,6.09-3.47C1264.89,705.68,1268.4,709.46,1268.4,714.55Zm-2.86.07c0-3.65-2.3-6.3-5.6-6.3s-5.78,2.65-5.78,6.3,2.41,6.25,5.71,6.25S1265.54,718.26,1265.54,714.62Z"/><path d="M1269.29,706.19h1.1c1.17,0,1.86-.86,1.86-2.23v-2.34h2.61v4.47h3.85v2.68h-3.85v10a2.08,2.08,0,0,0,2.34,2.13,6.31,6.31,0,0,0,1.79-.2l.07,2.61a6.13,6.13,0,0,1-2.48.41,4.28,4.28,0,0,1-4.47-4.54V708.81h-2.82Z"/><path d="M1288.34,723.69c-4.81,0-8.39-3.78-8.39-9s3.51-9,8.25-9,8,3.71,8,8.87c0,.38,0,.82,0,1.2H1283c.2,3.09,2.33,5.3,5.22,5.3,2.48,0,4.4-1.48,4.68-3.68l3,1.1C1295.15,721.49,1291.92,723.69,1288.34,723.69Zm5-10.59a5.06,5.06,0,0,0-5.16-4.84,5.17,5.17,0,0,0-5.23,4.84Z"/><path d="M1306.25,723.69c-5,0-8.52-3.78-8.52-9s3.61-9,8.45-9a7.46,7.46,0,0,1,7.57,6.05l-3,1a4.75,4.75,0,0,0-4.67-4.44c-3.17,0-5.51,2.69-5.51,6.33s2.34,6.33,5.64,6.33a4.9,4.9,0,0,0,4.82-4.58l3,1A7.84,7.84,0,0,1,1306.25,723.69Z"/><path d="M1331.28,712.83v10.45h-2.75V713a4.21,4.21,0,0,0-4.19-4.54,5.27,5.27,0,0,0-5.36,5.5v9.35h-2.76V699.9H1319v8.77a6.1,6.1,0,0,1,5.63-3C1328.46,705.68,1331.28,708.7,1331.28,712.83Z"/></g></svg>