<svg id="Layer_1" data-name="Layer 1" xmlns="http://www.w3.org/2000/svg" viewBox="0 0 1920 1080"><defs><style>.cls-1{fill:#222831;}.cls-2{fill:#eee;}.cls-3,.cls-6{fill:#4f8a8b;}.cls-4{fill:#3c6869;}.cls-5{fill:#fbd46d;}.cls-6{opacity:0.39;}.cls-10,.cls-11,.cls-6,.cls-7{isolation:isolate;}.cls-10,.cls-7{opacity:0.1;}.cls-8{fill:#ccc;}.cls-9{fill:#f2f2f2;}.cls-10,.cls-11{fill:#fff;}.cls-11{opacity:0.05;}</style></defs><polygon class="cls-1" points="1976.47 -31.76 1976.47 638.47 -56.47 902.64 -56.47 -31.76 1976.47 -31.76"/><path class="cls-2" d="M958.51,330.58a14.51,14.51,0,0,1-3.4,6.57,15,15,0,0,1-6.05,4,25.83,25.83,0,0,1-13.79.63,17.27,17.27,0,0,1-4.93-2,15.16,15.16,0,0,1-3.81-3.29,13.68,13.68,0,0,1-2.44-4.64,20.87,20.87,0,0,1,0-11.79,13.53,13.53,0,0,1,2.44-4.61,15,15,0,0,1,3.81-3.29,17.89,17.89,0,0,1,4.93-2,24,24,0,0,1,5.75-.64,23.46,23.46,0,0,1,7.52,1.14,15.62,15.62,0,0,1,5.87,3.52,13.87,13.87,0,0,1,3.57,5.75h7.84a20.21,20.21,0,0,0-4.82-9.15,22.17,22.17,0,0,0-8.62-5.75A32.06,32.06,0,0,0,941,303a33.25,33.25,0,0,0-7,.7,30.8,30.8,0,0,0-6.13,2,21.26,21.26,0,0,0-5.11,3.26,19.88,19.88,0,0,0-3.86,4.49,20.51,20.51,0,0,0-2.47,5.65,25.15,25.15,0,0,0-.88,6.76,24.61,24.61,0,0,0,1.23,7.91,19.63,19.63,0,0,0,3.52,6.41,22.61,22.61,0,0,0,5.39,4.66,24.66,24.66,0,0,0,7,2.91,34.21,34.21,0,0,0,8.24,1l.24.11a32.29,32.29,0,0,0,9.13-1.23,25.94,25.94,0,0,0,7.51-3.51,19.3,19.3,0,0,0,5.45-5.75,21.36,21.36,0,0,0,2.9-7.78Z"/><path class="cls-2" d="M982.92,342.32V303h-8v45.83h36.58v-6.53Z"/><path class="cls-2" d="M1018.5,303v45.83h8V303Z"/><path class="cls-2" d="M1078.34,330.58a14.7,14.7,0,0,1-3.4,6.57,15.1,15.1,0,0,1-6,4,25.84,25.84,0,0,1-13.79.63,17.34,17.34,0,0,1-4.94-2,14.94,14.94,0,0,1-3.8-3.29,13.51,13.51,0,0,1-2.44-4.64,20.87,20.87,0,0,1,0-11.79,13.36,13.36,0,0,1,2.44-4.61,14.74,14.74,0,0,1,3.8-3.29,18,18,0,0,1,4.94-2,24,24,0,0,1,5.75-.64,23.44,23.44,0,0,1,7.51,1.14,15.54,15.54,0,0,1,5.87,3.52,13.76,13.76,0,0,1,3.57,5.75h7.84a20.2,20.2,0,0,0-4.81-9.15,22.14,22.14,0,0,0-8.63-5.75,32,32,0,0,0-11.41-1.94,33.09,33.09,0,0,0-7,.7,30.68,30.68,0,0,0-6.14,2,21.45,21.45,0,0,0-5.11,3.26,19.88,19.88,0,0,0-3.86,4.49,21.12,21.12,0,0,0-2.47,5.65,25.15,25.15,0,0,0-.88,6.76,24.89,24.89,0,0,0,1.23,7.91,19.81,19.81,0,0,0,3.52,6.41,22.66,22.66,0,0,0,5.4,4.66,24.42,24.42,0,0,0,7,2.91,34.21,34.21,0,0,0,8.24,1l.23.11a32.24,32.24,0,0,0,9.13-1.23,25.82,25.82,0,0,0,7.51-3.51,19.46,19.46,0,0,0,5.46-5.75,21.54,21.54,0,0,0,2.9-7.78Z"/><path class="cls-2" d="M1120.94,317.27,1137.17,303h-10.94l-23.65,20.75V303h-7.88v45.83h7.88V332.57L1115.3,322l14.08,26.86h9.16Z"/><path class="cls-3" d="M936.38,370.93a8.79,8.79,0,0,0-3.53-4,11,11,0,0,0-5.76-1.41h0a9,9,0,0,0-5.12,1.42,9.53,9.53,0,0,0-3.28,3.84l-.28-4.82h-2.9v31.52h3.24V383.41a10,10,0,0,0,3.28,3.79,8.72,8.72,0,0,0,5,1.39,11.1,11.1,0,0,0,5.77-1.43,8.66,8.66,0,0,0,3.53-4,14.8,14.8,0,0,0,1.16-6.15A14.47,14.47,0,0,0,936.38,370.93Zm-2.4,9.81a7.53,7.53,0,0,1-1.45,2.8,6.08,6.08,0,0,1-2.46,1.76,9.05,9.05,0,0,1-3.48.61h0a7.88,7.88,0,0,1-3.37-.7,7,7,0,0,1-2.53-1.9,8.44,8.44,0,0,1-1.56-2.79,11.45,11.45,0,0,1,0-6.95,8.1,8.1,0,0,1,1.56-2.78,7.22,7.22,0,0,1,2.53-1.85,8,8,0,0,1,3.37-.7,8.44,8.44,0,0,1,4.42,1.08,6.47,6.47,0,0,1,2.66,3,11.91,11.91,0,0,1,.84,4.71A13.21,13.21,0,0,1,934,380.74Z"/><path class="cls-3" d="M958.59,369.86a5.9,5.9,0,0,0-1.23-2.55,4.53,4.53,0,0,0-2-1.35,8.15,8.15,0,0,0-2.72-.41l0,0a6.26,6.26,0,0,0-3.66,1.09,7.31,7.31,0,0,0-2.52,3.34l-.24-4h-2.95v22.17h3.22V376.59a21.54,21.54,0,0,1,.15-2.67,11.22,11.22,0,0,1,.45-2.06,6.51,6.51,0,0,1,.69-1.53,4.77,4.77,0,0,1,.85-1.07,3.87,3.87,0,0,1,1-.67,4.85,4.85,0,0,1,1-.36,5.47,5.47,0,0,1,1.1-.08,6.84,6.84,0,0,1,1.37.12,3.53,3.53,0,0,1,1.09.49,2.28,2.28,0,0,1,.84,1,6.24,6.24,0,0,1,.51,1.64,13.13,13.13,0,0,1,.19,2.44v.72H959v-.72A15.88,15.88,0,0,0,958.59,369.86Z"/><path class="cls-3" d="M984.61,372.25a10,10,0,0,0-2.34-3.62,10.5,10.5,0,0,0-3.73-2.3,15.26,15.26,0,0,0-9.81,0,10.45,10.45,0,0,0-3.73,2.32,10,10,0,0,0-2.34,3.62,13.41,13.41,0,0,0-.82,4.77,12.31,12.31,0,0,0,1.46,6.12,9.85,9.85,0,0,0,4.12,4,13.16,13.16,0,0,0,6.25,1.42l0-.07a14,14,0,0,0,4.9-.82,10.62,10.62,0,0,0,3.73-2.29,10.14,10.14,0,0,0,2.34-3.65,14.28,14.28,0,0,0,0-9.54ZM980,383.58a8.28,8.28,0,0,1-6.31,2.4v0a8.21,8.21,0,0,1-6.29-2.4,10.57,10.57,0,0,1,0-13,8.18,8.18,0,0,1,6.27-2.4,8.34,8.34,0,0,1,6.34,2.4,10.47,10.47,0,0,1,0,13Z"/><path class="cls-3" d="M1011.75,370.93a8.81,8.81,0,0,0-3.54-4,11,11,0,0,0-5.75-1.41h0a9,9,0,0,0-5.12,1.42,9.38,9.38,0,0,0-3.28,3.84l-.28-4.82h-2.91v31.52h3.25V383.41a9.8,9.8,0,0,0,3.28,3.79,8.64,8.64,0,0,0,5,1.39,11.1,11.1,0,0,0,5.77-1.43,8.68,8.68,0,0,0,3.54-4,14.8,14.8,0,0,0,1.16-6.15A14.47,14.47,0,0,0,1011.75,370.93Zm-2.4,9.81a7.84,7.84,0,0,1-1.45,2.8,6.12,6.12,0,0,1-2.47,1.76,9,9,0,0,1-3.47.61h-.05a7.91,7.91,0,0,1-3.37-.7,7,7,0,0,1-2.52-1.9,8.1,8.1,0,0,1-1.56-2.79,11.25,11.25,0,0,1,0-6.95,7.78,7.78,0,0,1,1.56-2.78,7.18,7.18,0,0,1,2.52-1.85,8.06,8.06,0,0,1,3.37-.7,8.48,8.48,0,0,1,4.43,1.08,6.4,6.4,0,0,1,2.65,3,11.91,11.91,0,0,1,.84,4.71A13.6,13.6,0,0,1,1009.35,380.74Z"/><path class="cls-3" d="M1039.46,376.55c0-3.61-1-6.34-2.84-8.22s-4.6-2.81-8.11-2.81a13.33,13.33,0,0,0-6.19,1.36,9.49,9.49,0,0,0-4.05,4,12.73,12.73,0,0,0-1.43,6.17c0,3.62,1,6.44,3.1,8.49s4.93,3.05,8.61,3.05a11.54,11.54,0,0,0,7-2,10.27,10.27,0,0,0,3.86-5.62h-3.06a6.72,6.72,0,0,1-2.75,3.72,9,9,0,0,1-5.1,1.33,8.42,8.42,0,0,1-6.17-2.15c-1.45-1.43-2.19-3.56-2.22-6.36h19.3Zm-19.31-1.22a8.19,8.19,0,0,1,2.48-5.52,8.57,8.57,0,0,1,5.88-1.86,6.74,6.74,0,0,1,7.62,7.38Z"/><path class="cls-3" d="M1060.43,369.86a6,6,0,0,0-1.24-2.55,4.48,4.48,0,0,0-2-1.35,8.09,8.09,0,0,0-2.71-.41l0,0a6.32,6.32,0,0,0-3.67,1.09,7.31,7.31,0,0,0-2.52,3.34l-.23-4h-3v22.17h3.22V376.59a23.82,23.82,0,0,1,.14-2.67,11.22,11.22,0,0,1,.45-2.06,7.44,7.44,0,0,1,.69-1.53,5.41,5.41,0,0,1,.85-1.07,3.76,3.76,0,0,1,1-.67,4.51,4.51,0,0,1,1-.36,5.37,5.37,0,0,1,1.09-.08,6.77,6.77,0,0,1,1.37.12,3.58,3.58,0,0,1,1.1.49,2.42,2.42,0,0,1,.84,1,6.24,6.24,0,0,1,.51,1.64,14.15,14.15,0,0,1,.18,2.44v.72h3.18v-.72A15.93,15.93,0,0,0,1060.43,369.86Z"/><path class="cls-3" d="M1078.2,368.3V366h-6.65v-7.77h-2.36l-.86,7.77h-5.16v2.34h5.1v14.63a5.28,5.28,0,0,0,1.59,4.14,6.26,6.26,0,0,0,4.39,1.46l0,0a13.22,13.22,0,0,0,4-.67v-2.59a9.39,9.39,0,0,1-3.22.65,3.51,3.51,0,0,1-2.52-.88,3.63,3.63,0,0,1-.91-2.7V368.3Z"/><path class="cls-3" d="M1082.4,356v4.38h4.67V356Zm.67,10v22.17h3.33V366Z"/><path class="cls-3" d="M1114.55,376.55c0-3.61-.94-6.34-2.84-8.22s-4.59-2.81-8.11-2.81a13.36,13.36,0,0,0-6.19,1.36,9.47,9.47,0,0,0-4,4,12.62,12.62,0,0,0-1.44,6.17c0,3.62,1,6.44,3.1,8.49s4.93,3.05,8.62,3.05a11.59,11.59,0,0,0,7-2,10.36,10.36,0,0,0,3.85-5.62h-3a6.79,6.79,0,0,1-2.77,3.72,8.93,8.93,0,0,1-5.09,1.33,8.44,8.44,0,0,1-6.17-2.15c-1.45-1.43-2.18-3.56-2.21-6.36h19.29Zm-19.3-1.22a8.18,8.18,0,0,1,2.47-5.52,8.59,8.59,0,0,1,5.88-1.86,7.81,7.81,0,0,1,5.61,1.83,7.91,7.91,0,0,1,2,5.55Z"/><path class="cls-3" d="M1138.24,380a5.37,5.37,0,0,0-.71-1.46,4.6,4.6,0,0,0-1.19-1.07,9.71,9.71,0,0,0-1.39-.76,10.46,10.46,0,0,0-1.7-.5c-.7-.15-1.28-.28-1.77-.36s-1.11-.16-1.88-.25c-.14,0-.35-.05-.62-.07-.66-.06-1.23-.12-1.73-.21l-1.59-.27a7.34,7.34,0,0,1-1.4-.4,4.77,4.77,0,0,1-1.07-.59,2.37,2.37,0,0,1-.74-.84,2.63,2.63,0,0,1-.26-1.18,3.48,3.48,0,0,1,.36-1.56,3.18,3.18,0,0,1,1-1.13,5.38,5.38,0,0,1,1.41-.75,9.69,9.69,0,0,1,1.67-.41,12,12,0,0,1,3.53,0,7.31,7.31,0,0,1,1.65.44,5.5,5.5,0,0,1,1.39.78,3.44,3.44,0,0,1,1.3,2.73l3.28,0a6,6,0,0,0-.56-2.51,5.55,5.55,0,0,0-1.44-1.83,7.81,7.81,0,0,0-2.08-1.22,11.52,11.52,0,0,0-2.5-.72,16.35,16.35,0,0,0-2.78-.21,18.87,18.87,0,0,0-2.91.23,11.1,11.1,0,0,0-2.53.74,7.69,7.69,0,0,0-2,1.26,5.14,5.14,0,0,0-1.33,1.86,6.1,6.1,0,0,0-.48,2.46,5.22,5.22,0,0,0,.74,2.84,6.45,6.45,0,0,0,4.1,2.49,34.72,34.72,0,0,0,4.36.65c.68.07,1.2.13,1.56.19s.82.12,1.39.23a10.49,10.49,0,0,1,1.33.32,11.17,11.17,0,0,1,1.07.44,2.58,2.58,0,0,1,1.43,1.5,2.88,2.88,0,0,1,.25,1.13,3.37,3.37,0,0,1-.31,1.64,3.51,3.51,0,0,1-.94,1.2,5.44,5.44,0,0,1-1.5.78,8.57,8.57,0,0,1-1.86.45,17.13,17.13,0,0,1-2.08.12,17.4,17.4,0,0,1-2.11-.12,9.3,9.3,0,0,1-1.89-.45,5,5,0,0,1-1.54-.82,3.41,3.41,0,0,1-1-1.26,3.7,3.7,0,0,1-.31-1.72h-3.33a6.31,6.31,0,0,0,.61,2.7,5.46,5.46,0,0,0,1.51,2,8.7,8.7,0,0,0,2.28,1.26,14,14,0,0,0,2.73.71,18.42,18.42,0,0,0,3,.22v-.13a20.31,20.31,0,0,0,3.1-.24,11.74,11.74,0,0,0,2.71-.73,8,8,0,0,0,2.17-1.26,5.06,5.06,0,0,0,1.41-1.9,6.21,6.21,0,0,0,.51-2.57A5.9,5.9,0,0,0,1138.24,380Z"/><path class="cls-2" d="M875.94,303,860.35,318.6a33.3,33.3,0,0,0-47.09,0h0a33.29,33.29,0,1,0,47.08,47.09h0l15.58,15.59h0A55.34,55.34,0,0,1,797.67,303h0A55.35,55.35,0,0,1,875.94,303Z"/><path class="cls-4" d="M860,341.44l-.9,3.32-2.62-2.62,2.77-2.77A1.6,1.6,0,0,1,860,341.44Z"/><path class="cls-3" d="M860,341.44c-.07.28-.15.56-.22.84.07-.29.15-.56.23-.84,0-.13.06-.25.08-.38C860.1,341.19,860.08,341.31,860,341.44Zm0,0c-.07.28-.15.56-.22.84.07-.29.15-.56.23-.84,0-.13.06-.25.08-.38C860.1,341.19,860.08,341.31,860,341.44ZM875.93,303l-15.58,15.58L836.8,342.14l23.54,23.55h0l15.58,15.57V303Zm-10.48,38.36c1,3.74,2,7.49,3.08,11.24a1.5,1.5,0,0,1-.14,1.4,1.54,1.54,0,0,1-1.25.45h-8.77c-1.23,0-1.71-.66-1.38-1.86.72-2.61,1.44-5.23,2.15-7.84h0c.16-.55.3-1.1.46-1.65l.18-.68c0-.05,0-.1,0-.14.07-.29.15-.56.23-.84,0-.13.06-.25.08-.38h0a1.69,1.69,0,0,0,0-.72,1.17,1.17,0,0,0-.1-.26l-.06-.09-.11-.15a1.32,1.32,0,0,0-.24-.23l-.3-.24h0a6.21,6.21,0,0,1-2.6-6.46,6.3,6.3,0,0,1,5.18-4.85,6.17,6.17,0,0,1,6.08,2.67,6.29,6.29,0,0,1-1.75,8.68A1.54,1.54,0,0,0,865.45,341.37Zm-5.41.07c-.07.28-.15.56-.22.84.07-.29.15-.56.23-.84,0-.13.06-.25.08-.38C860.1,341.19,860.08,341.31,860,341.44Zm0,0c-.07.28-.15.56-.22.84.07-.29.15-.56.23-.84,0-.13.06-.25.08-.38C860.1,341.19,860.08,341.31,860,341.44Z"/><polygon class="cls-2" points="1976.47 460.14 1976.47 1096.31 -56.47 1096.31 -56.47 724.31 1976.47 460.14"/><rect class="cls-1" x="1245.43" y="877.65" width="1.81" height="71.31"/><circle class="cls-5" cx="606.25" cy="742.31" r="25.22"/><circle class="cls-6" cx="641.63" cy="773.41" r="14.51"/><path class="cls-3" d="M1263.9,886.74c.12,24.94-17.43,45.23-17.43,45.23s-17.73-20.13-17.84-45.07,17.43-45.23,17.43-45.23S1263.79,861.8,1263.9,886.74Z"/><path class="cls-7" d="M1263.9,886.74c.12,24.94-17.43,45.23-17.43,45.23s-17.73-20.13-17.84-45.07,17.43-45.23,17.43-45.23S1263.79,861.8,1263.9,886.74Z"/><path class="cls-1" d="M504.89,941c1.53,5.65,6.77,9.15,6.77,9.15s2.75-5.66,1.23-11.32-6.77-9.15-6.77-9.15S503.36,935.38,504.89,941Z"/><path class="cls-3" d="M507.14,939.82c4.19,4.09,4.7,10.37,4.7,10.37s-6.29-.35-10.48-4.43-4.71-10.37-4.71-10.37S502.94,935.74,507.14,939.82Z"/><path class="cls-1" d="M1057.34,941c1.53,5.65,6.77,9.15,6.77,9.15s2.75-5.66,1.23-11.32-6.77-9.15-6.77-9.15S1055.81,935.38,1057.34,941Z"/><path class="cls-3" d="M1059.59,939.82c4.19,4.09,4.71,10.37,4.71,10.37s-6.3-.35-10.49-4.43-4.71-10.37-4.71-10.37S1055.39,935.74,1059.59,939.82Z"/><polygon class="cls-1" points="515.28 898.55 511.54 892.32 546.4 862.45 636.03 862.45 636.03 871.16 603.66 906.02 566.32 913.49 515.28 898.55"/><polygon class="cls-8" points="651.46 879.98 651.46 860.5 639.73 860.5 639.73 866.64 636.03 862.45 606.15 892.32 601.17 897.3 594.95 922.2 606.15 949.59 663.42 949.59 663.42 893.57 651.46 879.98"/><rect class="cls-9" x="511.54" y="892.32" width="94.61" height="57.26"/><rect class="cls-1" x="573.16" y="910.37" width="19.92" height="17.43"/><rect class="cls-8" x="547.64" y="909.75" width="17.43" height="39.84"/><polygon class="cls-1" points="527.73 915.98 527.73 909.75 520.26 909.75 520.26 915.98 527.1 915.98 527.73 915.98"/><polygon class="cls-1" points="527.1 920.96 520.26 920.96 520.26 927.18 527.73 927.18 527.73 920.96 527.1 920.96"/><rect class="cls-1" x="532.7" y="909.75" width="7.47" height="6.22"/><rect class="cls-1" x="532.7" y="920.95" width="7.47" height="6.22"/><polygon class="cls-1" points="632.92 916.6 632.92 910.37 625.45 910.37 625.45 916.6 632.29 916.6 632.92 916.6"/><polygon class="cls-1" points="632.29 921.58 625.45 921.58 625.45 927.8 632.92 927.8 632.92 921.58 632.29 921.58"/><rect class="cls-1" x="637.9" y="910.37" width="7.47" height="6.22"/><rect class="cls-1" x="637.9" y="921.58" width="7.47" height="6.22"/><polygon class="cls-1" points="875.45 898.55 871.72 892.32 906.57 862.45 996.21 862.45 996.21 871.16 963.84 906.02 926.49 913.49 875.45 898.55"/><polygon class="cls-8" points="1011.64 879.98 1011.64 860.5 999.9 860.5 999.9 866.64 996.21 862.45 966.33 892.32 961.35 897.3 955.13 922.2 966.33 949.59 1023.59 949.59 1023.59 893.57 1011.64 879.98"/><rect class="cls-9" x="871.72" y="892.32" width="94.61" height="57.26"/><rect class="cls-1" x="933.34" y="910.37" width="19.92" height="17.43"/><rect class="cls-8" x="907.82" y="909.75" width="17.43" height="39.84"/><polygon class="cls-1" points="887.9 915.98 887.9 909.75 880.43 909.75 880.43 915.98 887.28 915.98 887.9 915.98"/><polygon class="cls-1" points="887.28 920.96 880.43 920.96 880.43 927.18 887.9 927.18 887.9 920.96 887.28 920.96"/><rect class="cls-1" x="892.88" y="909.75" width="7.47" height="6.22"/><rect class="cls-1" x="892.88" y="920.95" width="7.47" height="6.22"/><polygon class="cls-1" points="993.09 916.6 993.09 910.37 985.62 910.37 985.62 916.6 992.47 916.6 993.09 916.6"/><polygon class="cls-1" points="992.47 921.58 985.62 921.58 985.62 927.8 993.09 927.8 993.09 921.58 992.47 921.58"/><rect class="cls-1" x="998.07" y="910.37" width="7.47" height="6.22"/><rect class="cls-1" x="998.07" y="921.58" width="7.47" height="6.22"/><polygon class="cls-1" points="706.99 793.98 700.76 789 735.62 757.87 824.01 757.87 824.01 785.26 766.74 823.85 706.99 793.98"/><polygon class="cls-8" points="840.12 775.33 840.12 758.5 828.39 758.5 828.39 762.62 824.01 757.87 795.38 789 784.17 796.47 766.8 923.39 793 949.59 853.89 949.59 853.89 790.24 840.12 775.33"/><rect class="cls-9" x="700.76" y="789" width="94.61" height="160.59"/><rect class="cls-8" x="737.49" y="910.37" width="17.43" height="39.21"/><polygon class="cls-1" points="718.82 921.58 718.82 915.35 711.35 915.35 711.35 921.58 718.19 921.58 718.82 921.58"/><polygon class="cls-1" points="718.19 926.56 711.35 926.56 711.35 932.78 718.82 932.78 718.82 926.56 718.19 926.56"/><rect class="cls-1" x="723.79" y="915.35" width="7.47" height="6.22"/><rect class="cls-1" x="723.79" y="926.56" width="7.47" height="6.22"/><polygon class="cls-1" points="769.86 921.58 769.86 915.35 762.39 915.35 762.39 921.58 769.23 921.58 769.86 921.58"/><polygon class="cls-1" points="769.23 926.56 762.39 926.56 762.39 932.78 769.86 932.78 769.86 926.56 769.23 926.56"/><rect class="cls-1" x="774.84" y="915.35" width="7.47" height="6.22"/><rect class="cls-1" x="774.84" y="926.56" width="7.47" height="6.22"/><polygon class="cls-1" points="822.14 797.09 822.14 790.86 814.67 790.86 814.67 797.09 821.52 797.09 822.14 797.09"/><polygon class="cls-1" points="821.52 802.07 814.67 802.07 814.67 808.29 822.14 808.29 822.14 802.07 821.52 802.07"/><rect class="cls-1" x="827.12" y="790.86" width="7.47" height="6.22"/><rect class="cls-1" x="827.12" y="802.07" width="7.47" height="6.22"/><polygon class="cls-1" points="822.14 831.95 822.14 825.72 814.67 825.72 814.67 831.95 821.52 831.95 822.14 831.95"/><polygon class="cls-1" points="821.52 836.92 814.67 836.92 814.67 843.15 822.14 843.15 822.14 836.92 821.52 836.92"/><rect class="cls-1" x="827.12" y="825.72" width="7.47" height="6.22"/><rect class="cls-1" x="827.12" y="836.93" width="7.47" height="6.22"/><polygon class="cls-1" points="822.14 866.8 822.14 860.58 814.67 860.58 814.67 866.8 821.52 866.8 822.14 866.8"/><polygon class="cls-1" points="821.52 871.78 814.67 871.78 814.67 878.01 822.14 878.01 822.14 871.78 821.52 871.78"/><rect class="cls-1" x="827.12" y="860.58" width="7.47" height="6.22"/><rect class="cls-1" x="827.12" y="871.78" width="7.47" height="6.22"/><polygon class="cls-1" points="822.14 901.66 822.14 895.43 814.67 895.43 814.67 901.66 821.52 901.66 822.14 901.66"/><polygon class="cls-1" points="821.52 906.64 814.67 906.64 814.67 912.86 822.14 912.86 822.14 906.64 821.52 906.64"/><rect class="cls-1" x="827.12" y="895.43" width="7.47" height="6.22"/><rect class="cls-1" x="827.12" y="906.64" width="7.47" height="6.22"/><rect class="cls-1" x="711.35" y="797.09" width="72.2" height="14.94"/><rect class="cls-1" x="711.35" y="826.97" width="72.2" height="14.94"/><rect class="cls-1" x="711.35" y="856.84" width="72.2" height="14.94"/><rect class="cls-1" x="711.35" y="886.72" width="72.2" height="14.94"/><polygon class="cls-1" points="1070.78 793.98 1064.55 789 1099.41 757.87 1187.8 757.87 1187.8 785.26 1130.53 823.85 1070.78 793.98"/><polygon class="cls-8" points="1203.91 775.33 1203.91 758.5 1192.17 758.5 1192.17 762.62 1187.8 757.87 1159.16 789 1147.96 796.47 1130.59 923.39 1156.79 949.59 1217.67 949.59 1217.67 790.24 1203.91 775.33"/><rect class="cls-9" x="1064.55" y="789" width="94.61" height="160.59"/><rect class="cls-8" x="1101.28" y="910.37" width="17.43" height="39.21"/><polygon class="cls-1" points="1082.6 921.58 1082.6 915.35 1075.13 915.35 1075.13 921.58 1081.98 921.58 1082.6 921.58"/><polygon class="cls-1" points="1081.98 926.56 1075.13 926.56 1075.13 932.78 1082.6 932.78 1082.6 926.56 1081.98 926.56"/><rect class="cls-1" x="1087.58" y="915.35" width="7.47" height="6.22"/><rect class="cls-1" x="1087.58" y="926.56" width="7.47" height="6.22"/><polygon class="cls-1" points="1133.64 921.58 1133.64 915.35 1126.17 915.35 1126.17 921.58 1133.02 921.58 1133.64 921.58"/><polygon class="cls-1" points="1133.02 926.56 1126.17 926.56 1126.17 932.78 1133.64 932.78 1133.64 926.56 1133.02 926.56"/><rect class="cls-1" x="1138.62" y="915.35" width="7.47" height="6.22"/><rect class="cls-1" x="1138.62" y="926.56" width="7.47" height="6.22"/><polygon class="cls-1" points="1185.93 797.09 1185.93 790.86 1178.46 790.86 1178.46 797.09 1185.31 797.09 1185.93 797.09"/><polygon class="cls-1" points="1185.31 802.07 1178.46 802.07 1178.46 808.29 1185.93 808.29 1185.93 802.07 1185.31 802.07"/><rect class="cls-1" x="1190.91" y="790.86" width="7.47" height="6.22"/><rect class="cls-1" x="1190.91" y="802.07" width="7.47" height="6.22"/><polygon class="cls-1" points="1185.93 831.95 1185.93 825.72 1178.46 825.72 1178.46 831.95 1185.31 831.95 1185.93 831.95"/><polygon class="cls-1" points="1185.31 836.92 1178.46 836.92 1178.46 843.15 1185.93 843.15 1185.93 836.92 1185.31 836.92"/><rect class="cls-1" x="1190.91" y="825.72" width="7.47" height="6.22"/><rect class="cls-1" x="1190.91" y="836.93" width="7.47" height="6.22"/><polygon class="cls-1" points="1185.93 866.8 1185.93 860.58 1178.46 860.58 1178.46 866.8 1185.31 866.8 1185.93 866.8"/><polygon class="cls-1" points="1185.31 871.78 1178.46 871.78 1178.46 878.01 1185.93 878.01 1185.93 871.78 1185.31 871.78"/><rect class="cls-1" x="1190.91" y="860.58" width="7.47" height="6.22"/><rect class="cls-1" x="1190.91" y="871.78" width="7.47" height="6.22"/><polygon class="cls-1" points="1185.93 901.66 1185.93 895.43 1178.46 895.43 1178.46 901.66 1185.31 901.66 1185.93 901.66"/><polygon class="cls-1" points="1185.31 906.64 1178.46 906.64 1178.46 912.86 1185.93 912.86 1185.93 906.64 1185.31 906.64"/><rect class="cls-1" x="1190.91" y="895.43" width="7.47" height="6.22"/><rect class="cls-1" x="1190.91" y="906.64" width="7.47" height="6.22"/><rect class="cls-1" x="1075.13" y="797.09" width="72.2" height="14.94"/><rect class="cls-1" x="1075.13" y="826.97" width="72.2" height="14.94"/><rect class="cls-1" x="1075.13" y="856.84" width="72.2" height="14.94"/><rect class="cls-1" x="1075.13" y="886.72" width="72.2" height="14.94"/><polygon class="cls-1" points="1270.27 793.98 1264.05 789 1298.9 757.87 1387.29 757.87 1387.29 785.26 1330.03 823.85 1270.27 793.98"/><polygon class="cls-8" points="1403.41 775.33 1403.41 758.5 1391.67 758.5 1391.67 762.62 1387.29 757.87 1358.66 789 1347.45 796.47 1330.08 923.39 1356.28 949.59 1417.17 949.59 1417.17 790.24 1403.41 775.33"/><rect class="cls-9" x="1264.05" y="789" width="94.61" height="160.59"/><rect class="cls-8" x="1300.77" y="910.37" width="17.43" height="39.21"/><polygon class="cls-1" points="1282.1 921.58 1282.1 915.35 1274.63 915.35 1274.63 921.58 1281.48 921.58 1282.1 921.58"/><polygon class="cls-1" points="1281.48 926.56 1274.63 926.56 1274.63 932.78 1282.1 932.78 1282.1 926.56 1281.48 926.56"/><rect class="cls-1" x="1287.08" y="915.35" width="7.47" height="6.22"/><rect class="cls-1" x="1287.08" y="926.56" width="7.47" height="6.22"/><polygon class="cls-1" points="1333.14 921.58 1333.14 915.35 1325.67 915.35 1325.67 921.58 1332.52 921.58 1333.14 921.58"/><polygon class="cls-1" points="1332.52 926.56 1325.67 926.56 1325.67 932.78 1333.14 932.78 1333.14 926.56 1332.52 926.56"/><rect class="cls-1" x="1338.12" y="915.35" width="7.47" height="6.22"/><rect class="cls-1" x="1338.12" y="926.56" width="7.47" height="6.22"/><polygon class="cls-1" points="1385.42 797.09 1385.42 790.86 1377.95 790.86 1377.95 797.09 1384.8 797.09 1385.42 797.09"/><polygon class="cls-1" points="1384.8 802.07 1377.95 802.07 1377.95 808.29 1385.42 808.29 1385.42 802.07 1384.8 802.07"/><rect class="cls-1" x="1390.4" y="790.86" width="7.47" height="6.22"/><rect class="cls-1" x="1390.4" y="802.07" width="7.47" height="6.22"/><polygon class="cls-1" points="1385.42 831.95 1385.42 825.72 1377.95 825.72 1377.95 831.95 1384.8 831.95 1385.42 831.95"/><polygon class="cls-1" points="1384.8 836.92 1377.95 836.92 1377.95 843.15 1385.42 843.15 1385.42 836.92 1384.8 836.92"/><rect class="cls-1" x="1390.4" y="825.72" width="7.47" height="6.22"/><rect class="cls-1" x="1390.4" y="836.93" width="7.47" height="6.22"/><polygon class="cls-1" points="1385.42 866.8 1385.42 860.58 1377.95 860.58 1377.95 866.8 1384.8 866.8 1385.42 866.8"/><polygon class="cls-1" points="1384.8 871.78 1377.95 871.78 1377.95 878.01 1385.42 878.01 1385.42 871.78 1384.8 871.78"/><rect class="cls-1" x="1390.4" y="860.58" width="7.47" height="6.22"/><rect class="cls-1" x="1390.4" y="871.78" width="7.47" height="6.22"/><polygon class="cls-1" points="1385.42 901.66 1385.42 895.43 1377.95 895.43 1377.95 901.66 1384.8 901.66 1385.42 901.66"/><polygon class="cls-1" points="1384.8 906.64 1377.95 906.64 1377.95 912.86 1385.42 912.86 1385.42 906.64 1384.8 906.64"/><rect class="cls-1" x="1390.4" y="895.43" width="7.47" height="6.22"/><rect class="cls-1" x="1390.4" y="906.64" width="7.47" height="6.22"/><rect class="cls-1" x="1274.63" y="797.09" width="72.2" height="14.94"/><rect class="cls-1" x="1274.63" y="826.97" width="72.2" height="14.94"/><rect class="cls-1" x="1274.63" y="856.84" width="72.2" height="14.94"/><rect class="cls-1" x="1274.63" y="886.72" width="72.2" height="14.94"/><rect class="cls-1" x="681.25" y="877.65" width="1.81" height="71.31"/><path class="cls-3" d="M699.72,886.74c.11,24.94-17.43,45.23-17.43,45.23s-17.73-20.13-17.85-45.07,17.43-45.23,17.43-45.23S699.6,861.8,699.72,886.74Z"/><rect class="cls-1" x="861.79" y="877.65" width="1.81" height="71.31"/><path class="cls-3" d="M880.26,886.74c.11,24.94-17.43,45.23-17.43,45.23S845.1,911.84,845,886.9s17.43-45.23,17.43-45.23S880.14,861.8,880.26,886.74Z"/><rect class="cls-1" x="1221.96" y="877.65" width="1.81" height="71.31"/><path class="cls-3" d="M1240.43,886.74C1240.55,911.68,1223,932,1223,932s-17.73-20.13-17.84-45.07,17.43-45.23,17.43-45.23S1240.32,861.8,1240.43,886.74Z"/><circle class="cls-10" cx="1383.64" cy="799.05" r="4.06"/><circle class="cls-11" cx="1380.8" cy="803.11" r="2.84"/></svg>