<svg id="Layer_1" data-name="Layer 1" xmlns="http://www.w3.org/2000/svg" xmlns:xlink="http://www.w3.org/1999/xlink" viewBox="0 0 1920 1080"><defs><style>.cls-1,.cls-10,.cls-7,.cls-8,.cls-9{fill:none;}.cls-2{fill:#efefef;}.cls-3{fill:#4f8a8b;}.cls-4{clip-path:url(#clip-path);}.cls-5{fill:#eee;}.cls-6{fill:#d4d4d4;}.cls-10,.cls-7{stroke:#000;}.cls-10,.cls-7,.cls-8,.cls-9{stroke-miterlimit:10;}.cls-7,.cls-8{stroke-width:0.75px;}.cls-8,.cls-9{stroke:#222831;}.cls-10,.cls-9{stroke-width:0.5px;}</style><clipPath id="clip-path"><rect class="cls-1" x="570.5" y="201.08" width="779" height="677.83" rx="20.58"/></clipPath></defs><rect class="cls-2" x="-40.77" y="-40.55" width="2008.83" height="1161.1"/><rect class="cls-3" x="570.5" y="201.08" width="779" height="677.83" rx="20.58"/><g class="cls-4"><polygon class="cls-5" points="1028.33 534.71 1028.34 534.73 1028.32 534.72 1028.33 534.71"/><line class="cls-5" x1="1028.33" y1="608.67" x2="1028.33" y2="608.69"/><path class="cls-5" d="M1077.18,412.61l-48.78,48.77a104.2,104.2,0,0,0-147.36,0h0a104.2,104.2,0,0,0,147.36,147.37l.28.28,48.5,48.47h0A173.18,173.18,0,0,1,832.25,412.61h0A173.18,173.18,0,0,1,1077.18,412.61Z"/><polygon class="cls-6" points="1077.18 412.61 1077.17 486.55 1028.66 535.06 1077.17 583.57 1077.17 657.5 954.73 535.06 1077.18 412.61"/><polygon class="cls-5" points="1077.17 486.55 1077.17 583.57 1028.66 535.06 1077.17 486.55"/><line class="cls-7" x1="556.68" y1="687.51" x2="1107.51" y2="136.68"/><line class="cls-7" x1="801.93" y1="932.76" x2="1352.76" y2="381.93"/><line class="cls-7" x1="955.7" y1="65" x2="955.7" y2="1023.6"/><line class="cls-7" x1="1213.74" y1="1039" x2="459.67" y2="287.59"/><line class="cls-7" x1="1458.99" y1="793.74" x2="704.93" y2="42.34"/><circle class="cls-8" cx="856.84" cy="633.25" r="34.54"/><circle class="cls-8" cx="918.15" cy="571.94" r="52.17"/><path class="cls-8" d="M955.7,535.69l-.17-.17c-.17-.15-.32-.31-.48-.47l-.32-.33a52.16,52.16,0,0,1,.31-73.46l.66-.65a52.17,52.17,0,0,1,72.79.34,4,4,0,0,1,.3.28"/><circle class="cls-8" cx="918.15" cy="498.16" r="52.17"/><path class="cls-8" d="M1028.83,608.82h0a52.64,52.64,0,0,1-7.58,6.28h0a52.17,52.17,0,0,1-65.53-5.65c-.22-.21-.44-.42-.65-.64a52.16,52.16,0,0,1,0-73.78h0l.33-.32h0c.1-.12.21-.21.31-.32"/><path class="cls-8" d="M1028.79,461.23a34.54,34.54,0,0,1,48.55-49.13h0"/><circle class="cls-8" cx="856.84" cy="436.84" r="34.54"/><path class="cls-8" d="M1077.67,657.67a34.54,34.54,0,0,1-48.84-48.84h0"/><circle class="cls-9" cx="955.04" cy="396.16" r="34.54"/><circle class="cls-9" cx="955.04" cy="673.93" r="34.54"/><circle class="cls-9" cx="816.16" cy="535.05" r="34.54"/><line class="cls-9" x1="1288.04" y1="54.48" x2="474.48" y2="868.04"/><line class="cls-9" x1="1435.61" y1="202.05" x2="622.04" y2="1015.61"/><line class="cls-9" x1="488.29" y1="214.55" x2="1284.8" y2="1012.37"/><line class="cls-9" x1="635.85" y1="66.99" x2="1432.36" y2="864.8"/><line class="cls-10" x1="1028.98" y1="950.32" x2="1028.21" y2="57.37"/><line class="cls-7" x1="1443.86" y1="535.44" x2="486.09" y2="534.61"/><line class="cls-9" x1="1406.1" y1="83.69" x2="503.69" y2="986.1"/><line class="cls-9" x1="1349.5" y1="929.5" x2="570.5" y2="150.5"/></g></svg>