<?xml version="1.0" encoding="utf-8"?>
<!-- Generator: Adobe Illustrator 25.2.3, SVG Export Plug-In . SVG Version: 6.00 Build 0)  -->
<svg version="1.1" id="Layer_1" xmlns="http://www.w3.org/2000/svg" xmlns:xlink="http://www.w3.org/1999/xlink" x="0px" y="0px"
	 viewBox="0 0 700 700" style="enable-background:new 0 0 700 700;" xml:space="preserve">
<g>
	<path d="M437.3,17.8c-12.1,7.4-23.8,15.6-34.9,24.3c-5.6,4-10.6,9-15.9,13.3c-5.3,4.2-10.1,8.2-15,12.5
		c-9.6,8.1-18.9,16.6-28.6,24.8c-3,2.6-6.4,5-9.5,7.8c-4.4,3.2-7.4,7.9-8.4,13.2c-0.9,5.4,0.3,10.9,3.4,15.3c0.7,1.4,1.5,2.8,2.1,4
		c-7.4,10.6-14,21.6-21.9,31.3c-11.4,15.4-24.6,29.5-39.3,41.8c-7,6.9-13.4,14.2-19,22c-24.9,27.6-50.4,54.7-74.9,82.8
		c-7.5,8.7-13.5,18.4-17.8,29.1c-7.5,18.3-1.8,32.4,15,43c3.3,2.1,6.8,4,9.9,5.6c-9.1,33.2,6.7,53.2,29.4,62.8
		c-0.6,15.4,7.9,25.4,21,32.5c-6.4,7.5-12.5,14.4-18.6,20.7c-17,17.3-34,35.2-51.4,52.6c-10.1,10.2-20.7,19.8-25.2,34.1
		c-2.1,5.5-2,11.5,0.1,17c2.2,5.4,6.2,9.9,11.4,12.5c5.2,2.6,11.2,3.3,16.8,1.9c5.6-1.4,10.9-3.5,15.8-6.2
		c30.2-16.1,55-39.4,80.3-62c26.7-24,52.5-49.2,78.7-73.7c8.7-8.2,17.4-16.2,26.3-24l0,0c3.1-2.3,6.3-4.3,9.7-6.1
		c0.9,5.3,0.1,10.6-2.3,15.3c-8.8,14.7-15.5,30.7-19.9,47.2c-3.5,10.9-3.3,22.8,0.6,33.6c8,23.9,27.3,36.1,48.2,45.9
		c19.3,8.9,38.2,8,54.6-7.3l0,0c1.4-1.4,3.1-2.7,4.8-3.8c2.3-1,4-3.1,4.8-5.4c0.8-2.4,0.4-5-0.8-7.2c-2.5-7-5.6-13.6-9.2-20.1
		c-5.2-8.8-11.5-16.9-16.9-25.5c-11.9-18.9-6.8-35,13.4-42.9c6.8-2.7,13.5-5.3,20.4-7.2l0,0c14.9-4.7,28.1-13.8,37.8-26.1
		c2.8-3,5.2-6.4,8-9.4l0,0c17.7-17.3,25.1-42.5,19.5-66.6c-3.3-16.7-9.5-32.9-13.9-49.5c-3.4-13-6-26.2-9-39.6
		c20.7,2,24.1,0.6,35.8-14.7c4.4-5.8,8.8-11.8,13.7-17.3c12.6-13.8,25.5-27.4,38.3-41.1l0,0c1.1-1.2,2.1-2.6,2.9-4l14.4-23.1
		c4.6-7.5,3.5-13.1-4.5-17.1l0,0c-5.9-2.9-12.1-4.8-18.6-5.6c-12.8-1.1-24.4-8.1-31.4-19c-5.5-8.2-13.8-14.3-23.3-16.9
		c-3.6-1.1-7-2.5-10.4-3.7l0,0c-14-4.3-25.4-14.6-30.7-28.2c-2.6-8.3-8.3-15.4-16-19.6c-11.7-6.3-19.5-18-21.1-31.3
		c-0.6-4.9-2-9.6-3.8-14.2C457.3,15.6,447.9,11.6,437.3,17.8L437.3,17.8z M436.3,528.5c7.6,12.4,15.2,24.8,22.6,37.3
		c0.7,2.3,1.1,4.7,1.2,7.1l-56.2-25.8c-0.9-9.8,5-12.9,10.1-15.4c5.9-2.4,12-4.3,18.2-5.6C433.5,525.8,435.5,527.4,436.3,528.5
		L436.3,528.5z M340.9,148.3c11,11.5,22.9,22.2,35.4,32.2c22.6,14.8,44.1,31.2,64.2,49c14.1,12.2,29.6,22.6,46.3,30.9
		c15.2,8.7,26,17.7,28,37.3c1.5,17.2,8.9,33.8,13.8,50.7l0,0c5.8,15.8,7.8,32.8,5.9,49.6c-1.4,9.8-5.3,19-11.4,26.8
		c-7.7,9.5-16.1,18.6-24.3,27.3c-7,7-15.7,12-25.2,14.6c-8.6,2.7-17,5.8-25.4,9.3c-16.8,7-21.2,15.4-18.6,33.7l1.2,7.1
		c-6.8,2.9-13.5,5.3-19.6,8.2c-2.9,1.6-5.6,3.4-8,5.7c-9.3,8.1-8.4,18,2.6,23.6c13.6,6.7,27.5,12.6,41.3,19c2.5,1.2,4.9,2.5,7.9,4.3
		c-10.3,10.7-21.4,16.1-35.4,12.6c-24.3-6.1-44.8-17.8-56.4-41.1l0,0c-5.7-11.1-6.5-24-2.5-35.7c4.5-16.1,11.2-31.6,19.7-46.1
		c2.7-4.6,4.3-9.9,4.7-15.2c0.7-7.3-4.2-10.6-11.1-8l0,0c-3.1,1.2-5.9,2.9-8.3,5c-4.6,3.5-8.9,7.2-13.1,11.1
		c-31.2,29.4-62.2,59.2-93.9,88.1c-25.1,22.6-49.5,45.3-79.1,61.5l0,0c-5,2.7-10.3,4.8-15.9,5.9c-5.9,1.3-12.1-0.7-16.2-5.3
		c-4-4.5-5.3-10.9-3.4-16.6c2.9-8,7.3-15.4,13.1-21.7c14.2-15.2,29.8-29,44.1-44.4c32.1-34.4,66.4-67.7,96.3-105.4
		c7.3-9.2,15.5-17.9,23.2-27c2.5-2.9,4.1-6.6,4.7-10.4c-17.8,11.9-29.2,29.7-42.9,45.2c-13.7,15.5-27.7,32.1-41.2,47.9
		c-19-4.7-25.6-15-21-32.5l0,0c1.8-6.2,4.2-12.3,7.4-18.1c10.8-19.3,23.4-37.4,37.8-54.4c10.4-12.6,20-25.9,29.5-38.9
		c1.3-1.7,1.3-4.2-0.2-7.6l0,0c-2.6,2.1-5.1,4.5-7.3,6.9c-18.1,24.4-36.4,48.3-53.9,72.9c-8.1,11.2-13.8,24-21.5,37.1
		c-2.7-0.5-5.3-1.4-7.6-2.7c-8.5-5.3-14.6-13.6-17.3-23.2c-2.6-9.5-1.7-19.9,2.9-28.8c4.1-8.9,9.3-17.3,15.3-24.9
		c15.4-19.2,31.3-37.8,47-56.7l0,0c2.6-3.2,4.8-6.5,6.8-10.1c0.6-1.3-0.5-3.4-0.9-8.2l-74.4,91.4c-19.6-5.2-28.4-20.2-20.5-39.2l0,0
		c4.5-10.1,10.5-19.3,17.8-27.4c24.2-27.7,49.8-54.3,73.9-82c9.6-11.1,19.7-21.5,30.2-31.3c12.7-13.2,24.5-27.3,35.3-42.1
		c4.4-5.3,8.3-11,13.1-17.2C336.8,143.7,338.7,146.3,340.9,148.3L340.9,148.3z"/>
	<path d="M43.3,606.4c11.9,1.8,24.1-0.1,34.7-5.3C66,597.1,48.5,599.7,43.3,606.4z"/>
	<path d="M63.9,562.2c10.4,6.9,22,11.6,34.2,13.7C89.6,566,76.8,560.8,63.9,562.2z"/>
	<path d="M142.1,671.9c-9,6.5-15.3,16.2-17.7,27.1C133.3,692.4,139.7,682.9,142.1,671.9z"/>
	<path d="M86.6,684.3c9.5-6.6,17.9-14.7,24.8-23.9l-1.9-2.5c-4.6,3.6-9.5,6.9-13.8,10.7C86.8,675.8,86.8,675.8,86.6,684.3
		L86.6,684.3z"/>
	<path d="M93.8,632.7c-5.2,1.7-10.3,3.9-15.2,6.4c-4.1,2.5-11.4,2-11.8,11.7c10.9-4.4,21.1-7.3,28.6-15.1L93.8,632.7z"/>
	<path d="M213.1,678.1c0.5-9.2-2.6-18.2-8.6-25.2C203.6,667.9,205.8,674,213.1,678.1z"/>
	<path d="M164.9,700c6.7-8,8.1-17.2,10.8-29.4C165.6,680.6,161.9,691.1,164.9,700z"/>
	<path d="M93.1,534.8c3.7,8.6,11.5,14.9,20.8,16.7C110,543.1,102.2,536.9,93.1,534.8L93.1,534.8z"/>
</g>
</svg>
