<?xml version="1.0" encoding="UTF-8"?>
<svg width="700pt" height="700pt" version="1.1" viewBox="0 0 700 700" xmlns="http://www.w3.org/2000/svg" xmlns:xlink="http://www.w3.org/1999/xlink">
 <defs>
  <symbol id="v" overflow="visible">
   <path d="m18.766-1.125c-0.96875 0.5-1.9805 0.875-3.0312 1.125-1.043 0.25781-2.1367 0.39062-3.2812 0.39062-3.3984 0-6.0898-0.94531-8.0781-2.8438-1.9922-1.9062-2.9844-4.4844-2.9844-7.7344 0-3.2578 0.99219-5.8359 2.9844-7.7344 1.9883-1.9062 4.6797-2.8594 8.0781-2.8594 1.1445 0 2.2383 0.13281 3.2812 0.39062 1.0508 0.25 2.0625 0.625 3.0312 1.125v4.2188c-0.98047-0.65625-1.9453-1.1406-2.8906-1.4531-0.94922-0.3125-1.9492-0.46875-3-0.46875-1.875 0-3.3516 0.60547-4.4219 1.8125-1.0742 1.1992-1.6094 2.8555-1.6094 4.9688 0 2.1055 0.53516 3.7617 1.6094 4.9688 1.0703 1.1992 2.5469 1.7969 4.4219 1.7969 1.0508 0 2.0508-0.14844 3-0.45312 0.94531-0.3125 1.9102-0.80078 2.8906-1.4688z"/>
  </symbol>
  <symbol id="d" overflow="visible">
   <path d="m13.734-11.141c-0.4375-0.19531-0.87109-0.34375-1.2969-0.4375-0.41797-0.10156-0.83984-0.15625-1.2656-0.15625-1.2617 0-2.2305 0.40625-2.9062 1.2188-0.67969 0.80469-1.0156 1.9531-1.0156 3.4531v7.0625h-4.8906v-15.312h4.8906v2.5156c0.625-1 1.3438-1.7266 2.1562-2.1875 0.82031-0.46875 1.8008-0.70312 2.9375-0.70312 0.16406 0 0.34375 0.011719 0.53125 0.03125 0.19531 0.011719 0.47656 0.039062 0.84375 0.078125z"/>
  </symbol>
  <symbol id="a" overflow="visible">
   <path d="m17.641-7.7031v1.4062h-11.453c0.125 1.1484 0.53906 2.0078 1.25 2.5781 0.70703 0.57422 1.7031 0.85938 2.9844 0.85938 1.0312 0 2.082-0.14844 3.1562-0.45312 1.082-0.3125 2.1914-0.77344 3.3281-1.3906v3.7656c-1.1562 0.4375-2.3125 0.76562-3.4688 0.98438-1.1562 0.22656-2.3125 0.34375-3.4688 0.34375-2.7734 0-4.9297-0.70312-6.4688-2.1094-1.5312-1.4062-2.2969-3.3789-2.2969-5.9219 0-2.5 0.75391-4.4609 2.2656-5.8906 1.5078-1.4375 3.582-2.1562 6.2188-2.1562 2.4062 0 4.332 0.73047 5.7812 2.1875 1.4453 1.4492 2.1719 3.3828 2.1719 5.7969zm-5.0312-1.625c0-0.92578-0.27344-1.6719-0.8125-2.2344-0.54297-0.57031-1.25-0.85938-2.125-0.85938-0.94922 0-1.7188 0.26562-2.3125 0.79688s-0.96484 1.2969-1.1094 2.2969z"/>
  </symbol>
  <symbol id="b" overflow="visible">
   <path d="m9.2188-6.8906c-1.0234 0-1.793 0.17188-2.3125 0.51562-0.51172 0.34375-0.76562 0.85547-0.76562 1.5312 0 0.625 0.20703 1.1172 0.625 1.4688 0.41406 0.34375 0.98828 0.51562 1.7188 0.51562 0.92578 0 1.7031-0.32812 2.3281-0.98438 0.63281-0.66406 0.95312-1.4922 0.95312-2.4844v-0.5625zm7.4688-1.8438v8.7344h-4.9219v-2.2656c-0.65625 0.92969-1.3984 1.6055-2.2188 2.0312-0.82422 0.41406-1.8242 0.625-3 0.625-1.5859 0-2.8711-0.45703-3.8594-1.375-0.99219-0.92578-1.4844-2.1289-1.4844-3.6094 0-1.7891 0.61328-3.1016 1.8438-3.9375 1.2383-0.84375 3.1797-1.2656 5.8281-1.2656h2.8906v-0.39062c0-0.76953-0.30859-1.332-0.92188-1.6875-0.61719-0.36328-1.5703-0.54688-2.8594-0.54688-1.0547 0-2.0312 0.10547-2.9375 0.3125-0.89844 0.21094-1.7305 0.52344-2.5 0.9375v-3.7344c1.0391-0.25 2.0859-0.44141 3.1406-0.57812 1.0625-0.13281 2.125-0.20312 3.1875-0.20312 2.7578 0 4.75 0.54688 5.9688 1.6406 1.2266 1.0859 1.8438 2.8555 1.8438 5.3125z"/>
  </symbol>
  <symbol id="c" overflow="visible">
   <path d="m7.7031-19.656v4.3438h5.0469v3.5h-5.0469v6.5c0 0.71094 0.14062 1.1875 0.42188 1.4375s0.83594 0.375 1.6719 0.375h2.5156v3.5h-4.1875c-1.9375 0-3.3125-0.39844-4.125-1.2031-0.80469-0.8125-1.2031-2.1797-1.2031-4.1094v-6.5h-2.4219v-3.5h2.4219v-4.3438z"/>
  </symbol>
  <symbol id="g" overflow="visible">
   <path d="m12.766-13.078v-8.2031h4.9219v21.281h-4.9219v-2.2188c-0.66797 0.90625-1.4062 1.5703-2.2188 1.9844s-1.7578 0.625-2.8281 0.625c-1.8867 0-3.4336-0.75-4.6406-2.25-1.2109-1.5-1.8125-3.4258-1.8125-5.7812 0-2.3633 0.60156-4.2969 1.8125-5.7969 1.207-1.5 2.7539-2.25 4.6406-2.25 1.0625 0 2 0.21484 2.8125 0.64062 0.82031 0.42969 1.5664 1.0859 2.2344 1.9688zm-3.2188 9.9219c1.0391 0 1.8359-0.37891 2.3906-1.1406 0.55078-0.76953 0.82812-1.8828 0.82812-3.3438 0-1.457-0.27734-2.5664-0.82812-3.3281-0.55469-0.76953-1.3516-1.1562-2.3906-1.1562-1.043 0-1.8398 0.38672-2.3906 1.1562-0.55469 0.76172-0.82812 1.8711-0.82812 3.3281 0 1.4609 0.27344 2.5742 0.82812 3.3438 0.55078 0.76172 1.3477 1.1406 2.3906 1.1406z"/>
  </symbol>
  <symbol id="k" overflow="visible">
   <path d="m10.5-3.1562c1.0508 0 1.8516-0.37891 2.4062-1.1406 0.55078-0.76953 0.82812-1.8828 0.82812-3.3438 0-1.457-0.27734-2.5664-0.82812-3.3281-0.55469-0.76953-1.3555-1.1562-2.4062-1.1562-1.0547 0-1.8594 0.38672-2.4219 1.1562-0.55469 0.77344-0.82812 1.8828-0.82812 3.3281 0 1.4492 0.27344 2.5586 0.82812 3.3281 0.5625 0.77344 1.3672 1.1562 2.4219 1.1562zm-3.25-9.9219c0.67578-0.88281 1.4219-1.5391 2.2344-1.9688 0.82031-0.42578 1.7656-0.64062 2.8281-0.64062 1.8945 0 3.4453 0.75 4.6562 2.25 1.207 1.5 1.8125 3.4336 1.8125 5.7969 0 2.3555-0.60547 4.2812-1.8125 5.7812-1.2109 1.5-2.7617 2.25-4.6562 2.25-1.0625 0-2.0078-0.21094-2.8281-0.625-0.8125-0.42578-1.5586-1.0859-2.2344-1.9844v2.2188h-4.8906v-21.281h4.8906z"/>
  </symbol>
  <symbol id="j" overflow="visible">
   <path d="m0.34375-15.312h4.8906l4.125 10.391 3.5-10.391h4.8906l-6.4375 16.766c-0.64844 1.6953-1.4023 2.8828-2.2656 3.5625-0.86719 0.6875-2 1.0312-3.4062 1.0312h-2.8438v-3.2188h1.5312c0.83203 0 1.4375-0.13672 1.8125-0.40625 0.38281-0.26172 0.67969-0.73047 0.89062-1.4062l0.14062-0.42188z"/>
  </symbol>
  <symbol id="i" overflow="visible">
   <path d="m16.781-19.766v4.3125c-1.125-0.5-2.2266-0.875-3.2969-1.125-1.0625-0.25781-2.0703-0.39062-3.0156-0.39062-1.25 0-2.1797 0.17969-2.7812 0.53125-0.60547 0.34375-0.90625 0.88281-0.90625 1.6094 0 0.54297 0.20312 0.96875 0.60938 1.2812 0.40625 0.30469 1.1406 0.5625 2.2031 0.78125l2.25 0.45312c2.2695 0.44922 3.8789 1.1406 4.8281 2.0781 0.95703 0.92969 1.4375 2.2461 1.4375 3.9531 0 2.25-0.66797 3.9297-2 5.0312-1.3359 1.0938-3.3711 1.6406-6.1094 1.6406-1.3047 0-2.6055-0.125-3.9062-0.375-1.3047-0.23828-2.6055-0.59766-3.9062-1.0781v-4.4531c1.3008 0.69922 2.5625 1.2266 3.7812 1.5781 1.2188 0.34375 2.3906 0.51562 3.5156 0.51562 1.1562 0 2.0352-0.1875 2.6406-0.5625 0.61328-0.38281 0.92188-0.9375 0.92188-1.6562 0-0.63281-0.21094-1.125-0.625-1.4688-0.41797-0.34375-1.2461-0.65625-2.4844-0.9375l-2.0312-0.4375c-2.043-0.4375-3.5391-1.1328-4.4844-2.0938-0.9375-0.95703-1.4062-2.25-1.4062-3.875 0-2.0312 0.65625-3.5938 1.9688-4.6875s3.1953-1.6406 5.6562-1.6406c1.125 0 2.2734 0.085938 3.4531 0.25 1.1875 0.16797 2.4141 0.42188 3.6875 0.76562z"/>
  </symbol>
  <symbol id="f" overflow="visible">
   <path d="m17.75-9.3281v9.3281h-4.9219v-7.1406c0-1.3203-0.03125-2.2344-0.09375-2.7344s-0.16797-0.86719-0.3125-1.1094c-0.1875-0.3125-0.44922-0.55469-0.78125-0.73438-0.32422-0.17578-0.69531-0.26562-1.1094-0.26562-1.0234 0-1.8242 0.39844-2.4062 1.1875-0.58594 0.78125-0.875 1.8711-0.875 3.2656v7.5312h-4.8906v-15.312h4.8906v2.2344c0.73828-0.88281 1.5195-1.5391 2.3438-1.9688 0.83203-0.42578 1.75-0.64062 2.75-0.64062 1.7695 0 3.1133 0.54688 4.0312 1.6406 0.91406 1.0859 1.375 2.6562 1.375 4.7188z"/>
  </symbol>
  <symbol id="u" overflow="visible">
   <path d="m2.5781-20.406h6.6875l4.6562 10.922 4.6719-10.922h6.6875v20.406h-4.9844v-14.938l-4.7031 11.016h-3.3281l-4.7031-11.016v14.938h-4.9844z"/>
  </symbol>
  <symbol id="t" overflow="visible">
   <path d="m2.3594-21.281h4.8906v21.281h-4.8906z"/>
  </symbol>
  <symbol id="h" overflow="visible">
   <path d="m2.3594-15.312h4.8906v15.031c0 2.0508-0.49609 3.6172-1.4844 4.7031-0.98047 1.082-2.4062 1.625-4.2812 1.625h-2.4219v-3.2188h0.85938c0.92578 0 1.5625-0.21094 1.9062-0.625 0.35156-0.41797 0.53125-1.2461 0.53125-2.4844zm0-5.9688h4.8906v4h-4.8906z"/>
  </symbol>
  <symbol id="s" overflow="visible">
   <path d="m2.3594-15.312h4.8906v15.312h-4.8906zm0-5.9688h4.8906v4h-4.8906z"/>
  </symbol>
  <symbol id="r" overflow="visible">
   <path d="m12.422-21.281v3.2188h-2.7031c-0.6875 0-1.1719 0.125-1.4531 0.375-0.27344 0.25-0.40625 0.6875-0.40625 1.3125v1.0625h4.1875v3.5h-4.1875v11.812h-4.8906v-11.812h-2.4375v-3.5h2.4375v-1.0625c0-1.6641 0.46094-2.8984 1.3906-3.7031 0.92578-0.80078 2.3672-1.2031 4.3281-1.2031z"/>
  </symbol>
  <symbol id="e" overflow="visible">
   <path d="m9.6406-12.188c-1.0859 0-1.9141 0.39062-2.4844 1.1719-0.57422 0.78125-0.85938 1.9062-0.85938 3.375s0.28516 2.5938 0.85938 3.375c0.57031 0.77344 1.3984 1.1562 2.4844 1.1562 1.0625 0 1.875-0.38281 2.4375-1.1562 0.57031-0.78125 0.85938-1.9062 0.85938-3.375s-0.28906-2.5938-0.85938-3.375c-0.5625-0.78125-1.375-1.1719-2.4375-1.1719zm0-3.5c2.6328 0 4.6914 0.71484 6.1719 2.1406 1.4766 1.418 2.2188 3.3867 2.2188 5.9062 0 2.5117-0.74219 4.4805-2.2188 5.9062-1.4805 1.418-3.5391 2.125-6.1719 2.125-2.6484 0-4.7148-0.70703-6.2031-2.125-1.4922-1.4258-2.2344-3.3945-2.2344-5.9062 0-2.5195 0.74219-4.4883 2.2344-5.9062 1.4883-1.4258 3.5547-2.1406 6.2031-2.1406z"/>
  </symbol>
  <symbol id="q" overflow="visible">
   <path d="m16.547-12.766c0.61328-0.94531 1.3477-1.6719 2.2031-2.1719 0.85156-0.5 1.7891-0.75 2.8125-0.75 1.7578 0 3.0977 0.54688 4.0156 1.6406 0.92578 1.0859 1.3906 2.6562 1.3906 4.7188v9.3281h-4.9219v-7.9844-0.35938c0.007813-0.13281 0.015625-0.32031 0.015625-0.5625 0-1.082-0.16406-1.8633-0.48438-2.3438-0.3125-0.48828-0.82422-0.73438-1.5312-0.73438-0.92969 0-1.6484 0.38672-2.1562 1.1562-0.51172 0.76172-0.77344 1.8672-0.78125 3.3125v7.5156h-4.9219v-7.9844c0-1.6953-0.14844-2.7852-0.4375-3.2656-0.29297-0.48828-0.8125-0.73438-1.5625-0.73438-0.9375 0-1.6641 0.38672-2.1719 1.1562-0.51172 0.76172-0.76562 1.8594-0.76562 3.2969v7.5312h-4.9219v-15.312h4.9219v2.2344c0.60156-0.86328 1.2891-1.5156 2.0625-1.9531 0.78125-0.4375 1.6406-0.65625 2.5781-0.65625 1.0625 0 2 0.25781 2.8125 0.76562 0.8125 0.51172 1.4258 1.2305 1.8438 2.1562z"/>
  </symbol>
  <symbol id="p" overflow="visible">
   <path d="m17.75-9.3281v9.3281h-4.9219v-7.1094c0-1.3438-0.03125-2.2656-0.09375-2.7656s-0.16797-0.86719-0.3125-1.1094c-0.1875-0.3125-0.44922-0.55469-0.78125-0.73438-0.32422-0.17578-0.69531-0.26562-1.1094-0.26562-1.0234 0-1.8242 0.39844-2.4062 1.1875-0.58594 0.78125-0.875 1.8711-0.875 3.2656v7.5312h-4.8906v-21.281h4.8906v8.2031c0.73828-0.88281 1.5195-1.5391 2.3438-1.9688 0.83203-0.42578 1.75-0.64062 2.75-0.64062 1.7695 0 3.1133 0.54688 4.0312 1.6406 0.91406 1.0859 1.375 2.6562 1.375 4.7188z"/>
  </symbol>
  <symbol id="o" overflow="visible">
   <path d="m2.5781-20.406h5.875l7.4219 14v-14h4.9844v20.406h-5.875l-7.4219-14v14h-4.9844z"/>
  </symbol>
  <symbol id="n" overflow="visible">
   <path d="m2.1875-5.9688v-9.3438h4.9219v1.5312c0 0.83594-0.007813 1.875-0.015625 3.125-0.011719 1.25-0.015625 2.0859-0.015625 2.5 0 1.2422 0.03125 2.1328 0.09375 2.6719 0.070313 0.54297 0.17969 0.93359 0.32812 1.1719 0.20703 0.32422 0.47266 0.57422 0.79688 0.75 0.32031 0.16797 0.69141 0.25 1.1094 0.25 1.0195 0 1.8203-0.39062 2.4062-1.1719 0.58203-0.78125 0.875-1.8672 0.875-3.2656v-7.5625h4.8906v15.312h-4.8906v-2.2188c-0.74219 0.89844-1.5234 1.5586-2.3438 1.9844-0.82422 0.41406-1.7344 0.625-2.7344 0.625-1.7617 0-3.1055-0.53906-4.0312-1.625-0.92969-1.082-1.3906-2.6602-1.3906-4.7344z"/>
  </symbol>
  <symbol id="m" overflow="visible">
   <path d="m2.5781-20.406h8.7344c2.5938 0 4.582 0.57812 5.9688 1.7344 1.3945 1.1484 2.0938 2.7891 2.0938 4.9219 0 2.1367-0.69922 3.7812-2.0938 4.9375-1.3867 1.1562-3.375 1.7344-5.9688 1.7344h-3.4844v7.0781h-5.25zm5.25 3.8125v5.7031h2.9219c1.0195 0 1.8047-0.25 2.3594-0.75 0.5625-0.5 0.84375-1.2031 0.84375-2.1094 0-0.91406-0.28125-1.6172-0.84375-2.1094-0.55469-0.48828-1.3398-0.73438-2.3594-0.73438z"/>
  </symbol>
  <symbol id="l" overflow="visible">
   <path d="m14.719-14.828v3.9844c-0.65625-0.45703-1.3242-0.79688-2-1.0156-0.66797-0.21875-1.3594-0.32812-2.0781-0.32812-1.3672 0-2.4336 0.40234-3.2031 1.2031-0.76172 0.79297-1.1406 1.9062-1.1406 3.3438 0 1.4297 0.37891 2.543 1.1406 3.3438 0.76953 0.79297 1.8359 1.1875 3.2031 1.1875 0.75781 0 1.4844-0.10938 2.1719-0.32812 0.6875-0.22656 1.3203-0.56641 1.9062-1.0156v4c-0.76172 0.28125-1.5391 0.48828-2.3281 0.625-0.78125 0.14453-1.5742 0.21875-2.375 0.21875-2.7617 0-4.9219-0.70703-6.4844-2.125-1.5547-1.4141-2.3281-3.3828-2.3281-5.9062 0-2.5312 0.77344-4.5039 2.3281-5.9219 1.5625-1.4141 3.7227-2.125 6.4844-2.125 0.80078 0 1.5938 0.074219 2.375 0.21875 0.78125 0.13672 1.5547 0.35156 2.3281 0.64062z"/>
  </symbol>
 </defs>
 <g>
  <path d="m399.62 358.9c3.5117-3.7852 6.6602-7.8906 9.4062-12.262 11.5-18.293 22.887-36.773 34.16-55.441 8.3438-13.664 16.352-27.496 24.305-41.383 1.2969-2.7852 2.3125-5.6914 3.0234-8.6797l-2.9102-0.73047c-9.6328 9.4648-66.25 106.79-67.984 118.5z"/>
  <path d="m294.79 375.2c-5.2656 8.3438-11.199 16.352-16.801 24.586-5.6016 8.2305-11.984 14.613-14 25.254 1.625-0.61719 2.5195-0.67187 2.9688-1.1211v0.003906c17.371-19.684 32.23-41.449 44.238-64.793 0.92969-2.6875 1.4219-5.5039 1.457-8.3438l-3.1367-0.72656c-4.9258 8.3398-9.5742 16.965-14.727 25.141z"/>
  <path d="m225.23 287.89c-14.055 19.152-28 38.473-41.945 57.68l2.2969 2.4062 0.003907 0.003906c2.3008-1.4453 4.4414-3.1367 6.3828-5.0391 13.719-16.801 28.727-33.098 37.406-54.32-2.1836-0.39453-3.8633-1.1211-4.1445-0.73047z"/>
  <path d="m517.5 279.21c0.53125-2.6719 0.71875-5.3984 0.55859-8.1172l-2.9688-0.55859 0.003906-0.003906c-1.1172 1.4414-2.0742 3-2.8594 4.6484-5.2734 15.125-13.367 29.109-23.855 41.215-2.1758 1.7344-3.8164 4.0469-4.7266 6.6758-0.91406 2.625-1.0586 5.457-0.42578 8.1641 15.242-14.5 26.965-32.293 34.273-52.023z"/>
  <path d="m332.08 229.6c13.109-14.496 24.391-30.535 33.602-47.77l-1.9023-1.9023c-1.3438 0.55859-3.1914 0.72656-3.9219 1.6797-11.984 16.465-23.801 32.984-35.672 49.504 2.7148 0.90234 5.707 0.32812 7.8945-1.5117z"/>
  <path d="m294 216.89c-1.5117-0.95312-2.1836-1.7344-2.7422-1.6797-0.55859 0.054688-3.3594 0.44922-4.0312 1.3984-9.5195 13.273-18.984 26.602-28 40.098h-0.003906c-1.0625 2.2227-1.8164 4.5781-2.2383 7l3.1914 1.6797z"/>
  <path d="m512.96 352.8c-0.33594 17.809-16.801 30.297-18.145 50.68 2.8555-2.2969 4.4258-2.9688 4.9844-4.0898 5.9375-11.535 11.762-23.07 17.359-34.719 1.207-2.7734 1.8203-5.7695 1.793-8.793 0-3.0781-1.8477-5.0391-5.9922-3.0781z"/>
  <path d="m130.43 357.39c-13.777 20.551-19.375 32.199-19.32 39.48 6.5508-4.4258 24.586-32.984 28.672-46.031-5.9375-0.22266-7.3945 3.5859-9.3516 6.5508z"/>
  <path d="m386.29 302.4c-9.5742 15.344-19.152 30.688-29.961 48.105 13.609-6.1055 32.48-35.785 29.961-48.105z"/>
  <path d="m270.43 303.07c14.84-10.527 22.398-26.824 32.09-41.551 0.61719-0.95312-0.67188-3.1367-1.7344-7.168l-32.48 46.703z"/>
  <path d="m426.33 198.07c-2.0703 0.61719-4.5352 0.61719-5.1523 1.6797v0.003906c-9.5625 13.977-18.023 28.672-25.312 43.957 10.137-6.2695 27.777-33.32 30.465-45.641z"/>
  <path d="m231.84 162.4c-8.0078 15.961-18.426 28.672-23.406 44.801 11.762-11.055 20.875-24.629 26.656-39.703 0.27734-1.0625-1.3477-2.4648-3.25-5.0977z"/>
  <path d="m344.4 266.84c-3.0586 0.089844-5.918 1.5508-7.7812 3.9766-8.9766 11.918-16.652 24.758-22.906 38.305 3.6953-1.457 5.6016-1.5664 6.1055-2.4648 7.8945-11.535 15.734-23.184 23.406-34.887 0.66797-1.5664 1.0625-3.2344 1.1758-4.9297z"/>
  <path d="m246.85 365.57c-4.8164 6.6641-9.5195 13.383-14.223 20.105 2.8359 0.92578 5.9414 0.42578 8.3438-1.3438 10.504-11.277 17.609-25.293 20.496-40.434-8.7383 6.2188-9.9688 15.121-14.617 21.672z"/>
  <path d="m180.49 245.05c-11.871 14.449-17.191 30.297-24.305 45.473 9.6328-4.9258 25.199-33.992 24.305-45.473z"/>
  <path d="m490.34 461.78c-5.9375 12.543-11.535 25.422-18.703 40.094 4.1445-1.6797 6.8867-1.9023 7.6719-3.2461 7.6406-12.395 13.309-25.902 16.801-40.039-3.3633 1.8477-5.2656 2.1836-5.7695 3.1914z"/>
  <path d="m390.66 462.34-16.52 38.863c9.0703-4.6484 15.512-15.398 19.152-29.902 0.78125-3.0234 2.6328-6.4961-2.6328-8.9609z"/>
  <path d="m445.93 397.6c-4.8164 11.199-9.5586 22.398-14.223 33.602 0 0.72656 0.67188 1.9023 1.793 4.8711 8.793-12.879 16.129-24.527 16.801-40.488-2.5234 1.0078-4.0352 1.2305-4.3711 2.0156z"/>
  <path d="m132.95 222.1c-9.7461 9.7422-12.098 23.125-19.152 36.176 10.359-4.875 18.648-20.723 19.152-36.176z"/>
  <path d="m349.27 407.06c-4.5938 10.246-9.1289 20.496-14.559 32.762 12.152-5.8789 20.047-23.574 16.801-33.602-0.89844 0.44922-2.0195 0.44922-2.2422 0.83984z"/>
  <path d="m567.17 256.43c-6.6133 9.3164-10.105 20.492-9.9688 31.918 7.3203-8.9531 10.891-20.391 9.9688-31.918z"/>
  <path d="m304.86 155.01c2.5195-4.7031 7.2227-9.4648 4.1445-16.52-7.3867 7.8281-12.531 17.5-14.895 28 7.5586-0.33594 8.3984-7 10.75-11.48z"/>
  <path d="m271.04 492.18c4.793-2.8633 8.7031-6.9883 11.301-11.93 2.5977-4.9375 3.7852-10.5 3.4297-16.07-7.4023 7.7969-12.496 17.488-14.73 28z"/>
  <path d="m211.68 432.21c-9.1289 8.9609-12.602 19.656-17.809 29.457 5.4961-2.668 10.102-6.8672 13.262-12.094 3.1602-5.2266 4.7383-11.258 4.5469-17.363z"/>
  <path d="m257.04 122.81c7.1562-8.3555 13.148-17.645 17.809-27.609-5.4961 2.1406-10.18 5.9609-13.379 10.918-3.1992 4.957-4.7461 10.801-4.4297 16.691z"/>
  <path d="m514.92 182.28c-7.4297 8.1562-13.43 17.512-17.754 27.664 5.3477-2.3633 9.8789-6.2461 13.035-11.164s4.7969-10.656 4.7188-16.5z"/>
  <path d="m429.13 130.43c-5.6016 9.6875-11.199 17.527-11.816 29.344 9.2383-7.5625 14.727-20.441 11.816-29.344z"/>
  <path d="m566.78 374.7c7.168-6.6641 11.199-20.551 7.7852-26.656h-0.003906c-6.5625 7.2109-9.4336 17.047-7.7812 26.656z"/>
  <path d="m577.19 159.6c-10.305 7.8945-14.113 18.031-11.199 26.992 5.7969-7.9961 9.6328-17.242 11.199-26.992z"/>
  <path d="m466.93 66.246c-6.5664 6.7031-10.328 15.656-10.531 25.035 4.082-2.6211 7.2734-6.4141 9.1523-10.883 1.8789-4.4688 2.3594-9.4023 1.3789-14.152z"/>
  <path d="m509.94 106.4c-8.2305 9.6328-10.695 17.359-8.793 25.871v0.003907c6.8125-6.7773 10.066-16.348 8.793-25.875z"/>
  <path d="m372.85 115.98c-6.5273 7.168-11.082 15.91-13.215 25.367 4.6133-2.2734 8.3828-5.9609 10.758-10.52 2.375-4.5625 3.2383-9.7656 2.457-14.848z"/>
  <path d="m198.18 135.35c-6.4883 6.6484-11.086 14.898-13.328 23.914 11.426-7.2812 15.344-14.785 13.328-23.914z"/>
  <path d="m162.01 419.5c3.6172-2.2422 6.4414-5.5586 8.0781-9.4844 1.6367-3.9258 2.0039-8.2656 1.0508-12.41-6.4219 5.3789-9.8281 13.547-9.1289 21.895z"/>
  <path d="m360.7 65.465c-3.9844 1.7891-7.4102 4.6211-9.9141 8.1992-2.5078 3.582-3.9961 7.7695-4.3086 12.129 11.59-8.6797 15.121-13.777 14.223-20.328z"/>
  <use x="70" y="644" xlink:href="#v"/>
  <use x="90.550781" y="644" xlink:href="#d"/>
  <use x="104.359375" y="644" xlink:href="#a"/>
  <use x="123.347656" y="644" xlink:href="#b"/>
  <use x="142.242188" y="644" xlink:href="#c"/>
  <use x="155.628906" y="644" xlink:href="#a"/>
  <use x="174.617188" y="644" xlink:href="#g"/>
  <use x="204.410156" y="644" xlink:href="#k"/>
  <use x="224.453125" y="644" xlink:href="#j"/>
  <use x="252.453125" y="644" xlink:href="#i"/>
  <use x="272.617188" y="644" xlink:href="#a"/>
  <use x="291.609375" y="644" xlink:href="#b"/>
  <use x="310.5" y="644" xlink:href="#f"/>
  <use x="340.183594" y="644" xlink:href="#u"/>
  <use x="368.046875" y="644" xlink:href="#b"/>
  <use x="386.941406" y="644" xlink:href="#t"/>
  <use x="396.539062" y="644" xlink:href="#g"/>
  <use x="416.582031" y="644" xlink:href="#h"/>
  <use x="426.179688" y="644" xlink:href="#s"/>
  <use x="435.777344" y="644" xlink:href="#b"/>
  <use x="454.671875" y="644" xlink:href="#f"/>
  <use x="70" y="672" xlink:href="#r"/>
  <use x="82.183594" y="672" xlink:href="#d"/>
  <use x="95.992188" y="672" xlink:href="#e"/>
  <use x="115.226562" y="672" xlink:href="#q"/>
  <use x="154.152344" y="672" xlink:href="#c"/>
  <use x="167.535156" y="672" xlink:href="#p"/>
  <use x="187.46875" y="672" xlink:href="#a"/>
  <use x="216.207031" y="672" xlink:href="#o"/>
  <use x="239.640625" y="672" xlink:href="#e"/>
  <use x="258.878906" y="672" xlink:href="#n"/>
  <use x="278.8125" y="672" xlink:href="#f"/>
  <use x="308.492188" y="672" xlink:href="#m"/>
  <use x="329.015625" y="672" xlink:href="#d"/>
  <use x="342.820312" y="672" xlink:href="#e"/>
  <use x="362.058594" y="672" xlink:href="#h"/>
  <use x="371.65625" y="672" xlink:href="#a"/>
  <use x="390.648438" y="672" xlink:href="#l"/>
  <use x="407.242188" y="672" xlink:href="#c"/>
 </g>
</svg>
