<svg id="Layer_1" data-name="Layer 1" xmlns="http://www.w3.org/2000/svg" viewBox="0 0 540 220"><defs><style>.cls-1{fill:#4f8a8b;}.cls-2{fill:#eee;}.cls-3{fill:#3c6869;}</style></defs><g id="SVGID"><rect class="cls-1" x="-14.9" y="-5.78" width="569.81" height="231.55"/><path d="M554.4-5.28V225.28H-14.4V-5.28H554.4m1-1H-15.4V226.28H555.4V-6.28Z"/></g><path class="cls-2" d="M269.18,103.67a7.91,7.91,0,0,1-1.86,3.6,8.21,8.21,0,0,1-3.31,2.17,12.88,12.88,0,0,1-4.39.7,13.39,13.39,0,0,1-3.17-.35,9.48,9.48,0,0,1-2.7-1.11,8.09,8.09,0,0,1-2.09-1.8,7.31,7.31,0,0,1-1.33-2.54,11.33,11.33,0,0,1,0-6.46,7.36,7.36,0,0,1,1.33-2.53,8.06,8.06,0,0,1,2.09-1.79,9.48,9.48,0,0,1,2.7-1.11,13.22,13.22,0,0,1,3.15-.35,12.73,12.73,0,0,1,4.12.62,8.56,8.56,0,0,1,3.22,1.93,7.72,7.72,0,0,1,2,3.15h4.29a11.25,11.25,0,0,0-2.64-5,12.16,12.16,0,0,0-4.73-3.14,17.44,17.44,0,0,0-6.25-1.07,18.1,18.1,0,0,0-3.81.39,17.18,17.18,0,0,0-3.36,1.09,11.76,11.76,0,0,0-2.79,1.79,10.55,10.55,0,0,0-2.12,2.46,11,11,0,0,0-1.36,3.1,13.84,13.84,0,0,0-.48,3.7,13.46,13.46,0,0,0,.68,4.33,10.67,10.67,0,0,0,1.93,3.51,12.12,12.12,0,0,0,3,2.56,13.63,13.63,0,0,0,3.83,1.59,18.71,18.71,0,0,0,4.51.53l.13.06a17.9,17.9,0,0,0,5-.67,14.54,14.54,0,0,0,4.11-1.93,10.58,10.58,0,0,0,3-3.15,11.75,11.75,0,0,0,1.59-4.26Z"/><path class="cls-2" d="M282.56,110.1V88.57h-4.41v25.11h20V110.1Z"/><path class="cls-2" d="M302.05,88.57v25.11h4.41V88.57Z"/><path class="cls-2" d="M334.83,103.67a8,8,0,0,1-1.86,3.6,8.21,8.21,0,0,1-3.31,2.17,12.92,12.92,0,0,1-4.39.7,13.33,13.33,0,0,1-3.17-.35,9.48,9.48,0,0,1-2.7-1.11,8.09,8.09,0,0,1-2.09-1.8,7.31,7.31,0,0,1-1.33-2.54,11.33,11.33,0,0,1,0-6.46,7.36,7.36,0,0,1,1.33-2.53,8.06,8.06,0,0,1,2.09-1.79,9.48,9.48,0,0,1,2.7-1.11,13.22,13.22,0,0,1,3.15-.35,12.77,12.77,0,0,1,4.12.62,8.52,8.52,0,0,1,3.21,1.93,7.52,7.52,0,0,1,2,3.15h4.29a11,11,0,0,0-2.63-5,12.16,12.16,0,0,0-4.73-3.14,17.44,17.44,0,0,0-6.25-1.07,18,18,0,0,0-3.81.39,17,17,0,0,0-3.36,1.09,11.82,11.82,0,0,0-2.8,1.79,11,11,0,0,0-2.12,2.46,11.32,11.32,0,0,0-1.35,3.1,14.41,14.41,0,0,0,.19,8,10.85,10.85,0,0,0,1.93,3.51,12.36,12.36,0,0,0,3,2.56,13.39,13.39,0,0,0,3.83,1.59,18.71,18.71,0,0,0,4.51.53l.13.06a17.78,17.78,0,0,0,5-.67,14.42,14.42,0,0,0,4.11-1.93,10.61,10.61,0,0,0,3-3.15,11.93,11.93,0,0,0,1.59-4.26Z"/><path class="cls-2" d="M358.17,96.37l8.89-7.8h-6l-13,11.37V88.57H343.8v25.11h4.31v-8.92l7-5.8,7.72,14.72h5Z"/><path class="cls-3" d="M257.06,125.77a4.87,4.87,0,0,0-1.93-2.18,6,6,0,0,0-3.16-.77h0a4.91,4.91,0,0,0-2.81.78,5.27,5.27,0,0,0-1.8,2.1l-.15-2.64h-1.59v17.27h1.78v-7.71a5.46,5.46,0,0,0,1.8,2.08,4.74,4.74,0,0,0,2.73.76,6.13,6.13,0,0,0,3.17-.78,4.82,4.82,0,0,0,1.93-2.2,8,8,0,0,0,.64-3.37A7.91,7.91,0,0,0,257.06,125.77Zm-1.31,5.38a4.13,4.13,0,0,1-.8,1.53,3.39,3.39,0,0,1-1.35,1,5,5,0,0,1-1.9.33h0a4.24,4.24,0,0,1-1.84-.38,3.91,3.91,0,0,1-1.39-1,4.55,4.55,0,0,1-.85-1.53,6.2,6.2,0,0,1,0-3.81,4.6,4.6,0,0,1,.85-1.52,4,4,0,0,1,1.39-1,4.24,4.24,0,0,1,1.84-.39,4.7,4.7,0,0,1,2.43.59,3.61,3.61,0,0,1,1.45,1.66,6.47,6.47,0,0,1,.46,2.58A7.46,7.46,0,0,1,255.75,131.15Z"/><path class="cls-3" d="M269.23,125.18a3.29,3.29,0,0,0-.68-1.39,2.47,2.47,0,0,0-1.07-.74,4.41,4.41,0,0,0-1.49-.22l0,0a3.44,3.44,0,0,0-2,.59,4,4,0,0,0-1.39,1.84l-.13-2.19h-1.61V135.2h1.76v-6.32a10.84,10.84,0,0,1,.09-1.47,5.84,5.84,0,0,1,.24-1.13,3.73,3.73,0,0,1,.38-.83,2.69,2.69,0,0,1,.46-.59,2.16,2.16,0,0,1,.54-.37,2.86,2.86,0,0,1,.58-.2,3.7,3.7,0,0,1,.6,0,3.3,3.3,0,0,1,.75.07,2.23,2.23,0,0,1,.6.26,1.25,1.25,0,0,1,.46.55,3.25,3.25,0,0,1,.27.89,6.53,6.53,0,0,1,.11,1.34v.4h1.74v-.4A9,9,0,0,0,269.23,125.18Z"/><path class="cls-3" d="M283.48,126.5a5.34,5.34,0,0,0-1.28-2,5.79,5.79,0,0,0-2-1.27,8.44,8.44,0,0,0-5.38,0,5.72,5.72,0,0,0-2,1.28,5.3,5.3,0,0,0-1.28,2,7.22,7.22,0,0,0-.45,2.61,6.7,6.7,0,0,0,.8,3.35,5.38,5.38,0,0,0,2.26,2.22,7.19,7.19,0,0,0,3.42.77l0,0a7.71,7.71,0,0,0,2.69-.45,5.77,5.77,0,0,0,2-1.26,5.5,5.5,0,0,0,1.28-2,7.79,7.79,0,0,0,0-5.22Zm-2.55,6.2a4.52,4.52,0,0,1-3.46,1.32h0a4.53,4.53,0,0,1-3.45-1.31,5.83,5.83,0,0,1,0-7.15,4.49,4.49,0,0,1,3.44-1.31,4.56,4.56,0,0,1,3.47,1.31,5.71,5.71,0,0,1,0,7.13Z"/><path class="cls-3" d="M298.35,125.77a4.78,4.78,0,0,0-1.94-2.18,6,6,0,0,0-3.15-.77h0a4.93,4.93,0,0,0-2.81.78,5.17,5.17,0,0,0-1.79,2.1l-.16-2.64h-1.59v17.27h1.78v-7.71a5.46,5.46,0,0,0,1.8,2.08,4.74,4.74,0,0,0,2.73.76,6.07,6.07,0,0,0,3.16-.78,4.73,4.73,0,0,0,1.94-2.2,8,8,0,0,0,.64-3.37A7.91,7.91,0,0,0,298.35,125.77ZM297,131.15a4.13,4.13,0,0,1-.8,1.53,3.39,3.39,0,0,1-1.35,1,5,5,0,0,1-1.9.33h0a4.24,4.24,0,0,1-1.84-.38,3.83,3.83,0,0,1-1.39-1,4.39,4.39,0,0,1-.85-1.53,6.2,6.2,0,0,1,0-3.81,4.43,4.43,0,0,1,.85-1.52,3.87,3.87,0,0,1,1.39-1,4.24,4.24,0,0,1,1.84-.39,4.7,4.7,0,0,1,2.43.59,3.61,3.61,0,0,1,1.45,1.66,6.47,6.47,0,0,1,.46,2.58A7.46,7.46,0,0,1,297,131.15Z"/><path class="cls-3" d="M313.53,128.85a5.41,5.41,0,0,0-6-6,7.24,7.24,0,0,0-3.39.75,5.18,5.18,0,0,0-2.21,2.16,7,7,0,0,0-.79,3.38,6.26,6.26,0,0,0,1.7,4.66,6.44,6.44,0,0,0,4.72,1.67,6.35,6.35,0,0,0,3.84-1.12,5.64,5.64,0,0,0,2.11-3.08h-1.67a3.69,3.69,0,0,1-1.51,2,4.94,4.94,0,0,1-2.8.73,4.61,4.61,0,0,1-3.38-1.18,4.81,4.81,0,0,1-1.21-3.48h10.57ZM303,128.18a4.45,4.45,0,0,1,1.35-3,4.73,4.73,0,0,1,3.22-1,3.71,3.71,0,0,1,4.18,4Z"/><path class="cls-3" d="M325,125.18a3.41,3.41,0,0,0-.67-1.39,2.56,2.56,0,0,0-1.08-.74,4.37,4.37,0,0,0-1.49-.22l0,0a3.48,3.48,0,0,0-2,.59,4,4,0,0,0-1.39,1.84l-.12-2.19h-1.62V135.2h1.77v-6.32a10.94,10.94,0,0,1,.08-1.47,5.84,5.84,0,0,1,.24-1.13,3.73,3.73,0,0,1,.38-.83,2.69,2.69,0,0,1,.46-.59,2.16,2.16,0,0,1,.54-.37,3.08,3.08,0,0,1,.58-.2,3.78,3.78,0,0,1,.6,0,3.3,3.3,0,0,1,.75.07,2.1,2.1,0,0,1,.6.26,1.25,1.25,0,0,1,.46.55,3.22,3.22,0,0,1,.28.89,7.4,7.4,0,0,1,.1,1.34v.4h1.74v-.4A9,9,0,0,0,325,125.18Z"/><path class="cls-3" d="M334.76,124.33v-1.28h-3.64v-4.26h-1.3l-.47,4.26h-2.83v1.28h2.8v8a2.89,2.89,0,0,0,.87,2.27,3.46,3.46,0,0,0,2.4.79v0a7.18,7.18,0,0,0,2.18-.37v-1.42A5.25,5.25,0,0,1,333,134a1.94,1.94,0,0,1-1.38-.49,2,2,0,0,1-.49-1.48v-7.7Z"/><path class="cls-3" d="M337.06,117.59V120h2.56v-2.4Zm.37,5.46V135.2h1.82V123.05Z"/><path class="cls-3" d="M354.68,128.85a5.42,5.42,0,0,0-6-6,7.26,7.26,0,0,0-3.4.75,5.18,5.18,0,0,0-2.21,2.16,7,7,0,0,0-.79,3.38,6.26,6.26,0,0,0,1.7,4.66,6.44,6.44,0,0,0,4.72,1.67,6.35,6.35,0,0,0,3.84-1.12,5.69,5.69,0,0,0,2.11-3.08H353a3.71,3.71,0,0,1-1.52,2,4.85,4.85,0,0,1-2.78.73,4.62,4.62,0,0,1-3.39-1.18,4.81,4.81,0,0,1-1.21-3.48h10.57Zm-10.58-.67a4.45,4.45,0,0,1,1.35-3,4.74,4.74,0,0,1,3.23-1,3.69,3.69,0,0,1,4.17,4Z"/><path class="cls-3" d="M367.65,130.72a2.84,2.84,0,0,0-.39-.8,2.47,2.47,0,0,0-.65-.58,4.87,4.87,0,0,0-.76-.42,6.24,6.24,0,0,0-.93-.28c-.38-.08-.7-.15-1-.19s-.61-.09-1-.14l-.34,0c-.36,0-.67-.06-.95-.11l-.87-.15a4.44,4.44,0,0,1-.77-.22,2.42,2.42,0,0,1-.59-.33,1.19,1.19,0,0,1-.4-.46,1.44,1.44,0,0,1-.14-.64,1.91,1.91,0,0,1,.2-.86,1.75,1.75,0,0,1,.52-.62,2.8,2.8,0,0,1,.77-.4,4.19,4.19,0,0,1,.91-.23,6.15,6.15,0,0,1,1-.07,6.07,6.07,0,0,1,1,.07,3.52,3.52,0,0,1,.9.24,3,3,0,0,1,.76.43,1.81,1.81,0,0,1,.71,1.5l1.8,0a3.17,3.17,0,0,0-.31-1.37,3,3,0,0,0-.78-1,4.67,4.67,0,0,0-1.14-.66,5.91,5.91,0,0,0-1.38-.4,9.05,9.05,0,0,0-1.52-.11,10,10,0,0,0-1.59.12,5.61,5.61,0,0,0-1.39.41,4,4,0,0,0-1.1.69,2.72,2.72,0,0,0-.73,1,3.41,3.41,0,0,0-.27,1.34,2.83,2.83,0,0,0,.41,1.56,3.51,3.51,0,0,0,2.25,1.36,17.26,17.26,0,0,0,2.39.36c.37,0,.65.07.85.11s.45.06.76.12a5.53,5.53,0,0,1,.73.18,3.66,3.66,0,0,1,.59.24,1.5,1.5,0,0,1,.49.34,1.62,1.62,0,0,1,.29.48,1.71,1.71,0,0,1,.14.62,1.91,1.91,0,0,1-.17.9,2,2,0,0,1-.52.66,2.87,2.87,0,0,1-.82.42,4.76,4.76,0,0,1-1,.25,10.2,10.2,0,0,1-1.14.06,10.39,10.39,0,0,1-1.15-.06,5.09,5.09,0,0,1-1-.25,2.59,2.59,0,0,1-.84-.45,1.75,1.75,0,0,1-.54-.69,2.05,2.05,0,0,1-.18-.94h-1.82a3.66,3.66,0,0,0,.33,1.48,3.12,3.12,0,0,0,.83,1.08,4.66,4.66,0,0,0,1.25.69,7.51,7.51,0,0,0,1.5.39,11,11,0,0,0,1.66.12v-.07a11.39,11.39,0,0,0,1.7-.13,6.84,6.84,0,0,0,1.48-.4,4.71,4.71,0,0,0,1.19-.69,2.83,2.83,0,0,0,.78-1.05,3.46,3.46,0,0,0,.28-1.4A3.11,3.11,0,0,0,367.65,130.72Z"/><path class="cls-2" d="M223.94,88.56,215.4,97.1a18.23,18.23,0,0,0-25.79,0h0a18.24,18.24,0,0,0,25.8,25.8h0l8.54,8.54h0a30.32,30.32,0,0,1-42.88-42.88h0A30.31,30.31,0,0,1,223.94,88.56Z"/><path class="cls-3" d="M215.24,109.62c-.17.6-.33,1.21-.5,1.81L213.31,110l1.51-1.51A.88.88,0,0,1,215.24,109.62Z"/><path class="cls-3" d="M215.23,109.62c0,.15-.08.31-.12.46,0-.16.09-.31.13-.46a1.55,1.55,0,0,0,0-.21A1.6,1.6,0,0,1,215.23,109.62Zm0,0c0,.15-.08.31-.12.46,0-.16.09-.31.13-.46a1.55,1.55,0,0,0,0-.21A1.6,1.6,0,0,1,215.23,109.62Zm8.71-21.06L215.4,97.1,202.5,110l12.9,12.9h0l8.54,8.53V88.56Zm-5.74,21q.84,3.08,1.69,6.16a.83.83,0,0,1-.08.76.84.84,0,0,1-.68.25h-4.81c-.67,0-.94-.36-.75-1l1.17-4.3h0c.09-.3.17-.6.25-.9,0-.13.07-.25.1-.38a.19.19,0,0,0,0-.07c0-.16.09-.31.13-.46a1.55,1.55,0,0,0,0-.21h0a.89.89,0,0,0,0-.4l-.06-.14,0-.05-.06-.08a.74.74,0,0,0-.13-.12l-.17-.14h0a3.42,3.42,0,0,1-1.42-3.54,3.46,3.46,0,0,1,2.83-2.66,3.41,3.41,0,0,1,2.38,6.22A.84.84,0,0,0,218.2,109.58Zm-3,0c0,.15-.08.31-.12.46,0-.16.09-.31.13-.46a1.55,1.55,0,0,0,0-.21A1.6,1.6,0,0,1,215.23,109.62Zm0,0c0,.15-.08.31-.12.46,0-.16.09-.31.13-.46a1.55,1.55,0,0,0,0-.21A1.6,1.6,0,0,1,215.23,109.62Z"/></svg>