<svg id="Layer_1" data-name="Layer 1" xmlns="http://www.w3.org/2000/svg" viewBox="0 0 540 220"><defs><style>.cls-1{fill:#00487c;}.cls-2{fill:#fff;}</style></defs><rect id="SVGID" class="cls-1" x="-15.4" y="-6.28" width="570.81" height="232.55"/><polygon class="cls-2" points="256.99 113.03 263.51 104.96 263.51 113.07 256.99 113.03"/><path class="cls-2" d="M197.3,117.94V97.37h-5v25.32h17.15v-4.75Z"/><path class="cls-2" d="M212.29,97.37v25.32h4.91V97.37Z"/><path class="cls-2" d="M237.5,113.36a6.23,6.23,0,0,0-1.27-2.14,8.87,8.87,0,0,0-2.21-1.74,19,19,0,0,0-3.27-1.46c-1-.36-1.82-.69-2.49-1a8.71,8.71,0,0,1-1.6-.92,3,3,0,0,1-.85-.95,2.35,2.35,0,0,1-.26-1.1,2.1,2.1,0,0,1,.27-1,3,3,0,0,1,.72-.86,3.6,3.6,0,0,1,1.06-.59,4.15,4.15,0,0,1,1.35-.22,7,7,0,0,1,2.75.5,6.69,6.69,0,0,1,2.12,1.4l3.43-3.45a10.85,10.85,0,0,0-3.55-2.22,14.07,14.07,0,0,0-4.91-.76,9.51,9.51,0,0,0-3.25.54,8.28,8.28,0,0,0-2.63,1.5,7.27,7.27,0,0,0-1.78,2.33,6.94,6.94,0,0,0-.65,3,6.76,6.76,0,0,0,.59,2.92,7.43,7.43,0,0,0,1.55,2.16,9.59,9.59,0,0,0,2.25,1.56,23.79,23.79,0,0,0,2.68,1.16c1.06.38,1.92.72,2.6,1a7.82,7.82,0,0,1,1.58.9,2.3,2.3,0,0,1,1,2,2.1,2.1,0,0,1-.26,1,2.7,2.7,0,0,1-.73.82,3.67,3.67,0,0,1-1.08.56,4.34,4.34,0,0,1-1.32.2,9.48,9.48,0,0,1-3.16-.52,10,10,0,0,1-3-1.8l-3.49,3.52a19.82,19.82,0,0,0,2.21,1.57,10.77,10.77,0,0,0,2.22,1.06,12.4,12.4,0,0,0,2.47.61,20.26,20.26,0,0,0,3,.19,9.26,9.26,0,0,0,3.36-.59,8.51,8.51,0,0,0,2.63-1.57,7.19,7.19,0,0,0,1.72-2.26,6.08,6.08,0,0,0,.62-2.71A8.29,8.29,0,0,0,237.5,113.36Z"/><path class="cls-2" d="M239.81,97.37v4.37h7v21h4.93v-21H260l3.57-4.37Z"/><path class="cls-2" d="M285.19,101.58V97.37H268.45v25.32h4.82V111.48H285v-4H273.27v-5.9Z"/><path class="cls-2" d="M306.75,121.37c-.2-.49-.42-1.09-.65-1.78l-.52-1.51c-.16-.46-.3-.88-.44-1.27s-.27-.77-.39-1.12-.26-.72-.41-1.08a6.11,6.11,0,0,0-1.2-2,4.71,4.71,0,0,0-1.95-1.28,6.41,6.41,0,0,0,1.9-1,7.2,7.2,0,0,0,2.47-3.5,6.5,6.5,0,0,0,.35-2.15,7.31,7.31,0,0,0-.57-2.89,7,7,0,0,0-1.58-2.31,7.07,7.07,0,0,0-2.41-1.54,8.16,8.16,0,0,0-3-.55l-10,0v25.32h4.85V112.61H295a5.63,5.63,0,0,1,2,.32,4.22,4.22,0,0,1,1.44.89,5.24,5.24,0,0,1,1,1.36,9.74,9.74,0,0,1,.71,1.74l1.8,5.77h5.41A9,9,0,0,1,306.75,121.37Zm-6.08-14.79a3.94,3.94,0,0,1-.91,1.22,3.86,3.86,0,0,1-1.34.77,5.08,5.08,0,0,1-1.67.27H293.2V101h3.55a4.62,4.62,0,0,1,1.67.3,4,4,0,0,1,1.34.84,4.28,4.28,0,0,1,.91,1.27A3.9,3.9,0,0,1,301,105,3.8,3.8,0,0,1,300.67,106.58Z"/><path class="cls-2" d="M327.17,101.42v-4H310.44v25.32h16.73v-4.27H315.26v-7H327v-4H315.26v-6.06Z"/><path class="cls-2" d="M347.71,101.42v-4H331v25.32h16.73v-4.27H335.8v-7h11.76v-4H335.8v-6.06Z"/><polygon class="cls-2" points="251.6 122.69 263.51 122.69 263.51 117.76 251.75 117.76 251.6 122.69"/></svg>