<svg id="Layer_1" data-name="Layer 1" xmlns="http://www.w3.org/2000/svg" viewBox="0 0 540 220"><defs><style>.cls-1{fill:#344649;}.cls-2{fill:#fff;}</style></defs><rect id="SVGID" class="cls-1" x="-15.4" y="-6.28" width="570.81" height="232.55"/><path class="cls-2" d="M270,101.16a28.54,28.54,0,1,1,28.53-28.54A28.57,28.57,0,0,1,270,101.16Zm0-56.45a27.92,27.92,0,1,0,27.92,27.91A27.95,27.95,0,0,0,270,44.71Z"/><polygon class="cls-2" points="282.57 59.98 282.57 63.89 278.85 63.89 278.85 60.17 278.65 59.98 282.57 59.98"/><rect class="cls-2" x="257.43" y="81.58" width="3.73" height="3.69"/><path class="cls-2" d="M282.57,70V85.27h-3.73a11.63,11.63,0,0,0-11.63-11.6h-9.78V60h3.92l-.19.19A9.78,9.78,0,0,0,270.93,70Z"/><path class="cls-2" d="M320.65,174.91H309v-.5h10.78C320.07,174.58,320.35,174.75,320.65,174.91Z"/><path class="cls-2" d="M236.47,173.22v.3h.86v2.36h.33v-2.36h.87v-.3Z"/><path class="cls-2" d="M240.94,173.22v1.16h-1.38v-1.16h-.34v2.66h.34v-1.2h1.38v1.2h.33v-2.66Z"/><path class="cls-2" d="M242.46,175.58v-.9h1.14v-.3h-1.14v-.86h1.37v-.3h-1.7v2.66h1.75v-.3Z"/><path class="cls-2" d="M247.29,174.51a.61.61,0,0,0,.35-.21.56.56,0,0,0,.13-.39.62.62,0,0,0-.23-.51,1.08,1.08,0,0,0-.66-.18h-.94v2.66h1a1.16,1.16,0,0,0,.72-.19.67.67,0,0,0,.25-.54C247.88,174.8,247.68,174.59,247.29,174.51Zm-1-1h.63a.68.68,0,0,1,.4.11.39.39,0,0,1,.13.32.35.35,0,0,1-.14.31.57.57,0,0,1-.39.12h-.63Zm1.11,1.95a.88.88,0,0,1-.47.11h-.64v-.91h.64a.76.76,0,0,1,.46.12.41.41,0,0,1,.17.35A.41.41,0,0,1,247.38,175.47Z"/><path class="cls-2" d="M250,174.8a.74.74,0,0,0,.41-.28.81.81,0,0,0,.15-.48.75.75,0,0,0-.11-.43.72.72,0,0,0-.31-.29,1,1,0,0,0-.46-.1h-1v2.66H249v-1h.68l.55,1h.37Zm-.35-.24H249v-1h.66a.63.63,0,0,1,.42.14.5.5,0,0,1,.15.38.47.47,0,0,1-.15.37A.6.6,0,0,1,249.65,174.56Z"/><path class="cls-2" d="M251.33,173.22v2.66h.33v-2.66Z"/><path class="cls-2" d="M254.49,173.85a1.16,1.16,0,0,0-.47-.46,1.36,1.36,0,0,0-.71-.17h-.79v2.66h.79a1.46,1.46,0,0,0,.71-.16,1.18,1.18,0,0,0,.47-.47,1.54,1.54,0,0,0,.16-.7A1.57,1.57,0,0,0,254.49,173.85Zm-.44,1.45a1,1,0,0,1-.74.28h-.46v-2.06h.46a1,1,0,0,1,.74.28,1.21,1.21,0,0,1,0,1.5Z"/><path class="cls-2" d="M256.62,174.44v.31h.8v.09a.75.75,0,0,1-.11.4.66.66,0,0,1-.3.27,1,1,0,0,1-.44.09.86.86,0,0,1-.48-.13.89.89,0,0,1-.32-.37,1.2,1.2,0,0,1-.11-.55,1.19,1.19,0,0,1,.11-.54.87.87,0,0,1,.33-.38,1,1,0,0,1,.48-.13.8.8,0,0,1,.51.16.74.74,0,0,1,.29.43h.32a1,1,0,0,0-.37-.65,1.15,1.15,0,0,0-.74-.24,1.22,1.22,0,0,0-.67.17,1.2,1.2,0,0,0-.45.47,1.64,1.64,0,0,0-.15.71,1.61,1.61,0,0,0,.15.71,1.2,1.2,0,0,0,1.1.65,1,1,0,0,0,.53-.14.83.83,0,0,0,.33-.31l0,.42h.27v-1.44Z"/><path class="cls-2" d="M258.94,175.58v-.9h1.13v-.3h-1.13v-.86h1.36v-.3h-1.7v2.66h1.75v-.3Z"/><path class="cls-2" d="M262.25,173.22v.3h.86v2.36h.33v-2.36h.87v-.3Z"/><path class="cls-2" d="M267.09,173.86a1.25,1.25,0,0,0-.45-.49,1.35,1.35,0,0,0-.66-.17,1.3,1.3,0,0,0-.66.17,1.18,1.18,0,0,0-.45.49,1.41,1.41,0,0,0-.17.69,1.48,1.48,0,0,0,.17.7,1.16,1.16,0,0,0,.45.48,1.21,1.21,0,0,0,.66.18,1.26,1.26,0,0,0,.66-.18,1.23,1.23,0,0,0,.45-.48,1.6,1.6,0,0,0,.16-.7A1.53,1.53,0,0,0,267.09,173.86Zm-.3,1.23a.94.94,0,0,1-.33.38.86.86,0,0,1-.48.13.88.88,0,0,1-.49-.13.94.94,0,0,1-.33-.38,1.13,1.13,0,0,1-.12-.54,1.19,1.19,0,0,1,.12-.54.91.91,0,0,1,.33-.37.88.88,0,0,1,.49-.14.87.87,0,0,1,.48.14.91.91,0,0,1,.33.37,1.19,1.19,0,0,1,.12.54A1.13,1.13,0,0,1,266.79,175.09Z"/><path class="cls-2" d="M271,175.45a.85.85,0,0,1-.51.15.88.88,0,0,1-.49-.13.83.83,0,0,1-.32-.37,1.2,1.2,0,0,1-.12-.55,1.16,1.16,0,0,1,.12-.54.85.85,0,0,1,.32-.38,1,1,0,0,1,.49-.13.8.8,0,0,1,.51.16.77.77,0,0,1,.29.43h.33a1,1,0,0,0-.38-.65,1.13,1.13,0,0,0-.74-.24,1.24,1.24,0,0,0-.67.17,1.07,1.07,0,0,0-.45.47,1.65,1.65,0,0,0-.16.71,1.58,1.58,0,0,0,.16.71,1,1,0,0,0,.45.48,1.33,1.33,0,0,0,.67.17,1.13,1.13,0,0,0,.74-.24,1,1,0,0,0,.37-.66h-.33A.75.75,0,0,1,271,175.45Z"/><path class="cls-2" d="M274.65,173.86a1.25,1.25,0,0,0-.45-.49,1.35,1.35,0,0,0-.66-.17,1.3,1.3,0,0,0-.66.17,1.25,1.25,0,0,0-.45.49,1.41,1.41,0,0,0-.16.69,1.47,1.47,0,0,0,.16.7,1.23,1.23,0,0,0,.45.48,1.21,1.21,0,0,0,.66.18,1.26,1.26,0,0,0,.66-.18,1.23,1.23,0,0,0,.45-.48,1.6,1.6,0,0,0,.16-.7A1.53,1.53,0,0,0,274.65,173.86Zm-.3,1.23a.94.94,0,0,1-.33.38.86.86,0,0,1-.48.13.88.88,0,0,1-.49-.13.94.94,0,0,1-.33-.38,1.13,1.13,0,0,1-.12-.54,1.19,1.19,0,0,1,.12-.54.91.91,0,0,1,.33-.37.88.88,0,0,1,.49-.14.87.87,0,0,1,.48.14.91.91,0,0,1,.33.37,1.19,1.19,0,0,1,.12.54A1.13,1.13,0,0,1,274.35,175.09Z"/><path class="cls-2" d="M277.87,173.22l-.93,2.21-.95-2.21h-.42v2.66h.33v-2.1l.88,2.1h.29l.89-2.1v2.1h.32v-2.66Z"/><path class="cls-2" d="M281.44,173.22l-.93,2.21-.95-2.21h-.42v2.66h.33v-2.1l.88,2.1h.29l.89-2.1v2.1h.32v-2.66Z"/><path class="cls-2" d="M284.4,173.22v1.55c0,.55-.23.83-.69.83s-.68-.28-.68-.83v-1.55h-.33v1.53a1.26,1.26,0,0,0,.25.86,1,1,0,0,0,.76.3,1,1,0,0,0,.76-.3,1.26,1.26,0,0,0,.26-.86v-1.53Z"/><path class="cls-2" d="M287.32,173.22v2.06l-1.43-2.06h-.31v2.66h.33v-2l1.43,2h.3v-2.66Z"/><path class="cls-2" d="M288.51,173.22v2.66h.33v-2.66Z"/><path class="cls-2" d="M291.37,175.45a.85.85,0,0,1-.51.15.88.88,0,0,1-.49-.13.89.89,0,0,1-.32-.37,1.35,1.35,0,0,1-.11-.55,1.3,1.3,0,0,1,.11-.54.92.92,0,0,1,.32-.38,1,1,0,0,1,.49-.13.8.8,0,0,1,.51.16.77.77,0,0,1,.29.43H292a1,1,0,0,0-.38-.65,1.13,1.13,0,0,0-.74-.24,1.24,1.24,0,0,0-.67.17,1.11,1.11,0,0,0-.44.47,1.51,1.51,0,0,0-.16.71,1.46,1.46,0,0,0,.16.71,1.08,1.08,0,0,0,.44.48,1.33,1.33,0,0,0,.67.17,1.13,1.13,0,0,0,.74-.24A1,1,0,0,0,292,175h-.33A.75.75,0,0,1,291.37,175.45Z"/><path class="cls-2" d="M293.84,173.22h-.39l-1,2.66h.35l.28-.72h1.16l.28.72h.36Zm-.68,1.64.48-1.28.48,1.28Z"/><path class="cls-2" d="M295,173.22v.3h.86v2.36h.33v-2.36H297v-.3Z"/><path class="cls-2" d="M297.71,173.22v2.66h.34v-2.66Z"/><path class="cls-2" d="M301.19,173.86a1.12,1.12,0,0,0-.45-.49,1.37,1.37,0,0,0-1.32,0,1.25,1.25,0,0,0-.45.49,1.41,1.41,0,0,0-.16.69,1.47,1.47,0,0,0,.16.7,1.23,1.23,0,0,0,.45.48,1.3,1.3,0,0,0,1.32,0,1.1,1.1,0,0,0,.45-.48,1.48,1.48,0,0,0,.17-.7A1.41,1.41,0,0,0,301.19,173.86Zm-.29,1.23a.94.94,0,0,1-.33.38,1,1,0,0,1-1,0,.85.85,0,0,1-.32-.38,1.13,1.13,0,0,1-.12-.54,1.19,1.19,0,0,1,.12-.54.83.83,0,0,1,.32-.37.93.93,0,0,1,1,0,.91.91,0,0,1,.33.37,1.19,1.19,0,0,1,.12.54A1.13,1.13,0,0,1,300.9,175.09Z"/><path class="cls-2" d="M303.86,173.22v2.06l-1.44-2.06h-.3v2.66h.32v-2l1.44,2h.3v-2.66Z"/><rect class="cls-2" x="203.73" y="174.41" width="27.26" height="0.5"/><path class="cls-2" d="M235,127.2a6.09,6.09,0,0,0-1-1.82,8.46,8.46,0,0,0-1.62-1.52,21.83,21.83,0,0,0-2.21-1.34c-.77-.41-1.45-.8-2-1.17a7.63,7.63,0,0,1-1.45-1.14,4.08,4.08,0,0,1-.85-1.28,4.16,4.16,0,0,1-.27-1.55,3.74,3.74,0,0,1,1-2.8,4,4,0,0,1,2.9-1,3.33,3.33,0,0,1,2.13.67,4.86,4.86,0,0,1,1.4,2.06,6.61,6.61,0,0,1,.44,1.36c0,.33.19.5.43.5s.41-.25.41-.73c0-2.19-.1-3.4-.3-3.64a4,4,0,0,0-1.51-.75,8.24,8.24,0,0,0-2.71-.42,6.57,6.57,0,0,0-2.49.46,5.38,5.38,0,0,0-1.91,1.29,5.85,5.85,0,0,0-1.25,2,7.37,7.37,0,0,0-.44,2.59,6.37,6.37,0,0,0,.3,2.07,4.6,4.6,0,0,0,.89,1.57,7.57,7.57,0,0,0,1.46,1.27,20.31,20.31,0,0,0,2,1.21c.8.43,1.5.85,2.1,1.24a8,8,0,0,1,1.51,1.27,4.68,4.68,0,0,1,.92,1.54,6,6,0,0,1,.31,2.06,5.46,5.46,0,0,1-.32,1.91,4.68,4.68,0,0,1-.91,1.48,4.1,4.1,0,0,1-1.39,1,4.45,4.45,0,0,1-1.78.35,4.36,4.36,0,0,1-2.53-.74,4.19,4.19,0,0,1-1.59-2,4.83,4.83,0,0,1-.32-1.24c-.06-.39-.09-.73-.12-1a3.13,3.13,0,0,0-.11-.73c-.05-.18-.14-.28-.29-.28-.34,0-.51.42-.51,1.24,0,.27,0,.6,0,1s0,.86,0,1.42a6,6,0,0,0,.1,1.26,1.71,1.71,0,0,0,.56.85,4.68,4.68,0,0,0,1.71.89,7.87,7.87,0,0,0,2.62.42,7.1,7.1,0,0,0,2.75-.54,6.72,6.72,0,0,0,2.23-1.53,7.28,7.28,0,0,0,1.5-2.34,7.91,7.91,0,0,0,.54-3A7.07,7.07,0,0,0,235,127.2Z"/><path class="cls-2" d="M252.3,135.51l-.65-.15A1.45,1.45,0,0,1,251,135a1.42,1.42,0,0,1-.3-1v-9.09a5.67,5.67,0,0,0-1.28-3.87,4.19,4.19,0,0,0-3.32-1.47,4,4,0,0,0-1.7.33,6.37,6.37,0,0,0-1.48,1,4.54,4.54,0,0,0-1,1.14c-.21.35-.36.53-.46.53s-.11-.14-.11-.4V111.81c0-.53-.08-.8-.25-.8a1.47,1.47,0,0,0-.66.35A5.92,5.92,0,0,1,239,112a6.78,6.78,0,0,1-1,.25.46.46,0,0,0-.44.48c0,.22.09.32.26.32h.27l.12,0c.76,0,1.13.54,1.13,1.63V134a1.36,1.36,0,0,1-.29,1,1.59,1.59,0,0,1-.65.38,5.66,5.66,0,0,1-.66.16.32.32,0,0,0-.29.35q0,.28.15.33a2.51,2.51,0,0,0,.47,0,7.21,7.21,0,0,0,1-.07,10.31,10.31,0,0,1,1.32-.07,12.42,12.42,0,0,1,1.51.07,7.21,7.21,0,0,0,.84.07,1.4,1.4,0,0,0,.42-.05c.08,0,.12-.14.12-.31a.3.3,0,0,0-.29-.34l-.65-.15a1.54,1.54,0,0,1-.66-.36,1.47,1.47,0,0,1-.29-1v-6.65a9.82,9.82,0,0,1,.9-4.72,3.16,3.16,0,0,1,3-1.6,2.83,2.83,0,0,1,2.74,1.42,9.2,9.2,0,0,1,.77,4.25V134a1.29,1.29,0,0,1-.31,1,1.74,1.74,0,0,1-.65.38,6.43,6.43,0,0,1-.66.17.31.31,0,0,0-.31.34q0,.28.15.33a2.51,2.51,0,0,0,.47,0,7.47,7.47,0,0,0,1-.07,10.11,10.11,0,0,1,1.32-.07,12.57,12.57,0,0,1,1.53.07,7.21,7.21,0,0,0,.84.07,1.35,1.35,0,0,0,.42-.05c.08,0,.12-.14.12-.31A.3.3,0,0,0,252.3,135.51Z"/><path class="cls-2" d="M266.18,134.24c-.15,0-.34.14-.57.41a1,1,0,0,1-.74.4c-.66,0-1-.76-1-2.27v-9.13c0-.63,0-1.21-.08-1.71a3.06,3.06,0,0,0-.4-1.31,2,2,0,0,0-1-.84,4.57,4.57,0,0,0-1.79-.29,6.22,6.22,0,0,0-2.62.55,7.77,7.77,0,0,0-2.07,1.34,6.61,6.61,0,0,0-1.35,1.67,3.31,3.31,0,0,0-.47,1.54.58.58,0,0,0,.18.45.61.61,0,0,0,.44.16,1.46,1.46,0,0,0,1.42-.78,16,16,0,0,0,.8-1.91,3.46,3.46,0,0,1,1.16-1.57,2.88,2.88,0,0,1,1.79-.65,1.46,1.46,0,0,1,1.47.72,6.07,6.07,0,0,1,.35,2.41v3.2c-1.24.71-2.33,1.36-3.28,2a20.19,20.19,0,0,0-2.38,1.76,6.51,6.51,0,0,0-1.45,1.75,4.09,4.09,0,0,0-.47,1.91,2.94,2.94,0,0,0,.73,2.1,2.67,2.67,0,0,0,2,.78,4.09,4.09,0,0,0,2.24-.69,24.49,24.49,0,0,0,2.46-1.86h.14a6.2,6.2,0,0,0,.71,1.84,1.27,1.27,0,0,0,1.11.57,2,2,0,0,0,.86-.24,4.61,4.61,0,0,0,.93-.6,4.75,4.75,0,0,0,.74-.75,1.11,1.11,0,0,0,.31-.67C266.43,134.32,266.35,134.24,266.18,134.24Zm-4.41-2.8a3.84,3.84,0,0,1-.32,1.62,3.91,3.91,0,0,1-.86,1.2,3.84,3.84,0,0,1-1.13.75,2.93,2.93,0,0,1-1.14.26,1.77,1.77,0,0,1-1.42-.61,2.42,2.42,0,0,1-.52-1.62q0-2.4,3.72-4.55l1.09-.62a.83.83,0,0,1,.36-.14c.15,0,.22.12.22.36Z"/><path class="cls-2" d="M276.77,120a2,2,0,0,0-1.42-.49c-1.13,0-2.21.7-3.23,2.08l-.66,1c-.1.12-.18.18-.25.18s-.15-.09-.15-.26v-2.07a5.74,5.74,0,0,0,0-.64c0-.16-.07-.24-.19-.24s-.36.19-.65.57a5.77,5.77,0,0,1-1.26,1.14,4.55,4.55,0,0,1-.85.49c-.26.11-.38.26-.38.45s.07.25.22.25a3.1,3.1,0,0,1,.49,0,1,1,0,0,1,.51.25,1.24,1.24,0,0,1,.23.87v9.61a5.4,5.4,0,0,1-.13,1.4.9.9,0,0,1-.6.63,2.94,2.94,0,0,1-.91.22c-.17,0-.25.12-.25.36s0,.27.13.31a1,1,0,0,0,.41.06,8.56,8.56,0,0,0,1-.08,10.74,10.74,0,0,1,1.32-.07,18,18,0,0,1,1.93.09,12.49,12.49,0,0,0,1.29.09c.39,0,.58-.13.58-.4s0-.27-.12-.3a1.46,1.46,0,0,0-.39-.08l-.62-.05a3.12,3.12,0,0,1-.83-.22,1.11,1.11,0,0,1-.7-.61,4.74,4.74,0,0,1-.14-1.35v-6a13,13,0,0,1,.22-2.6,7.18,7.18,0,0,1,.58-1.8,3,3,0,0,1,.78-1,1.33,1.33,0,0,1,.82-.32,1.21,1.21,0,0,1,.73.21,4.36,4.36,0,0,1,.56.5c.19.17.37.34.55.48a1,1,0,0,0,.64.23,1.12,1.12,0,0,0,.85-.46,1.77,1.77,0,0,0,.38-1.19A1.6,1.6,0,0,0,276.77,120Z"/><path class="cls-2" d="M290.21,122.34a.67.67,0,0,0,.44-.11.6.6,0,0,0,.11-.4,1.39,1.39,0,0,0-.15-.78.61.61,0,0,0-.54-.2h-.29a.69.69,0,0,1-.18,0l-.88.07-.16,0a1.47,1.47,0,0,1-.31,0,2.5,2.5,0,0,1-1-.22c-.34-.14-.7-.31-1.09-.49s-.82-.35-1.28-.51a4.84,4.84,0,0,0-1.57-.24,5.24,5.24,0,0,0-2.17.46,5.15,5.15,0,0,0-1.71,1.24,5.62,5.62,0,0,0-1.1,1.83,6.43,6.43,0,0,0-.41,2.3,5.41,5.41,0,0,0,.5,2.42,6.82,6.82,0,0,0,1.09,1.66,6.18,6.18,0,0,0,1.11,1c.34.22.51.36.51.44s-.11.19-.33.29l-2.18,1.13c-.54.26-.8.47-.8.61a.92.92,0,0,0,.1.31,2,2,0,0,0,.41.53l1.34,1.57a1.92,1.92,0,0,1,.33.47c0,.18-.18.38-.53.62a12.55,12.55,0,0,0-1.14.91,7.73,7.73,0,0,0-1.15,1.26,2.7,2.7,0,0,0-.53,1.69,3.35,3.35,0,0,0,1.57,2.88,6.62,6.62,0,0,0,3.06,1c-.12-.36-.24-.76-.36-1.17a3.47,3.47,0,0,1-1-.68,3.67,3.67,0,0,1-1.16-2.73,3.42,3.42,0,0,1,.48-1.69,4,4,0,0,1,1.09-1.33,3.06,3.06,0,0,1,1.31-.47,13.19,13.19,0,0,1,2.4-.18,5.46,5.46,0,0,1,3.41.89,2.9,2.9,0,0,1,1.08,1.78,1,1,0,0,0,.14.37c.39.61.77,1.29,1.14,1.88h0a4.9,4.9,0,0,0,.77-2.52q.1-4.51-6.15-4.51-.62,0-1.17,0c-.36,0-.71,0-1.05,0a2.26,2.26,0,0,1-1.55-.44c-.33-.29-.49-.53-.49-.73s.25-.55.75-.87a6.47,6.47,0,0,1,2.67-.65,5.94,5.94,0,0,0,4-1.75,5.59,5.59,0,0,0,1.44-4,6.3,6.3,0,0,0-.19-1.59,7,7,0,0,0-.58-1.54l1.75.07ZM285.88,129a2.78,2.78,0,0,1-2.4,1.37,2.83,2.83,0,0,1-2.43-1.35,6.49,6.49,0,0,1-.93-3.71,6.58,6.58,0,0,1,.95-3.76,2.83,2.83,0,0,1,2.41-1.37,2.78,2.78,0,0,1,2.4,1.37,6.75,6.75,0,0,1,.91,3.76A6.59,6.59,0,0,1,285.88,129Z"/><path class="cls-2" d="M304,134.24c-.15,0-.34.14-.57.41a1,1,0,0,1-.74.4c-.66,0-1-.76-1-2.27v-9.13c0-.63,0-1.21-.08-1.71a3.06,3.06,0,0,0-.4-1.31,2.06,2.06,0,0,0-1-.84,4.52,4.52,0,0,0-1.78-.29,6.15,6.15,0,0,0-2.62.55,8,8,0,0,0-2.08,1.34,6.35,6.35,0,0,0-1.34,1.67,3.33,3.33,0,0,0-.48,1.54.59.59,0,0,0,.19.45.6.6,0,0,0,.43.16,1.45,1.45,0,0,0,1.42-.78,14.51,14.51,0,0,0,.8-1.91,3.48,3.48,0,0,1,1.17-1.57,2.85,2.85,0,0,1,1.78-.65,1.48,1.48,0,0,1,1.48.72,6.11,6.11,0,0,1,.34,2.41v3.2c-1.24.71-2.33,1.36-3.28,2a21.06,21.06,0,0,0-2.38,1.76,6.46,6.46,0,0,0-1.44,1.75A4.09,4.09,0,0,0,292,134a2.94,2.94,0,0,0,.73,2.1,2.64,2.64,0,0,0,2,.78,4.06,4.06,0,0,0,2.23-.69,23.4,23.4,0,0,0,2.46-1.86h.15a5.94,5.94,0,0,0,.71,1.84,1.25,1.25,0,0,0,1.11.57,2,2,0,0,0,.86-.24,4.91,4.91,0,0,0,.93-.6,4.75,4.75,0,0,0,.74-.75,1.11,1.11,0,0,0,.31-.67C304.23,134.32,304.15,134.24,304,134.24Zm-4.41-2.8a3.84,3.84,0,0,1-.33,1.62,3.75,3.75,0,0,1-.86,1.2,3.79,3.79,0,0,1-1.12.75,3,3,0,0,1-1.15.26,1.77,1.77,0,0,1-1.42-.61,2.42,2.42,0,0,1-.51-1.62q0-2.4,3.71-4.55l1.1-.62a.79.79,0,0,1,.36-.14c.15,0,.22.12.22.36Z"/><path class="cls-2" d="M319.67,135.51l-.65-.15a1.18,1.18,0,0,1-.95-1.4v-8.9a6.17,6.17,0,0,0-1.23-4,4.06,4.06,0,0,0-3.28-1.49,3.93,3.93,0,0,0-1.61.33,5.59,5.59,0,0,0-1.47,1,4.82,4.82,0,0,0-1,1.14c-.21.35-.36.53-.46.53s-.14-.14-.14-.4v-1.71c0-.27,0-.48,0-.64s-.08-.24-.2-.24-.33.19-.62.57a6.48,6.48,0,0,1-1.38,1.22,3,3,0,0,1-.78.41.47.47,0,0,0-.38.46.23.23,0,0,0,.22.25l.48.07a1.23,1.23,0,0,1,.52.2c.16.11.23.35.23.71V134a1.37,1.37,0,0,1-.29,1,1.66,1.66,0,0,1-.65.38c-.25.07-.46.13-.66.17a.31.31,0,0,0-.29.34c0,.17,0,.27.13.31a1.31,1.31,0,0,0,.42.05,8.63,8.63,0,0,0,1.09-.07,9.7,9.7,0,0,1,1.25-.07,12.31,12.31,0,0,1,1.51.07,7.21,7.21,0,0,0,.84.07,1.35,1.35,0,0,0,.42-.05c.09,0,.13-.14.13-.31a.31.31,0,0,0-.29-.34l-.66-.15a1.54,1.54,0,0,1-.66-.36,1.47,1.47,0,0,1-.29-1v-6.65a10.08,10.08,0,0,1,.88-4.74A3,3,0,0,1,312.7,121a2.69,2.69,0,0,1,2.63,1.42,9.52,9.52,0,0,1,.74,4.25V134a1.33,1.33,0,0,1-.3,1,1.59,1.59,0,0,1-.65.38c-.25.07-.46.13-.66.17a.31.31,0,0,0-.29.34q0,.28.15.33a2.51,2.51,0,0,0,.47,0,7.21,7.21,0,0,0,1-.07,10.31,10.31,0,0,1,1.32-.07,12.42,12.42,0,0,1,1.51.07,7.06,7.06,0,0,0,.84.07,1.28,1.28,0,0,0,.41-.05c.09,0,.13-.14.13-.31A.31.31,0,0,0,319.67,135.51Z"/><path class="cls-2" d="M219,159c-.19,0-.32.15-.38.46a9.69,9.69,0,0,1-.38,1.25,7.66,7.66,0,0,1-1.82,3.06,4,4,0,0,1-2.84,1,5,5,0,0,1-2.73-.82,7.73,7.73,0,0,1-2.25-2.3,12.27,12.27,0,0,1-1.51-3.51,17.46,17.46,0,0,1-.54-4.48,18.79,18.79,0,0,1,.54-4.7,11.69,11.69,0,0,1,1.49-3.49,7.42,7.42,0,0,1,2.21-2.19,5.15,5.15,0,0,1,2.72-.76,4.63,4.63,0,0,1,4.26,2.7,5.11,5.11,0,0,1,.58,1.42c.07.38.23.58.47.58s.33-.16.33-.48a25.92,25.92,0,0,0-.11-2.65,2.7,2.7,0,0,0-.3-1.2,2.25,2.25,0,0,0-.63-.42A6.2,6.2,0,0,0,217,142c-.45-.13-.95-.25-1.49-.35a10.63,10.63,0,0,0-1.73-.14,8.6,8.6,0,0,0-3.93.91,10,10,0,0,0-3.19,2.53,12.14,12.14,0,0,0-2.15,3.84,14.58,14.58,0,0,0-.78,4.84,15.37,15.37,0,0,0,.73,4.85,11.9,11.9,0,0,0,2,3.85,9.46,9.46,0,0,0,3.09,2.56,8.34,8.34,0,0,0,3.86.91,9.47,9.47,0,0,0,2-.2,9.33,9.33,0,0,0,1.64-.51,6.22,6.22,0,0,0,1.24-.68,3.28,3.28,0,0,0,.73-.69,3,3,0,0,0,.27-1.33c0-.67,0-1.61,0-2.82C219.38,159.19,219.26,159,219,159Z"/><path class="cls-2" d="M235.82,153.56a8,8,0,0,0-1.41-2.74,6.32,6.32,0,0,0-2.3-1.75,7.38,7.38,0,0,0-3.07-.62,6.59,6.59,0,0,0-2.84.62,6.8,6.8,0,0,0-2.28,1.75,8,8,0,0,0-1.49,2.74,11,11,0,0,0-.54,3.56,11.57,11.57,0,0,0,.52,3.53,8.42,8.42,0,0,0,1.42,2.75,6.69,6.69,0,0,0,2.18,1.79,6.21,6.21,0,0,0,2.84.64,7.45,7.45,0,0,0,3.13-.63,6.41,6.41,0,0,0,2.35-1.76,7.91,7.91,0,0,0,1.48-2.77,12.77,12.77,0,0,0,0-7.11Zm-3.14,9.66a4.16,4.16,0,0,1-3.64,1.95,3.53,3.53,0,0,1-1.95-.57,4.91,4.91,0,0,1-1.55-1.64,9.15,9.15,0,0,1-1-2.59,15,15,0,0,1-.37-3.45,10.48,10.48,0,0,1,1.34-5.82,4.12,4.12,0,0,1,3.62-2,4,4,0,0,1,3.55,2.19,12.09,12.09,0,0,1,1.33,6.21A10.3,10.3,0,0,1,232.68,163.22Z"/><path class="cls-2" d="M252.59,164.42c-.19,0-.41-.08-.65-.14a1.2,1.2,0,0,1-.95-1.4V154a6.14,6.14,0,0,0-1.23-4,4,4,0,0,0-3.27-1.5,3.9,3.9,0,0,0-1.61.33,5.43,5.43,0,0,0-1.47,1,4.91,4.91,0,0,0-1,1.15c-.21.35-.36.52-.45.52s-.15-.13-.15-.4v-1.71a5.74,5.74,0,0,0,0-.64c0-.16-.07-.24-.2-.24s-.32.19-.61.57a6.48,6.48,0,0,1-1.38,1.22,3.39,3.39,0,0,1-.79.42.46.46,0,0,0-.38.45.24.24,0,0,0,.22.26l.49.07a1.11,1.11,0,0,1,.51.2c.16.11.24.34.24.7v10.54a1.39,1.39,0,0,1-.29,1,1.7,1.7,0,0,1-.66.38,6.18,6.18,0,0,1-.66.16.33.33,0,0,0-.29.35c0,.17,0,.28.13.31a1.06,1.06,0,0,0,.42.06,8.61,8.61,0,0,0,1.09-.08,10,10,0,0,1,1.26-.07,12.42,12.42,0,0,1,1.51.07,7.89,7.89,0,0,0,.84.08,1.1,1.1,0,0,0,.42-.06c.08,0,.12-.14.12-.31a.32.32,0,0,0-.29-.35c-.19,0-.41-.08-.65-.14a1.2,1.2,0,0,1-1-1.4v-6.65a10,10,0,0,1,.88-4.74,3,3,0,0,1,2.86-1.57,2.71,2.71,0,0,1,2.63,1.41,9.57,9.57,0,0,1,.73,4.25v7.3a1.39,1.39,0,0,1-.29,1,1.63,1.63,0,0,1-.66.38,5.54,5.54,0,0,1-.65.16.32.32,0,0,0-.29.35c0,.2,0,.31.14.33a2.51,2.51,0,0,0,.48,0,7.7,7.7,0,0,0,1-.08A10,10,0,0,1,250,165a12.31,12.31,0,0,1,1.51.07,7.89,7.89,0,0,0,.84.08,1.1,1.1,0,0,0,.42-.06c.08,0,.13-.14.13-.31A.33.33,0,0,0,252.59,164.42Z"/><path class="cls-2" d="M263.65,158.4a4.15,4.15,0,0,0-.86-1.3,6.11,6.11,0,0,0-1.31-1c-.51-.3-1.08-.6-1.71-.92a8.63,8.63,0,0,1-2.18-1.43,2.61,2.61,0,0,1-.73-2,2.64,2.64,0,0,1,.73-1.94,2.36,2.36,0,0,1,1.78-.75,2.81,2.81,0,0,1,1.45.4,3.17,3.17,0,0,1,1.17,1.21,3.45,3.45,0,0,1,.51,1.25c0,.31.15.46.36.46s.33-.25.33-.73v-1.49a2.9,2.9,0,0,0-.07-.68,1.07,1.07,0,0,0-.38-.56,2.29,2.29,0,0,0-.95-.38,8.93,8.93,0,0,0-1.77-.14,4.94,4.94,0,0,0-3.67,1.32,4.55,4.55,0,0,0-1.32,3.38,3.56,3.56,0,0,0,1,2.59,10.57,10.57,0,0,0,3,1.93,8.29,8.29,0,0,1,2.44,1.58,3.15,3.15,0,0,1,.8,2.28,3.69,3.69,0,0,1-.93,2.63,3.2,3.2,0,0,1-2.46,1,2.56,2.56,0,0,1-2-.68,4.71,4.71,0,0,1-1-2c-.22-.85-.36-1.46-.42-1.84s-.2-.56-.42-.56-.4.2-.4.62c0,.85,0,1.53,0,2.05s0,.88,0,1.08a1,1,0,0,0,.36.78,3.28,3.28,0,0,0,.93.62,5.2,5.2,0,0,0,1.28.42,6.81,6.81,0,0,0,1.43.15,5.22,5.22,0,0,0,4-1.5,5.64,5.64,0,0,0,1.42-4.07A5,5,0,0,0,263.65,158.4Z"/><path class="cls-2" d="M280.23,163.6l-.49,0a.82.82,0,0,1-.49-.29,1.66,1.66,0,0,1-.22-1v-12a3.76,3.76,0,0,0-.07-1c0-.13-.2-.2-.47-.2a6,6,0,0,0-.6,0c-.29,0-.64,0-1,0s-.66,0-.88,0a3.62,3.62,0,0,0-.47,0,.62.62,0,0,0-.27,0c-.06,0-.09.14-.09.31a.29.29,0,0,0,.29.33,4,4,0,0,1,.65.15,1.57,1.57,0,0,1,.66.4,1.45,1.45,0,0,1,.29,1V158a10,10,0,0,1-.88,4.75,3,3,0,0,1-2.86,1.59,2.7,2.7,0,0,1-2.63-1.42,9.6,9.6,0,0,1-.74-4.26v-8.37a3.06,3.06,0,0,0-.09-1c-.06-.12-.21-.18-.47-.18a3.9,3.9,0,0,0-.59,0c-.21,0-.44,0-.7,0-.51,0-.9,0-1.18,0l-.49,0a.63.63,0,0,0-.28,0c-.06,0-.09.14-.09.31a.29.29,0,0,0,.29.33,4,4,0,0,1,.66.15,1.54,1.54,0,0,1,.65.4,1.45,1.45,0,0,1,.29,1v7.86c0,.78,0,1.52.11,2.22a5.74,5.74,0,0,0,.62,2,3.86,3.86,0,0,0,1.51,1.71,4.08,4.08,0,0,0,2.23.63,3.84,3.84,0,0,0,1.65-.35,5.72,5.72,0,0,0,1.47-1,4.8,4.8,0,0,0,1-1.15c.19-.35.34-.53.43-.53s.11.15.11.44V165a2.72,2.72,0,0,0,.06.64.26.26,0,0,0,.27.24,1.18,1.18,0,0,0,.69-.35,5.76,5.76,0,0,1,1.05-.71,8.83,8.83,0,0,1,.95-.46c.26-.11.4-.26.4-.45A.23.23,0,0,0,280.23,163.6Z"/><path class="cls-2" d="M287.92,164.42c-.2,0-.41-.08-.66-.14a1.38,1.38,0,0,1-.65-.37,1.36,1.36,0,0,1-.29-1V140.73c0-.53-.09-.8-.26-.8a1.57,1.57,0,0,0-.65.35A6,6,0,0,1,284,141a7,7,0,0,1-1,.26.44.44,0,0,0-.43.47c0,.22.08.33.25.33l.27,0,.13,0c.75,0,1.13.55,1.13,1.64v19.27a1.26,1.26,0,0,1-.33,1,1.89,1.89,0,0,1-.73.38,6.41,6.41,0,0,1-.72.16c-.22,0-.33.16-.33.35s0,.28.14.31a1.4,1.4,0,0,0,.48.06,9.64,9.64,0,0,0,1.07-.08,12.21,12.21,0,0,1,1.43-.07,12,12,0,0,1,1.47.07,7.84,7.84,0,0,0,.87.08,1,1,0,0,0,.42-.06c.09,0,.13-.14.13-.31A.33.33,0,0,0,287.92,164.42Z"/><path class="cls-2" d="M297.64,163c-.08,0-.18.07-.33.22a4.27,4.27,0,0,1-.53.45,5.13,5.13,0,0,1-.71.46,1.84,1.84,0,0,1-.87.22c-1.16,0-1.75-.92-1.75-2.77V151a.94.94,0,0,1,.09-.49.52.52,0,0,1,.42-.13h2.73c.19,0,.32,0,.38-.14a1,1,0,0,0,.1-.48v-.14a.66.66,0,0,0-.08-.39c0-.06-.18-.09-.4-.09H294c-.22,0-.36,0-.42-.13a.91.91,0,0,1-.09-.49v-2.44c0-.29-.05-.44-.15-.44s-.34.23-.53.7a6.13,6.13,0,0,1-1.07,1.63,8.7,8.7,0,0,1-1.37,1.37c-.37.28-.56.52-.56.71s.18.33.55.33h.54a.52.52,0,0,1,.42.13.94.94,0,0,1,.09.49l-.11,8.7v1.71a5.77,5.77,0,0,0,.79,3.32,2.52,2.52,0,0,0,2.2,1.13,2.88,2.88,0,0,0,1.33-.33,6.16,6.16,0,0,0,1.13-.75,4.12,4.12,0,0,0,.76-.84,1.39,1.39,0,0,0,.27-.6C297.78,163.12,297.73,163,297.64,163Z"/><path class="cls-2" d="M302.81,142.74a1.14,1.14,0,0,0-.91-.55,1.09,1.09,0,0,0-.89.55,2.13,2.13,0,0,0-.39,1.27,2,2,0,0,0,.39,1.24,1.09,1.09,0,0,0,.89.51,1.13,1.13,0,0,0,.93-.53,2.18,2.18,0,0,0,0-2.49Zm1.87,21.68c-.2,0-.43-.08-.68-.15a1.62,1.62,0,0,1-.7-.36,1.4,1.4,0,0,1-.31-1V149.25a2.83,2.83,0,0,0,0-.5.2.2,0,0,0-.22-.15c-.14,0-.38.16-.71.47a8.24,8.24,0,0,1-1.52,1.06,2.62,2.62,0,0,1-.89.54.53.53,0,0,0-.42.51c0,.17.06.28.18.31a1.56,1.56,0,0,0,.48.06c.75,0,1.13.44,1.13,1.34v10a1.29,1.29,0,0,1-.35,1,1.78,1.78,0,0,1-.75.38c-.27.06-.51.11-.74.14s-.35.16-.35.35.05.28.17.31a1.32,1.32,0,0,0,.45.06,9.52,9.52,0,0,0,1-.08,12.75,12.75,0,0,1,1.46-.07,15,15,0,0,1,1.67.07c.43.05.71.08.86.08a2,2,0,0,0,.42,0c.08,0,.13-.13.13-.33A.33.33,0,0,0,304.68,164.42Z"/><path class="cls-2" d="M320.91,164.42c-.2,0-.42-.08-.66-.14a1.38,1.38,0,0,1-.65-.37,1.36,1.36,0,0,1-.29-1V154a6.14,6.14,0,0,0-1.24-4,4,4,0,0,0-3.27-1.5,3.9,3.9,0,0,0-1.61.33,5.43,5.43,0,0,0-1.47,1,5.16,5.16,0,0,0-1,1.15c-.21.35-.36.52-.46.52s-.14-.13-.14-.4v-1.71c0-.27,0-.48,0-.64s-.08-.24-.19-.24-.33.19-.62.57a6.74,6.74,0,0,1-1.38,1.22,3.33,3.33,0,0,1-.78.42q-.39.12-.39.45a.24.24,0,0,0,.22.26l.49.07a1.07,1.07,0,0,1,.51.2c.16.11.24.34.24.7v10.54a1.39,1.39,0,0,1-.29,1,1.7,1.7,0,0,1-.66.38,5.54,5.54,0,0,1-.65.16.33.33,0,0,0-.3.35c0,.17.05.28.13.31a1.1,1.1,0,0,0,.42.06,8.61,8.61,0,0,0,1.09-.08,10,10,0,0,1,1.26-.07,12.42,12.42,0,0,1,1.51.07,7.89,7.89,0,0,0,.84.08,1.1,1.1,0,0,0,.42-.06c.08,0,.12-.14.12-.31a.32.32,0,0,0-.29-.35c-.19,0-.41-.08-.65-.14a1.2,1.2,0,0,1-.95-1.4v-6.65a10,10,0,0,1,.88-4.74,3,3,0,0,1,2.85-1.57,2.7,2.7,0,0,1,2.64,1.41,9.57,9.57,0,0,1,.73,4.25v7.3a1.34,1.34,0,0,1-.29,1,1.59,1.59,0,0,1-.65.38,5.21,5.21,0,0,1-.66.16.33.33,0,0,0-.3.35c0,.2.06.31.15.33a2.51,2.51,0,0,0,.48,0,7.55,7.55,0,0,0,1-.08,10.15,10.15,0,0,1,1.31-.07,12.31,12.31,0,0,1,1.51.07,7.89,7.89,0,0,0,.84.08,1.06,1.06,0,0,0,.42-.06c.09,0,.13-.14.13-.31A.33.33,0,0,0,320.91,164.42Z"/><path class="cls-2" d="M335.73,151.26a.64.64,0,0,0,.43-.11.52.52,0,0,0,.11-.4,1.43,1.43,0,0,0-.14-.78.63.63,0,0,0-.55-.2,1.19,1.19,0,0,0-.29,0h-.18l-.88.07-.16,0a1.35,1.35,0,0,1-.31,0,2.52,2.52,0,0,1-1-.23c-.34-.14-.7-.31-1.09-.49s-.82-.35-1.28-.51a4.73,4.73,0,0,0-1.56-.24,5.24,5.24,0,0,0-2.17.46,5,5,0,0,0-1.71,1.24,5.76,5.76,0,0,0-1.11,1.84,6.37,6.37,0,0,0-.4,2.29,5.38,5.38,0,0,0,.49,2.42,7.13,7.13,0,0,0,1.09,1.66,5.81,5.81,0,0,0,1.11,1c.34.22.51.37.51.44s-.11.19-.32.29l-2.19,1.13c-.53.27-.8.47-.8.62a1.14,1.14,0,0,0,.11.31,1.83,1.83,0,0,0,.4.53l1.35,1.56c.22.27.32.42.32.48s-.17.38-.52.62a4.07,4.07,0,0,0-.44.32c-.23.17-.46.37-.71.59a8.66,8.66,0,0,0-1.15,1.25,2.8,2.8,0,0,0-.53,1.7,3.36,3.36,0,0,0,1.57,2.87,8,8,0,0,0,4.57,1.1,9.54,9.54,0,0,0,3.12-.5,8,8,0,0,0,2.48-1.33,6,6,0,0,0,1.27-1.35,5.5,5.5,0,0,0,.36-.57,4.89,4.89,0,0,0,.58-2.34q0-4.37-6.15-4.37c-.42,0-.8,0-1.17,0s-.72,0-1.06,0a2.27,2.27,0,0,1-1.54-.44c-.33-.29-.49-.53-.49-.73s.24-.56.74-.87a6.45,6.45,0,0,1,2.68-.66,5.89,5.89,0,0,0,3.95-1.75,5.58,5.58,0,0,0,1.44-4,6.79,6.79,0,0,0-.18-1.59,7.73,7.73,0,0,0-.58-1.54l1.74.07Zm-9.91,14.2a3.26,3.26,0,0,1,1.31-.47,13.08,13.08,0,0,1,2.4-.19,5.51,5.51,0,0,1,3.41.9,3,3,0,0,1,1.15,2.57,4.14,4.14,0,0,1-.09.87,3.53,3.53,0,0,1-1.35,2.07,6.21,6.21,0,0,1-3.95,1.13,4.49,4.49,0,0,1-3.28-1.13,3.67,3.67,0,0,1-1.16-2.73,3.52,3.52,0,0,1,.47-1.69,4.94,4.94,0,0,1,.72-1A3.8,3.8,0,0,1,325.82,165.46Zm5.57-7.53a2.77,2.77,0,0,1-2.4,1.38,2.83,2.83,0,0,1-2.42-1.36,7.87,7.87,0,0,1,0-7.46,2.82,2.82,0,0,1,2.4-1.38,2.77,2.77,0,0,1,2.4,1.38,6.7,6.7,0,0,1,.92,3.76A6.55,6.55,0,0,1,331.39,157.93Z"/></svg>