<svg id="Layer_1" data-name="Layer 1" xmlns="http://www.w3.org/2000/svg" viewBox="0 0 540 220"><defs><style>.cls-1{fill:#5d38b3;}.cls-2{fill:#fff;}</style></defs><rect id="SVGID" class="cls-1" x="-15.4" y="-6.28" width="570.81" height="232.55"/><g id="Layer_2" data-name="Layer 2"><g id="Layer_1-2" data-name="Layer 1-2"><rect class="cls-2" x="171.06" y="105.87" width="15.34" height="15.35"/><rect class="cls-2" x="155.7" y="113.1" width="15.34" height="8.12"/><polygon class="cls-2" points="186.4 90.53 186.4 98.64 171.06 98.64 171.06 105.87 155.7 105.87 155.7 90.53 186.4 90.53"/><path class="cls-2" d="M198.67,111.88c0,3.8,3.14,6.53,7.44,6.53,3.38,0,5.86-1.9,5.86-4.71,0-1.82-1.57-3.51-3.88-4l-5-1.16c-4.13-.95-6.94-3.54-6.94-7,0-4.46,3.72-7.6,9.09-7.6,5,0,9.08,3,9.58,7.11l-3.72,1c-.16-3-2.72-5-6-5-3.14,0-5.37,1.66-5.37,4.13,0,2.15,1.73,3.55,4.37,4.13l5.2,1.16c3.8.83,6.36,3.55,6.36,7,0,4.87-3.88,8.26-9.58,8.26-6.2,0-10.9-3.72-11.25-9Z"/><path class="cls-2" d="M217.67,110.89c0-6.28,4.29-10.83,10.32-10.83s10.33,4.55,10.33,10.83S234,121.71,228,121.71,217.67,117.17,217.67,110.89Zm17.22,0c0-4.34-2.93-7.64-6.9-7.64s-6.89,3.3-6.89,7.64,2.93,7.56,6.89,7.56,6.91-3.27,6.91-7.56Z"/><path class="cls-2" d="M263.67,121.21a7.32,7.32,0,0,1-3,.5,5.15,5.15,0,0,1-5.38-5.45V103.83h-8.91v17.38h-3.3V103.86h-3.39v-3.29h3.39V99.25c0-3.72,2.31-6.45,5.53-6.45a6.07,6.07,0,0,1,3.55,1l-.83,3.3a3,3,0,0,0-2.31-.9c-1.65,0-2.64,1.25-2.64,3.07v1.43h6.86c1.4,0,2.22-1,2.22-2.69V95.2h3.15v5.38h4.62v3.2h-4.62v12a2.49,2.49,0,0,0,2.8,2.56,7.8,7.8,0,0,0,2.15-.24Z"/><path class="cls-2" d="M264.74,110.89c0-6.28,4.3-10.82,10.33-10.82s10.32,4.54,10.32,10.82-4.29,10.82-10.32,10.82S264.74,117.17,264.74,110.89Zm17.23,0c0-4.34-2.94-7.64-6.9-7.64s-6.9,3.3-6.9,7.64,2.94,7.56,6.9,7.56,6.9-3.27,6.9-7.56Z"/><path class="cls-2" d="M308.77,110.72c0,6.28-4.22,10.82-9.83,10.82a8.45,8.45,0,0,1-7.19-4v11.93h-3.3v-28.9h2.81l.28,3.66a8.47,8.47,0,0,1,7.32-4.17C304.55,100.06,308.77,104.61,308.77,110.72Zm-3.43.09c0-4.38-2.76-7.56-6.73-7.56s-6.94,3.18-6.94,7.56,2.9,7.51,6.85,7.51,6.82-3.14,6.82-7.51Z"/><path class="cls-2" d="M309.84,100.69h1.33c1.4,0,2.23-1,2.23-2.69V95.19h3.14v5.38h4.62v3.21h-4.63v12a2.5,2.5,0,0,0,2.81,2.56,7.73,7.73,0,0,0,2.14-.24l.09,3.14a7.54,7.54,0,0,1-3,.49,5.15,5.15,0,0,1-5.38-5.45V103.83h-3.38Z"/><path class="cls-2" d="M332.72,121.71c-5.78,0-10.08-4.54-10.08-10.82s4.22-10.83,9.91-10.83,9.54,4.46,9.54,10.65c0,.46,0,1,0,1.45H326.28c.24,3.71,2.8,6.36,6.27,6.36,3,0,5.29-1.78,5.63-4.42l3.54,1.33C340.89,119.07,337,121.71,332.72,121.71Zm6-12.71a6.09,6.09,0,0,0-6.2-5.83,6.22,6.22,0,0,0-6.28,5.83Z"/><path class="cls-2" d="M354.23,121.71c-6,0-10.24-4.54-10.24-10.82s4.33-10.83,10.16-10.83a9,9,0,0,1,9.09,7.27l-3.56,1.24a5.7,5.7,0,0,0-5.62-5.33c-3.8,0-6.6,3.22-6.6,7.6s2.81,7.6,6.77,7.6a5.88,5.88,0,0,0,5.78-5.5l3.64,1.16A9.43,9.43,0,0,1,354.23,121.71Z"/><path class="cls-2" d="M384.3,108.66v12.55H381V108.83c0-3.14-2.06-5.46-5-5.46-3.79,0-6.35,2.81-6.44,6.6v11.25h-3.3V93.13h3.3v10.53c1.12-2.23,3.76-3.59,6.77-3.59C380.91,100.06,384.3,103.7,384.3,108.66Z"/></g></g></svg>