<svg id="Layer_1" data-name="Layer 1" xmlns="http://www.w3.org/2000/svg" viewBox="0 0 540 220"><defs><style>.cls-1,.cls-5{fill:#fff;}.cls-2{fill:none;stroke:#072e4b;stroke-miterlimit:10;stroke-width:0.48px;}.cls-3{fill:#072e4b;}.cls-4{fill:#0c3b54;}.cls-5,.cls-6{fill-rule:evenodd;}.cls-6{fill:#aabecf;}.cls-7{fill:#ce763a;}</style></defs><rect id="SVGID" class="cls-1" x="-15.4" y="-6.28" width="570.81" height="232.55"/><circle class="cls-2" cx="270" cy="110" r="52.7" transform="translate(125.16 363.02) rotate(-82.38)"/><circle class="cls-2" cx="270" cy="110.09" r="50.09" transform="translate(114.8 356.94) rotate(-80.02)"/><path class="cls-3" d="M256.06,153.1a1,1,0,1,1,.69,1.19A.86.86,0,0,1,256.06,153.1Z"/><path class="cls-3" d="M261.15,155.19l.49-3.82,1.21.16-.49,3.81q-.18,1.5,1.41,1.71c1.07.13,1.67-.3,1.79-1.3l.49-3.82,1.21.15-.49,3.82c-.21,1.68-1.25,2.39-3.12,2.16S260.94,156.86,261.15,155.19Z"/><path class="cls-3" d="M269.57,152.07l0,5.32h2.61v1l-3.84,0,0-6.34Z"/><path class="cls-3" d="M278.32,157.5a5.58,5.58,0,0,1-1.89.53q-3.53.41-3.9-2.87-.36-3.1,3.17-3.51a5.49,5.49,0,0,1,2,.08l.12,1.06a4.67,4.67,0,0,0-1.87-.14c-1.57.18-2.28,1-2.12,2.36a2.06,2.06,0,0,0,2.62,2,4.83,4.83,0,0,0,1.79-.57Z"/><path class="cls-3" d="M281,153.87a.87.87,0,0,1,.71-1.18.88.88,0,0,1,1.21.67,1,1,0,0,1-1.92.51Z"/><path class="cls-2" d="M308.07,110.28a38.17,38.17,0,1,1-38.24-38.09A38.16,38.16,0,0,1,308.07,110.28Z"/><path class="cls-4" d="M306.64,110.3a36.8,36.8,0,1,1-36.88-36.73A36.8,36.8,0,0,1,306.64,110.3Z"/><path class="cls-3" d="M226.16,114.52l-3.84.1,0-1.22,3.84-.1q1.51,0,1.47-1.65c0-1.08-.55-1.6-1.56-1.57l-3.84.1,0-1.22,3.84-.1q2.53-.08,2.61,2.76C228.67,113.51,227.85,114.48,226.16,114.52Z"/><path class="cls-3" d="M228.56,107.58l-6.27-.89.17-1.21,5.06-2.79L223,102l.16-1.16,6.27.88-.17,1.21-5.15,2.79,4.67.66Z"/><path class="cls-3" d="M224,97.76l6.12,1.61-.31,1.18L223.64,99Z"/><path class="cls-3" d="M226.7,90l4.87,5-.48,1.23-6.9.29.52-1.35L230,95l-3.79-3.64Z"/><path class="cls-3" d="M229.66,84.77l.88.5-1.64,2.86,1.39.79,1.56-2.73.91.52-1.57,2.74,1.45.83,1.67-2.94.89.51-2.27,4-5.5-3.14Z"/><path class="cls-3" d="M235.74,87l-5-3.88,1.84-2.36c.82-1.07,1.68-1.25,2.58-.56a2.25,2.25,0,0,1,.54,2.41l3.44,0-.94,1.21-3.41-.11-.43-.32c.57-1,.58-1.77,0-2.19-.37-.28-.72-.21-1.05.22l-1,1.32L236.51,86Z"/><path class="cls-3" d="M239.2,82.27l-.73-.76a7,7,0,0,0,1.85-1.3c.73-.71.87-1.29.42-1.76s-.72-.29-1.17.14l-.74.72c-1,.93-1.86,1-2.68.13s-.67-2.07.71-3.41a7,7,0,0,1,1.73-1.23l.74.77a5.86,5.86,0,0,0-1.76,1.2c-.79.76-1,1.37-.55,1.82s.69.32,1.07,0l.75-.72c1-1,1.95-1.07,2.77-.22s.73,2.07-.58,3.34A7.44,7.44,0,0,1,239.2,82.27Z"/><path class="cls-3" d="M240.79,72.73l3.92,5-1,.75-3.92-5Z"/><path class="cls-3" d="M247.31,68.53l2.45,4.72L252.08,72l.47.91-3.41,1.77-2.91-5.63Z"/><path class="cls-3" d="M254.09,72.27l-1.18.41.57-6.9,1.24-.43,4.77,5.05-1.24.43L257,69.44l-2.06.72.06-1.1,1.25-.44-1.76-1.9Z"/><path class="cls-3" d="M260.11,70.29l-1-6.25,1.21-.2,4.17,4-.74-4.56,1.16-.18,1,6.25-1.2.2-4.19-4.1.75,4.65Z"/><path class="cls-3" d="M272.38,69a5,5,0,0,1-2,.34q-3.5,0-3.48-3.31,0-3.12,3.55-3.12a5.78,5.78,0,0,1,1.93.32v1.06a4.68,4.68,0,0,0-1.84-.36c-1.58,0-2.38.7-2.38,2.1a2,2,0,0,0,2.24,2.29,3.16,3.16,0,0,0,.75-.11V66.37h1.22Z"/><path class="cls-3" d="M273.77,66.91l.62-3.79,1.2.19-.61,3.8c-.16,1,.29,1.58,1.35,1.75s1.67-.24,1.83-1.24l.62-3.79L280,64l-.61,3.8c-.27,1.66-1.34,2.35-3.2,2.05S273.5,68.58,273.77,66.91Z"/><path class="cls-3" d="M280.79,70.78l-1.19-.41,4.68-5.1,1.25.42.67,6.92L285,72.19l-.15-1.88-2.08-.7.73-.83,1.26.42-.22-2.58Z"/><path class="cls-3" d="M291.55,75.13a5.22,5.22,0,0,1-1.93-.63c-2.05-1.09-2.57-2.6-1.54-4.55s2.51-2.21,4.6-1.1A5.49,5.49,0,0,1,294.24,70l-.49.94a4.76,4.76,0,0,0-1.47-1.17c-1.4-.74-2.42-.49-3.08.75a2,2,0,0,0,.92,3.07,3.24,3.24,0,0,0,.71.25l.87-1.63,1.08.57Z"/><path class="cls-3" d="M299.61,73.48l-.59.82-2.67-1.94-.94,1.29L298,75.5l-.61.84-2.56-1.85-1,1.34,2.73,2-.6.82L292.24,76,296,70.83Z"/><path class="cls-3" d="M303.25,85.92a5.62,5.62,0,0,1-1.48-1.28c-1.53-1.8-1.45-3.42.22-4.84s3.15-1.11,4.68.69a5.53,5.53,0,0,1,1,1.68l-.81.69a4.55,4.55,0,0,0-.92-1.64q-1.53-1.81-3.14-.45a2.05,2.05,0,0,0-.21,3.28,4.7,4.7,0,0,0,1.47,1.18Z"/><path class="cls-3" d="M311.39,87.43l-.87.52-1.72-2.8-1.36.83,1.64,2.68-.89.55-1.65-2.69-1.42.87,1.77,2.88-.87.53-2.39-3.9L309,83.58Z"/><path class="cls-3" d="M306.55,91.64l5.8-2.54.49,1.12-2.83,5,4.23-1.85.47,1.07L308.9,97l-.49-1.11,2.93-5.08L307,92.72Z"/><path class="cls-3" d="M316.49,100.69l-1,.27-.5-1.82-5.13,1.41-.32-1.18L314.68,98l-.5-1.82,1-.27Z"/><path class="cls-3" d="M317.39,106.49l-1,.15-.47-3.27-1.58.23.45,3.11-1,.15-.45-3.13-1.64.24.48,3.34-1,.15-.65-4.53,6.27-.9Z"/><path class="cls-3" d="M311.21,108.44l6.32,0v3c0,1.34-.55,2-1.68,2-.77,0-1.4-.52-1.91-1.56l-2.73,2.1v-1.54l2.76-2h.53c.2,1.17.64,1.75,1.32,1.75.46,0,.69-.28.69-.83v-1.67l-5.3,0Z"/><path class="cls-5" d="M269.43,132.62a17.67,17.67,0,0,0-2.47-1,16.45,16.45,0,0,0-3.35-.44,35,35,0,0,0-8.87,1.15c-1.49.35-3,.61-4.51.91a3.2,3.2,0,0,1-.45,0c.36-.58.66-1.09,1-1.59,1.48-2.31,3-4.62,4.47-6.9a1.5,1.5,0,0,1,.88-.63c2.32-.46,4.65-.93,7-1.25a9.92,9.92,0,0,1,4.95.27,1.92,1.92,0,0,1,1.43,1.95q0,3.44,0,6.87C269.48,132.19,269.45,132.41,269.43,132.62Z"/><path class="cls-5" d="M270.64,132.71c0-.32-.05-.56-.05-.8,0-2.12,0-4.25,0-6.36,0-1.62.36-2.19,2.1-2.61a12.86,12.86,0,0,1,5.17,0q3,.49,6,1.13a1.6,1.6,0,0,1,1,.6c1.77,2.7,3.5,5.43,5.24,8.16.06.09.1.2.26.51l-3.78-.76c-1.75-.36-3.49-.85-5.26-1a59.42,59.42,0,0,0-6.27-.3,7.49,7.49,0,0,0-4,1.23C270.91,132.57,270.82,132.61,270.64,132.71Z"/><path class="cls-6" d="M268,137.07c-1.11-1.59-2.74-1.89-4.47-2a32.12,32.12,0,0,0-6.56.69c-2.67.47-5.35.85-8,1.25a1.76,1.76,0,0,1-.84-.09c.59-.09,1.17-.18,1.76-.29,1.67-.31,3.35-.62,5-1,2.75-.59,5.46-1.45,8.32-1.4,1.18,0,2.36.17,3.7.27a17.23,17.23,0,0,0-2.14-.57,20.55,20.55,0,0,0-6.26.27c-2.14.38-4.28.81-6.42,1.19a9.45,9.45,0,0,1-2.26.14l3.65-.8c1.71-.38,3.41-.77,5.12-1.14a21.35,21.35,0,0,1,6.12-.47c.84.07,1.66.31,2.52.33a12.55,12.55,0,0,0-2.76-.65,46.34,46.34,0,0,0-6,.28c-2.14.26-4.24.77-6.36,1.15a10.6,10.6,0,0,1-1.95.13c2.26-.51,4.52-1.06,6.79-1.54a29.38,29.38,0,0,1,7-.84,8.08,8.08,0,0,1,4.92,1.54c.45.36.95.66,1.43,1l-.34.24a17.64,17.64,0,0,1,1.78-1.58,7.78,7.78,0,0,1,4.21-1.17,24.73,24.73,0,0,1,6.23.67l7.68,1.66,0,.16c-.95-.15-1.92-.29-2.87-.47-3.63-.68-7.24-1.54-11-1.24a24.88,24.88,0,0,0-3.16.63c0,.08,0,.16.05.24l.48-.13a14.46,14.46,0,0,1,7-.07c2.19.44,4.38.92,6.57,1.38a26.25,26.25,0,0,1,3.22.83c-.65-.07-1.32-.1-2-.22-1.78-.33-3.56-.72-5.34-1a24.88,24.88,0,0,0-7.79-.45,6.22,6.22,0,0,0-1.81.64,9.78,9.78,0,0,1,4.26-.33c2.07.27,4.12.66,6.18,1s4.3.87,6.45,1.3c.58.12,1.17.19,1.75.29,0,0,0,.1,0,.15-1-.08-2-.1-3-.26-2.15-.34-4.3-.72-6.43-1.15a24.41,24.41,0,0,0-6.76-.54,4.24,4.24,0,0,0-2.9,1.13,1.24,1.24,0,0,1-1.67.41A3.39,3.39,0,0,0,268,137.07Z"/><path class="cls-1" d="M262.69,143.72v-3.87h-.5v-.35l1.38-.44v4.66Z"/><path class="cls-1" d="M268.15,140.9c0,1.18-.76,2.17-2.29,2.95l-.41-.66a3.55,3.55,0,0,0,1.6-1.28,2.1,2.1,0,0,1-.81.17q-1.74,0-1.74-1.44c0-1,.62-1.53,1.87-1.53A1.58,1.58,0,0,1,268.15,140.9Zm-1.81-1.12c-.65,0-1,.29-1,.86s.3.77.91.77a3.12,3.12,0,0,0,1-.15.83.83,0,0,0,.06-.34Q267.3,139.78,266.34,139.78Z"/><path class="cls-1" d="M272.36,140.9c0,1.18-.76,2.17-2.28,2.95l-.42-.66a3.58,3.58,0,0,0,1.61-1.28,2.15,2.15,0,0,1-.82.17q-1.74,0-1.74-1.44c0-1,.62-1.53,1.87-1.53A1.58,1.58,0,0,1,272.36,140.9Zm-1.81-1.12c-.65,0-1,.29-1,.86s.3.77.9.77a3.19,3.19,0,0,0,1-.15.83.83,0,0,0,.06-.34C271.52,140.16,271.19,139.78,270.55,139.78Z"/><path class="cls-1" d="M273.17,139.15H276v.67h-2.08l-.08,1.13a1.6,1.6,0,0,1,.55-.07c1.2,0,1.8.47,1.8,1.4s-.62,1.47-1.86,1.47a4.65,4.65,0,0,1-1.33-.19v-.7a4.17,4.17,0,0,0,1.36.22c.63,0,.95-.27.95-.8s-.31-.73-.92-.73a5.58,5.58,0,0,0-1.39.16Z"/><path class="cls-6" d="M265.77,86.59v-.22c0-.17,0-.38.23-.38a.91.91,0,0,1,.42.18.52.52,0,0,1,.13.2c.33.14.64-.23,1,.1l-.8.33c.52.26,1.16.08,1.65.45a.06.06,0,0,0,.07,0l.72-.24c.22-.07.53.18.65-.21,0,0,.21-.06.32,0,.36,0,.72.07,1.08.07a12.67,12.67,0,0,0,1.84-.09c-1.59-.75-3.36-.63-5-1a20.29,20.29,0,0,1,21.12,12.1,5.49,5.49,0,0,1-.84-.07.94.94,0,0,0-.77.21c-.46.3-1,.5-1.45.75-.19.09-.36.2-.58.32a.81.81,0,0,0-.38-.12,2.23,2.23,0,0,0-.75.26.73.73,0,0,0-.28.36c.27.35-.1.57-.15.86.24.39.69.08,1,.3V102h.7a1.29,1.29,0,0,1,.94-.82c0-.33-.36-.62-.05-.9a1.58,1.58,0,0,1,.62-.44.75.75,0,0,0,.54-.26c.27-.33.33-.31.77.13-.18.16-.33.39-.53.45-.56.17-.6.56-.53,1,0,.09,0,.19.05.3.43,0,.87,0,1,.63l-1.11-.3-.34.67-.32-.22L286,103c-.27-.08-.48-.13-.67-.2a9.69,9.69,0,0,1-1.05-.44.34.34,0,0,1-.08-.51c.11-.18.23-.36.38-.58h-.48c-.05.23-.09.47-.15.7s-.23.43-.53.31-.55.1-.79.12c-.5,0-1,.48-1.49.2l-.06,0c-.16.48-.5,0-.73.11.09.35.19.69.26,1a1,1,0,0,1,0,.49c-.1.34-.29.4-.61.23s-.55-.32-.83-.44a2.1,2.1,0,0,0-.47-.1c-.3.64-.58,1.22-.87,1.85.34.16.47.49.86.6a1.3,1.3,0,0,0,1.32-.34,3.28,3.28,0,0,1,.56-.42c.24-.15.5-.27.76-.4l1.22.19a.73.73,0,0,1,.13.34,1.52,1.52,0,0,0,.27,1,.87.87,0,0,1,0,1.08,1.2,1.2,0,0,0,.48-.52.69.69,0,0,0,0-.68,4.54,4.54,0,0,1-.26-1c0-.13.14-.27.27-.5a8.42,8.42,0,0,1,.7,1.72,8.3,8.3,0,0,1-.11,1.82l.54-.18c0-.21,0-.42,0-.65.25,0,.49-.3.74.08-.08.21-.17.46-.25.7a.67.67,0,0,0,.29.82c.26.16.54.28.84.43a1.67,1.67,0,0,1-.74,1.16.65.65,0,0,1-.48,0,2.48,2.48,0,0,1-1.37-.89c-.47-.53-.46-.54-1,.07a1.54,1.54,0,0,1-.45-.3c-.3-.42-.57-.88-.85-1.33l.53-1L280,107a.83.83,0,0,0-.35,0,1.44,1.44,0,0,1-1.36-.35,4.1,4.1,0,0,1-.87.39.74.74,0,0,0-.65.5,1.13,1.13,0,0,1-.9.76,4.12,4.12,0,0,0-1.78,1.23.94.94,0,0,0-.2.44,2.64,2.64,0,0,1-.68,1.35,1,1,0,0,0-.22,1c.07.35.08.72.18,1.07a7.79,7.79,0,0,0,.42,1.14.42.42,0,0,0,.26.23,15.83,15.83,0,0,0,2,.4c.16,0,.39,0,.46.13.2.29.26.69.67.82a.74.74,0,0,1-.07.45,8.66,8.66,0,0,1-.57.69,1.59,1.59,0,0,1-.15,1.77,2.15,2.15,0,0,1-.52.48c-.31.22-.57.43-.53.88a.89.89,0,0,1-.15.54,1.27,1.27,0,0,0-.24.73c0,.13-.12.25-.19.39a3.71,3.71,0,0,0,2.66-.14c.45-.18,1-.21,1.31-.68.1-.15.45-.15.69-.16a1.33,1.33,0,0,0,1.2-.81,2.07,2.07,0,0,1,1.28-1.19c.44-.13.85-.35,1.28-.52a5.55,5.55,0,0,0,1.93-1.46c-.35-.23-.82.07-1.05-.25-.11-1.71.52-3.23.81-5,.17.23.29.32.29.4-.05.52-.11,1-.19,1.58a5.73,5.73,0,0,0-.14.56,3.2,3.2,0,0,1-.34,1.46,1.45,1.45,0,0,0-.08.45,1.89,1.89,0,0,0,.38,0,5.27,5.27,0,0,0,2.56-.88,1,1,0,0,0,.46-1.37c-.22,0-.48.27-.71-.06,0-.38,0-.78.07-1.18,0-.19,0-.44.28-.43s.24.23.21.44a3.1,3.1,0,0,0,0,.43.94.94,0,0,0,.06.29c.1.23.55.07.53.54,0,.29.44.3.72.37a1.55,1.55,0,0,1,.25.16,11,11,0,0,1-.46,1.12,20.87,20.87,0,0,1-7.19,7.71,20.68,20.68,0,0,1-20.71.75,20.57,20.57,0,0,1-10.73-15.6,19.89,19.89,0,0,1,1.22-10A20.42,20.42,0,0,1,254.39,93a.75.75,0,0,1,.32-.24,2.34,2.34,0,0,1-.13.4c-.15.31-.3.61-.46.91a3.85,3.85,0,0,0-.22,2,.54.54,0,0,0,0,.29,3.19,3.19,0,0,1,.35,1.61s.07,0,.11.07a4.43,4.43,0,0,0,.06,2c0-.59,0-1.18,0-1.76,0-.06-.08-.12-.12-.17l.14-.51c.11.13.19.17.2.23.16.9.31,1.8.47,2.7a1.64,1.64,0,0,1,0,.93,1.1,1.1,0,0,0,.27,1.08c.34.45.63,1,1.27,1.14.13,0,.25.22.31.36a1.83,1.83,0,0,0,.7,1,.39.39,0,0,1,.16.3,4.44,4.44,0,0,0,.82,2.06c.23-.13.31-.29.1-.44a.93.93,0,0,1-.23-1.29,1.76,1.76,0,0,0,.18-.4.53.53,0,0,0-.32-.66c-.2-.09-.4-.15-.68-.26.33-.5.63-1,.93-1.44-.55-.34-.76.06-1,.33-.33,0-.64,0-.86-.31a1.29,1.29,0,0,1-.2-1,9.77,9.77,0,0,1,.55-1.63,1.13,1.13,0,0,1,1.35-.17c.16.16.4.34.51.2.22-.3.4-.11.55,0a8.94,8.94,0,0,1,.76.62c0,.48-.33,1,.05,1.45a1.79,1.79,0,0,0,.3-1,1.05,1.05,0,0,1,.9-1.2,1.31,1.31,0,0,0,.41-.12c.3-.21.59-.43.56-.87,0-.28.12-.48.45-.68-.07.25-.11.39-.18.62a5,5,0,0,1,.91-.74,2.92,2.92,0,0,1,.9-.07.37.37,0,0,1,.32-.48c.44-.07.89-.12,1.34-.17,0,.09.3.22,0,.29-.11,0-.21.06-.49.14.25.09.35.16.44.14s.45-.11.7-.18c-.16-.4-.31-.81-.49-1.26l.5-.06c0-.1,0-.21-.07-.22a1.38,1.38,0,0,0-.48-.08c-.28,0-.55.13-.87.21a1.47,1.47,0,0,1,1.75-.43c.67.43,1.3.14,1.95.1a.33.33,0,0,0,.21-.25.46.46,0,0,0-.2-.34c-.18-.06-.4,0-.63-.12l.66-.17a1.79,1.79,0,0,1-.37-.35.65.65,0,0,1-.15-.7,3.58,3.58,0,0,0-.05-1.33l-.85.4c-.23-.34-.54-.62-.22-1-.18-.71-.75-.86-1.34-1l-.73.91c0,1,0,1-.95,1.32-.13.36-.18.8-.67.93-.55-.38-.22-.8,0-1.19l-.79-.76a5.21,5.21,0,0,1-.66-.75,5.33,5.33,0,0,1-.37-.84,2,2,0,0,1,.91-.61c.34-.11.65-.3,1-.4a2.15,2.15,0,0,1,.63,0l-.19-.32h1.83a2.22,2.22,0,0,0,.26-1l.29,0c.56,0,1,.07,1.3.77s.33.51-.12.84a2.77,2.77,0,0,0-.43.52c-.83-.19-.83-.19-1,.12l.86.11.35.77.81.19c-.05-.19-.09-.31-.14-.47l.8.21c.09-.37-.48-.62,0-1l.57.65.79-.35a4.36,4.36,0,0,1-1.12-1.06l.32-.49L269,89c-.07-.06-.22-.14-.21-.17.12-.42-.25-.35-.43-.43a.8.8,0,0,0-.46,0c-.29.07-.38-.14-.52-.3s.1-.14.16-.21c.34.38.44.39.81.12-.26-.19-.55-.1-.83-.1a.35.35,0,0,0-.14-.13c-.42-.15-.67.12-.94.37,0,0-.11,0-.26,0l.38-.52c-.46-.28-.71.09-1,.23a1.78,1.78,0,0,0,1,.93c-.47-.09-.73.31-1.1.45-.16.07-.3.2-.47-.06.08-.14.18-.29.33-.53l-.47.18c-.17-.48-.17-.48,0-.7-.08-.18-.15-.35-.23-.52l1-.26c-.34-.2-.34-.2-.85-.18,0,.14-.07.3-.1.45l-.77.27.44.38-1.08.65V88.4a1.45,1.45,0,0,1-1.62-.54l-.81.28c0-.09-.05-.18,0-.21.24-.28.93-.49,1.11-.26.36.45.63.18.95,0-.38-.48-.35-.62.16-.83l.75-.28a.51.51,0,0,1,.53,0c.3.22.39.15.61-.18s.15-.24.57-.22c0,.1,0,.21,0,.35l.37,0c0,.17,0,.35.07.56a11.65,11.65,0,0,0,2.36.44,1.54,1.54,0,0,0-1.11-.42.83.83,0,0,1-.77-.34C266.2,86.58,266,86.6,265.77,86.59Zm-7,34.16a4,4,0,0,0,.43-.38c.33-.38.64-.72,1.24-.51.25.08.35-.08.32-.39,0-.08,0-.16,0-.21.26.07.58.25.69.16.32-.24.72-.31,1-.53a2.83,2.83,0,0,0,.47-.79c.39,0,.82,0,1.25,0,.09,0,.21,0,.27,0,.36-.33.85-.58,1-1.12a1.28,1.28,0,0,1,1-1c.56-.15.66-.48.67-1a11.26,11.26,0,0,0-.88-1c-.28-.27-.72-.37-.82-.85,0-.11-.2-.2-.32-.29l-.5-.41h-.81a1.14,1.14,0,0,1,.47-.25c.31-.08.46-.24.35-.58a2.09,2.09,0,0,1,0-.36,1.24,1.24,0,0,0-.83-1.16c-.16-.06-.39-.25-.4-.38,0-.44-.41-.65-.5-1a.61.61,0,0,0-.48-.47,1.33,1.33,0,0,1-1-1l-.56.66c-.28-.35.26-.57.17-.89l-.94.15-.41.51c-.08-.15-.13-.26-.19-.36l-.29-.45c.32,1.22.22,1.53-.56,2.27a2.67,2.67,0,0,0-.52.68c-.08.14,0,.39-.09.5a.8.8,0,0,0-.07.92,4.2,4.2,0,0,1,.33,1.41,2.47,2.47,0,0,0,.65,1.72.88.88,0,0,1,.18.94c-.2.62-.36,1.25-.56,1.88-.14.43-.29.86-.47,1.28a2.75,2.75,0,0,0-.21,1.12c0,.32,0,.64-.33.72,0,.19,0,.38,0,.56A1.55,1.55,0,0,0,258,122c.08.07.26,0,.43.06,0-.25-.07-.43-.11-.62l.54-.38Q258.82,120.9,258.76,120.75ZM280,93.16a2.78,2.78,0,0,1,.48-.74,1.61,1.61,0,0,0,.75-1l.43,0-.21-.43c.14-.33.54-.23.65-.51,0,0,.05-.09.07-.09l1.28.06c-.64-.67-1.51-.53-2.29-.83l.72-.28a8.75,8.75,0,0,0-5.4-1.71l.19.35c-.31.1-.41-.11-.51-.3s-.27-.32-.47-.19c-.35.23-.59,0-.86-.15a1.73,1.73,0,0,0-.36-.18,11.7,11.7,0,0,0-2.56-.18l.47.29a2.49,2.49,0,0,1-.54.07c-.41,0-.82-.11-1.23-.17-.06,0-.12,0-.2,0,.08.12.14.22.21.31l-.3.23a3.37,3.37,0,0,0,.56.21,3.88,3.88,0,0,1,1.56.47,1.52,1.52,0,0,1,.66.83c.09.36-.15.55-.31.79l.47.25c.15.1.29.22.43.32-.17.26-.31.15-.47.07-.42-.22-.43-.21-.81.19.14.23.34.32.52.11s.32-.07.39,0a.36.36,0,0,1-.08.35,1.21,1.21,0,0,1-.45.18l-.46.11a3.83,3.83,0,0,0-.1.59c0,.19.11.37.12.56s-.1.39-.05.56a2.61,2.61,0,0,0,1.3,1.47c.21-.76,1.22-.69,1.44-1.46.23,0,.46,0,.59.11a.73.73,0,0,0,.8,0,2.34,2.34,0,0,1,1.47-.19A2.64,2.64,0,0,0,280,93.16Zm1.23,8.67h-.75V102c.56,0,1.1.36,1.69,0l-.4-1.74c.26-.4.26-.4,0-1-.6.39-.69.71-.44,1.31a2.38,2.38,0,0,1,.09.6c-.41-.08-.55.14-.67.4Zm-.4-5.64c0-.31-.08-.53-.1-.72-.6-.2-1.23-.11-1.6-.64-.07,0-.17.06-.19.11a.93.93,0,0,0,.63,1.12C279.93,96.12,280.31,96.14,280.81,96.19Zm-12.67,1.22,1.43.89a.77.77,0,0,0-.35-.94c-.25-.17-.32-.38-.23-.77ZM279.2,122c.48.2.77-.17,1.12-.27a2,2,0,0,0,.95-.61A2.64,2.64,0,0,0,279.2,122Zm1.57-21.83c-.29.06-.57,0-.71.17a2.21,2.21,0,0,0-.36.72C280.38,101.18,280.64,101,280.77,100.17Zm-19.59,4.25c-.56-.69-.77-1.54-1.73-1.56.6.15.86.66,1.1,1.14C260.66,104.22,260.78,104.33,261.18,104.42Zm3.19-17.5a.69.69,0,0,0-.87.35c.19.5.51.15.72.18C264.28,87.26,264.32,87.11,264.37,86.92Zm-3.14,18.2.95.34a.64.64,0,0,1,.08-.14l-.69-.58Zm3.37-14.66a1.26,1.26,0,0,1,1,.23l-.53-.76Z"/><path class="cls-6" d="M286.67,106.59c.37.31.37.31.33.78a.52.52,0,0,0,.13.06,1.48,1.48,0,0,0,.21,0c0-.1,0-.19,0-.34l.82-.08-.47.51c.07.41.13.81.17,1.2,0,.06-.12.13-.23.24-.2-.13-.48-.22-.57-.4a.8.8,0,0,0-1-.44,3,3,0,0,1-.45,0C285.54,107.32,286.22,107,286.67,106.59Z"/><path class="cls-6" d="M289.92,100.08a2.66,2.66,0,0,1,.37,1.6c-.14-.22-.27-.33-.29-.45C290,100.86,290,100.49,289.92,100.08Z"/><path class="cls-7" d="M278,85.7a1.22,1.22,0,0,1,.39-.78,8.27,8.27,0,0,1,2-1.71,10.86,10.86,0,0,1,2.33-1.12c1.53-.51,3.63-.71,4.51,1s.34,3.14-.23,4.81c-1,3-3.11,5.49-5.09,7.94-2.09,2.61-4.26,5.14-6.59,7.54q-2,2.1-4.14,4.12c-1,.92-1.91,1.82-2.9,2.7a30.86,30.86,0,0,1-4.84,4.08,1.69,1.69,0,0,1-.85.23c-.22-.61,0-.77.44-1.23a26.73,26.73,0,0,1,2.63-2.35c2.37-2.12,4.55-4.42,6.76-6.69a58.16,58.16,0,0,0,9.28-11.48,29.05,29.05,0,0,0,2-4,8,8,0,0,0,.57-3.42c-.17-2.17-2.18-.09-2.94.42s-2.48,1.49-3.23.33A.7.7,0,0,1,278,85.7Z"/></svg>