<svg id="Layer_1" data-name="Layer 1" xmlns="http://www.w3.org/2000/svg" viewBox="0 0 540 220"><defs><style>.cls-1{fill:#2d808f;}.cls-2{fill:#fff;}</style></defs><rect id="SVGID" class="cls-1" x="-15.4" y="-6.28" width="570.81" height="232.55"/><path class="cls-2" d="M214.46,103v.57c-1.68,0-3,.05-5.35,5.67l-5.49,14.61h-.45c-7.83-17-8.41-18.06-8.41-18.06-1.1-2.22-2.34-2.17-3.1-2.22V103h9.21v.57c-3,0-1.37,3.06-1.37,3.06l5.49,12,3.41-9.16s2.34-5.89-2.48-5.89V103Z"/><path class="cls-2" d="M232.35,118.26c-.49,2.08-2.92,5.62-8.15,5.62-5.53,0-9.47-4.61-9.47-10.45,0-6.55,4.16-10.8,9.65-10.8,5.13,0,8.68,3.28,8.68,10.23H218.89c.18,6,2.83,8.36,6.33,8.72,2.66.26,5.8-1.38,6.6-3.55Zm-3.1-6c0-6.46-2.88-9.07-5-9.07-2.53,0-5.36,3.49-5.36,9.07Z"/><path class="cls-2" d="M256.12,123.48h-7.44V123c1.69-.49,1.77-1.33,1.77-3.59v-9.51c0-3-1.59-5-4.51-5-2.3,0-4.16,2.22-4.52,3.81v10.76c0,2.43.23,3.1,1.82,3.49v.58H235.8v-.58c1.68-.48,1.73-1.24,1.73-3.49V107.06c0-1.55-.36-2.13-2.22-2.62v-.53l6.11-1.28v4.65a7.7,7.7,0,0,1,6.78-4.65c3.58,0,6.11,1.73,6.11,7.08v9.65c0,2.44.26,3.19,1.81,3.59Z"/><path class="cls-2" d="M279.05,123l-5,.84c-1.07.22-1.07-.66-1.07-.66v-3.76a7.34,7.34,0,0,1-6.64,4.47c-3.18,0-6.33-1.15-6.33-6.69v-10c0-2.83,0-3-2.48-3.23v-.53l6.29-.84v14.43c0,3.36,2,4.65,4.56,4.65a5.11,5.11,0,0,0,4.6-3.41V107.14c0-2.7.09-3-2.08-3.14v-.53l5.94-.84v17.18c0,2.12.39,2.39,2.25,2.61Z"/><path class="cls-2" d="M289.72,123.88c-5.35,0-7.74-1.77-7.74-1.77v-6h.57c.31,2.92,1.42,7.21,7.17,7.21,4.7,0,4.12-4.69.76-6.9L286,113.7c-4.24-2.84-5.22-5.49-3.45-8.55,0,0,1.33-2.52,5.85-2.52,5.09,0,7.21,1.42,7.21,1.42v5.4h-.53c-.31-2.62-1.55-6.24-6.68-6.24-4.21,0-4.52,4.16-.67,6.59l4.47,2.79c4,2.48,5.27,6.06,3.14,9.12,0,0-1.5,2.17-5.62,2.17"/><path class="cls-2" d="M311.77,120.07a5.56,5.56,0,0,1-5.18,3.81c-3.23,0-5.18-1.42-5.18-6.78V103.6h-2.26l-.09-.57h2.35V96.74l3.85-.62V103h5.27l-.13.57h-5.14V117c0,3.54,1.29,4.74,3.37,4.74a3,3,0,0,0,2.7-1.86Z"/><path class="cls-2" d="M327.49,103.6a2.43,2.43,0,0,1-.31,3.46,2.47,2.47,0,0,1-3.46-.31,2,2,0,0,1-.49-1.69c.14-.75-2.83.31-4.2,3.28v11c0,2.48.22,3.15,1.82,3.54v.58h-7.49v-.58c1.69-.48,1.77-1.24,1.77-3.54V107.1c0-1.55-.39-2.17-2.21-2.66v-.53l6.11-1.28v4.65a8.31,8.31,0,0,1,5.93-4.52,3.09,3.09,0,0,1,2.53.84"/><path class="cls-2" d="M347.63,118.26c-.49,2.08-2.92,5.62-8.15,5.62-5.53,0-9.47-4.61-9.47-10.45,0-6.55,4.16-10.8,9.65-10.8,5.13,0,8.68,3.28,8.68,10.23H334.17c.18,6,2.83,8.36,6.33,8.72,2.66.26,5.8-1.38,6.6-3.55Zm-3.1-6c0-6.46-2.88-9.07-5-9.07-2.53,0-5.36,3.49-5.36,9.07Z"/></svg>