<?xml version="1.0" encoding="utf-8"?>
<!-- Generator: Adobe Illustrator 26.0.3, SVG Export Plug-In . SVG Version: 6.00 Build 0)  -->
<svg version="1.1" id="Layer_1" xmlns="http://www.w3.org/2000/svg" xmlns:xlink="http://www.w3.org/1999/xlink" x="0px" y="0px"
	 viewBox="0 0 144 144" style="enable-background:new 0 0 144 144;" xml:space="preserve">
<style type="text/css">
	.st0{fill:#37474F;}
	.st1{fill:#FF7043;}
	.st2{fill:#F16461;}
	.st3{fill:#FF5252;}
	.st4{fill:#FF855F;}
	.st5{fill:#FF8A65;}
	.st6{fill:#FF8A80;}
	.st7{fill:#FFCCBC;}
	.st8{fill:#FFAB91;}
	.st9{fill:#FFCDD2;}
	.st10{fill:#C6CF47;}
	.st11{fill:#E1EB8A;}
	.st12{fill:#DCE775;}
	.st13{fill:#FFF59D;}
	.st14{fill:#E6EE9C;}
	.st15{fill:#FFD740;}
	.st16{fill:#FFF9C4;}
	.st17{fill:#F0F4C3;}
	.st18{fill:#FFE082;}
	.st19{fill:#F44336;}
	.st20{fill:#AED581;}
	.st21{fill:#FFF176;}
	.st22{fill:#FFCA28;}
	.st23{fill:#FB8C00;}
	.st24{fill:#FFB74D;}
	.st25{fill:#FFA726;}
	.st26{fill:#64B5F6;}
	.st27{fill:#9575CD;}
	.st28{fill:#7986CB;}
	.st29{fill:#8C9EFF;}
	.st30{fill:#82B1FF;}
	.st31{fill:#F06292;}
	.st32{fill:#9CCC65;}
	.st33{fill:#EF5350;}
	.st34{fill:#68C1B8;}
	.st35{fill:#81C784;}
	.st36{fill:#4DB6AC;}
	.st37{fill:#4BA9F5;}
	.st38{fill:#26A69A;}
	.st39{fill:#90CAF9;}
	.st40{fill:#8DD0CA;}
	.st41{fill:#80CBC4;}
	.st42{fill:#9FA8DA;}
</style>
<path class="st0" d="M72,3.6C34.2,3.6,3.6,34.2,3.6,72s30.6,68.4,68.4,68.4s68.4-30.6,68.4-68.4S109.8,3.6,72,3.6z"/>
<path class="st1" d="M75.8,76.2L84.5,99c2,2.7,4.3,5,7.1,6.6c8.7,4.9,19.8,2.1,24.8-6.4l0,0C116.4,99.2,76.8,77,75.8,76.2z"/>
<path class="st2" d="M75.8,76.2c1.2,0.5,40.5,23,40.5,23l0,0c5-8.5,1.9-19.3-6.8-24.3c-2.8-1.6-6-2.4-9.3-2.7L75.8,76.2z"/>
<path class="st3" d="M106.2,81.2c-1-0.6-2.2-1.1-3.3-1.6c0.4,3.6-0.3,7.3-2.3,10.6c-2,3.4-4.9,5.8-8.2,7.3c1,0.8,2,1.5,3.1,2.1
	c10.9,6.2,18,4.7,21-0.3l0,0l0,0C119.3,94.1,117.1,87.4,106.2,81.2z"/>
<path class="st4" d="M85.2,90.5c2.1,2.6,4.5,5,7.1,7c3.3-1.5,6.3-3.9,8.2-7.3c2-3.4,2.6-7.1,2.3-10.6c-3.1-1.2-6.4-2-9.7-2.6
	c0.2,2.7-0.4,5.4-1.9,7.9C89.7,87.4,87.6,89.3,85.2,90.5z"/>
<path class="st5" d="M92.3,97.5c-2.6-2-5-4.4-7.1-7c-1.5,0.7-3.2,1.2-4.8,1.4c1.1,2.5,2.5,4.9,4.2,7.1
	C87.2,99.1,89.9,98.6,92.3,97.5z"/>
<path class="st6" d="M93.1,77c3.3,0.5,6.7,1.3,9.7,2.6c-0.3-2.6-1.2-5.1-2.6-7.4c-2.8-0.3-5.6-0.2-8.4,0C92.6,73.7,93,75.4,93.1,77z
	"/>
<path class="st7" d="M91.2,84.9c1.5-2.5,2.1-5.2,1.9-7.9c-8.9-1.4-17.3-0.8-17.3-0.8s3.7,7.4,9.4,14.3
	C87.6,89.3,89.7,87.4,91.2,84.9z"/>
<path class="st8" d="M85.2,90.5c-5.7-6.9-9.4-14.3-9.4-14.3c-0.2,0.4-0.3,0.8-0.2,1.2c0.6,2.7,2,8.6,4.7,14.5
	C82,91.7,83.7,91.2,85.2,90.5z"/>
<path class="st9" d="M91.9,72.2c-6.6,0.6-12.5,2.3-15.1,3.2c-0.4,0.1-0.8,0.4-1,0.8c0,0,8.4-0.6,17.3,0.8
	C93,75.4,92.6,73.7,91.9,72.2z"/>
<g>
	<path class="st10" d="M68.1,76.2c-1,0.8-40.5,23-40.5,23l0,0c5,8.5,16.1,11.3,24.8,6.4c2.8-1.6,5.1-3.9,7.1-6.6L68.1,76.2z"/>
	<path class="st11" d="M68.1,76.2l-24.4-4c-3.3,0.3-6.6,1.2-9.3,2.7c-8.7,4.9-11.7,15.8-6.8,24.3l0,0C27.6,99.2,67,76.7,68.1,76.2z"
		/>
	<path class="st12" d="M48.6,99.6c1-0.6,2.1-1.3,3.1-2.1c-3.3-1.5-6.3-3.9-8.2-7.3c-2-3.4-2.6-7.1-2.3-10.6c-1.2,0.5-2.3,1-3.3,1.6
		c-10.9,6.2-13.2,13-10.2,18l0,0l0,0C30.6,104.3,37.7,105.7,48.6,99.6z"/>
	<path class="st13" d="M50.9,77c-3.3,0.5-6.7,1.3-9.7,2.6c-0.4,3.6,0.3,7.3,2.3,10.6s4.9,5.8,8.2,7.3c2.6-2,5-4.4,7.1-7
		c-2.4-1.2-4.6-3.1-6-5.6C51.3,82.4,50.7,79.7,50.9,77z"/>
	<path class="st14" d="M41.1,79.6c3.1-1.2,6.4-2,9.7-2.6c0.1-1.7,0.5-3.3,1.2-4.8c-2.7-0.3-5.6-0.3-8.4,0
		C42.3,74.5,41.4,77,41.1,79.6z"/>
	<path class="st15" d="M58.8,90.5c-2.1,2.6-4.5,5-7.1,7c2.5,1.1,5.1,1.6,7.8,1.5c1.6-2.2,3-4.7,4.2-7.1
		C61.9,91.7,60.3,91.2,58.8,90.5z"/>
	<path class="st16" d="M52.8,84.9c1.5,2.5,3.6,4.4,6,5.6c5.7-6.9,9.4-14.3,9.4-14.3s-8.4-0.6-17.3,0.8
		C50.7,79.7,51.3,82.4,52.8,84.9z"/>
	<path class="st17" d="M50.9,77c8.9-1.4,17.3-0.8,17.3-0.8c-0.2-0.4-0.5-0.6-1-0.8c-2.6-0.9-8.5-2.6-15.1-3.2
		C51.4,73.7,51,75.4,50.9,77z"/>
	<path class="st18" d="M63.6,91.9c2.7-5.9,4.2-11.8,4.7-14.5c0.1-0.4,0-0.9-0.2-1.2c0,0-3.7,7.4-9.4,14.3
		C60.3,91.2,61.9,91.7,63.6,91.9z"/>
</g>
<g>
	<path class="st19" d="M134.5,88.8c-1.5,5.5-3.7,10.8-6.5,15.6l6.2,3.6c3.1-5.4,5.5-11.2,7.2-17.4L134.5,88.8z"/>
	<path class="st15" d="M26.2,117.8l-5.1,5.1c4.4,4.4,9.5,8.2,14.9,11.4l3.6-6.2C34.7,125.2,30.2,121.8,26.2,117.8z"/>
	<path class="st20" d="M7.2,72H0c0,6.5,0.9,12.7,2.5,18.6l6.9-1.9C8,83.4,7.2,77.8,7.2,72z"/>
	<path class="st21" d="M15.9,104.4L9.7,108c3.2,5.5,7,10.5,11.4,14.9l5.1-5.1C22.2,113.8,18.8,109.3,15.9,104.4z"/>
	<path class="st12" d="M9.5,88.8l-6.9,1.9c1.6,6.1,4.1,12,7.2,17.4l6.2-3.6C13.1,99.5,10.9,94.3,9.5,88.8z"/>
	<path class="st22" d="M39.6,128.1l-3.6,6.2c5.4,3.1,11.2,5.5,17.4,7.2l1.9-6.9C49.7,133.1,44.5,130.9,39.6,128.1z"/>
	<path class="st1" d="M104.4,128.1l3.6,6.2c5.5-3.2,10.5-7,14.9-11.4l-5.1-5.1C113.8,121.8,109.3,125.2,104.4,128.1z"/>
	<path class="st23" d="M88.8,134.5l1.9,6.9c6.1-1.6,12-4.1,17.4-7.2l-3.6-6.2C99.5,130.9,94.3,133.1,88.8,134.5z"/>
	<path class="st3" d="M117.8,117.8l5.1,5.1c4.4-4.4,8.2-9.5,11.4-14.9l-6.2-3.6C125.2,109.3,121.8,113.8,117.8,117.8z"/>
	<path class="st24" d="M55.2,134.5l-1.9,6.9c5.9,1.6,12.2,2.5,18.6,2.5v-7.2C66.2,136.8,60.6,136,55.2,134.5z"/>
	<path class="st25" d="M72,136.8v7.2c6.5,0,12.7-0.9,18.6-2.5l-1.9-6.9C83.4,136,77.8,136.8,72,136.8z"/>
	<path class="st26" d="M55.2,9.5l-1.9-6.9c-6.1,1.6-12,4.1-17.4,7.2l3.6,6.2C44.5,13.1,49.7,10.9,55.2,9.5z"/>
	<path class="st27" d="M134.5,55.2l6.9-1.9c-1.6-6.1-4.1-12-7.2-17.4l-6.2,3.6C130.9,44.5,133.1,49.7,134.5,55.2z"/>
	<path class="st28" d="M128.1,39.6l6.2-3.6c-3.2-5.5-7-10.5-11.4-14.9l-5.1,5.1C121.8,30.2,125.2,34.7,128.1,39.6z"/>
	<path class="st29" d="M117.8,26.2l5.1-5.1c-4.4-4.4-9.5-8.2-14.9-11.4l-3.6,6.2C109.3,18.8,113.8,22.2,117.8,26.2z"/>
	<path class="st30" d="M104.4,15.9l3.6-6.2c-5.4-3.1-11.2-5.5-17.4-7.2l-1.9,6.9C94.3,10.9,99.5,13.1,104.4,15.9z"/>
	<path class="st31" d="M136.8,72h7.2c0-6.5-0.9-12.7-2.5-18.6l-6.9,1.9C136,60.6,136.8,66.2,136.8,72z"/>
	<path class="st32" d="M9.5,55.2l-6.9-1.9C0.9,59.3,0,65.5,0,72h7.2C7.2,66.2,8,60.6,9.5,55.2z"/>
	<path class="st33" d="M134.5,88.8l6.9,1.9c1.6-5.9,2.5-12.2,2.5-18.6h-7.2C136.8,77.8,136,83.4,134.5,88.8z"/>
	<path class="st26" d="M88.8,9.5l1.9-6.9C84.7,0.9,78.5,0,72,0v7.2C77.8,7.2,83.4,8,88.8,9.5z"/>
	<path class="st34" d="M26.2,26.2l-5.1-5.1c-4.4,4.4-8.2,9.5-11.4,14.9l6.2,3.6C18.8,34.7,22.2,30.2,26.2,26.2z"/>
	<path class="st35" d="M15.9,39.6L9.7,36c-3.1,5.4-5.5,11.2-7.2,17.4l6.9,1.9C10.9,49.7,13.1,44.5,15.9,39.6z"/>
	<path class="st36" d="M39.6,15.9L36,9.7c-5.5,3.2-10.5,7-14.9,11.4l5.1,5.1C30.2,22.2,34.7,18.8,39.6,15.9z"/>
	<path class="st37" d="M72,7.2V0c-6.5,0-12.7,0.9-18.6,2.5l1.9,6.9C60.6,8,66.2,7.2,72,7.2z"/>
</g>
<g>
	<path class="st28" d="M72,25.2L72,25.2L72,72c0.4,0,0.8-0.2,1.2-0.4C77.2,68,90,55.7,90,43.4C90,33.4,81.9,25.2,72,25.2z"/>
	<path class="st38" d="M72,25.2C72,25.2,72,25.2,72,25.2c-9.9,0-18,8.2-18,18.2C54,55.7,66.8,68,70.8,71.6c0.3,0.3,0.8,0.4,1.2,0.4
		V25.2z"/>
	<path class="st30" d="M72,25.2L72,25.2L72,25.2c-6,0-10.8,5.4-10.8,18C61.2,56.1,72,72,72,72s10.8-15.9,10.8-28.8
		C82.8,30.6,78,25.2,72,25.2z"/>
	<path class="st36" d="M72,25.2c2,0,3.4,0.3,3.6,0.4c6.2,1.4,10.8,6.4,10.8,12.2c0,3.3-1.5,6.3-3.8,8.5C82.6,46,73,25.3,72,25.2z"/>
	<path class="st39" d="M78.6,60c-3,6.8-6.6,12-6.6,12s-3.5-5.2-6.6-12c2.1,0.8,4.2,1.2,6.6,1.2S76.5,60.8,78.6,60z"/>
	<path class="st40" d="M61.4,46.3c-2.4-2.2-3.8-5.2-3.8-8.5c0-6.1,4.9-11.2,11.5-12.3c0.6-0.1,2.3-0.3,2.9-0.3
		C66.6,25.8,61.3,45.3,61.4,46.3z"/>
	<path class="st41" d="M82.8,43.2c0,0.5,0,1-0.1,1.5c0,0.5-0.1,1-0.1,1.5c-2.6,2.5-6.4,4.1-10.6,4.1s-8-1.6-10.6-4.1
		c-0.1-1-0.2-2.1-0.2-3.1c0-11.8,4.2-17.3,9.7-17.9c0.4-0.1,0.8-0.1,1.1-0.1s0.8,0,1.1,0.1c1,0.1,2,0.4,2.9,0.9
		c0.3,0.1,0.6,0.3,0.9,0.5s0.6,0.4,0.9,0.7c0.3,0.2,0.5,0.4,0.7,0.7c0.8,0.9,1.6,1.9,2.2,3.3c0.2,0.4,0.4,0.8,0.5,1.2
		c0.2,0.4,0.3,0.9,0.5,1.3c0.1,0.4,0.3,0.8,0.3,1.3c0.1,0.6,0.3,1.2,0.4,1.8c0.1,0.7,0.3,1.4,0.3,2.2C82.7,40.3,82.8,41.7,82.8,43.2
		z"/>
	<path class="st42" d="M89.9,44.8C89,56.7,77,68.2,73.2,71.6C72.8,71.9,72.4,72,72,72c0,0,3.5-5.2,6.6-12
		C84.7,57.5,89.3,51.7,89.9,44.8z"/>
	<path class="st35" d="M72,72c-0.4,0-0.8-0.1-1.2-0.4C67,68.2,55,56.7,54.1,44.8c0.6,6.9,5.2,12.7,11.4,15.2C68.5,66.8,72,72,72,72z
		"/>
</g>
</svg>
