<?xml version="1.0" encoding="utf-8"?>
<!-- Generator: Adobe Illustrator 26.0.3, SVG Export Plug-In . SVG Version: 6.00 Build 0)  -->
<svg version="1.1" id="Layer_1" xmlns="http://www.w3.org/2000/svg" xmlns:xlink="http://www.w3.org/1999/xlink" x="0px" y="0px"
	 viewBox="0 0 1966.7 1071.7" style="enable-background:new 0 0 1966.7 1071.7;" xml:space="preserve">
<style type="text/css">
	.st0{fill:#264DE4;}
	.st1{fill:#2965F1;}
	.st2{fill:#EBEBEB;}
	.st3{fill:#FFFFFF;}
	.st4{fill:#E44D26;}
	.st5{fill:#F16529;}
</style>
<g>
	<polygon id="polygon2989" class="st0" points="445.3,1075.9 134.1,989.5 64.8,211.4 826.9,211.4 757.6,989.5 	"/>
	<polygon id="polygon2991" class="st1" points="698.2,939.8 757.4,275.1 445.8,275.1 445.8,1009.8 	"/>
	<polygon id="polygon2993" class="st2" points="223.8,563.7 232.4,659.1 445.8,659.1 445.8,563.7 	"/>
	<polygon id="polygon2995" class="st2" points="206.5,370.5 215.2,466 445.8,466 445.8,370.5 445.5,370.5 	"/>
	<polygon id="polygon2997" class="st2" points="445.8,811.4 445.5,811.6 339.2,782.8 332.3,706.8 280.8,706.8 236.6,706.8 
		250,856.6 445.5,910.9 445.8,910.7 	"/>
	<path id="path2999" class="st3" d="M244.2,0h115.6v48.3h-67.3v48.3h67.3v48.3H244.2L244.2,0L244.2,0z"/>
	<path id="path3001" class="st3" d="M382.8,0h115.6v42.1h-67.3v8.4h67.3v96.7H382.8v-44.2h67.3v-8.4h-67.3V0z"/>
	<path id="path3003" class="st3" d="M521.5,0H637v42.1h-67.3v8.4H637v96.7H521.5v-44.2h67.3v-8.4h-67.3V0z"/>
	<polygon id="polygon3005" class="st3" points="667.3,563.7 684.6,370.5 445.5,370.5 445.5,466 580,466 571.3,563.7 445.5,563.7 
		445.5,659.1 563.1,659.1 552,782.8 445.5,811.6 445.5,910.9 641.2,856.6 642.5,840.5 664.9,589.2 	"/>
</g>
<g>
	<polygon id="polygon3028" class="st4" points="1898.4,211.4 1828.9,989.5 1516.6,1075.9 1205.4,989.5 1136.1,211.4 	"/>
	<polygon id="polygon3030" class="st5" points="1517.1,1009.8 1769.5,939.8 1828.7,275.1 1517.1,275.1 	"/>
	<polygon id="polygon3032" class="st2" points="1382.2,466 1517.1,466 1517.1,370.5 1516.8,370.5 1277.8,370.5 1280.2,396.1 
		1303.7,659.1 1517.1,659.1 1517.1,563.7 1391,563.7 	"/>
	<polygon id="polygon3034" class="st2" points="1403.6,706.8 1352.1,706.8 1307.9,706.8 1321.3,856.6 1516.8,910.9 1517.1,910.7 
		1517.1,811.4 1516.8,811.6 1410.5,782.8 	"/>
	<path id="path3036" class="st3" d="M1206.9,0h48.4v47.9h44.3V0h48.4v145.2h-48.4V96.6h-44.3v48.6h-48.4V0L1206.9,0z"/>
	<path id="path3038" class="st3" d="M1412,48.1h-42.6V0h133.9v48.1h-42.6v97.1h-48.4L1412,48.1L1412,48.1z"/>
	<path id="path3040" class="st3" d="M1524.5,0h50.5l31.2,51l31.2-51h50.5v145.2h-48.3V73.3l-33.4,51.5h-0.9l-33.4-51.5v71.9h-47.4V0
		L1524.5,0z"/>
	<path id="path3042" class="st3" d="M1711.9,0h48.4v97.2h68.1v47.9h-116.8V0H1711.9z"/>
	<polygon id="polygon3044" class="st3" points="1516.8,659.1 1634.4,659.1 1623.3,782.8 1516.8,811.6 1516.8,910.9 1712.5,856.6 
		1713.8,840.5 1736.2,589.2 1738.6,563.7 1713,563.7 1516.8,563.7 	"/>
	<polygon id="polygon3046" class="st3" points="1516.8,465.8 1516.8,466 1747,466 1747,466 1747.4,466 1749.3,444.6 1753.5,396.1 
		1755.9,370.5 1516.8,370.5 1516.8,429.9 	"/>
</g>
</svg>
