<?xml version="1.0" encoding="utf-8"?>
<!-- Generator: Adobe Illustrator 26.0.3, SVG Export Plug-In . SVG Version: 6.00 Build 0)  -->
<svg version="1.1" id="Layer_1" xmlns="http://www.w3.org/2000/svg" xmlns:xlink="http://www.w3.org/1999/xlink" x="0px" y="0px"
	 viewBox="0 0 1256.5 512" style="enable-background:new 0 0 1256.5 512;" xml:space="preserve">
<style type="text/css">
	.st0{fill:#F0DB4F;}
	.st1{fill:#323330;}
	.st2{fill:#007ACC;}
	.st3{fill:#FFFFFF;}
</style>
<g>
	<g id="_x31_87-js">
		<g>
			<rect x="94.5" y="26" class="st0" width="460" height="460"/>
			<path class="st1" d="M344.9,384.8c0,44.8-26.3,65.2-64.6,65.2c-34.6,0-54.6-17.9-64.9-39.5l35.2-21.3c6.8,12,12.9,22.2,27.8,22.2
				c14.2,0,23.2-5.5,23.2-27.2V237.2h43.2V384.8L344.9,384.8z"/>
			<path class="st1" d="M447.1,450c-40.1,0-66.1-19.1-78.8-44.2l35.2-20.3c9.2,15.1,21.4,26.3,42.6,26.3c17.9,0,29.4-8.9,29.4-21.4
				c0-14.8-11.7-20-31.5-28.8l-10.8-4.6c-31.2-13.2-51.9-30-51.9-65.2c0-32.4,24.7-57.1,63.2-57.1c27.5,0,47.2,9.5,61.4,34.6
				l-33.7,21.6c-7.4-13.2-15.4-18.5-27.8-18.5c-12.6,0-20.6,8-20.6,18.5c0,12.9,8,18.2,26.6,26.3l10.8,4.6
				c36.8,15.7,57.4,31.8,57.4,68C518.7,428.6,488.1,450,447.1,450L447.1,450z"/>
		</g>
	</g>
	<path class="st2" d="M702,256V26h460v460H702"/>
	<path class="st3" d="M802.8,256.8v18.7h59.8v170.2H905V275.5h59.8v-18.4c0-10.3,0-18.7-0.5-19c0-0.3-36.5-0.5-80.7-0.5l-80.5,0.3
		v18.9L802.8,256.8L802.8,256.8z M1071.6,237.6c11.7,2.8,20.7,8,28.7,16.4c4.3,4.6,10.6,12.6,11,14.7c0,0.7-19.9,14.1-32,21.6
		c-0.5,0.3-2.3-1.6-4.1-4.6c-6-8.5-12.1-12.2-21.6-12.9c-13.8-0.9-23,6.3-23,18.4c0,3.7,0.7,5.7,2.1,8.7c3.1,6.3,8.9,10.1,26.7,17.9
		c32.9,14.1,47.1,23.5,55.8,36.8c9.8,14.9,12,38.4,5.4,56c-7.4,19.2-25.3,32.2-50.9,36.5c-8.1,1.4-26.4,1.1-35.1-0.3
		c-18.4-3.4-36-12.6-46.8-24.5c-4.3-4.6-12.4-16.9-12-17.7l4.4-2.8l17.2-10l13-7.6l3,4c3.8,6,12.3,14,17.2,16.8
		c14.9,7.7,35,6.7,44.8-2.3c4.3-3.9,6.1-8,6.1-13.8c0-5.3-0.8-7.7-3.4-11.7c-3.7-5.1-11-9.2-31.7-18.4
		c-23.8-10.1-33.9-16.6-43.4-26.4c-5.4-6-10.3-15.3-12.6-23c-1.7-6.7-2.3-23-0.7-29.6c4.9-23,22.3-39.1,47.1-43.7
		c8-1.6,27-0.9,35,1.1L1071.6,237.6L1071.6,237.6z"/>
</g>
</svg>
