<svg xmlns="http://www.w3.org/2000/svg" width="978.091" height="184.042" viewBox="0 0 978.091 184.042"><g transform="translate(10870.271 1597.453)"><g transform="translate(-10531.751 -1592.714)"><path d="M67.421,66.078l-14.348-2.24A42.44,42.44,0,0,1,34.3,56.1a19.194,19.194,0,0,1-6.13-15.7c0-15.83,10.709-25.283,28.644-25.283A39.837,39.837,0,0,1,87.626,26.839l1.542,1.466,9.692-9.692L97.1,17.076A54.7,54.7,0,0,0,57.367,2.157c-26.816,0-43.473,14.795-43.473,38.613A32.387,32.387,0,0,0,25.107,66.892,47.21,47.21,0,0,0,49.934,77.117l15.544,2.437a29.964,29.964,0,0,1,18.127,6.6,20.964,20.964,0,0,1,6.522,17.027c0,15.83-11.966,25.279-32.009,25.279A44.482,44.482,0,0,1,21.92,113.4l-1.542-1.542L10.2,122.041l1.542,1.542a58.64,58.64,0,0,0,45.824,18.2c29,0,47.025-14.935,47.025-38.987A34.657,34.657,0,0,0,92.238,75.36a42.726,42.726,0,0,0-24.817-9.282Zm95.136-20.951A36.2,36.2,0,0,0,135.98,55.667a51.756,51.756,0,0,0-11.847,37.79,51.746,51.746,0,0,0,11.847,37.786,38.787,38.787,0,0,0,53.16,0,51.747,51.747,0,0,0,11.843-37.786,51.767,51.767,0,0,0-11.842-37.79,36.191,36.191,0,0,0-26.583-10.539ZM179.7,122a24.439,24.439,0,0,1-34.287,0,40.179,40.179,0,0,1-7.395-28.542,40.164,40.164,0,0,1,7.395-28.538,24.441,24.441,0,0,1,34.287,0,40.176,40.176,0,0,1,7.4,28.538A40.179,40.179,0,0,1,179.7,122Zm106.6-17.7c0,15.941-8.248,24.725-23.226,24.725-15.046,0-22.671-8.315-22.671-24.725V46.248H226.518v59.725a33.134,33.134,0,0,0,35.434,35.809,35.817,35.817,0,0,0,24.351-8.648v7.532h13.9V46.248H286.3ZM370.31,45.128a35.831,35.831,0,0,0-24.351,8.648V46.248H332.074v94.418h13.888V82.62c0-15.946,8.248-24.725,23.234-24.725,15.038,0,22.663,8.32,22.663,24.725v58.046h13.9V80.939a35.459,35.459,0,0,0-10.013-26.6,35.13,35.13,0,0,0-25.432-9.21Zm121.315,9.1A32.012,32.012,0,0,0,467.1,45.119,33.317,33.317,0,0,0,443.5,53.609c-8.114,8.114-12.214,21.517-12.214,39.844S435.4,125.186,443.5,133.3a33.3,33.3,0,0,0,23.592,8.486,32.019,32.019,0,0,0,24.529-9.107v7.992h13.9V3.277h-13.9ZM468.4,129.019c-16.282,0-23.225-10.632-23.225-35.563S452.118,57.9,468.4,57.9s23.225,10.632,23.225,35.557S484.681,129.019,468.4,129.019Zm82.524-14.075V3.277H537.037V115.131c0,16.227,8.69,25.535,23.847,25.535h10.4V127.894h-8.714c-8.82,0-11.649-3.143-11.649-12.951Zm83.7-68.7L609.09,120.559,583.555,46.248H568.418L602.1,138.485l-7.021,19.264c-2.939,8.3-5.308,10.879-14.39,10.879h-5.731v12.763h6.671a26.511,26.511,0,0,0,18.463-6.347,26.022,26.022,0,0,0,6.748-11.331L649.768,46.248Z" transform="translate(-10.196 -2.115)" fill="#fff"/></g><g transform="translate(-10870.271 -1597.453)"><path d="M14.261,57.043A14.3,14.3,0,0,0,0,71.3V99.825a14.261,14.261,0,1,0,28.522,0V71.3A14.3,14.3,0,0,0,14.261,57.043ZM64.174,28.522A14.3,14.3,0,0,0,49.913,42.782v85.565a14.261,14.261,0,1,0,28.522,0V42.782A14.3,14.3,0,0,0,64.174,28.522ZM114.086,0A14.3,14.3,0,0,0,99.825,14.261V156.869a14.261,14.261,0,1,0,28.522,0V14.261A14.3,14.3,0,0,0,114.086,0ZM164,28.522a14.3,14.3,0,0,0-14.261,14.261v85.565a14.261,14.261,0,1,0,28.522,0V42.782A14.3,14.3,0,0,0,164,28.522Zm49.913,28.522A14.3,14.3,0,0,0,199.651,71.3V99.825a14.261,14.261,0,0,0,28.522,0V71.3A14.3,14.3,0,0,0,213.912,57.043Z" fill="#fff"/></g></g></svg>