<?xml version="1.0" encoding="utf-8"?>
<!-- Generator: Adobe Illustrator 25.2.3, SVG Export Plug-In . SVG Version: 6.00 Build 0)  -->
<svg version="1.1" id="Layer_1" xmlns="http://www.w3.org/2000/svg" xmlns:xlink="http://www.w3.org/1999/xlink" x="0px" y="0px"
	 viewBox="0 0 978.1 184" style="enable-background:new 0 0 978.1 184;" xml:space="preserve">
<style type="text/css">
	.st0{fill:#FFFFFF;}
	.st1{fill:#0096D6;}
</style>
<g transform="translate(10870.271 1597.453)">
	<g transform="translate(-10531.751 -1592.714)">
		<path class="st0" d="M57.2,64l-14.3-2.2c-6.8-1-13.2-3.7-18.8-7.7c-4.4-4-6.6-9.8-6.1-15.7C18,22.5,28.7,13,46.6,13
			c11.5-0.7,22.7,3.5,30.8,11.7l1.5,1.5l9.7-9.7L86.9,15C76.2,4.8,61.9-0.5,47.2,0C20.4,0,3.7,14.8,3.7,38.7
			c-0.5,10,3.6,19.6,11.2,26.1C22,70.5,30.6,74.1,39.7,75l15.5,2.4c6.6,0.1,13,2.5,18.1,6.6c4.7,4.4,7.1,10.7,6.5,17
			c0,15.8-12,25.3-32,25.3c-13.7,0.9-27.1-4.7-36.2-15.1l-1.5-1.5L0,119.9l1.5,1.5c11.9,12.5,28.6,19.2,45.8,18.2
			c29,0,47-14.9,47-39C94.7,90.1,90.1,80,82,73.2C75,67.6,66.3,64.3,57.2,64z M152.4,43c-9.9-0.3-19.5,3.5-26.6,10.5
			C117,64,112.7,77.6,114,91.3c-1.2,13.7,3,27.3,11.8,37.8c14.9,14.1,38.2,14.1,53.2,0c8.8-10.5,13.1-24.1,11.8-37.8
			c1.2-13.7-3-27.3-11.8-37.8C171.9,46.5,162.3,42.7,152.4,43L152.4,43z M169.5,119.9c-9.5,9.4-24.8,9.4-34.3,0
			c-6-8.2-8.6-18.4-7.4-28.5c-1.2-10.1,1.4-20.3,7.4-28.5c9.5-9.4,24.8-9.4,34.3,0c6,8.2,8.6,18.4,7.4,28.5
			C178.1,101.5,175.5,111.7,169.5,119.9z M276.1,102.2c0,15.9-8.2,24.7-23.2,24.7c-15,0-22.7-8.3-22.7-24.7V44.1h-13.9v59.7
			c-1.5,18.2,12,34.3,30.3,35.8c1.7,0.1,3.5,0.2,5.2,0c8.9,0.2,17.6-2.8,24.4-8.6v7.5H290V44.1h-13.9V102.2z M360.1,43
			c-8.9-0.2-17.6,2.8-24.4,8.6v-7.5h-13.9v94.4h13.9v-58c0-15.9,8.2-24.7,23.2-24.7s22.7,8.3,22.7,24.7v58h13.9V78.8
			c0.5-9.9-3.1-19.5-10-26.6C378.6,45.9,369.5,42.6,360.1,43L360.1,43z M481.4,52.1c-6.5-6.4-15.4-9.7-24.5-9.1
			c-8.7-0.4-17.1,2.7-23.6,8.5c-8.1,8.1-12.2,21.5-12.2,39.8s4.1,31.7,12.2,39.8c6.5,5.8,14.9,8.8,23.6,8.5c9.1,0.6,18-2.7,24.5-9.1
			v8h13.9V1.2h-13.9V52.1z M458.2,126.9c-16.3,0-23.2-10.6-23.2-35.6s6.9-35.6,23.2-35.6s23.2,10.6,23.2,35.6
			S474.5,126.9,458.2,126.9z M540.7,112.8V1.2h-13.9V113c0,16.2,8.7,25.5,23.8,25.5H561v-12.8h-8.7
			C543.6,125.8,540.7,122.6,540.7,112.8L540.7,112.8z M624.4,44.1l-25.5,74.3l-25.5-74.3h-15.1l33.7,92.2l-7,19.3
			c-2.9,8.3-5.3,10.9-14.4,10.9h-5.7v12.8h6.7c6.7,0.3,13.3-2,18.5-6.3c3.2-3.1,5.5-7,6.7-11.3l42.9-117.5L624.4,44.1z"/>
	</g>
	<g transform="translate(-10870.271 -1597.453)">
		<g>
			<path class="st1" d="M14.3,57C6.4,57.1,0,63.4,0,71.3v28.5c0,7.9,6.4,14.3,14.3,14.3s14.3-6.4,14.3-14.3l0,0V71.3
				C28.5,63.4,22.1,57.1,14.3,57z M64.2,28.5c-7.9,0-14.2,6.4-14.3,14.3v85.6c0,7.9,6.4,14.3,14.3,14.3s14.3-6.4,14.3-14.3l0,0V42.8
				C78.4,34.9,72,28.5,64.2,28.5z M114.1,0c-7.9,0-14.2,6.4-14.3,14.3v142.6c0,7.9,6.4,14.3,14.3,14.3s14.3-6.4,14.3-14.3V14.3
				C128.3,6.4,122,0,114.1,0z M164,28.5c-7.9,0-14.2,6.4-14.3,14.3v85.6c0,7.9,6.4,14.3,14.3,14.3s14.3-6.4,14.3-14.3V42.8
				C178.2,34.9,171.9,28.5,164,28.5z M213.9,57c-7.9,0-14.2,6.4-14.3,14.3v28.5c0,7.9,6.4,14.3,14.3,14.3s14.3-6.4,14.3-14.3V71.3
				C228.1,63.4,221.8,57.1,213.9,57L213.9,57z"/>
		</g>
	</g>
</g>
</svg>
