<?xml version="1.0" encoding="utf-8"?>
<!-- Generator: Adobe Illustrator 26.0.3, SVG Export Plug-In . SVG Version: 6.00 Build 0)  -->
<svg version="1.1" id="Layer_1" xmlns="http://www.w3.org/2000/svg" xmlns:xlink="http://www.w3.org/1999/xlink" x="0px" y="0px"
	 viewBox="0 0 342.3 118" style="enable-background:new 0 0 342.3 118;" xml:space="preserve">
<style type="text/css">
	.st0{fill:#FF3E00;}
	.st1{fill:#FFFFFF;}
</style>
<g>
	<path class="st0" d="M91.8,15.6C80.9-0.1,59.2-4.7,43.6,5.2L16.1,22.8C8.6,27.5,3.4,35.2,1.9,43.9c-1.3,7.3-0.2,14.8,3.3,21.3
		c-2.4,3.6-4,7.6-4.7,11.8c-1.6,8.9,0.5,18.1,5.7,25.4c11,15.7,32.6,20.3,48.2,10.4l27.5-17.5c7.5-4.7,12.7-12.4,14.2-21.1
		c1.3-7.3,0.2-14.8-3.3-21.3c2.4-3.6,4-7.6,4.7-11.8C99.2,32.1,97.1,22.9,91.8,15.6"/>
	<path class="st1" d="M40.9,103.9c-8.9,2.3-18.2-1.2-23.4-8.7c-3.2-4.4-4.4-9.9-3.5-15.3c0.2-0.9,0.4-1.7,0.6-2.6l0.5-1.6l1.4,1
		c3.3,2.4,6.9,4.2,10.8,5.4l1,0.3l-0.1,1c-0.1,1.4,0.3,2.9,1.1,4.1c1.6,2.3,4.4,3.4,7.1,2.7c0.6-0.2,1.2-0.4,1.7-0.7L65.5,72
		c1.4-0.9,2.3-2.2,2.6-3.8c0.3-1.6-0.1-3.3-1-4.6c-1.6-2.3-4.4-3.3-7.1-2.6c-0.6,0.2-1.2,0.4-1.7,0.7l-10.5,6.7
		c-1.7,1.1-3.6,1.9-5.6,2.4c-8.9,2.3-18.2-1.2-23.4-8.7c-3.1-4.4-4.4-9.9-3.4-15.3c0.9-5.2,4.1-9.9,8.6-12.7l27.5-17.5
		c1.7-1.1,3.6-1.9,5.6-2.5c8.9-2.3,18.2,1.2,23.4,8.7c3.2,4.4,4.4,9.9,3.5,15.3c-0.2,0.9-0.4,1.7-0.7,2.6l-0.5,1.6l-1.4-1
		c-3.3-2.4-6.9-4.2-10.8-5.4l-1-0.3l0.1-1c0.1-1.4-0.3-2.9-1.1-4.1c-1.6-2.3-4.4-3.3-7.1-2.6c-0.6,0.2-1.2,0.4-1.7,0.7L32.4,46.1
		c-1.4,0.9-2.3,2.2-2.6,3.8s0.1,3.3,1,4.6c1.6,2.3,4.4,3.3,7.1,2.6c0.6-0.2,1.2-0.4,1.7-0.7l10.5-6.7c1.7-1.1,3.6-1.9,5.6-2.5
		c8.9-2.3,18.2,1.2,23.4,8.7c3.2,4.4,4.4,9.9,3.5,15.3c-0.9,5.2-4.1,9.9-8.6,12.7l-27.5,17.5C44.8,102.5,42.9,103.3,40.9,103.9"/>
	<g>
		<g>
			<path class="st1" d="M233.6,14.6v63.4l37.6-38.9h7.9l-25.8,26.7l27.9,37.7h-7.9l-24.6-33l-15.1,15.5v17.5h-6.5V14.6H233.6z"/>
		</g>
		<g>
			<path class="st1" d="M298,20c0,1.4-0.4,2.5-1.3,3.3s-1.9,1.3-3.3,1.3c-1.3,0-2.3-0.4-3.2-1.3c-0.9-0.8-1.3-1.9-1.3-3.3
				c0-1.4,0.4-2.5,1.3-3.3c0.9-0.8,2-1.3,3.2-1.3c1.4,0,2.5,0.4,3.3,1.3S298,18.7,298,20z M296.7,39.1v64.4h-6.5V39.1H296.7z"/>
		</g>
		<g>
			<path class="st1" d="M304,45v-6h12.2V21h6.5v18h17.1v6h-17.1v43.3c0,3.3,0.7,5.7,2,7c1.4,1.4,3.6,2.1,6.9,2.1h9.4v6h-9.7
				c-5.4,0-9.3-1.2-11.6-3.6c-2.3-2.4-3.5-6.2-3.5-11.4V45H304z"/>
		</g>
	</g>
	<g>
		<rect x="166.4" y="37.3" class="st1" width="3" height="44.6"/>
	</g>
</g>
</svg>
