<svg id="Layer_1" data-name="Layer 1" xmlns="http://www.w3.org/2000/svg" viewBox="0 0 1920 1080"><defs><style>.cls-1{fill:#fff;}.cls-2{font-size:25.5px;font-family:Aeonik-Medium, Aeonik;font-weight:500;letter-spacing:0.13em;}.cls-3{letter-spacing:0.14em;}.cls-4{letter-spacing:0.08em;}.cls-5{letter-spacing:0.05em;}.cls-6{letter-spacing:0.14em;}.cls-7{letter-spacing:0.13em;}.cls-8{letter-spacing:0.15em;}.cls-9{fill:#efefef;}.cls-10{fill:#161617;}.cls-11{fill:#526760;}.cls-12{fill:#1d1830;}.cls-13{fill:#344649;}.cls-14,.cls-16,.cls-20{font-size:16.56px;}.cls-14,.cls-16,.cls-20,.cls-26,.cls-41{font-family:Aeonik-Regular, Aeonik;}.cls-14,.cls-19{letter-spacing:0.11em;}.cls-15,.cls-16{letter-spacing:0.14em;}.cls-17{letter-spacing:0.13em;}.cls-18{letter-spacing:0.13em;}.cls-20,.cls-24{letter-spacing:0.14em;}.cls-21{letter-spacing:0.13em;}.cls-22{letter-spacing:0.1em;}.cls-23{letter-spacing:0.04em;}.cls-25{letter-spacing:0.15em;}.cls-26,.cls-41{opacity:0.57;font-size:15px;}.cls-26,.cls-42{letter-spacing:0.14em;}.cls-27{letter-spacing:0.13em;}.cls-28{letter-spacing:0.13em;}.cls-29{letter-spacing:0.14em;}.cls-30{letter-spacing:0.11em;}.cls-31{letter-spacing:0.13em;}.cls-32{letter-spacing:0.12em;}.cls-33{letter-spacing:0.09em;}.cls-34{letter-spacing:0.09em;}.cls-35{letter-spacing:0.12em;}.cls-36{letter-spacing:0.15em;}.cls-37{letter-spacing:0.12em;}.cls-38{letter-spacing:0.12em;}.cls-39{letter-spacing:0.09em;}.cls-40{letter-spacing:0.09em;}.cls-41{letter-spacing:0.13em;}.cls-43{letter-spacing:0.13em;}.cls-44{letter-spacing:0.14em;}.cls-45{letter-spacing:0.13em;}.cls-46{letter-spacing:0.13em;}.cls-47{letter-spacing:0.14em;}</style></defs><rect class="cls-1" x="-44.41" y="-40.55" width="2008.83" height="1161.1"/><text class="cls-2" transform="translate(853.39 323.34)">C<tspan class="cls-3" x="21.34" y="0">O</tspan><tspan class="cls-4" x="44.14" y="0">L</tspan><tspan class="cls-3" x="59.05" y="0" xml:space="preserve">OR  </tspan><tspan class="cls-5" x="121.55" y="0">P</tspan><tspan class="cls-6" x="138.33" y="0">AL</tspan><tspan class="cls-7" x="175.55" y="0">E</tspan><tspan class="cls-8" x="193.12" y="0">T</tspan><tspan class="cls-6" x="211.99" y="0">TE</tspan></text><rect class="cls-9" x="1169.71" y="564.93" width="384" height="43.4"/><rect class="cls-10" x="1553.71" y="564.93" width="394.41" height="43.4"/><rect class="cls-11" x="401.71" y="564.93" width="384" height="43.4"/><rect class="cls-12" x="-28.12" y="564.93" width="429.82" height="43.4"/><rect class="cls-13" x="785.71" y="564.93" width="384" height="43.4"/><text class="cls-14" transform="translate(144.57 656.86)">D<tspan class="cls-15" x="12.9" y="0">ARK PURPLE</tspan></text><text class="cls-16" transform="translate(891.16 656.86)">CHA<tspan class="cls-17" x="40.75" y="0">R</tspan><tspan class="cls-18" x="53.02" y="0">C</tspan><tspan class="cls-19" x="66.92" y="0">O</tspan><tspan x="81.2" y="0">AL GREEN</tspan></text><text class="cls-20" transform="translate(545.17 656.86)">FELDG<tspan class="cls-21" x="61.29" y="0">R</tspan><tspan class="cls-22" x="73.5" y="0">A</tspan><tspan class="cls-15" x="86.1" y="0">U</tspan></text><text class="cls-16" transform="translate(1279.06 656.86)">CU<tspan class="cls-23" x="27.36" y="0">L</tspan><tspan class="cls-24" x="36.31" y="0">TURED WHITE</tspan></text><text class="cls-16" transform="translate(1685.47 656.86)">EERIE B<tspan class="cls-25" x="72.39" y="0">L</tspan><tspan class="cls-19" x="83.1" y="0">A</tspan><tspan x="95.83" y="0">CK</tspan></text><text class="cls-26" transform="translate(174.34 689.81)">#1D1830</text><text class="cls-26" transform="translate(556.9 689.81)">#<tspan class="cls-27" x="10.79" y="0">5</tspan><tspan x="21.58" y="0">2</tspan><tspan class="cls-28" x="32.16" y="0">67</tspan><tspan class="cls-29" x="53.08" y="0">60</tspan></text><text class="cls-26" transform="translate(939.78 689.81)">#344649</text><text class="cls-26" transform="translate(1326.65 689.81)">#EFEFEF</text><text class="cls-26" transform="translate(1714.72 689.81)">#161617</text><text class="cls-26" transform="translate(124.63 718.29)">CMYK: 2<tspan class="cls-30" x="72.61" y="0">6</tspan><tspan x="83.31" y="0">, </tspan><tspan class="cls-31" x="94.53" y="0">7</tspan><tspan class="cls-32" x="104.52" y="0">3</tspan><tspan class="cls-29" x="115.27" y="0">, </tspan><tspan class="cls-33" x="126.49" y="0">0</tspan><tspan x="137.22" y="0">, 25</tspan></text><text class="cls-26" transform="translate(516.99 718.29)">CMYK: 16<tspan class="cls-33" x="80.16" y="0">0</tspan><tspan x="90.88" y="0">, 11, 36 </tspan></text><text class="cls-26" transform="translate(900.94 718.29)">CMYK: 2<tspan class="cls-34" x="72.61" y="0">9</tspan><tspan x="83.08" y="0">, </tspan><tspan class="cls-35" x="94.3" y="0">4</tspan><tspan x="105.31" y="0">, </tspan><tspan class="cls-33" x="116.53" y="0">0</tspan><tspan x="127.26" y="0">, </tspan><tspan class="cls-36" x="138.48" y="0">7</tspan><tspan x="148.66" y="0">1</tspan></text><text class="cls-26" transform="translate(1293.24 718.29)">CMYK: <tspan class="cls-33" x="62.04" y="0">0</tspan><tspan x="72.76" y="0">, </tspan><tspan class="cls-33" x="83.98" y="0">0</tspan><tspan x="94.71" y="0">, </tspan><tspan class="cls-33" x="105.93" y="0">0</tspan><tspan x="116.65" y="0">, 6</tspan></text><text class="cls-26" transform="translate(1673.48 718.29)">CMYK: <tspan class="cls-37" x="62.04" y="0">4</tspan><tspan class="cls-29" x="73.05" y="0">, </tspan><tspan class="cls-35" x="84.27" y="0">4</tspan><tspan x="95.28" y="0">, </tspan><tspan class="cls-33" x="106.5" y="0">0</tspan><tspan x="117.22" y="0">, 91</tspan></text><text class="cls-26" transform="translate(136.33 746.76)">HSB: 25<tspan class="cls-38" x="67.54" y="0">3</tspan><tspan x="78.3" y="0">, 5</tspan><tspan class="cls-33" x="100.44" y="0">0</tspan><tspan x="111.16" y="0">, 19 </tspan></text><text class="cls-26" transform="translate(524.08 746.76)">HSB: 16<tspan class="cls-39" x="64.17" y="0">0</tspan><tspan x="74.89" y="0">, 2</tspan><tspan class="cls-33" x="96.69" y="0">0</tspan><tspan x="107.41" y="0">, 40</tspan></text><text class="cls-26" transform="translate(908.86 746.76)">HSB: 18<tspan class="cls-40" x="64.11" y="0">9</tspan><tspan x="74.58" y="0">, 2</tspan><tspan class="cls-34" x="96.37" y="0">9</tspan><tspan x="106.84" y="0">, 29</tspan></text><text class="cls-26" transform="translate(1306.58 746.76)">HSB: <tspan class="cls-33" x="46.05" y="0">0</tspan><tspan x="56.77" y="0">, </tspan><tspan class="cls-33" x="67.99" y="0">0</tspan><tspan x="78.72" y="0">, 94</tspan></text><text class="cls-26" transform="translate(1685.27 746.76)">HSB: <tspan class="cls-37" x="46.05" y="0">2</tspan><tspan x="56.38" y="0">4</tspan><tspan class="cls-33" x="67.63" y="0">0</tspan><tspan x="78.36" y="0">, </tspan><tspan class="cls-35" x="89.58" y="0">4</tspan><tspan x="100.59" y="0">, 9</tspan></text><text class="cls-41" transform="translate(142.46 775.24)">R<tspan class="cls-42" x="11.11" y="0">GB: 2</tspan><tspan class="cls-34" x="57.66" y="0">9</tspan><tspan class="cls-42" x="68.13" y="0">, </tspan><tspan class="cls-37" x="79.35" y="0">24</tspan><tspan class="cls-42" x="100.69" y="0">, 48</tspan></text><text class="cls-41" transform="translate(523.44 775.24)">R<tspan class="cls-42" x="11.11" y="0">GB: 82, 1</tspan><tspan class="cls-43" x="86.94" y="0">0</tspan><tspan class="cls-38" x="98.34" y="0">3</tspan><tspan class="cls-42" x="109.09" y="0">, 96</tspan></text><text class="cls-41" transform="translate(912.43 775.24)">R<tspan class="cls-42" x="11.11" y="0">GB: </tspan><tspan class="cls-27" x="47.08" y="0">5</tspan><tspan class="cls-44" x="57.88" y="0">2, </tspan><tspan class="cls-45" x="79.68" y="0">7</tspan><tspan class="cls-33" x="89.62" y="0">0</tspan><tspan class="cls-42" x="100.35" y="0">, </tspan><tspan class="cls-46" x="111.57" y="0">7</tspan><tspan class="cls-29" x="121.56" y="0">3</tspan></text><text class="cls-41" transform="translate(1279.43 775.24)">R<tspan class="cls-42" x="11.11" y="0">GB: 23</tspan><tspan class="cls-40" x="68.76" y="0">9</tspan><tspan class="cls-42" x="79.23" y="0">, 23</tspan><tspan class="cls-34" x="112.12" y="0">9</tspan><tspan class="cls-42" x="122.59" y="0">, 239</tspan></text><text class="cls-41" transform="translate(1680.05 775.24)">R<tspan class="cls-42" x="11.11" y="0">GB: </tspan><tspan class="cls-47" x="47.08" y="0">2</tspan><tspan class="cls-44" x="57.61" y="0">2, </tspan><tspan class="cls-47" x="79.41" y="0">2</tspan><tspan class="cls-42" x="89.94" y="0">2, 23</tspan></text></svg>