<svg id="Layer_1" data-name="Layer 1" xmlns="http://www.w3.org/2000/svg" xmlns:xlink="http://www.w3.org/1999/xlink" viewBox="0 0 1920 1080"><defs><style>.cls-1,.cls-5,.cls-7,.cls-8,.cls-9{fill:none;}.cls-10,.cls-2{fill:#efefef;}.cls-3{fill:#161617;}.cls-4{clip-path:url(#clip-path);}.cls-5{stroke:#fff;}.cls-5,.cls-7,.cls-8,.cls-9{stroke-miterlimit:10;}.cls-5,.cls-9{stroke-width:2px;}.cls-6{fill:#ff7bac;}.cls-6,.cls-8,.cls-9{opacity:0.2;}.cls-7{stroke:#000;}.cls-8,.cls-9{stroke:#ff7bac;}.cls-10{opacity:0.1;}</style><clipPath id="clip-path"><rect class="cls-1" x="1532.65" y="710.78" width="134.71" height="122.68"/></clipPath></defs><rect class="cls-2" x="-40.77" y="-40.55" width="2008.83" height="1161.1"/><rect class="cls-3" x="1280" y="-40.55" width="688.06" height="1161.1"/><path class="cls-2" d="M1643.1,294.18V276l-11.34-11.34h-63.52L1556.9,276h0a47.64,47.64,0,0,0,47.64,47.64h56.71v86.19L1643.1,428h-86.2l-18.15-18.15V380.38h18.15v18.14l11.34,11.34h63.52l11.34-11.34h0a56.71,56.71,0,0,0-56.71-56.71h-47.64V264.69l18.15-18.15h86.2l18.15,18.15v29.49Z"/><g class="cls-4"><path class="cls-2" d="M1643.1,729V710.87l-11.34-11.34h-63.52l-11.34,11.34h0a47.64,47.64,0,0,0,47.64,47.64h56.71v86.2l-18.15,18.14h-86.2l-18.15-18.14V815.22h18.15v18.14l11.34,11.35h63.52l11.34-11.35h0a56.71,56.71,0,0,0-56.71-56.7h-47.64V699.53l18.15-18.15h86.2l18.15,18.15V729Z"/></g><path class="cls-5" d="M1623.33,578.81,1600,602.14m0,0-23.33-23.33M1600,602.14v-56"/><rect class="cls-6" x="722.56" y="278.86" width="52.23" height="522.27" transform="translate(1497.35 1080) rotate(180)"/><rect class="cls-6" x="504.95" y="278.86" width="52.23" height="522.27"/><rect class="cls-7" x="452.72" y="278.86" width="52.23" height="522.27"/><rect class="cls-7" x="774.79" y="278.86" width="52.23" height="522.27" transform="translate(1601.81 1080) rotate(180)"/><rect class="cls-7" x="452.72" y="278.86" width="374.3" height="52.23"/><rect class="cls-7" x="452.72" y="748.91" width="374.3" height="52.23"/><rect class="cls-7" x="452.72" y="500.83" width="374.3" height="52.23"/><polyline class="cls-8" points="639.87 936.06 613.76 909.94 587.64 883.83 531.06 827.25 504.95 801.14 504.94 801.14 452.72 748.91 433.14 729.32 296.04 592.23 269.93 566.11 243.81 540"/><polyline class="cls-8" points="639.86 143.94 613.75 170.06 587.64 196.17 504.95 278.86 504.94 278.86 452.72 331.09 296.04 487.77 269.93 513.89 243.81 540"/><polyline class="cls-8" points="692.1 196.17 665.99 222.28 639.87 248.4 609.4 278.86 557.18 331.09 511.24 377.03 504.95 383.32 452.72 435.55 348.27 540 322.15 566.11 296.04 592.23"/><polyline class="cls-8" points="296.04 487.77 322.15 513.89 348.27 540 452.72 644.46 504.95 696.68 557.17 748.91 557.18 748.91 557.18 748.92 609.4 801.14 639.87 831.6 665.98 857.72 692.1 883.83"/><polyline class="cls-8" points="983.7 487.77 957.59 513.89 931.47 540 827.02 644.46 774.79 696.68 769.21 702.27 722.56 748.91 670.34 801.14 639.87 831.6 613.76 857.72 587.64 883.83"/><polyline class="cls-8" points="983.7 592.24 964.91 573.44 957.58 566.11 937.69 546.22 931.47 540 828.79 437.32 827.02 435.55 774.79 383.32 774.34 382.88 722.56 331.09 719.89 328.42 670.34 278.86 665.45 273.97 639.87 248.4 633.68 242.21 613.76 222.28 606.46 214.99 587.64 196.17"/><polyline class="cls-8" points="639.86 143.94 665.99 170.06 692.1 196.17 774.78 278.86 774.79 278.86 774.79 278.87 827.02 331.09 983.7 487.77 1009.81 513.89 1035.93 540"/><polyline class="cls-8" points="639.87 936.06 665.99 909.94 692.1 883.83 774.79 801.14 827.02 748.91 983.7 592.24 1009.82 566.11 1035.93 540"/><polyline class="cls-8" points="613.76 909.94 639.87 883.83 665.98 857.72 722.56 801.14 774.79 748.91 774.79 748.9 827.02 696.67 957.58 566.11 983.7 540 1009.81 513.89"/><polyline class="cls-8" points="665.99 909.94 639.87 883.83 613.76 857.72 557.18 801.14 557.17 801.14 504.95 748.91 452.72 696.68 322.15 566.11 296.04 540 269.93 513.89"/><polyline class="cls-8" points="613.75 170.06 639.87 196.17 665.99 222.28 722.56 278.86 722.56 278.86 722.56 278.87 774.79 331.09 827.02 383.32 957.59 513.89 983.7 540 1009.82 566.11"/><polyline class="cls-8" points="665.99 170.06 639.87 196.17 613.76 222.28 557.18 278.86 504.95 331.09 452.72 383.32 322.15 513.89 296.04 540 269.93 566.11"/><path class="cls-7" d="M578.94,553.06c108.16,0,195.85,87.68,195.85,195.85h0"/><path class="cls-7" d="M674.69,500.83A169.74,169.74,0,0,1,505,331.09h0"/><polyline class="cls-9" points="639.87 936.06 613.76 909.94 587.64 883.83 531.06 827.25 504.95 801.14 504.94 801.14 452.72 748.91 433.14 729.32 296.04 592.23 269.93 566.11 243.81 540"/><polyline class="cls-9" points="639.86 143.94 613.75 170.06 587.64 196.17 504.95 278.86 504.94 278.86 452.72 331.09 296.04 487.77 269.93 513.89 243.81 540"/><polyline class="cls-9" points="692.1 196.17 665.99 222.28 639.87 248.4 609.4 278.86 557.18 331.09 511.24 377.03 504.95 383.32 452.72 435.55 348.27 540 322.15 566.11 296.04 592.23"/><polyline class="cls-9" points="296.04 487.77 322.15 513.89 348.27 540 452.72 644.46 504.95 696.68 557.17 748.91 557.18 748.91 557.18 748.92 609.4 801.14 639.87 831.6 665.98 857.72 692.1 883.83"/><polyline class="cls-9" points="983.7 487.77 957.59 513.89 931.47 540 827.02 644.46 774.79 696.68 769.21 702.27 722.56 748.91 670.34 801.14 639.87 831.6 613.76 857.72 587.64 883.83"/><polyline class="cls-9" points="983.7 592.24 964.91 573.44 957.58 566.11 937.69 546.22 931.47 540 828.79 437.32 827.02 435.55 774.79 383.32 774.34 382.88 722.56 331.09 719.89 328.42 670.34 278.86 665.45 273.97 639.87 248.4 633.68 242.21 613.76 222.28 606.46 214.99 587.64 196.17"/><polyline class="cls-9" points="639.86 143.94 665.99 170.06 692.1 196.17 774.78 278.86 774.79 278.86 774.79 278.87 827.02 331.09 983.7 487.77 1009.81 513.89 1035.93 540"/><polyline class="cls-9" points="639.87 936.06 665.99 909.94 692.1 883.83 774.79 801.14 827.02 748.91 983.7 592.24 1009.82 566.11 1035.93 540"/><polyline class="cls-9" points="613.76 909.94 639.87 883.83 665.98 857.72 722.56 801.14 774.79 748.91 774.79 748.9 827.02 696.67 957.58 566.11 983.7 540 1009.81 513.89"/><polyline class="cls-9" points="665.99 909.94 639.87 883.83 613.76 857.72 557.18 801.14 557.17 801.14 504.95 748.91 452.72 696.68 322.15 566.11 296.04 540 269.93 513.89"/><polyline class="cls-9" points="613.75 170.06 639.87 196.17 665.99 222.28 722.56 278.86 722.56 278.86 722.56 278.87 774.79 331.09 827.02 383.32 957.59 513.89 983.7 540 1009.82 566.11"/><polyline class="cls-9" points="665.99 170.06 639.87 196.17 613.76 222.28 557.18 278.86 504.95 331.09 452.72 383.32 322.15 513.89 296.04 540 269.93 566.11"/><polyline class="cls-8" points="911.89 415.96 859.66 415.96 827.02 415.96 812.26 415.96 812.25 415.97 812.25 415.96 807.42 415.96 774.79 415.96 722.57 415.97 674.58 415.97 557.17 415.97 527.66 415.97 504.95 415.97 472.3 415.97 452.72 415.97 420.06 415.97 367.84 415.97"/><polyline class="cls-9" points="919.01 656.91 866.78 656.91 827.02 656.91 814.56 656.91 812.26 656.91 812.25 656.92 812.25 656.91 774.79 656.91 751.88 656.91 722.57 656.92 674.58 656.92 557.17 656.92 504.95 656.92 465.18 656.91 452.72 656.91 412.96 656.91 412.95 656.91 360.73 656.91"/><polyline class="cls-8" points="911.89 415.96 859.66 415.96 827.02 415.96 812.26 415.96 812.25 415.97 812.25 415.96 807.42 415.96 774.79 415.96 722.57 415.97 674.58 415.97 557.17 415.97 527.66 415.97 504.95 415.97 472.3 415.97 452.72 415.97 420.06 415.97 367.84 415.97"/><polyline class="cls-9" points="919.01 656.91 866.78 656.91 827.02 656.91 814.56 656.91 812.26 656.91 812.25 656.92 812.25 656.91 774.79 656.91 751.88 656.91 722.57 656.92 674.58 656.92 557.17 656.92 504.95 656.92 465.18 656.91 452.72 656.91 412.96 656.91 412.95 656.91 360.73 656.91"/><path class="cls-10" d="M1643.1,729V710.87l-11.34-11.34h-63.52l-11.34,11.34h0a47.64,47.64,0,0,0,47.64,47.64h56.71v86.2l-18.15,18.14h-86.2l-18.15-18.14V815.22h18.15v18.14l11.34,11.35h63.52l11.34-11.35h0a56.71,56.71,0,0,0-56.71-56.7h-47.64V699.53l18.15-18.15h86.2l18.15,18.15V729Z"/></svg>