<svg id="Layer_1" data-name="Layer 1" xmlns="http://www.w3.org/2000/svg" xmlns:xlink="http://www.w3.org/1999/xlink" viewBox="0 0 1920 1080"><defs><style>.cls-1,.cls-4,.cls-5,.cls-6{fill:none;}.cls-10,.cls-2{fill:#efefef;}.cls-3{fill:#ff7bac;}.cls-3,.cls-5,.cls-6{opacity:0.2;}.cls-4{stroke:#000;}.cls-4,.cls-5,.cls-6{stroke-miterlimit:10;}.cls-5,.cls-6{stroke:#ff7bac;}.cls-6{stroke-width:2px;}.cls-7{fill:#161617;}.cls-8{fill:#fff;}.cls-9{clip-path:url(#clip-path);}.cls-10{opacity:0.1;}</style><clipPath id="clip-path"><rect class="cls-1" x="1064.64" y="874.36" width="40.98" height="41.04"/></clipPath></defs><rect class="cls-2" x="-40.77" y="-40.55" width="2008.83" height="1161.1"/><rect class="cls-3" x="1032.12" y="211.07" width="45.55" height="455.53" transform="translate(2109.8 877.68) rotate(180)"/><rect class="cls-3" x="842.32" y="211.07" width="45.55" height="455.53"/><rect class="cls-4" x="796.77" y="211.07" width="45.55" height="455.53"/><rect class="cls-4" x="1077.68" y="211.07" width="45.55" height="455.53" transform="translate(2200.91 877.68) rotate(180)"/><rect class="cls-4" x="796.77" y="211.07" width="326.47" height="45.55"/><rect class="cls-4" x="796.77" y="621.05" width="326.47" height="45.55"/><rect class="cls-4" x="796.77" y="404.67" width="326.47" height="45.55"/><polyline class="cls-5" points="960 784.29 937.22 761.51 914.45 738.73 865.1 689.38 842.32 666.61 842.31 666.61 796.77 621.05 779.68 603.97 660.11 484.39 637.33 461.62 614.55 438.84"/><polyline class="cls-5" points="959.99 93.39 937.22 116.17 914.45 138.95 842.32 211.07 842.31 211.07 796.77 256.63 660.11 393.29 637.33 416.06 614.55 438.84"/><polyline class="cls-5" points="1005.55 138.95 982.78 161.72 960 184.5 933.43 211.07 887.87 256.63 847.81 296.69 842.32 302.18 796.77 347.73 705.66 438.84 682.88 461.62 660.11 484.39"/><polyline class="cls-5" points="660.11 393.29 682.88 416.06 705.66 438.84 796.77 529.95 842.32 575.5 887.87 621.05 887.87 621.05 887.87 621.06 933.42 666.61 960 693.18 982.77 715.96 1005.55 738.73"/><polyline class="cls-5" points="1259.89 393.29 1237.12 416.06 1214.34 438.84 1123.23 529.95 1077.68 575.5 1072.81 580.37 1032.13 621.05 986.57 666.61 960 693.18 937.22 715.96 914.45 738.73"/><polyline class="cls-5" points="1259.89 484.4 1243.5 468.01 1237.11 461.62 1219.76 444.26 1214.34 438.84 1124.78 349.28 1123.23 347.74 1077.68 302.19 1077.29 301.79 1032.13 256.63 1029.8 254.3 986.57 211.07 982.31 206.81 960 184.5 954.6 179.1 937.22 161.72 930.86 155.36 914.45 138.95"/><polyline class="cls-5" points="959.99 93.39 982.78 116.17 1005.55 138.95 1077.67 211.07 1077.68 211.07 1077.68 211.08 1123.23 256.63 1259.89 393.29 1282.66 416.06 1305.45 438.84"/><polyline class="cls-5" points="960 784.29 982.78 761.51 1005.55 738.73 1077.68 666.61 1123.23 621.05 1259.89 484.4 1282.67 461.62 1305.45 438.84"/><polyline class="cls-5" points="937.22 761.51 960 738.73 982.77 715.96 1032.13 666.61 1077.68 621.05 1077.68 621.05 1123.23 575.49 1237.11 461.62 1259.89 438.84 1282.66 416.06"/><polyline class="cls-5" points="982.78 761.51 960 738.73 937.22 715.96 887.87 666.61 887.87 666.61 842.32 621.05 796.77 575.5 682.88 461.62 660.11 438.84 637.33 416.06"/><polyline class="cls-5" points="937.22 116.17 960 138.95 982.78 161.72 1032.12 211.07 1032.13 211.07 1032.13 211.08 1077.68 256.63 1123.23 302.18 1237.12 416.06 1259.89 438.84 1282.67 461.62"/><polyline class="cls-5" points="982.78 116.17 960 138.95 937.22 161.72 887.87 211.07 842.32 256.63 796.77 302.18 682.88 416.06 660.11 438.84 637.33 461.62"/><path class="cls-4" d="M906.85,450.23a170.82,170.82,0,0,1,170.83,170.82h0"/><path class="cls-4" d="M990.37,404.67a148,148,0,0,1-148-148h0"/><polyline class="cls-6" points="960 784.29 937.22 761.51 914.45 738.73 865.1 689.38 842.32 666.61 842.31 666.61 796.77 621.05 779.68 603.97 660.11 484.39 637.33 461.62 614.55 438.84"/><polyline class="cls-6" points="959.99 93.39 937.22 116.17 914.45 138.95 842.32 211.07 842.31 211.07 796.77 256.63 660.11 393.29 637.33 416.06 614.55 438.84"/><polyline class="cls-6" points="1005.55 138.95 982.78 161.72 960 184.5 933.43 211.07 887.87 256.63 847.81 296.69 842.32 302.18 796.77 347.73 705.66 438.84 682.88 461.62 660.11 484.39"/><polyline class="cls-6" points="660.11 393.29 682.88 416.06 705.66 438.84 796.77 529.95 842.32 575.5 887.87 621.05 887.87 621.05 887.87 621.06 933.42 666.61 960 693.18 982.77 715.96 1005.55 738.73"/><polyline class="cls-6" points="1259.89 393.29 1237.12 416.06 1214.34 438.84 1123.23 529.95 1077.68 575.5 1072.81 580.37 1032.13 621.05 986.57 666.61 960 693.18 937.22 715.96 914.45 738.73"/><polyline class="cls-6" points="1259.89 484.4 1243.5 468.01 1237.11 461.62 1219.76 444.26 1214.34 438.84 1124.78 349.28 1123.23 347.74 1077.68 302.19 1077.29 301.79 1032.13 256.63 1029.8 254.3 986.57 211.07 982.31 206.81 960 184.5 954.6 179.1 937.22 161.72 930.86 155.36 914.45 138.95"/><polyline class="cls-6" points="959.99 93.39 982.78 116.17 1005.55 138.95 1077.67 211.07 1077.68 211.07 1077.68 211.08 1123.23 256.63 1259.89 393.29 1282.66 416.06 1305.45 438.84"/><polyline class="cls-6" points="960 784.29 982.78 761.51 1005.55 738.73 1077.68 666.61 1123.23 621.05 1259.89 484.4 1282.67 461.62 1305.45 438.84"/><polyline class="cls-6" points="937.22 761.51 960 738.73 982.77 715.96 1032.13 666.61 1077.68 621.05 1077.68 621.05 1123.23 575.49 1237.11 461.62 1259.89 438.84 1282.66 416.06"/><polyline class="cls-6" points="982.78 761.51 960 738.73 937.22 715.96 887.87 666.61 887.87 666.61 842.32 621.05 796.77 575.5 682.88 461.62 660.11 438.84 637.33 416.06"/><polyline class="cls-6" points="937.22 116.17 960 138.95 982.78 161.72 1032.12 211.07 1032.13 211.07 1032.13 211.08 1077.68 256.63 1123.23 302.18 1237.12 416.06 1259.89 438.84 1282.67 461.62"/><polyline class="cls-6" points="982.78 116.17 960 138.95 937.22 161.72 887.87 211.07 842.32 256.63 796.77 302.18 682.88 416.06 660.11 438.84 637.33 461.62"/><polyline class="cls-5" points="1197.26 330.65 1151.71 330.65 1123.23 330.65 1110.36 330.65 1110.36 330.66 1110.35 330.65 1106.14 330.65 1077.68 330.65 1032.13 330.66 990.27 330.66 887.87 330.66 862.13 330.66 842.32 330.66 813.84 330.66 796.76 330.66 768.28 330.66 722.73 330.66"/><polyline class="cls-6" points="1203.47 540.81 1157.91 540.81 1123.23 540.81 1112.36 540.81 1110.36 540.81 1110.36 540.82 1110.35 540.81 1077.68 540.81 1057.69 540.81 1032.13 540.82 990.27 540.82 887.87 540.82 842.32 540.82 807.63 540.81 796.76 540.81 762.08 540.81 762.08 540.81 716.53 540.81"/><polyline class="cls-5" points="1197.26 330.65 1151.71 330.65 1123.23 330.65 1110.36 330.65 1110.36 330.66 1110.35 330.65 1106.14 330.65 1077.68 330.65 1032.13 330.66 990.27 330.66 887.87 330.66 862.13 330.66 842.32 330.66 813.84 330.66 796.76 330.66 768.28 330.66 722.73 330.66"/><polyline class="cls-6" points="1203.47 540.81 1157.91 540.81 1123.23 540.81 1112.36 540.81 1110.36 540.81 1110.36 540.82 1110.35 540.81 1077.68 540.81 1057.69 540.81 1032.13 540.82 990.27 540.82 887.87 540.82 842.32 540.82 807.63 540.81 796.76 540.81 762.08 540.81 762.08 540.81 716.53 540.81"/><rect class="cls-7" x="736.09" y="834.68" width="447.83" height="120.35" rx="21.38"/><polyline class="cls-8" points="973.61 894.88 960.05 908.44 959.25 907.64 971.45 895.44 939.35 895.44 939.35 894.31 971.45 894.31 959.25 882.11 960.05 881.32"/><path class="cls-2" d="M843.2,880.46v-6.07l-3.8-3.8H818.15l-3.79,3.8h0a15.93,15.93,0,0,0,15.94,15.93h19v28.84l-6.07,6.07H814.36l-6.07-6.07v-9.87h6.07v6.07l3.79,3.8H839.4l3.8-3.8h0a19,19,0,0,0-19-19H808.29v-25.8l6.07-6.07H843.2l6.07,6.07v9.87Z"/><g class="cls-9"><path class="cls-2" d="M1099.55,880.46v-6.07l-3.8-3.8h-21.24l-3.8,3.8h0a15.94,15.94,0,0,0,15.94,15.93h19v28.84l-6.07,6.07h-28.84l-6.07-6.07v-9.87h6.07v6.07l3.8,3.8h21.24l3.8-3.8h0a19,19,0,0,0-19-19h-15.94v-25.8l6.07-6.07h28.84l6.07,6.07v9.87Z"/></g><path class="cls-10" d="M1099.55,880.46v-6.07l-3.8-3.8h-21.24l-3.8,3.8h0a15.94,15.94,0,0,0,15.94,15.93h19v28.84l-6.07,6.07h-28.84l-6.07-6.07v-9.87h6.07v6.07l3.8,3.8h21.24l3.8-3.8h0a19,19,0,0,0-19-19h-15.94v-25.8l6.07-6.07h28.84l6.07,6.07v9.87Z"/></svg>