<svg id="Layer_1" data-name="Layer 1" xmlns="http://www.w3.org/2000/svg" xmlns:xlink="http://www.w3.org/1999/xlink" viewBox="0 0 1920 1080"><defs><style>.cls-1,.cls-10,.cls-5,.cls-6,.cls-7,.cls-8,.cls-9{fill:none;}.cls-2{fill:#1d1830;}.cls-3{fill:#efefef;}.cls-4{clip-path:url(#clip-path);}.cls-10,.cls-5,.cls-6,.cls-7,.cls-8,.cls-9{stroke:#efefef;stroke-miterlimit:10;}.cls-5{opacity:0.1;}.cls-6{opacity:0.15;}.cls-7{opacity:0.2;}.cls-8{opacity:0.3;}.cls-9{opacity:0.4;}.cls-10{opacity:0.5;}</style><clipPath id="clip-path"><rect id="SVGID" class="cls-1" x="-56.47" y="-31.76" width="2032.94" height="1143.53"/></clipPath></defs><rect class="cls-2" x="-56.47" y="-31.76" width="2032.94" height="1143.53"/><path class="cls-3" d="M960,510.05a96.64,96.64,0,1,1,96.64-96.64A96.75,96.75,0,0,1,960,510.05Zm0-191.2a94.56,94.56,0,1,0,94.56,94.56A94.67,94.67,0,0,0,960,318.85Z"/><polygon class="cls-3" points="1002.57 370.58 1002.57 383.84 989.96 383.84 989.96 371.23 989.31 370.58 1002.57 370.58"/><rect class="cls-3" x="917.43" y="443.76" width="12.62" height="12.49"/><path class="cls-3" d="M1002.57,404.34v51.91H990A39.42,39.42,0,0,0,950.54,417H917.43V370.58h13.26l-.65.65a33.12,33.12,0,0,0,33.11,33.11Z"/><path class="cls-3" d="M1131.54,759.84h-39.41v-1.69h36.51C1129.57,758.74,1130.54,759.3,1131.54,759.84Z"/><path class="cls-3" d="M846.43,754.12v1h2.93v8h1.12v-8h2.93v-1Z"/><path class="cls-3" d="M861.56,754.12v3.93H856.9v-3.93h-1.13v9h1.13v-4.06h4.66v4.06h1.12v-9Z"/><path class="cls-3" d="M866.73,762.11v-3h3.86v-1h-3.86v-2.9h4.64v-1h-5.76v9h5.93v-1Z"/><path class="cls-3" d="M883.09,758.5a2,2,0,0,0,1.19-.73,2,2,0,0,0,.42-1.32,2.08,2.08,0,0,0-.78-1.71,3.6,3.6,0,0,0-2.22-.62h-3.2v9h3.29a3.9,3.9,0,0,0,2.44-.66,2.22,2.22,0,0,0,.84-1.83C885.07,759.47,884.41,758.76,883.09,758.5Zm-3.45-3.35h2.11a2.14,2.14,0,0,1,1.36.37,1.33,1.33,0,0,1,.46,1.07,1.3,1.3,0,0,1-.48,1.07,2.08,2.08,0,0,1-1.34.39h-2.11Zm3.74,6.59a2.82,2.82,0,0,1-1.59.39h-2.15V759h2.15a2.6,2.6,0,0,1,1.57.41,1.47,1.47,0,0,1,0,2.29Z"/><path class="cls-3" d="M892.26,759.47a2.51,2.51,0,0,0,1.38-1,2.55,2.55,0,0,0,.53-1.63,2.7,2.7,0,0,0-.37-1.45,2.52,2.52,0,0,0-1-1,3.37,3.37,0,0,0-1.58-.35h-3.45v9h1.11v-3.45h2.31l1.88,3.45h1.25Zm-1.19-.81h-2.24v-3.51h2.26a2.07,2.07,0,0,1,1.4.47,1.62,1.62,0,0,1,.53,1.27,1.55,1.55,0,0,1-.53,1.27A2,2,0,0,1,891.07,758.66Z"/><path class="cls-3" d="M896.76,754.12v9h1.12v-9Z"/><path class="cls-3" d="M907.47,756.27a3.88,3.88,0,0,0-1.58-1.58,4.81,4.81,0,0,0-2.42-.57h-2.68v9h2.68a5,5,0,0,0,2.42-.55,3.94,3.94,0,0,0,1.58-1.58,5.14,5.14,0,0,0,.54-2.37A5.08,5.08,0,0,0,907.47,756.27ZM906,761.18a3.3,3.3,0,0,1-2.51.93h-1.54v-7h1.54a3.29,3.29,0,0,1,2.51,1,3.49,3.49,0,0,1,.88,2.54A3.55,3.55,0,0,1,906,761.18Z"/><path class="cls-3" d="M914.67,758.27v1h2.71v.3A2.5,2.5,0,0,1,917,761a2.28,2.28,0,0,1-1,.89,3.15,3.15,0,0,1-1.47.33,3,3,0,0,1-1.63-.46,2.89,2.89,0,0,1-1.1-1.26,4.79,4.79,0,0,1,0-3.69,3,3,0,0,1,1.12-1.27,3,3,0,0,1,1.64-.44,2.78,2.78,0,0,1,1.73.53,2.53,2.53,0,0,1,1,1.45h1.1a3.5,3.5,0,0,0-1.27-2.2,3.85,3.85,0,0,0-2.5-.81,4.33,4.33,0,0,0-2.27.57,3.85,3.85,0,0,0-1.51,1.61,5.21,5.21,0,0,0-.53,2.41,5.13,5.13,0,0,0,.53,2.39,4.07,4.07,0,0,0,1.51,1.62,4.16,4.16,0,0,0,2.2.58,3.34,3.34,0,0,0,1.81-.46,3.08,3.08,0,0,0,1.12-1l.12,1.42h.93v-4.87Z"/><path class="cls-3" d="M922.53,762.11v-3h3.84v-1h-3.84v-2.9h4.62v-1h-5.76v9h5.93v-1Z"/><path class="cls-3" d="M933.74,754.12v1h2.93v8h1.12v-8h2.93v-1Z"/><path class="cls-3" d="M950.14,756.28a4.09,4.09,0,0,0-1.52-1.64,4.55,4.55,0,0,0-4.48,0,4,4,0,0,0-1.52,1.64,5,5,0,0,0-.56,2.36,4.89,4.89,0,0,0,.56,2.35,4,4,0,0,0,1.52,1.65,4.55,4.55,0,0,0,4.48,0,4.18,4.18,0,0,0,1.52-1.65,5,5,0,0,0,.54-2.35A5.06,5.06,0,0,0,950.14,756.28Zm-1,4.19a3.14,3.14,0,0,1-1.12,1.27,3,3,0,0,1-1.64.46,3,3,0,0,1-1.64-.46,3.14,3.14,0,0,1-1.12-1.27,4,4,0,0,1-.41-1.83,4.06,4.06,0,0,1,.41-1.85,3.15,3.15,0,0,1,1.12-1.25,2.89,2.89,0,0,1,1.64-.46,2.94,2.94,0,0,1,1.64.46,3.15,3.15,0,0,1,1.12,1.25,4.19,4.19,0,0,1,.39,1.85A4.1,4.1,0,0,1,949.14,760.47Z"/><path class="cls-3" d="M963.47,761.67a2.68,2.68,0,0,1-1.73.53,3,3,0,0,1-1.64-.46,2.79,2.79,0,0,1-1.08-1.26,4.56,4.56,0,0,1,0-3.69,3,3,0,0,1,1.08-1.27,3.1,3.1,0,0,1,1.64-.44,2.82,2.82,0,0,1,1.75.53,2.63,2.63,0,0,1,1,1.47h1.11a3.49,3.49,0,0,0-1.27-2.22,3.87,3.87,0,0,0-2.5-.81,4.28,4.28,0,0,0-2.27.57,3.67,3.67,0,0,0-1.51,1.61,5.21,5.21,0,0,0-.54,2.41A5.12,5.12,0,0,0,958,761a3.57,3.57,0,0,0,1.51,1.61,4.28,4.28,0,0,0,2.27.58,3.87,3.87,0,0,0,2.5-.81,3.65,3.65,0,0,0,1.26-2.22h-1.12A2.52,2.52,0,0,1,963.47,761.67Z"/><path class="cls-3" d="M975.74,756.28a4.11,4.11,0,0,0-1.53-1.64,4.53,4.53,0,0,0-4.47,0,4.09,4.09,0,0,0-1.52,1.64,4.84,4.84,0,0,0-.55,2.36,4.77,4.77,0,0,0,.55,2.35,4.18,4.18,0,0,0,1.52,1.65,4.53,4.53,0,0,0,4.47,0,4.2,4.2,0,0,0,1.53-1.65,5.12,5.12,0,0,0,.54-2.35A5.19,5.19,0,0,0,975.74,756.28Zm-1,4.19a3.22,3.22,0,0,1-1.12,1.27,3,3,0,0,1-1.64.46,3,3,0,0,1-1.65-.46,3.2,3.2,0,0,1-1.11-1.27,3.86,3.86,0,0,1-.41-1.83,3.94,3.94,0,0,1,.41-1.85,3.21,3.21,0,0,1,1.11-1.25,3,3,0,0,1,1.65-.46,2.91,2.91,0,0,1,1.64.46,3.23,3.23,0,0,1,1.12,1.25,4.06,4.06,0,0,1,.4,1.85A4,4,0,0,1,974.74,760.47Z"/><path class="cls-3" d="M986.65,754.12l-3.15,7.5-3.21-7.5h-1.42v9H980V756l3,7.11h1l3-7.11v7.11H988v-9Z"/><path class="cls-3" d="M998.74,754.12l-3.15,7.5-3.2-7.5H991v9h1.1V756l3,7.11h1l3-7.11v7.11h1.1v-9Z"/><path class="cls-3" d="M1008.77,754.12v5.25c0,1.88-.78,2.83-2.32,2.83s-2.32-1-2.32-2.83v-5.25H1003v5.18a4.33,4.33,0,0,0,.87,2.93,3.79,3.79,0,0,0,5.13,0,4.28,4.28,0,0,0,.9-2.93v-5.18Z"/><path class="cls-3" d="M1018.65,754.12v7l-4.85-7h-1v9h1.1v-7l4.84,7h1v-9Z"/><path class="cls-3" d="M1022.68,754.12v9h1.12v-9Z"/><path class="cls-3" d="M1032.37,761.67a2.7,2.7,0,0,1-1.73.53,3,3,0,0,1-1.64-.46,2.81,2.81,0,0,1-1.09-1.26,4.56,4.56,0,0,1,0-3.69,3,3,0,0,1,1.09-1.27,3,3,0,0,1,1.64-.44,2.84,2.84,0,0,1,1.75.53,2.62,2.62,0,0,1,1,1.47h1.12a3.49,3.49,0,0,0-1.27-2.22,3.9,3.9,0,0,0-2.51-.81,4.33,4.33,0,0,0-2.27.57,3.73,3.73,0,0,0-1.51,1.61,5.34,5.34,0,0,0-.54,2.41,5.24,5.24,0,0,0,.54,2.4,3.62,3.62,0,0,0,1.51,1.61,4.33,4.33,0,0,0,2.27.58,3.9,3.9,0,0,0,2.51-.81,3.64,3.64,0,0,0,1.25-2.22h-1.12A2.5,2.5,0,0,1,1032.37,761.67Z"/><path class="cls-3" d="M1040.75,754.12h-1.32l-3.45,9h1.17l.94-2.44H1042l1,2.44h1.2Zm-2.32,5.57,1.63-4.34,1.64,4.34Z"/><path class="cls-3" d="M1044.53,754.12v1h2.93v8h1.12v-8h2.93v-1Z"/><path class="cls-3" d="M1053.87,754.12v9H1055v-9Z"/><path class="cls-3" d="M1065.64,756.28a3.85,3.85,0,0,0-1.53-1.64,4.17,4.17,0,0,0-2.21-.59,4.23,4.23,0,0,0-2.24.59,3.91,3.91,0,0,0-1.53,1.64,5,5,0,0,0-.55,2.36,4.88,4.88,0,0,0,.55,2.35,4,4,0,0,0,1.53,1.65,4.23,4.23,0,0,0,2.24.59,4.17,4.17,0,0,0,2.21-.59,3.93,3.93,0,0,0,1.53-1.65,4.89,4.89,0,0,0,.56-2.35A5,5,0,0,0,1065.64,756.28Zm-1,4.19a3,3,0,0,1-1.1,1.27,3,3,0,0,1-4.41-1.27,4,4,0,0,1-.4-1.83,4.06,4.06,0,0,1,.4-1.85,3.06,3.06,0,0,1,1.11-1.25,3.19,3.19,0,0,1,3.3,0,3,3,0,0,1,1.1,1.25,4.06,4.06,0,0,1,.41,1.85A4,4,0,0,1,1064.64,760.47Z"/><path class="cls-3" d="M1074.67,754.12v7l-4.86-7h-1v9h1.08v-7l4.87,7h1v-9Z"/><rect class="cls-3" x="735.54" y="758.15" width="92.34" height="1.69"/><path class="cls-3" d="M841.55,598.25a20.4,20.4,0,0,0-3.39-6.17,27.89,27.89,0,0,0-5.48-5.13,71.8,71.8,0,0,0-7.47-4.56c-2.63-1.39-4.92-2.71-6.83-3.95a25.25,25.25,0,0,1-4.9-3.88,13.72,13.72,0,0,1-2.89-4.31,14,14,0,0,1-.92-5.24q0-6,3.51-9.5t9.81-3.46a11.2,11.2,0,0,1,7.21,2.29,16.3,16.3,0,0,1,4.76,7,21.3,21.3,0,0,1,1.48,4.61c.15,1.11.66,1.67,1.47,1.67s1.37-.83,1.37-2.47c0-7.4-.34-11.52-1-12.33s-2.37-1.6-5.11-2.53a28,28,0,0,0-9.18-1.42,22.26,22.26,0,0,0-8.46,1.54,18.38,18.38,0,0,0-6.47,4.39,19.63,19.63,0,0,0-4.2,6.77,24.59,24.59,0,0,0-1.49,8.76,22.16,22.16,0,0,0,1,7,15.39,15.39,0,0,0,3,5.32,25.9,25.9,0,0,0,5,4.3,69.44,69.44,0,0,0,6.84,4.08c2.7,1.47,5.07,2.88,7.1,4.2a25.68,25.68,0,0,1,5.12,4.32,16,16,0,0,1,3.13,5.22,20.68,20.68,0,0,1,1.05,7,18.14,18.14,0,0,1-1.1,6.47,15.39,15.39,0,0,1-3.08,5,14,14,0,0,1-4.71,3.27,16,16,0,0,1-14.6-1.31,14.27,14.27,0,0,1-5.37-6.89,16.88,16.88,0,0,1-1.1-4.2c-.17-1.33-.29-2.48-.38-3.51a13.87,13.87,0,0,0-.37-2.47c-.17-.61-.49-.93-1-.93-1.13,0-1.71,1.4-1.71,4.2,0,.89,0,2-.07,3.33s-.05,2.92-.05,4.81a19.69,19.69,0,0,0,.36,4.26,5.77,5.77,0,0,0,1.86,2.89,16.5,16.5,0,0,0,5.79,3,26.72,26.72,0,0,0,8.88,1.42,24.17,24.17,0,0,0,9.32-1.84,22.61,22.61,0,0,0,7.57-5.19,24.37,24.37,0,0,0,5.07-7.89,26.93,26.93,0,0,0,1.84-10.12A24,24,0,0,0,841.55,598.25Z"/><path class="cls-3" d="M900.06,626.39l-2.21-.51a5,5,0,0,1-2.21-1.22c-.67-.63-1-1.8-1-3.51V590.37c0-5.42-1.44-9.77-4.33-13.11a14.21,14.21,0,0,0-11.27-5,13.64,13.64,0,0,0-5.76,1.12,21.2,21.2,0,0,0-5,3.33,16.45,16.45,0,0,0-3.53,3.88c-.71,1.19-1.22,1.78-1.54,1.78s-.39-.46-.39-1.35v-34.9c0-1.81-.27-2.73-.83-2.73a5.18,5.18,0,0,0-2.25,1.19,19.21,19.21,0,0,1-4.79,2.27,23.72,23.72,0,0,1-3.46.86,1.52,1.52,0,0,0-1.47,1.61c0,.75.28,1.1.86,1.1a5.64,5.64,0,0,0,.93-.05,2.09,2.09,0,0,1,.41-.07c2.56,0,3.83,1.85,3.83,5.54v65.27c0,1.65-.32,2.77-1,3.39a5.33,5.33,0,0,1-2.21,1.29,20.62,20.62,0,0,1-2.22.56,1.08,1.08,0,0,0-1,1.17c0,.64.17,1,.49,1.12a9.5,9.5,0,0,0,1.6.11,25.08,25.08,0,0,0,3.27-.25,37.94,37.94,0,0,1,4.44-.24,46.63,46.63,0,0,1,5.13.24,24.82,24.82,0,0,0,2.83.25,4,4,0,0,0,1.42-.18c.29-.12.42-.48.42-1.05a1,1,0,0,0-1-1.15q-1-.21-2.22-.51a5.14,5.14,0,0,1-2.22-1.22c-.66-.63-1-1.8-1-3.51V598.64q0-10.6,3.05-16c2-3.61,5.39-5.43,10.1-5.43q6.7,0,9.3,4.8c1.73,3.2,2.59,8,2.59,14.4v24.73c0,1.63-.34,2.76-1,3.37a5.89,5.89,0,0,1-2.22,1.29,21,21,0,0,1-2.22.58,1.06,1.06,0,0,0-1,1.15c0,.64.17,1,.49,1.12a9.37,9.37,0,0,0,1.61.11,25.21,25.21,0,0,0,3.27-.25,38.22,38.22,0,0,1,4.49-.24,47,47,0,0,1,5.18.24,25.07,25.07,0,0,0,2.85.25,3.89,3.89,0,0,0,1.4-.18c.29-.12.43-.48.43-1.05A1,1,0,0,0,900.06,626.39Z"/><path class="cls-3" d="M947.06,622.1c-.49,0-1.14.47-1.92,1.37a3.3,3.3,0,0,1-2.52,1.36c-2.22,0-3.32-2.56-3.32-7.66V586.22c0-2.13-.1-4.08-.26-5.79a10.5,10.5,0,0,0-1.35-4.44,7.14,7.14,0,0,0-3.34-2.85,15.47,15.47,0,0,0-6.05-1,21,21,0,0,0-8.87,1.86,26.07,26.07,0,0,0-7,4.56,21.92,21.92,0,0,0-4.56,5.66,11.12,11.12,0,0,0-1.59,5.2,1.92,1.92,0,0,0,.61,1.52,2,2,0,0,0,1.47.56,4.9,4.9,0,0,0,4.81-2.66,52.36,52.36,0,0,0,2.73-6.47,11.63,11.63,0,0,1,3.93-5.3,9.71,9.71,0,0,1,6.05-2.22c2.54,0,4.22.83,5,2.46s1.16,4.37,1.16,8.14v10.86q-6.3,3.58-11.09,6.66a67.66,67.66,0,0,0-8.08,6,21.86,21.86,0,0,0-4.88,5.91,13.74,13.74,0,0,0-1.61,6.49,10,10,0,0,0,2.47,7.1,9,9,0,0,0,6.91,2.64,13.83,13.83,0,0,0,7.59-2.34,83.79,83.79,0,0,0,8.32-6.3h.49a21.44,21.44,0,0,0,2.41,6.24,4.27,4.27,0,0,0,3.76,1.91,6.81,6.81,0,0,0,2.9-.81,14.87,14.87,0,0,0,3.15-2,17.63,17.63,0,0,0,2.52-2.52,3.75,3.75,0,0,0,1-2.27A.77.77,0,0,0,947.06,622.1Zm-14.93-9.49a12.85,12.85,0,0,1-1.1,5.49,12.87,12.87,0,0,1-6.72,6.59,9.73,9.73,0,0,1-3.88.88,6,6,0,0,1-4.81-2.05,8.11,8.11,0,0,1-1.75-5.47q0-8.16,12.61-15.43l3.69-2.09a3,3,0,0,1,1.22-.49c.49,0,.74.41.74,1.22Z"/><path class="cls-3" d="M982.94,573.94a6.66,6.66,0,0,0-4.81-1.66q-5.77,0-11,7.05l-2.24,3.2c-.32.4-.61.61-.85.61s-.49-.29-.49-.87v-7c0-.91,0-1.61-.07-2.15s-.25-.81-.66-.81-1.22.64-2.17,1.91a19.62,19.62,0,0,1-4.26,3.86,15.76,15.76,0,0,1-2.9,1.66c-.87.38-1.29.89-1.29,1.53s.26.86.75.86a10.5,10.5,0,0,1,1.66.14,3.15,3.15,0,0,1,1.72.85,4,4,0,0,1,.8,2.94v32.55a18.7,18.7,0,0,1-.44,4.72,3.06,3.06,0,0,1-2,2.15,10.39,10.39,0,0,1-3.09.73c-.57,0-.84.43-.84,1.24,0,.57.13.91.42,1.05a3.94,3.94,0,0,0,1.41.19,28.18,28.18,0,0,0,3.5-.26,36.28,36.28,0,0,1,4.46-.24,61.55,61.55,0,0,1,6.54.31,43.14,43.14,0,0,0,4.39.3c1.3,0,2-.45,2-1.35,0-.56-.13-.92-.42-1a4.83,4.83,0,0,0-1.31-.26c-.57,0-1.27-.1-2.1-.19a10.07,10.07,0,0,1-2.83-.74,3.76,3.76,0,0,1-2.35-2.07,15.07,15.07,0,0,1-.49-4.55V598.33a45.47,45.47,0,0,1,.74-8.82,23.91,23.91,0,0,1,2-6.09,10.27,10.27,0,0,1,2.65-3.49,4.54,4.54,0,0,1,2.77-1.1,4,4,0,0,1,2.46.73,14.35,14.35,0,0,1,1.92,1.68c.62.59,1.25,1.15,1.86,1.64a3.23,3.23,0,0,0,2.15.76,3.74,3.74,0,0,0,2.9-1.55,6.06,6.06,0,0,0,1.28-4A5.45,5.45,0,0,0,982.94,573.94Z"/><path class="cls-3" d="M1028.46,581.78a2.29,2.29,0,0,0,1.49-.37,2,2,0,0,0,.35-1.36,4.71,4.71,0,0,0-.49-2.64,2.13,2.13,0,0,0-1.85-.68,5.46,5.46,0,0,0-1,0,3,3,0,0,1-.61.05l-3,.26-.54.07a6.53,6.53,0,0,1-1.05.06,8.79,8.79,0,0,1-3.46-.74c-1.15-.49-2.37-1.05-3.69-1.66a41.77,41.77,0,0,0-4.32-1.73,16.29,16.29,0,0,0-5.3-.81,17.45,17.45,0,0,0-7.36,1.56,17.2,17.2,0,0,0-5.79,4.18,19.55,19.55,0,0,0-3.74,6.22,21.56,21.56,0,0,0-1.37,7.77,18.25,18.25,0,0,0,1.67,8.2,23.28,23.28,0,0,0,3.7,5.63,19.46,19.46,0,0,0,3.76,3.32c1.15.74,1.72,1.23,1.72,1.49s-.37.64-1.1,1l-7.4,3.83c-1.81.9-2.71,1.59-2.71,2.08a3.37,3.37,0,0,0,.36,1.05,6,6,0,0,0,1.37,1.78l4.55,5.3a6,6,0,0,1,1.11,1.61c0,.6-.6,1.29-1.78,2.1a40.09,40.09,0,0,0-3.88,3.09,26.54,26.54,0,0,0-3.9,4.25,9.32,9.32,0,0,0-1.79,5.74,11.36,11.36,0,0,0,5.31,9.74,22.26,22.26,0,0,0,10.39,3.44c-.41-1.24-.83-2.57-1.22-4a12.62,12.62,0,0,1-3.39-2.31,12.49,12.49,0,0,1-3.93-9.26,11.68,11.68,0,0,1,1.61-5.73,13.69,13.69,0,0,1,3.69-4.49,10.46,10.46,0,0,1,4.44-1.61,45.38,45.38,0,0,1,8.13-.61q7.65,0,11.54,3a9.71,9.71,0,0,1,3.66,6,3.44,3.44,0,0,0,.49,1.25c1.32,2,2.61,4.37,3.86,6.37,0,0,0,0,0,0a16.58,16.58,0,0,0,2.63-8.54q.33-15.3-20.82-15.28c-1.41,0-2.71,0-4,.12s-2.42.13-3.56.13c-2.38,0-4.15-.49-5.25-1.49s-1.66-1.8-1.66-2.47c0-.9.83-1.88,2.53-2.95s4.71-1.81,9.06-2.22q8.5-.74,13.38-5.93t4.88-13.55a21.6,21.6,0,0,0-.63-5.37,23.24,23.24,0,0,0-2-5.24l5.93.24Zm-14.69,22.6a9.36,9.36,0,0,1-8.12,4.66,9.58,9.58,0,0,1-8.21-4.59c-2.1-3.09-3.15-7.25-3.15-12.56s1.06-9.62,3.22-12.73,4.84-4.65,8.14-4.65a9.35,9.35,0,0,1,8.12,4.65q3.09,4.67,3.1,12.73C1016.87,597.11,1015.83,601.26,1013.77,604.38Z"/><path class="cls-3" d="M1075.08,622.1c-.5,0-1.14.47-1.92,1.37a3.31,3.31,0,0,1-2.52,1.36c-2.22,0-3.32-2.56-3.32-7.66V586.22c0-2.13-.11-4.08-.26-5.79a10.64,10.64,0,0,0-1.35-4.44,7.24,7.24,0,0,0-3.34-2.85,15.47,15.47,0,0,0-6-1,21,21,0,0,0-8.87,1.86,26.38,26.38,0,0,0-7,4.56,21.92,21.92,0,0,0-4.56,5.66,11.3,11.3,0,0,0-1.61,5.2,1.93,1.93,0,0,0,.63,1.52,2,2,0,0,0,1.47.56,4.92,4.92,0,0,0,4.81-2.66,51.05,51.05,0,0,0,2.71-6.47,11.67,11.67,0,0,1,4-5.3,9.65,9.65,0,0,1,6-2.22c2.54,0,4.21.83,5,2.46s1.17,4.37,1.17,8.14v10.86c-4.2,2.39-7.89,4.61-11.11,6.66a68.12,68.12,0,0,0-8.06,6,21.32,21.32,0,0,0-4.88,5.91,13.73,13.73,0,0,0-1.6,6.49,10,10,0,0,0,2.46,7.1,9,9,0,0,0,6.91,2.64,13.76,13.76,0,0,0,7.57-2.34,82.63,82.63,0,0,0,8.34-6.3h.49a20.89,20.89,0,0,0,2.41,6.24,4.26,4.26,0,0,0,3.76,1.91,6.81,6.81,0,0,0,2.89-.81,14.62,14.62,0,0,0,3.15-2,17.73,17.73,0,0,0,2.53-2.52,3.87,3.87,0,0,0,1-2.27A.77.77,0,0,0,1075.08,622.1Zm-14.93-9.49a12.86,12.86,0,0,1-1.12,5.49,12.73,12.73,0,0,1-2.89,4.08,12.88,12.88,0,0,1-3.82,2.51,9.74,9.74,0,0,1-3.89.88,6,6,0,0,1-4.81-2.05,8.21,8.21,0,0,1-1.73-5.47q0-8.16,12.59-15.43l3.71-2.09a2.9,2.9,0,0,1,1.22-.49c.5,0,.74.41.74,1.22Z"/><path class="cls-3" d="M1128.23,626.39q-1-.21-2.22-.51a5.17,5.17,0,0,1-2.23-1.22c-.65-.63-1-1.8-1-3.51V591c0-5.76-1.39-10.3-4.17-13.67a13.66,13.66,0,0,0-11.08-5.05,13.16,13.16,0,0,0-5.45,1.12,18,18,0,0,0-5,3.33,17.37,17.37,0,0,0-3.37,3.88c-.71,1.19-1.22,1.78-1.54,1.78s-.49-.46-.49-1.35v-5.8c0-.91,0-1.61-.07-2.15s-.27-.81-.67-.81-1.12.64-2.11,1.91a21.1,21.1,0,0,1-4.65,4.14,10.71,10.71,0,0,1-2.66,1.4,1.58,1.58,0,0,0-1.29,1.54.81.81,0,0,0,.74.87c.5.08,1,.15,1.65.23a4.07,4.07,0,0,1,1.74.68c.54.37.8,1.17.8,2.39v35.71a4.61,4.61,0,0,1-1,3.37,5.53,5.53,0,0,1-2.22,1.29c-.83.25-1.56.44-2.24.58a1.05,1.05,0,0,0-1,1.15c0,.57.15.93.44,1.05a4,4,0,0,0,1.42.18,29,29,0,0,0,3.69-.25,37.27,37.27,0,0,1,4.26-.24,46,46,0,0,1,5.11.24,24.89,24.89,0,0,0,2.85.25,3.85,3.85,0,0,0,1.4-.18c.31-.12.45-.48.45-1.05a1.06,1.06,0,0,0-1-1.15q-1-.21-2.22-.51a5.17,5.17,0,0,1-2.23-1.22c-.65-.63-1-1.8-1-3.51V598.64q0-10.73,3-16.08t9.67-5.34q6.45,0,8.93,4.8c1.64,3.2,2.47,8,2.47,14.4v24.73a4.61,4.61,0,0,1-1,3.37,5.4,5.4,0,0,1-2.22,1.29c-.83.25-1.56.44-2.22.58a1,1,0,0,0-1,1.15c0,.64.15,1,.49,1.12a9.1,9.1,0,0,0,1.59.11,24.44,24.44,0,0,0,3.25-.25,38.56,38.56,0,0,1,4.46-.24,46.63,46.63,0,0,1,5.13.24,24.46,24.46,0,0,0,2.83.25,4,4,0,0,0,1.41-.18c.3-.12.44-.48.44-1.05A1.06,1.06,0,0,0,1128.23,626.39Z"/><path class="cls-3" d="M787.34,705.89c-.66,0-1.08.52-1.28,1.55a33.81,33.81,0,0,1-1.31,4.24q-2.46,6.92-6.16,10.37A13.58,13.58,0,0,1,769,725.5a16.78,16.78,0,0,1-9.24-2.78,25.53,25.53,0,0,1-7.59-7.77A40.81,40.81,0,0,1,747,703.06a58.3,58.3,0,0,1-1.85-15.18A62.4,62.4,0,0,1,747,672a39.45,39.45,0,0,1,5-11.84,24.56,24.56,0,0,1,7.47-7.4,17.34,17.34,0,0,1,9.2-2.58q9.48,0,14.43,9.13a17.22,17.22,0,0,1,2,4.81c.23,1.31.77,2,1.59,2s1.12-.54,1.12-1.61a81.76,81.76,0,0,0-.38-9c-.25-2.23-.57-3.57-1-4.06a8,8,0,0,0-2.15-1.42,20.75,20.75,0,0,0-3.81-1.49q-2.31-.66-5-1.17a33.56,33.56,0,0,0-5.88-.49,29.45,29.45,0,0,0-13.31,3.08,33.8,33.8,0,0,0-10.79,8.57,41,41,0,0,0-7.27,13,48.8,48.8,0,0,0-2.66,16.4A51.9,51.9,0,0,0,738,704.29a40.22,40.22,0,0,0,6.92,13.06A31.57,31.57,0,0,0,755.39,726a28.23,28.23,0,0,0,13.08,3.09,31,31,0,0,0,6.78-.68,30.31,30.31,0,0,0,5.56-1.73,21.08,21.08,0,0,0,4.18-2.29,9.51,9.51,0,0,0,2.47-2.33c.51-.75.8-2.24.92-4.51s.18-5.44.18-9.55C788.56,706.6,788.16,705.89,787.34,705.89Z"/><path class="cls-3" d="M844.25,687.52a26.67,26.67,0,0,0-4.8-9.26,21.36,21.36,0,0,0-7.77-5.92,25,25,0,0,0-10.42-2.1,22.13,22.13,0,0,0-9.62,2.1,23,23,0,0,0-7.71,5.92,26.91,26.91,0,0,0-5,9.26,38.16,38.16,0,0,0-1.81,12.08,39.35,39.35,0,0,0,1.74,12,28.92,28.92,0,0,0,4.81,9.32,22.42,22.42,0,0,0,7.39,6,21.18,21.18,0,0,0,9.62,2.15,25.76,25.76,0,0,0,10.61-2.1,22.19,22.19,0,0,0,8-6,27,27,0,0,0,5-9.37,43.72,43.72,0,0,0,0-24.11Zm-10.66,32.73a14.06,14.06,0,0,1-12.33,6.61,12.07,12.07,0,0,1-6.59-1.92,16.43,16.43,0,0,1-5.25-5.57A29.91,29.91,0,0,1,806,710.6a50.76,50.76,0,0,1-1.23-11.68q0-13,4.5-19.71a14,14,0,0,1,12.27-6.75c5,0,9,2.48,12,7.42s4.51,12,4.51,21C838,709.39,836.54,715.85,833.59,720.25Z"/><path class="cls-3" d="M901.05,724.33c-.66-.11-1.39-.28-2.22-.49a4.86,4.86,0,0,1-2.22-1.23c-.64-.61-1-1.78-1-3.51V689q0-8.6-4.19-13.66a13.62,13.62,0,0,0-11.06-5,13.45,13.45,0,0,0-5.47,1.12,18.5,18.5,0,0,0-5,3.34,16.49,16.49,0,0,0-3.41,3.88c-.69,1.18-1.2,1.78-1.52,1.78s-.5-.44-.5-1.36v-5.79c0-.9,0-1.63-.06-2.17s-.26-.8-.68-.8-1.1.65-2.08,1.92a21.29,21.29,0,0,1-4.68,4.11,9.66,9.66,0,0,1-2.66,1.43c-.85.29-1.29.79-1.29,1.52a.82.82,0,0,0,.75.88l1.66.24a3.79,3.79,0,0,1,1.73.68,2.83,2.83,0,0,1,.81,2.39V719.1a4.59,4.59,0,0,1-1,3.39,5.5,5.5,0,0,1-2.22,1.29,18.76,18.76,0,0,1-2.22.55,1.08,1.08,0,0,0-1,1.17c0,.58.13.93.42,1a4.11,4.11,0,0,0,1.43.19,28.71,28.71,0,0,0,3.69-.25,35.17,35.17,0,0,1,4.27-.24,43.88,43.88,0,0,1,5.11.24,25,25,0,0,0,2.83.25,3.93,3.93,0,0,0,1.42-.19c.28-.12.43-.47.43-1a1.08,1.08,0,0,0-1-1.17c-.66-.11-1.39-.28-2.22-.49a4.86,4.86,0,0,1-2.22-1.23c-.66-.61-1-1.78-1-3.51V696.59c0-7.14,1-12.47,3-16.06s5.22-5.34,9.69-5.34c4.29,0,7.25,1.59,8.91,4.79s2.49,8,2.49,14.39V719.1a4.68,4.68,0,0,1-1,3.39,5.7,5.7,0,0,1-2.24,1.29,17.43,17.43,0,0,1-2.22.55,1.08,1.08,0,0,0-1,1.17c0,.66.15,1,.49,1.1a6.8,6.8,0,0,0,1.61.14,24.93,24.93,0,0,0,3.25-.25,36.22,36.22,0,0,1,4.46-.24,44,44,0,0,1,5.12.24,24.88,24.88,0,0,0,2.82.25,4,4,0,0,0,1.43-.19c.28-.12.44-.47.44-1A1.1,1.1,0,0,0,901.05,724.33Z"/><path class="cls-3" d="M938.49,703.92a13.66,13.66,0,0,0-2.9-4.39,21.1,21.1,0,0,0-4.44-3.3c-1.74-1-3.66-2-5.81-3.1a29.53,29.53,0,0,1-7.39-4.85,8.87,8.87,0,0,1-2.47-6.7A9,9,0,0,1,918,675a8.14,8.14,0,0,1,6-2.53,9.68,9.68,0,0,1,4.91,1.36,11,11,0,0,1,4,4.08,11.91,11.91,0,0,1,1.73,4.25c.06,1,.49,1.54,1.22,1.54s1.11-.83,1.11-2.47v-5.05a10.87,10.87,0,0,0-.23-2.28A3.56,3.56,0,0,0,935.4,672a7.56,7.56,0,0,0-3.2-1.31,31,31,0,0,0-6-.46q-8,0-12.45,4.46a15.47,15.47,0,0,0-4.44,11.45,12,12,0,0,0,3.27,8.78,36,36,0,0,0,10,6.52,28.11,28.11,0,0,1,8.27,5.37c1.81,1.84,2.71,4.42,2.71,7.71a12.56,12.56,0,0,1-3.14,8.92,10.82,10.82,0,0,1-8.33,3.41q-4.57,0-6.73-2.29a16.24,16.24,0,0,1-3.39-6.72q-1.11-4.32-1.42-6.22c-.2-1.29-.68-1.91-1.42-1.91-.9,0-1.34.69-1.34,2.1,0,2.87-.05,5.2-.13,7s-.12,3-.12,3.64a3.53,3.53,0,0,0,1.23,2.64,11.6,11.6,0,0,0,3.15,2.1,18.56,18.56,0,0,0,4.32,1.43,24.68,24.68,0,0,0,4.87.49c5.84,0,10.35-1.7,13.55-5.05s4.81-8,4.81-13.79A16.78,16.78,0,0,0,938.49,703.92Z"/><path class="cls-3" d="M994.66,721.56a13.5,13.5,0,0,1-1.68-.12,2.62,2.62,0,0,1-1.64-1c-.51-.59-.76-1.72-.76-3.47V676.41a14.15,14.15,0,0,0-.22-3.27c-.17-.44-.7-.68-1.6-.68-.4,0-1.08,0-2,.14s-2.15.1-3.52.1a29.61,29.61,0,0,1-3-.1,13.12,13.12,0,0,0-1.6-.14,1.87,1.87,0,0,0-.93.19c-.2.13-.3.47-.3,1.05a1,1,0,0,0,1,1.1,14.63,14.63,0,0,1,2.22.51,5.11,5.11,0,0,1,2.22,1.35,4.8,4.8,0,0,1,1,3.44v22.45c0,7.17-1,12.52-3,16.09s-5.2,5.39-9.69,5.39c-4.29,0-7.27-1.61-8.91-4.81s-2.49-8-2.49-14.43V676.41a10.25,10.25,0,0,0-.31-3.32c-.2-.41-.73-.63-1.61-.63a13.64,13.64,0,0,0-2,.14,21.49,21.49,0,0,1-2.37.1c-1.73,0-3.05,0-4-.1s-1.5-.14-1.66-.14a1.85,1.85,0,0,0-.93.19c-.2.13-.32.47-.32,1.05a1,1,0,0,0,1,1.1,14.63,14.63,0,0,1,2.22.51,5.23,5.23,0,0,1,2.22,1.35,4.89,4.89,0,0,1,1,3.44v26.65a74.69,74.69,0,0,0,.37,7.52,19.65,19.65,0,0,0,2.09,6.91,13.2,13.2,0,0,0,5.1,5.8,14.12,14.12,0,0,0,7.57,2.1,13.1,13.1,0,0,0,5.59-1.17,20.39,20.39,0,0,0,5-3.39,15,15,0,0,0,3.46-3.9c.64-1.18,1.15-1.77,1.47-1.77s.37.49.37,1.47v5.79a9.88,9.88,0,0,0,.19,2.15.88.88,0,0,0,.91.82,3.86,3.86,0,0,0,2.34-1.17A21.44,21.44,0,0,1,991,725.5a34.06,34.06,0,0,1,3.2-1.54c.9-.37,1.35-.9,1.35-1.54A.75.75,0,0,0,994.66,721.56Z"/><path class="cls-3" d="M1020.68,724.33c-.66-.11-1.39-.28-2.22-.49a4.81,4.81,0,0,1-2.22-1.23c-.66-.61-1-1.78-1-3.51v-75c0-1.8-.29-2.71-.86-2.71a5.13,5.13,0,0,0-2.22,1.18,19.86,19.86,0,0,1-4.82,2.27,24.83,24.83,0,0,1-3.45.87,1.51,1.51,0,0,0-1.47,1.59c0,.75.27,1.12.84,1.12s.73,0,.93,0a2.78,2.78,0,0,1,.44-.09c2.55,0,3.83,1.87,3.83,5.56V719.1a4.31,4.31,0,0,1-1.12,3.39,6.51,6.51,0,0,1-2.47,1.29,21.1,21.1,0,0,1-2.45.55c-.75.12-1.12.53-1.12,1.17s.15.93.49,1a5.1,5.1,0,0,0,1.61.19,31.55,31.55,0,0,0,3.62-.25,43.91,43.91,0,0,1,4.83-.24,42.77,42.77,0,0,1,5,.24,24.66,24.66,0,0,0,3,.25,4,4,0,0,0,1.42-.19c.29-.12.44-.47.44-1A1.1,1.1,0,0,0,1020.68,724.33Z"/><path class="cls-3" d="M1053.61,719.57c-.25,0-.61.26-1.1.75a17.23,17.23,0,0,1-1.79,1.54,17.57,17.57,0,0,1-2.41,1.54,6.14,6.14,0,0,1-3,.75c-3.94,0-5.93-3.12-5.93-9.39v-36a2.86,2.86,0,0,1,.32-1.65c.2-.29.68-.45,1.42-.45h9.25a1.41,1.41,0,0,0,1.29-.49,3.22,3.22,0,0,0,.32-1.61v-.49a2.38,2.38,0,0,0-.25-1.29c-.17-.2-.63-.32-1.36-.32h-9.13c-.75,0-1.22-.13-1.42-.42a3.07,3.07,0,0,1-.31-1.66V662.1c0-1-.17-1.48-.49-1.48-.58,0-1.17.78-1.8,2.36a21,21,0,0,1-3.64,5.54,28.27,28.27,0,0,1-4.62,4.62c-1.27,1-1.9,1.76-1.9,2.41s.61,1.11,1.85,1.11h1.84c.75,0,1.21.16,1.41.45a3,3,0,0,1,.32,1.65l-.37,29.48V714c0,4.93.88,8.68,2.66,11.22a8.52,8.52,0,0,0,7.45,3.83,9.71,9.71,0,0,0,4.51-1.12,20,20,0,0,0,3.83-2.52,13.44,13.44,0,0,0,2.57-2.83,4.54,4.54,0,0,0,.93-2.05C1054.1,719.91,1053.93,719.57,1053.61,719.57Z"/><path class="cls-3" d="M1071.13,650.88A3.86,3.86,0,0,0,1068,649a3.68,3.68,0,0,0-3,1.85,7.26,7.26,0,0,0-1.3,4.32,6.62,6.62,0,0,0,1.3,4.18,3.65,3.65,0,0,0,3,1.73,3.79,3.79,0,0,0,3.15-1.78,6.86,6.86,0,0,0,1.3-4.13A7.16,7.16,0,0,0,1071.13,650.88Zm6.33,73.44c-.69-.12-1.47-.27-2.32-.49a5.2,5.2,0,0,1-2.35-1.24c-.7-.63-1-1.8-1-3.52V673a8.36,8.36,0,0,0-.12-1.71.65.65,0,0,0-.73-.5c-.47,0-1.29.54-2.42,1.6a27.34,27.34,0,0,1-5.12,3.56,9.4,9.4,0,0,1-3,1.85,1.8,1.8,0,0,0-1.43,1.73c0,.57.21.93.61,1a5.14,5.14,0,0,0,1.61.2q3.81,0,3.81,4.54V719.1a4.36,4.36,0,0,1-1.16,3.46,6.08,6.08,0,0,1-2.53,1.28c-.91.21-1.74.38-2.52.49s-1.17.53-1.17,1.17.17.93.56,1a5,5,0,0,0,1.52.19,31.05,31.05,0,0,0,3.53-.25,45.11,45.11,0,0,1,4.94-.24,53.32,53.32,0,0,1,5.66.24c1.44.17,2.41.25,2.9.25a5.22,5.22,0,0,0,1.42-.14c.29-.06.44-.44.44-1.1A1.12,1.12,0,0,0,1077.46,724.32Z"/><path class="cls-3" d="M1132.42,724.33c-.66-.11-1.41-.28-2.22-.49a5,5,0,0,1-2.22-1.23c-.66-.61-1-1.78-1-3.51V689c0-5.73-1.41-10.29-4.19-13.66a13.63,13.63,0,0,0-11.06-5,13.38,13.38,0,0,0-5.47,1.12,18.74,18.74,0,0,0-5,3.34,17.31,17.31,0,0,0-3.39,3.88c-.69,1.18-1.2,1.78-1.54,1.78s-.48-.44-.48-1.36v-5.79c0-.9,0-1.63-.06-2.17s-.27-.8-.66-.8-1.12.65-2.1,1.92a21.53,21.53,0,0,1-4.68,4.11,10,10,0,0,1-2.64,1.43c-.88.29-1.31.79-1.31,1.52a.8.8,0,0,0,.73.88l1.68.24a3.79,3.79,0,0,1,1.73.68,2.83,2.83,0,0,1,.79,2.39V719.1a4.59,4.59,0,0,1-1,3.39,5.63,5.63,0,0,1-2.22,1.29,17.43,17.43,0,0,1-2.22.55,1.1,1.1,0,0,0-1,1.17c0,.58.16.93.44,1a4,4,0,0,0,1.43.19,29.07,29.07,0,0,0,3.69-.25,35.07,35.07,0,0,1,4.25-.24,44,44,0,0,1,5.12.24,25.13,25.13,0,0,0,2.84.25,4.07,4.07,0,0,0,1.43-.19q.42-.18.42-1a1.08,1.08,0,0,0-1-1.17c-.66-.11-1.41-.28-2.22-.49a4.81,4.81,0,0,1-2.22-1.23c-.66-.61-1-1.78-1-3.51V696.59c0-7.14,1-12.47,3-16.06s5.22-5.34,9.67-5.34c4.29,0,7.29,1.59,8.93,4.79s2.47,8,2.47,14.39V719.1a4.59,4.59,0,0,1-1,3.39,5.56,5.56,0,0,1-2.22,1.29,17.43,17.43,0,0,1-2.22.55,1.1,1.1,0,0,0-1,1.17c0,.66.19,1,.5,1.1a6.76,6.76,0,0,0,1.6.14,25.21,25.21,0,0,0,3.27-.25,36,36,0,0,1,4.44-.24,44,44,0,0,1,5.12.24,25.13,25.13,0,0,0,2.84.25,4.07,4.07,0,0,0,1.43-.19c.29-.12.42-.47.42-1A1.08,1.08,0,0,0,1132.42,724.33Z"/><path class="cls-3" d="M1182.61,679.75a2.18,2.18,0,0,0,1.48-.38,1.9,1.9,0,0,0,.37-1.37,4.83,4.83,0,0,0-.49-2.64,2.1,2.1,0,0,0-1.85-.66,5.4,5.4,0,0,0-1,0,3,3,0,0,1-.61,0l-3,.25c-.07,0-.26,0-.54.06a6.36,6.36,0,0,1-1.06.08,8.59,8.59,0,0,1-3.45-.75c-1.15-.49-2.37-1.05-3.69-1.66a46.22,46.22,0,0,0-4.32-1.74,16.78,16.78,0,0,0-5.31-.8,17.55,17.55,0,0,0-7.35,1.56A17.37,17.37,0,0,0,1146,676a19.19,19.19,0,0,0-3.75,6.23,21.57,21.57,0,0,0-1.37,7.76,18.25,18.25,0,0,0,1.68,8.2,24.76,24.76,0,0,0,3.69,5.62,20.06,20.06,0,0,0,3.76,3.32c1.16.73,1.73,1.24,1.73,1.49s-.37.65-1.1,1l-7.4,3.82c-1.82.9-2.71,1.6-2.71,2.09a3.32,3.32,0,0,0,.35,1,6.66,6.66,0,0,0,1.37,1.79l4.56,5.31a5.13,5.13,0,0,1,1.1,1.59c0,.57-.59,1.29-1.78,2.1-.49.32-1,.69-1.49,1.08-.76.6-1.56,1.26-2.39,2a27.91,27.91,0,0,0-3.89,4.25,9.36,9.36,0,0,0-1.8,5.75,11.37,11.37,0,0,0,5.32,9.74c3.56,2.45,8.69,3.71,15.47,3.71A32.8,32.8,0,0,0,1168,752.2a27.7,27.7,0,0,0,8.4-4.5,21.55,21.55,0,0,0,4.3-4.58,18.63,18.63,0,0,0,1.21-2,16.54,16.54,0,0,0,2-7.91q0-14.79-20.84-14.79c-1.4,0-2.71,0-4,.12s-2.42.14-3.58.14c-2.37,0-4.13-.49-5.23-1.49s-1.66-1.8-1.66-2.48c0-.9.83-1.88,2.52-2.94s4.71-1.82,9.07-2.22q8.5-.75,13.38-5.93t4.88-13.56a22.28,22.28,0,0,0-.63-5.38,25.49,25.49,0,0,0-2-5.22l5.91.24Zm-33.54,48.09a10.72,10.72,0,0,1,4.44-1.59,42.4,42.4,0,0,1,8.13-.63c5.1,0,8.94,1,11.54,3s3.88,4.92,3.88,8.69a14,14,0,0,1-.31,2.95,12,12,0,0,1-4.56,7c-3.25,2.56-7.7,3.83-13.38,3.83q-7.17,0-11.09-3.83a12.38,12.38,0,0,1-4-9.25,11.66,11.66,0,0,1,1.61-5.72,15,15,0,0,1,2.44-3.39A9.3,9.3,0,0,1,1149.07,727.84Zm18.85-25.51a9.32,9.32,0,0,1-8.13,4.67,9.59,9.59,0,0,1-8.2-4.59c-2.08-3.08-3.15-7.25-3.15-12.55s1.07-9.64,3.22-12.74,4.85-4.66,8.13-4.66a9.36,9.36,0,0,1,8.13,4.66q3.11,4.65,3.11,12.74Q1171,697.69,1167.92,702.33Z"/><g class="cls-4"><circle class="cls-5" cx="960" cy="540" r="451.12"/><circle class="cls-6" cx="960" cy="540" r="526.59"/><circle class="cls-7" cx="960" cy="540" r="614.68"/><circle class="cls-8" cx="960" cy="540" r="717.52"/><circle class="cls-9" cx="960" cy="540" r="837.56"/><circle class="cls-10" cx="960" cy="540" r="977.68"/></g></svg>