<svg id="Layer_1" data-name="Layer 1" xmlns="http://www.w3.org/2000/svg" viewBox="0 0 2601.47 289.53"><defs><style>.cls-1{fill:#efefef;opacity:0;}.cls-2{fill:#fff;}.cls-3{fill:#161617;}.cls-4{fill:#344649;}.cls-5{fill:#bdb4aa;}</style></defs><rect class="cls-1" y="-47.47" width="1649.02" height="384.48"/><path class="cls-2" d="M727,104.45a16.19,16.19,0,0,0-2.71-4.92,22,22,0,0,0-4.39-4.11,55.29,55.29,0,0,0-6-3.65q-3.17-1.67-5.47-3.15a20.85,20.85,0,0,1-3.9-3.1,11,11,0,0,1-2.32-3.46,11.15,11.15,0,0,1-.73-4.19,10.16,10.16,0,0,1,2.8-7.59c1.88-1.84,4.5-2.77,7.85-2.77a9,9,0,0,1,5.77,1.83,13.11,13.11,0,0,1,3.8,5.57,17.81,17.81,0,0,1,1.18,3.7c.13.89.52,1.33,1.18,1.33s1.09-.66,1.09-2c0-5.92-.26-9.21-.8-9.87s-1.88-1.26-4.09-2A22.61,22.61,0,0,0,712.91,65a17.89,17.89,0,0,0-6.76,1.23A14.86,14.86,0,0,0,701,69.69a15.5,15.5,0,0,0-3.35,5.42,19.59,19.59,0,0,0-1.19,7,17.43,17.43,0,0,0,.8,5.62A12,12,0,0,0,699.64,92a20,20,0,0,0,4,3.45,54.16,54.16,0,0,0,5.47,3.26c2.17,1.18,4.06,2.31,5.68,3.36a21,21,0,0,1,4.09,3.45,12.85,12.85,0,0,1,2.51,4.19,16.45,16.45,0,0,1,.84,5.57,14.4,14.4,0,0,1-.88,5.18,12.44,12.44,0,0,1-2.47,4,11.32,11.32,0,0,1-3.76,2.62,12.13,12.13,0,0,1-4.83.94,11.87,11.87,0,0,1-6.85-2,11.58,11.58,0,0,1-4.3-5.52,14.19,14.19,0,0,1-.88-3.36c-.14-1.06-.23-2-.3-2.8a12.45,12.45,0,0,0-.29-2c-.14-.48-.39-.74-.8-.74-.91,0-1.38,1.13-1.38,3.36,0,.72,0,1.61,0,2.67s0,2.33,0,3.85a15.09,15.09,0,0,0,.29,3.39,4.74,4.74,0,0,0,1.48,2.32,13.33,13.33,0,0,0,4.64,2.42,21.62,21.62,0,0,0,7.1,1.14,18.91,18.91,0,0,0,7.45-1.49,18,18,0,0,0,6.06-4.13,19.74,19.74,0,0,0,4-6.32,21.46,21.46,0,0,0,1.48-8.09A19.1,19.1,0,0,0,727,104.45Z"/><path class="cls-2" d="M773.77,127l-1.78-.4a4.09,4.09,0,0,1-1.77-1,3.84,3.84,0,0,1-.79-2.81V98.16q0-6.5-3.47-10.49a11.39,11.39,0,0,0-9-4,11.05,11.05,0,0,0-4.61.89,17.7,17.7,0,0,0-4,2.66,12.72,12.72,0,0,0-2.81,3.11c-.57,1-1,1.42-1.24,1.42s-.31-.35-.31-1.07V62.78c0-1.45-.22-2.18-.67-2.18a4.33,4.33,0,0,0-1.79.94,15.19,15.19,0,0,1-3.84,1.82,19.35,19.35,0,0,1-2.77.7,1.2,1.2,0,0,0-1.18,1.28c0,.59.23.88.69.88a4.85,4.85,0,0,0,.75,0,1.43,1.43,0,0,1,.33-.05c2,0,3.06,1.47,3.06,4.43v52.2a3.7,3.7,0,0,1-.79,2.71,4.3,4.3,0,0,1-1.77,1,15.14,15.14,0,0,1-1.77.44.87.87,0,0,0-.79.94c0,.52.13.83.39.9a7.26,7.26,0,0,0,1.28.09,19.21,19.21,0,0,0,2.61-.2,28.3,28.3,0,0,1,3.55-.2,34.87,34.87,0,0,1,4.11.2,18.75,18.75,0,0,0,2.25.2,3.07,3.07,0,0,0,1.14-.15c.23-.1.35-.37.35-.84a.85.85,0,0,0-.79-.92c-.53-.11-1.12-.24-1.77-.4a4.27,4.27,0,0,1-1.79-1,3.88,3.88,0,0,1-.79-2.81v-18q0-8.46,2.44-12.79t8.07-4.33c3.57,0,6,1.27,7.44,3.83S764,97.87,764,103v19.78a3.47,3.47,0,0,1-.84,2.7,4.59,4.59,0,0,1-1.77,1,16,16,0,0,1-1.77.46.87.87,0,0,0-.85.92c0,.52.14.83.4.9a7.26,7.26,0,0,0,1.28.09,19.58,19.58,0,0,0,2.62-.2,28.64,28.64,0,0,1,3.59-.2,35,35,0,0,1,4.15.2,19.16,19.16,0,0,0,2.27.2,3,3,0,0,0,1.13-.15c.23-.1.35-.37.35-.84A.85.85,0,0,0,773.77,127Z"/><path class="cls-2" d="M811.35,123.54c-.4,0-.91.37-1.53,1.09a2.67,2.67,0,0,1-2,1.09q-2.65,0-2.66-6.12V94.83c0-1.7-.07-3.25-.2-4.63a8.52,8.52,0,0,0-1.09-3.55,5.65,5.65,0,0,0-2.66-2.27,12.29,12.29,0,0,0-4.84-.79,16.79,16.79,0,0,0-7.1,1.49,21,21,0,0,0-5.62,3.65A17.32,17.32,0,0,0,780,93.26a8.86,8.86,0,0,0-1.28,4.15,1.56,1.56,0,0,0,.49,1.22,1.68,1.68,0,0,0,1.18.45A3.93,3.93,0,0,0,784.22,97a42.87,42.87,0,0,0,2.18-5.18,9.45,9.45,0,0,1,3.15-4.24,7.73,7.73,0,0,1,4.83-1.77c2,0,3.38.66,4,2s.94,3.49.94,6.51v8.68q-5,2.86-8.88,5.33A52.16,52.16,0,0,0,784,113a17.2,17.2,0,0,0-3.9,4.73A11,11,0,0,0,778.8,123a8,8,0,0,0,2,5.67,7.16,7.16,0,0,0,5.52,2.13,11.1,11.1,0,0,0,6.08-1.88,67.3,67.3,0,0,0,6.65-5h.39a16.65,16.65,0,0,0,1.93,5,3.4,3.4,0,0,0,3,1.53,5.54,5.54,0,0,0,2.32-.65,11.3,11.3,0,0,0,2.51-1.62,14.31,14.31,0,0,0,2-2,3,3,0,0,0,.84-1.82A.61.61,0,0,0,811.35,123.54ZM799.41,116a10.43,10.43,0,0,1-.88,4.39,10.38,10.38,0,0,1-5.38,5.27,7.78,7.78,0,0,1-3.1.7,4.76,4.76,0,0,1-3.85-1.64,6.48,6.48,0,0,1-1.39-4.38q0-6.51,10.07-12.34l3-1.67a2.43,2.43,0,0,1,1-.39c.4,0,.59.32.59,1Z"/><path class="cls-2" d="M840.05,85a5.33,5.33,0,0,0-3.85-1.33q-4.62,0-8.77,5.63l-1.78,2.56c-.26.32-.49.5-.69.5s-.39-.23-.39-.7V86.06c0-.73,0-1.3-.05-1.73s-.2-.64-.53-.64-1,.51-1.74,1.53a15.68,15.68,0,0,1-3.4,3.09,13.38,13.38,0,0,1-2.32,1.32c-.7.3-1,.71-1,1.23s.19.68.59.68a9.75,9.75,0,0,1,1.33.11,2.57,2.57,0,0,1,1.38.68,3.2,3.2,0,0,1,.64,2.36v26a15.05,15.05,0,0,1-.35,3.78,2.48,2.48,0,0,1-1.62,1.71,8.42,8.42,0,0,1-2.47.6c-.47,0-.69.33-.69,1,0,.46.11.73.34.83a3.06,3.06,0,0,0,1.14.16,24.11,24.11,0,0,0,2.8-.2,27.94,27.94,0,0,1,3.56-.2,49.18,49.18,0,0,1,5.22.24,32.63,32.63,0,0,0,3.52.25c1,0,1.57-.36,1.57-1.08,0-.45-.11-.73-.35-.83a3.27,3.27,0,0,0-1-.2c-.46,0-1-.08-1.68-.15a8.67,8.67,0,0,1-2.27-.59,3,3,0,0,1-1.88-1.66,12.25,12.25,0,0,1-.39-3.64v-16.2a36.74,36.74,0,0,1,.59-7.06A19.09,19.09,0,0,1,827,92.6a8.14,8.14,0,0,1,2.12-2.8,3.59,3.59,0,0,1,2.21-.88,3.2,3.2,0,0,1,2,.59,12,12,0,0,1,1.53,1.34c.5.48,1,.92,1.49,1.32a2.63,2.63,0,0,0,1.72.6,3,3,0,0,0,2.32-1.24,4.81,4.81,0,0,0,1-3.21A4.37,4.37,0,0,0,840.05,85Z"/><path class="cls-2" d="M876.45,91.29a1.78,1.78,0,0,0,1.19-.3,1.57,1.57,0,0,0,.29-1.08,3.83,3.83,0,0,0-.39-2.12,1.73,1.73,0,0,0-1.48-.55,5.4,5.4,0,0,0-.79.05,3.52,3.52,0,0,1-.49,0l-2.37.19-.44.06a5.19,5.19,0,0,1-.84,0,7.08,7.08,0,0,1-2.77-.59c-.91-.4-1.9-.85-3-1.34A36.66,36.66,0,0,0,862,84.33a13.25,13.25,0,0,0-4.24-.64,13.85,13.85,0,0,0-5.87,1.24,14.07,14.07,0,0,0-4.64,3.34,15.85,15.85,0,0,0-3,5,17.25,17.25,0,0,0-1.09,6.21,14.73,14.73,0,0,0,1.33,6.56,19.21,19.21,0,0,0,3,4.49,16.28,16.28,0,0,0,3,2.67c.92.59,1.38,1,1.38,1.18s-.29.52-.88.79L845,118.22c-1.45.72-2.17,1.27-2.17,1.67a2.58,2.58,0,0,0,.29.84,5.16,5.16,0,0,0,1.09,1.43l3.65,4.24a4.62,4.62,0,0,1,.88,1.29c0,.46-.47,1-1.42,1.68a32.52,32.52,0,0,0-3.11,2.45,22.17,22.17,0,0,0-3.11,3.41,7.47,7.47,0,0,0-1.43,4.59,9.09,9.09,0,0,0,4.25,7.8,17.77,17.77,0,0,0,8.31,2.74c-.34-1-.67-2.06-1-3.17a10.13,10.13,0,0,1-5.85-9.25,9.47,9.47,0,0,1,1.29-4.59,11.09,11.09,0,0,1,3-3.59,8.72,8.72,0,0,1,3.55-1.29,36.41,36.41,0,0,1,6.51-.48c4.08,0,7.15.8,9.23,2.41a7.77,7.77,0,0,1,2.92,4.83,2.88,2.88,0,0,0,.39,1c1.07,1.64,2.1,3.49,3.09,5.09l0,0a13.06,13.06,0,0,0,2.1-6.83q.27-12.22-16.66-12.22c-1.12,0-2.17,0-3.16.1s-1.94.1-2.85.1a6.2,6.2,0,0,1-4.2-1.18c-.89-.79-1.33-1.45-1.33-2,0-.72.67-1.51,2-2.37s3.76-1.45,7.25-1.77c4.54-.39,8.1-2,10.71-4.74s3.89-6.37,3.89-10.85a17.37,17.37,0,0,0-.5-4.28,19,19,0,0,0-1.57-4.2l4.74.2Zm-11.74,18.08a7.49,7.49,0,0,1-6.5,3.72,7.66,7.66,0,0,1-6.57-3.68q-2.5-3.68-2.51-10t2.57-10.19a7.65,7.65,0,0,1,6.51-3.72,7.49,7.49,0,0,1,6.5,3.72q2.47,3.74,2.47,10.19C867.18,103.55,866.36,106.87,864.71,109.37Z"/><path class="cls-2" d="M913.74,123.54c-.39,0-.9.37-1.53,1.09a2.66,2.66,0,0,1-2,1.09c-1.78,0-2.66-2-2.66-6.12V94.83c0-1.7-.07-3.25-.2-4.63a8.52,8.52,0,0,0-1.09-3.55,5.69,5.69,0,0,0-2.66-2.27,12.2,12.2,0,0,0-4.83-.79,16.81,16.81,0,0,0-7.11,1.49A21.2,21.2,0,0,0,886,88.73a17.53,17.53,0,0,0-3.65,4.53,8.86,8.86,0,0,0-1.28,4.15,1.56,1.56,0,0,0,.49,1.22,1.65,1.65,0,0,0,1.19.45A3.93,3.93,0,0,0,886.61,97a41.42,41.42,0,0,0,2.17-5.18,9.55,9.55,0,0,1,3.16-4.24,7.72,7.72,0,0,1,4.84-1.77c2,0,3.37.66,4,2s.94,3.49.94,6.51v8.68c-3.36,1.91-6.31,3.69-8.89,5.33a53.54,53.54,0,0,0-6.45,4.79,16.8,16.8,0,0,0-3.89,4.73,10.9,10.9,0,0,0-1.29,5.18,8,8,0,0,0,2,5.67,7.17,7.17,0,0,0,5.53,2.13,11.06,11.06,0,0,0,6.06-1.88,66.14,66.14,0,0,0,6.66-5h.4a16.42,16.42,0,0,0,1.92,5,3.4,3.4,0,0,0,3,1.53,5.54,5.54,0,0,0,2.32-.65,11.3,11.3,0,0,0,2.51-1.62,14.31,14.31,0,0,0,2-2,3,3,0,0,0,.85-1.82A.62.62,0,0,0,913.74,123.54ZM901.81,116a10.33,10.33,0,0,1-6.26,9.66,7.87,7.87,0,0,1-3.12.7,4.78,4.78,0,0,1-3.85-1.64,6.58,6.58,0,0,1-1.38-4.38q0-6.51,10.06-12.34l3-1.67a2.43,2.43,0,0,1,1-.39c.4,0,.6.32.6,1Z"/><path class="cls-2" d="M956.26,127c-.54-.11-1.13-.24-1.78-.4a4.18,4.18,0,0,1-1.78-1,3.88,3.88,0,0,1-.79-2.81V98.66q0-6.9-3.34-10.93a10.92,10.92,0,0,0-8.85-4,10.77,10.77,0,0,0-4.37.89,15.12,15.12,0,0,0-4,2.66,13.73,13.73,0,0,0-2.7,3.11c-.57,1-1,1.42-1.23,1.42s-.4-.35-.4-1.07V86.06c0-.73,0-1.3,0-1.73s-.21-.64-.54-.64-.89.51-1.68,1.53a16.51,16.51,0,0,1-3.73,3.3,7.94,7.94,0,0,1-2.12,1.12,1.28,1.28,0,0,0-1,1.24.63.63,0,0,0,.59.69c.39.07.83.12,1.32.19a3.15,3.15,0,0,1,1.39.55c.43.29.64.92.64,1.91v28.55a3.64,3.64,0,0,1-.79,2.7,4.32,4.32,0,0,1-1.77,1c-.66.2-1.25.35-1.79.46a.85.85,0,0,0-.78.92c0,.47.11.74.34.84a3.18,3.18,0,0,0,1.14.15,22.37,22.37,0,0,0,3-.2,27.71,27.71,0,0,1,3.41-.2,34.26,34.26,0,0,1,4.09.2,19.16,19.16,0,0,0,2.27.2,3.07,3.07,0,0,0,1.14-.15c.23-.1.35-.37.35-.84a.85.85,0,0,0-.79-.92c-.53-.11-1.13-.24-1.77-.4a4.16,4.16,0,0,1-1.79-1,3.88,3.88,0,0,1-.79-2.81v-18c0-5.71.8-10,2.39-12.85s4.16-4.27,7.73-4.27,5.82,1.27,7.14,3.83,2,6.4,2,11.52v19.78a3.64,3.64,0,0,1-.79,2.7,4.26,4.26,0,0,1-1.77,1c-.66.2-1.25.35-1.77.46a.84.84,0,0,0-.79.92c0,.52.12.83.39.9a7.17,7.17,0,0,0,1.28.09,19.08,19.08,0,0,0,2.6-.2,28.36,28.36,0,0,1,3.56-.2,34.56,34.56,0,0,1,4.1.2,18.87,18.87,0,0,0,2.26.2,3.07,3.07,0,0,0,1.14-.15c.23-.1.35-.37.35-.84A.85.85,0,0,0,956.26,127Z"/><path class="cls-2" d="M683.6,190.55c-.52,0-.87.42-1,1.24a24.86,24.86,0,0,1-1,3.39,20.52,20.52,0,0,1-4.93,8.29,10.85,10.85,0,0,1-7.69,2.77A13.42,13.42,0,0,1,661.5,204a20.46,20.46,0,0,1-6.06-6.21,33,33,0,0,1-4.1-9.51,47.19,47.19,0,0,1-1.47-12.14,50.54,50.54,0,0,1,1.47-12.73,31.88,31.88,0,0,1,4-9.47,19.52,19.52,0,0,1,6-5.92,13.92,13.92,0,0,1,7.36-2.06q7.6,0,11.54,7.3a13.3,13.3,0,0,1,1.58,3.85c.2,1,.63,1.57,1.27,1.57s.9-.43.9-1.28a70.78,70.78,0,0,0-.29-7.2,7.81,7.81,0,0,0-.8-3.26,7.54,7.54,0,0,0-1.73-1.13,17.24,17.24,0,0,0-3-1.18,40.34,40.34,0,0,0-4-.94,26.17,26.17,0,0,0-4.69-.4,23.52,23.52,0,0,0-10.65,2.47,27.1,27.1,0,0,0-8.64,6.85A32.88,32.88,0,0,0,644.3,163a39.12,39.12,0,0,0-2.13,13.12,41.68,41.68,0,0,0,2,13.12,32.92,32.92,0,0,0,5.53,10.46,25.6,25.6,0,0,0,8.38,6.9,22.61,22.61,0,0,0,10.46,2.47,25.49,25.49,0,0,0,5.43-.54,26.08,26.08,0,0,0,4.44-1.38,18.25,18.25,0,0,0,3.35-1.83,8.22,8.22,0,0,0,2-1.88,8.13,8.13,0,0,0,.73-3.59q.15-2.72.15-7.65C684.59,191.12,684.26,190.55,683.6,190.55Z"/><path class="cls-2" d="M729.12,175.86a21.5,21.5,0,0,0-3.83-7.41,17.27,17.27,0,0,0-6.23-4.73,19.93,19.93,0,0,0-8.33-1.68,17.73,17.73,0,0,0-7.69,1.68,18.43,18.43,0,0,0-6.17,4.73,21.5,21.5,0,0,0-4,7.41,33.38,33.38,0,0,0-.05,19.23,22.93,22.93,0,0,0,3.85,7.45,17.45,17.45,0,0,0,5.91,4.84,17.07,17.07,0,0,0,7.69,1.72,20.6,20.6,0,0,0,8.48-1.68,17.53,17.53,0,0,0,6.37-4.78,21.28,21.28,0,0,0,4-7.5,32,32,0,0,0,1.38-9.71A32.41,32.41,0,0,0,729.12,175.86ZM720.59,202a11.22,11.22,0,0,1-9.86,5.29,9.62,9.62,0,0,1-5.27-1.53,13.27,13.27,0,0,1-4.2-4.45,24.61,24.61,0,0,1-2.77-7,40.46,40.46,0,0,1-1-9.34q0-10.38,3.6-15.78a11.22,11.22,0,0,1,9.82-5.38q6,0,9.62,5.93t3.6,16.81Q724.15,196.75,720.59,202Z"/><path class="cls-2" d="M774.55,205.3c-.53-.09-1.12-.23-1.78-.39a3.23,3.23,0,0,1-2.56-3.79V177c0-4.59-1.11-8.22-3.35-10.92a11.55,11.55,0,0,0-13.22-3.15,15.13,15.13,0,0,0-4,2.67,13.35,13.35,0,0,0-2.71,3.11c-.56.95-1,1.42-1.23,1.42s-.4-.36-.4-1.08v-4.64c0-.72,0-1.3,0-1.73s-.21-.64-.55-.64-.88.51-1.67,1.53a16.59,16.59,0,0,1-3.74,3.29,7.49,7.49,0,0,1-2.12,1.14,1.28,1.28,0,0,0-1,1.23.64.64,0,0,0,.59.69l1.33.2a3.08,3.08,0,0,1,1.38.53,2.25,2.25,0,0,1,.65,1.93v28.54a3.64,3.64,0,0,1-.8,2.71,4.41,4.41,0,0,1-1.77,1,14.78,14.78,0,0,1-1.78.44.88.88,0,0,0-.78.94c0,.46.11.74.34.83a2.93,2.93,0,0,0,1.14.15,23.84,23.84,0,0,0,2.94-.19,28,28,0,0,1,3.42-.2,34.38,34.38,0,0,1,4.09.2,20.9,20.9,0,0,0,2.27.19,2.93,2.93,0,0,0,1.14-.15c.22-.09.33-.37.33-.83a.87.87,0,0,0-.78-.94c-.52-.09-1.12-.23-1.78-.39a3.82,3.82,0,0,1-1.77-1,3.76,3.76,0,0,1-.79-2.8v-18q0-8.55,2.38-12.84t7.74-4.28c3.43,0,5.8,1.28,7.14,3.84s2,6.4,2,11.51v19.78a3.68,3.68,0,0,1-.79,2.71,4.52,4.52,0,0,1-1.78,1,13.91,13.91,0,0,1-1.78.44.88.88,0,0,0-.78.94c0,.52.12.82.39.88a5.67,5.67,0,0,0,1.29.1,21,21,0,0,0,2.6-.19,28.24,28.24,0,0,1,3.56-.2,34.26,34.26,0,0,1,4.09.2,20.9,20.9,0,0,0,2.27.19,2.93,2.93,0,0,0,1.14-.15c.23-.09.35-.37.35-.83A.88.88,0,0,0,774.55,205.3Z"/><path class="cls-2" d="M804.49,189a10.75,10.75,0,0,0-2.32-3.5,16.69,16.69,0,0,0-3.54-2.65q-2.08-1.19-4.65-2.47a23.9,23.9,0,0,1-5.91-3.88,7.15,7.15,0,0,1-2-5.37,7.24,7.24,0,0,1,2-5.27,6.53,6.53,0,0,1,4.83-2,7.87,7.87,0,0,1,3.94,1.08,9,9,0,0,1,3.17,3.26,9.18,9.18,0,0,1,1.37,3.41c.06.82.4,1.23,1,1.23s.89-.66.89-2v-4.05a8.14,8.14,0,0,0-.2-1.83,2.83,2.83,0,0,0-1-1.51,6.17,6.17,0,0,0-2.56-1,24.62,24.62,0,0,0-4.78-.37q-6.42,0-10,3.56a12.42,12.42,0,0,0-3.55,9.17,9.62,9.62,0,0,0,2.61,7,28.6,28.6,0,0,0,8,5.22,22.58,22.58,0,0,1,6.61,4.29,8.45,8.45,0,0,1,2.18,6.17,10.13,10.13,0,0,1-2.52,7.15,8.69,8.69,0,0,1-6.66,2.71c-2.43,0-4.23-.61-5.38-1.82a12.72,12.72,0,0,1-2.71-5.38q-.89-3.45-1.14-5c-.16-1-.54-1.53-1.13-1.53s-1.08.56-1.08,1.68c0,2.31,0,4.16-.1,5.57s-.1,2.39-.1,2.91a2.85,2.85,0,0,0,1,2.12,9.72,9.72,0,0,0,2.51,1.68,15.11,15.11,0,0,0,3.46,1.14,20.13,20.13,0,0,0,3.89.39q7,0,10.85-4c2.57-2.69,3.84-6.36,3.84-11A13.31,13.31,0,0,0,804.49,189Z"/><path class="cls-2" d="M849.42,203.08a9.63,9.63,0,0,1-1.34-.1,2.14,2.14,0,0,1-1.32-.78,4.48,4.48,0,0,1-.6-2.77V167a11.16,11.16,0,0,0-.18-2.62c-.13-.36-.56-.54-1.27-.54-.32,0-.87,0-1.64.1s-1.72.09-2.82.09a21.81,21.81,0,0,1-2.37-.09,12.18,12.18,0,0,0-1.28-.1,1.41,1.41,0,0,0-.74.15q-.24.15-.24.84a.78.78,0,0,0,.78.88,11.26,11.26,0,0,1,1.78.4,4,4,0,0,1,1.77,1.09,3.8,3.8,0,0,1,.79,2.75v17.95q0,8.6-2.38,12.88c-1.59,2.86-4.16,4.3-7.74,4.3-3.43,0-5.82-1.29-7.14-3.85s-2-6.42-2-11.54V167a8.41,8.41,0,0,0-.24-2.67c-.16-.32-.59-.49-1.3-.49a12.61,12.61,0,0,0-1.6.1,15.45,15.45,0,0,1-1.89.09c-1.38,0-2.44,0-3.2-.09s-1.2-.1-1.33-.1a1.44,1.44,0,0,0-.74.15c-.16.1-.26.38-.26.84a.8.8,0,0,0,.8.88,11.26,11.26,0,0,1,1.78.4,4,4,0,0,1,1.77,1.09,3.84,3.84,0,0,1,.79,2.75v21.31a57.62,57.62,0,0,0,.3,6,15.44,15.44,0,0,0,1.67,5.53,10.49,10.49,0,0,0,4.08,4.63,11.26,11.26,0,0,0,6,1.68,10.41,10.41,0,0,0,4.47-.94,16.12,16.12,0,0,0,4-2.71,11.69,11.69,0,0,0,2.76-3.12c.52-1,.92-1.42,1.18-1.42s.29.39.29,1.18v4.64a8.47,8.47,0,0,0,.15,1.72.73.73,0,0,0,.75.65,3.08,3.08,0,0,0,1.86-.94,17.49,17.49,0,0,1,2.85-1.92c1-.53,1.84-.94,2.56-1.24s1.09-.71,1.09-1.23A.61.61,0,0,0,849.42,203.08Z"/><path class="cls-2" d="M870.23,205.3c-.52-.09-1.11-.23-1.77-.39a3.9,3.9,0,0,1-1.78-1,3.81,3.81,0,0,1-.78-2.8v-60c0-1.44-.24-2.17-.69-2.17a4.18,4.18,0,0,0-1.78.94,16,16,0,0,1-3.85,1.82,22.13,22.13,0,0,1-2.76.69,1.21,1.21,0,0,0-1.18,1.28c0,.59.22.89.68.89a4.45,4.45,0,0,0,.75-.05,2.28,2.28,0,0,1,.34-.05q3.06,0,3.06,4.43v52.21a3.42,3.42,0,0,1-.89,2.71,5.25,5.25,0,0,1-2,1,17.63,17.63,0,0,1-2,.44c-.59.11-.89.42-.89.94s.13.74.39.83a3.75,3.75,0,0,0,1.29.15,26.3,26.3,0,0,0,2.9-.19,34.25,34.25,0,0,1,3.85-.2,33.55,33.55,0,0,1,4,.2,20.5,20.5,0,0,0,2.37.19,2.88,2.88,0,0,0,1.13-.15c.23-.09.35-.37.35-.83A.88.88,0,0,0,870.23,205.3Z"/><path class="cls-2" d="M896.57,201.5c-.2,0-.49.2-.88.59a13.62,13.62,0,0,1-1.44,1.24,13.25,13.25,0,0,1-1.92,1.23,4.9,4.9,0,0,1-2.37.59c-3.15,0-4.74-2.49-4.74-7.5V168.86a2.46,2.46,0,0,1,.26-1.34c.16-.23.53-.34,1.14-.34H894c.52,0,.87-.13,1-.4a2.53,2.53,0,0,0,.26-1.28v-.4a1.81,1.81,0,0,0-.2-1c-.14-.16-.5-.25-1.09-.25h-7.3c-.59,0-1-.11-1.14-.34a2.55,2.55,0,0,1-.24-1.33v-6.62c0-.79-.14-1.18-.39-1.18-.47,0-.94.62-1.44,1.88a16.7,16.7,0,0,1-2.91,4.43,23.5,23.5,0,0,1-3.7,3.7c-1,.77-1.53,1.4-1.53,1.92s.5.9,1.49.9h1.47c.6,0,1,.11,1.13.34a2.46,2.46,0,0,1,.26,1.34l-.3,23.57v4.63c0,3.95.7,6.94,2.12,9a6.85,6.85,0,0,0,6,3.06,7.82,7.82,0,0,0,3.6-.89,15.35,15.35,0,0,0,3.06-2,10.32,10.32,0,0,0,2.06-2.26,3.62,3.62,0,0,0,.74-1.63C897,201.77,896.84,201.5,896.57,201.5Z"/><path class="cls-2" d="M910.58,146.56a3.07,3.07,0,0,0-2.47-1.48,3,3,0,0,0-2.41,1.48,5.86,5.86,0,0,0-1,3.45,5.41,5.41,0,0,0,1,3.35,3,3,0,0,0,2.41,1.38,3,3,0,0,0,2.52-1.42,5.52,5.52,0,0,0,1-3.31A5.7,5.7,0,0,0,910.58,146.56Zm5.08,58.73c-.56-.09-1.19-.22-1.87-.39a4.28,4.28,0,0,1-1.88-1,3.75,3.75,0,0,1-.83-2.82V164.21a6,6,0,0,0-.11-1.37c-.05-.26-.25-.4-.58-.4s-1,.43-1.93,1.28a22.57,22.57,0,0,1-4.09,2.85,8,8,0,0,1-2.42,1.48,1.43,1.43,0,0,0-1.14,1.37c0,.47.16.75.5.84a4.41,4.41,0,0,0,1.27.15c2,0,3.06,1.22,3.06,3.64v27.07a3.43,3.43,0,0,1-.94,2.76,4.71,4.71,0,0,1-2,1c-.73.16-1.4.3-2,.39s-.94.42-.94.94.14.74.44.83a3.7,3.7,0,0,0,1.23.15,26.08,26.08,0,0,0,2.82-.19,35.48,35.48,0,0,1,3.95-.2,41.84,41.84,0,0,1,4.53.2c1.15.13,1.92.19,2.32.19a4.36,4.36,0,0,0,1.13-.1c.24-.06.35-.36.35-.88A.89.89,0,0,0,915.66,205.29Z"/><path class="cls-2" d="M959.61,205.3c-.53-.09-1.12-.23-1.79-.39a4,4,0,0,1-1.77-1,3.8,3.8,0,0,1-.79-2.8V177c0-4.59-1.11-8.22-3.33-10.92a11,11,0,0,0-8.86-4,10.82,10.82,0,0,0-4.38.89,15.13,15.13,0,0,0-4,2.67,13.6,13.6,0,0,0-2.71,3.11c-.56.95-1,1.42-1.23,1.42s-.38-.36-.38-1.08v-4.64c0-.72,0-1.3-.06-1.73s-.21-.64-.54-.64-.89.51-1.68,1.53a16.5,16.5,0,0,1-3.73,3.29,7.62,7.62,0,0,1-2.12,1.14,1.28,1.28,0,0,0-1,1.23.64.64,0,0,0,.59.69l1.33.2a3.12,3.12,0,0,1,1.39.53,2.28,2.28,0,0,1,.64,1.93v28.54a3.68,3.68,0,0,1-.79,2.71,4.55,4.55,0,0,1-1.77,1,14.78,14.78,0,0,1-1.78.44.88.88,0,0,0-.79.94c0,.46.11.74.34.83a2.93,2.93,0,0,0,1.14.15,24.27,24.27,0,0,0,3-.19,27.42,27.42,0,0,1,3.4-.2,34.26,34.26,0,0,1,4.09.2,20.9,20.9,0,0,0,2.27.19,2.9,2.9,0,0,0,1.14-.15c.23-.09.35-.37.35-.83a.88.88,0,0,0-.79-.94c-.53-.09-1.12-.23-1.78-.39a3.9,3.9,0,0,1-1.78-1,3.8,3.8,0,0,1-.79-2.8v-18q0-8.55,2.38-12.84t7.74-4.28c3.43,0,5.82,1.28,7.14,3.84s2,6.4,2,11.51v19.78a3.68,3.68,0,0,1-.79,2.71,4.55,4.55,0,0,1-1.77,1,14.45,14.45,0,0,1-1.79.44.88.88,0,0,0-.78.94c0,.52.14.82.39.88a5.73,5.73,0,0,0,1.29.1A20.87,20.87,0,0,0,949,207a28.47,28.47,0,0,1,3.56-.2,34.26,34.26,0,0,1,4.09.2,20.9,20.9,0,0,0,2.27.19,2.9,2.9,0,0,0,1.14-.15c.23-.09.35-.37.35-.83A.88.88,0,0,0,959.61,205.3Z"/><path class="cls-2" d="M999.75,169.64a1.68,1.68,0,0,0,1.18-.3,1.5,1.5,0,0,0,.3-1.09,3.9,3.9,0,0,0-.39-2.12,1.73,1.73,0,0,0-1.48-.53,4.29,4.29,0,0,0-.79.05,3.29,3.29,0,0,1-.49,0l-2.37.2-.44.05a6.65,6.65,0,0,1-.84.05,6.9,6.9,0,0,1-2.77-.59c-.91-.39-1.9-.84-2.95-1.33a33.21,33.21,0,0,0-3.46-1.39A13.25,13.25,0,0,0,981,162a14,14,0,0,0-5.87,1.24,14.24,14.24,0,0,0-4.64,3.35,15.69,15.69,0,0,0-3,5,17.3,17.3,0,0,0-1.09,6.22,14.65,14.65,0,0,0,1.33,6.55,19.72,19.72,0,0,0,3,4.5,15.82,15.82,0,0,0,3,2.65q1.38.9,1.38,1.2c0,.25-.29.52-.88.79l-5.92,3.06c-1.45.71-2.17,1.27-2.17,1.66a2.61,2.61,0,0,0,.29.85,5.31,5.31,0,0,0,1.09,1.43l3.65,4.24A4.5,4.5,0,0,1,972,206c0,.45-.47,1-1.42,1.67a30.61,30.61,0,0,0-3.11,2.47,21.23,21.23,0,0,0-3.1,3.41,7.37,7.37,0,0,0-1.44,4.59,9,9,0,0,0,4.25,7.78c2.84,2,6.95,3,12.37,3A26.21,26.21,0,0,0,988,227.6a22.29,22.29,0,0,0,6.73-3.61,17.11,17.11,0,0,0,4.4-5.22,13.25,13.25,0,0,0,1.58-6.32q0-11.83-16.67-11.83c-1.12,0-2.17,0-3.16.09s-1.94.11-2.86.11a6.13,6.13,0,0,1-4.19-1.2c-.89-.78-1.33-1.43-1.33-2,0-.72.67-1.5,2-2.36s3.76-1.45,7.25-1.77c4.54-.4,8.1-2,10.71-4.74s3.89-6.38,3.89-10.85a17.6,17.6,0,0,0-.5-4.3,19.42,19.42,0,0,0-1.57-4.18l4.74.19Zm-26.83,38.47a8.6,8.6,0,0,1,3.55-1.28,34.42,34.42,0,0,1,6.51-.5c4.08,0,7.15.81,9.23,2.42a8.3,8.3,0,0,1,3.1,7,9.67,9.67,0,0,1-3.89,8q-3.9,3.06-10.71,3.06-5.72,0-8.88-3.06a9.94,9.94,0,0,1-3.15-7.39,9.35,9.35,0,0,1,1.29-4.59A11.13,11.13,0,0,1,972.92,208.11ZM988,187.71a7.48,7.48,0,0,1-6.51,3.73,7.67,7.67,0,0,1-6.56-3.67q-2.51-3.69-2.51-10T975,167.55a7.64,7.64,0,0,1,6.5-3.73,7.5,7.5,0,0,1,6.51,3.73q2.47,3.72,2.47,10.18Q990.48,184,988,187.71Z"/><rect class="cls-3" x="2282.11" y="-47.47" width="342.79" height="384.48"/><rect class="cls-4" x="1962.76" y="-47.47" width="319.35" height="384.48"/><rect class="cls-5" x="1649.02" y="-47.47" width="319.35" height="384.48"/></svg>