<svg id="Layer_1" data-name="Layer 1" xmlns="http://www.w3.org/2000/svg" viewBox="0 0 1015.92 321.25"><defs><style>.cls-1{fill:#bdb4aa;}.cls-2{fill:#161617;}.cls-3{fill:#344649;}</style></defs><rect class="cls-1" y="278.57" width="338.64" height="42.67"/><rect class="cls-2" x="677.28" y="278.57" width="338.64" height="42.67"/><rect class="cls-3" x="338.64" y="278.57" width="338.64" height="42.67"/><path d="M432,49.2a13,13,0,0,0-2.17-4A17.68,17.68,0,0,0,426.3,42,44.81,44.81,0,0,0,421.51,39q-2.53-1.34-4.38-2.52A16.79,16.79,0,0,1,414,34a9,9,0,0,1-1.86-2.77,9,9,0,0,1-.59-3.37,8.14,8.14,0,0,1,2.25-6.08,8.61,8.61,0,0,1,6.29-2.22,7.25,7.25,0,0,1,4.63,1.47,10.5,10.5,0,0,1,3,4.46,14.08,14.08,0,0,1,.94,3c.11.71.42,1.07,1,1.07s.87-.53.87-1.58q0-7.12-.64-7.92a8.81,8.81,0,0,0-3.28-1.62,18.16,18.16,0,0,0-5.89-.91,14.29,14.29,0,0,0-5.41,1,12,12,0,0,0-4.16,2.81,12.5,12.5,0,0,0-2.68,4.35,15.73,15.73,0,0,0-1,5.61,14.05,14.05,0,0,0,.64,4.51,9.72,9.72,0,0,0,1.93,3.4A16.24,16.24,0,0,0,413.25,42a44.33,44.33,0,0,0,4.39,2.61c1.74,1,3.25,1.85,4.55,2.7A16.16,16.16,0,0,1,425.47,50a10.28,10.28,0,0,1,2,3.35,13.4,13.4,0,0,1,.67,4.47,11.58,11.58,0,0,1-.71,4.15,9.66,9.66,0,0,1-2,3.21,8.88,8.88,0,0,1-3,2.1,9.68,9.68,0,0,1-3.87.75,9.54,9.54,0,0,1-5.5-1.59,9.21,9.21,0,0,1-3.44-4.42,11.16,11.16,0,0,1-.71-2.7c-.11-.84-.18-1.59-.24-2.24a11.06,11.06,0,0,0-.23-1.59c-.11-.39-.32-.6-.64-.6q-1.11,0-1.11,2.7c0,.57,0,1.29,0,2.13s0,1.87,0,3.09a12.14,12.14,0,0,0,.23,2.72,3.77,3.77,0,0,0,1.19,1.86,10.62,10.62,0,0,0,3.71,1.94,17.42,17.42,0,0,0,5.7.91,15.19,15.19,0,0,0,6-1.19,14.3,14.3,0,0,0,4.86-3.32,15.65,15.65,0,0,0,3.25-5.06,17.15,17.15,0,0,0,1.19-6.48A15.16,15.16,0,0,0,432,49.2Z"/><path d="M469.52,67.24c-.42-.08-.89-.18-1.42-.31a3.29,3.29,0,0,1-1.42-.79,3,3,0,0,1-.63-2.25V44.15a12.35,12.35,0,0,0-2.79-8.41A9.14,9.14,0,0,0,456,32.55a8.91,8.91,0,0,0-3.7.71,14.32,14.32,0,0,0-3.21,2.14,10.08,10.08,0,0,0-2.26,2.49c-.46.76-.78,1.14-1,1.14s-.24-.28-.24-.86V15.79c0-1.16-.17-1.75-.54-1.75a3.41,3.41,0,0,0-1.44.75,11.92,11.92,0,0,1-3.07,1.46,15.65,15.65,0,0,1-2.22.56,1,1,0,0,0-.95,1c0,.47.19.71.56.71a3,3,0,0,0,.59,0,1.41,1.41,0,0,1,.27,0c1.64,0,2.45,1.18,2.45,3.55V63.88a2.94,2.94,0,0,1-.63,2.17,3.6,3.6,0,0,1-1.42.83,11.64,11.64,0,0,1-1.42.35.7.7,0,0,0-.63.76c0,.41.1.66.31.71a4.86,4.86,0,0,0,1,.08,15.8,15.8,0,0,0,2.09-.16,23.41,23.41,0,0,1,2.85-.16,28.78,28.78,0,0,1,3.29.16,15.53,15.53,0,0,0,1.81.16,2.47,2.47,0,0,0,.91-.12c.19-.08.28-.3.28-.67a.69.69,0,0,0-.63-.75c-.43-.08-.9-.18-1.42-.31a3.41,3.41,0,0,1-1.44-.79,3.13,3.13,0,0,1-.63-2.25V49.45c0-4.53.65-7.94,1.95-10.26s3.46-3.47,6.48-3.47q4.29,0,6,3.07c1.1,2.06,1.66,5.13,1.66,9.24V63.89a2.78,2.78,0,0,1-.67,2.16,3.92,3.92,0,0,1-1.42.83,11.38,11.38,0,0,1-1.42.36.71.71,0,0,0-.68.75c0,.41.11.66.31.71a5,5,0,0,0,1,.08,16.18,16.18,0,0,0,2.1-.16,23.57,23.57,0,0,1,2.88-.16,29,29,0,0,1,3.32.16,15.83,15.83,0,0,0,1.82.16,2.37,2.37,0,0,0,.9-.12c.19-.08.28-.3.28-.67A.69.69,0,0,0,469.52,67.24Z"/><path d="M499.65,64.5c-.31,0-.72.3-1.22.88a2.14,2.14,0,0,1-1.62.87c-1.42,0-2.14-1.64-2.14-4.91V41.49q0-2.06-.15-3.72a6.78,6.78,0,0,0-.88-2.84,4.46,4.46,0,0,0-2.13-1.82,9.75,9.75,0,0,0-3.88-.64,13.46,13.46,0,0,0-5.69,1.19,17,17,0,0,0-4.51,2.93,14,14,0,0,0-2.93,3.63,7.13,7.13,0,0,0-1,3.33,1.24,1.24,0,0,0,.39,1,1.34,1.34,0,0,0,.95.36,3.15,3.15,0,0,0,3.08-1.7A34.85,34.85,0,0,0,479.65,39a7.53,7.53,0,0,1,2.53-3.4,6.21,6.21,0,0,1,3.87-1.42c1.64,0,2.7.53,3.21,1.58A13.16,13.16,0,0,1,490,41v7c-2.7,1.54-5.06,3-7.12,4.28a42.3,42.3,0,0,0-5.18,3.83,13.55,13.55,0,0,0-3.12,3.79,8.79,8.79,0,0,0-1,4.16,6.43,6.43,0,0,0,1.58,4.55,5.79,5.79,0,0,0,4.44,1.7,8.86,8.86,0,0,0,4.86-1.5,54.84,54.84,0,0,0,5.34-4h.31a13.73,13.73,0,0,0,1.55,4A2.72,2.72,0,0,0,494,70a4.39,4.39,0,0,0,1.86-.53,9.13,9.13,0,0,0,2-1.3,11.17,11.17,0,0,0,1.61-1.62,2.38,2.38,0,0,0,.68-1.46A.49.49,0,0,0,499.65,64.5Zm-9.57-6.08a8.38,8.38,0,0,1-.7,3.52,8.59,8.59,0,0,1-1.86,2.61,8.91,8.91,0,0,1-2.45,1.62,6.39,6.39,0,0,1-2.49.55,3.81,3.81,0,0,1-3.09-1.31,5.22,5.22,0,0,1-1.11-3.51q0-5.22,8.07-9.9l2.37-1.33a1.85,1.85,0,0,1,.79-.32c.32,0,.47.26.47.79Z"/><path d="M522.67,33.62a4.28,4.28,0,0,0-3.09-1.07c-2.47,0-4.82,1.5-7,4.51l-1.43,2.06c-.2.26-.39.4-.55.4s-.31-.19-.31-.56V34.45c0-.58,0-1,0-1.38s-.17-.52-.43-.52-.78.41-1.39,1.23a13.31,13.31,0,0,1-2.73,2.48,11.65,11.65,0,0,1-1.86,1.06c-.56.24-.83.56-.83,1s.16.55.47.55a8.72,8.72,0,0,1,1.07.08,2.08,2.08,0,0,1,1.11.55,2.62,2.62,0,0,1,.51,1.9V62.24a11.83,11.83,0,0,1-.28,3,2,2,0,0,1-1.3,1.38,6.92,6.92,0,0,1-2,.47c-.37,0-.55.27-.55.79s.09.59.27.67a2.51,2.51,0,0,0,.91.12,18.06,18.06,0,0,0,2.25-.16,22.94,22.94,0,0,1,2.85-.15,39.07,39.07,0,0,1,4.19.19,27.76,27.76,0,0,0,2.82.2q1.26,0,1.26-.87c0-.36-.09-.58-.28-.67a3.1,3.1,0,0,0-.82-.16q-.56,0-1.35-.12a6.44,6.44,0,0,1-1.82-.47,2.42,2.42,0,0,1-1.51-1.33,9.85,9.85,0,0,1-.31-2.92v-13A29.55,29.55,0,0,1,511,43.6a15.6,15.6,0,0,1,1.27-3.91,6.63,6.63,0,0,1,1.7-2.24,2.92,2.92,0,0,1,1.78-.7,2.6,2.6,0,0,1,1.58.47,10.24,10.24,0,0,1,1.23,1.07c.4.39.79.74,1.18,1.06a2.1,2.1,0,0,0,1.39.48,2.39,2.39,0,0,0,1.86-1,3.83,3.83,0,0,0,.82-2.57A3.52,3.52,0,0,0,522.67,33.62Z"/><path d="M551.85,38.64a1.41,1.41,0,0,0,1-.24,1.25,1.25,0,0,0,.23-.86,3.14,3.14,0,0,0-.31-1.7,1.4,1.4,0,0,0-1.19-.44,3.55,3.55,0,0,0-.63,0,2.13,2.13,0,0,1-.39,0l-1.91.15-.35,0a4.38,4.38,0,0,1-.67,0,5.55,5.55,0,0,1-2.22-.48c-.74-.31-1.53-.68-2.37-1.07a29.07,29.07,0,0,0-2.77-1.1,10.55,10.55,0,0,0-3.4-.52,11.31,11.31,0,0,0-8.43,3.68,12.43,12.43,0,0,0-2.4,4,13.8,13.8,0,0,0-.88,5,11.69,11.69,0,0,0,1.07,5.26,15.68,15.68,0,0,0,2.37,3.61A12.56,12.56,0,0,0,531,56.2c.73.48,1.1.79,1.1.95s-.23.42-.7.63l-4.75,2.46c-1.16.57-1.74,1-1.74,1.34a2,2,0,0,0,.23.67A4,4,0,0,0,526,63.4l2.92,3.4a3.6,3.6,0,0,1,.71,1q0,.56-1.14,1.35a24.41,24.41,0,0,0-2.49,2,16.74,16.74,0,0,0-2.49,2.73,5.9,5.9,0,0,0-1.16,3.68,7.31,7.31,0,0,0,3.41,6.25,14.28,14.28,0,0,0,6.66,2.2c-.26-.8-.53-1.65-.78-2.54A8.09,8.09,0,0,1,529.47,82a8,8,0,0,1-2.53-5.94,7.66,7.66,0,0,1,1-3.68,9,9,0,0,1,2.37-2.88,6.88,6.88,0,0,1,2.85-1,28.8,28.8,0,0,1,5.22-.39q4.9,0,7.39,1.93a6.25,6.25,0,0,1,2.35,3.88,2.16,2.16,0,0,0,.31.81c.86,1.32,1.68,2.8,2.48,4.08l0,0a10.54,10.54,0,0,0,1.68-5.48q.21-9.8-13.36-9.79c-.9,0-1.74,0-2.53.07s-1.56.09-2.29.09a5,5,0,0,1-3.36-1c-.72-.63-1.07-1.16-1.07-1.59s.54-1.21,1.61-1.89,3-1.17,5.82-1.43a12.8,12.8,0,0,0,8.59-3.8,12.17,12.17,0,0,0,3.12-8.69,14.1,14.1,0,0,0-.4-3.44,15.64,15.64,0,0,0-1.26-3.36l3.8.15Zm-9.41,14.5a6,6,0,0,1-5.21,3A6.14,6.14,0,0,1,532,53.18a14.12,14.12,0,0,1-2-8Q529.94,40,532,37a6.12,6.12,0,0,1,5.22-3,6,6,0,0,1,5.21,3,14.67,14.67,0,0,1,2,8.17A14.35,14.35,0,0,1,542.44,53.14Z"/><path d="M581.75,64.5c-.31,0-.72.3-1.22.88a2.14,2.14,0,0,1-1.62.87q-2.14,0-2.14-4.91V41.49q0-2.06-.15-3.72a6.78,6.78,0,0,0-.88-2.84,4.49,4.49,0,0,0-2.14-1.82,9.67,9.67,0,0,0-3.87-.64,13.54,13.54,0,0,0-5.7,1.19,17.06,17.06,0,0,0-4.5,2.93,14,14,0,0,0-2.93,3.63,7.16,7.16,0,0,0-1,3.33,1.25,1.25,0,0,0,.4,1,1.31,1.31,0,0,0,.95.36,3.16,3.16,0,0,0,3.08-1.7A33.37,33.37,0,0,0,561.74,39a7.55,7.55,0,0,1,2.54-3.4,6.19,6.19,0,0,1,3.87-1.42c1.64,0,2.7.53,3.21,1.58a13.16,13.16,0,0,1,.75,5.22v7c-2.7,1.54-5.06,3-7.13,4.28a42.91,42.91,0,0,0-5.17,3.83,13.38,13.38,0,0,0-3.12,3.79,8.79,8.79,0,0,0-1,4.16,6.43,6.43,0,0,0,1.58,4.55,5.79,5.79,0,0,0,4.44,1.7,8.83,8.83,0,0,0,4.85-1.5,53.65,53.65,0,0,0,5.35-4h.31a13.45,13.45,0,0,0,1.55,4A2.72,2.72,0,0,0,576.14,70a4.42,4.42,0,0,0,1.86-.53,9.37,9.37,0,0,0,2-1.3,11.17,11.17,0,0,0,1.61-1.62,2.44,2.44,0,0,0,.68-1.46A.49.49,0,0,0,581.75,64.5Zm-9.57-6.08a8.15,8.15,0,0,1-2.57,6.13,8.71,8.71,0,0,1-2.44,1.62,6.44,6.44,0,0,1-2.5.55,3.81,3.81,0,0,1-3.09-1.31,5.27,5.27,0,0,1-1.1-3.51q0-5.22,8.06-9.9l2.38-1.33a1.8,1.8,0,0,1,.79-.32c.32,0,.47.26.47.79Z"/><path d="M615.84,67.24c-.42-.08-.9-.18-1.42-.31a3.38,3.38,0,0,1-1.43-.79,3.09,3.09,0,0,1-.63-2.25V44.55c0-3.69-.89-6.6-2.68-8.76a8.77,8.77,0,0,0-7.1-3.24,8.65,8.65,0,0,0-3.5.71,12.14,12.14,0,0,0-3.19,2.14,11,11,0,0,0-2.17,2.49c-.45.76-.78,1.14-1,1.14s-.32-.28-.32-.86V34.45c0-.58,0-1,0-1.38s-.16-.52-.42-.52-.72.41-1.35,1.23a13.4,13.4,0,0,1-3,2.64,6.26,6.26,0,0,1-1.7.9,1,1,0,0,0-.83,1,.51.51,0,0,0,.47.55l1.06.15a2.63,2.63,0,0,1,1.12.44q.51.34.51,1.53v22.9a2.9,2.9,0,0,1-.63,2.16,3.62,3.62,0,0,1-1.42.83,13.73,13.73,0,0,1-1.44.36.7.7,0,0,0-.63.75c0,.37.1.59.28.67a2.51,2.51,0,0,0,.91.12,18.26,18.26,0,0,0,2.37-.16,23.07,23.07,0,0,1,2.73-.16,28.34,28.34,0,0,1,3.28.16,15.83,15.83,0,0,0,1.82.16,2.44,2.44,0,0,0,.91-.12c.19-.08.28-.3.28-.67a.69.69,0,0,0-.63-.75c-.43-.08-.9-.18-1.42-.31a3.38,3.38,0,0,1-1.43-.79,3.09,3.09,0,0,1-.63-2.25V49.45q0-6.87,1.91-10.3a6.54,6.54,0,0,1,6.2-3.43c2.76,0,4.66,1,5.72,3.07S608,43.92,608,48V63.89a2.9,2.9,0,0,1-.63,2.16,3.55,3.55,0,0,1-1.42.83c-.53.16-1,.28-1.42.36a.69.69,0,0,0-.64.75c0,.41.11.66.32.71a4.75,4.75,0,0,0,1,.08,15.68,15.68,0,0,0,2.09-.16,23.71,23.71,0,0,1,2.86-.16,28.59,28.59,0,0,1,3.28.16,15.48,15.48,0,0,0,1.82.16,2.51,2.51,0,0,0,.91-.12c.18-.08.28-.3.28-.67A.7.7,0,0,0,615.84,67.24Z"/><path d="M397.23,118.23c-.42,0-.7.34-.83,1a20,20,0,0,1-.84,2.72,16.49,16.49,0,0,1-3.95,6.64,8.67,8.67,0,0,1-6.17,2.22,10.77,10.77,0,0,1-5.93-1.78,16.31,16.31,0,0,1-4.86-5,26.51,26.51,0,0,1-3.29-7.63,37.63,37.63,0,0,1-1.18-9.74,40.26,40.26,0,0,1,1.18-10.2,25.64,25.64,0,0,1,3.24-7.59,15.79,15.79,0,0,1,4.79-4.75,11.21,11.21,0,0,1,5.9-1.65q6.09,0,9.25,5.85a10.38,10.38,0,0,1,1.26,3.09c.16.83.51,1.26,1,1.26s.71-.34.71-1a54.64,54.64,0,0,0-.23-5.77,6.11,6.11,0,0,0-.64-2.61,5.6,5.6,0,0,0-1.39-.91,13.52,13.52,0,0,0-2.44-1,29.94,29.94,0,0,0-3.24-.75,20.73,20.73,0,0,0-3.76-.32,18.81,18.81,0,0,0-8.54,2,21.77,21.77,0,0,0-6.93,5.49,26.53,26.53,0,0,0-4.66,8.35,31.52,31.52,0,0,0-1.7,10.51,33.46,33.46,0,0,0,1.58,10.53,26.27,26.27,0,0,0,4.43,8.38,20.57,20.57,0,0,0,6.72,5.54,18.16,18.16,0,0,0,8.39,2,20.28,20.28,0,0,0,4.35-.44,21,21,0,0,0,3.56-1.1,14.46,14.46,0,0,0,2.68-1.47,6.48,6.48,0,0,0,1.59-1.51,6.4,6.4,0,0,0,.59-2.88q.12-2.17.12-6.13C398,118.69,397.76,118.23,397.23,118.23Z"/><path d="M433.72,106.45a17.07,17.07,0,0,0-3.07-5.94,13.78,13.78,0,0,0-5-3.79A15.94,15.94,0,0,0,419,95.38a14.2,14.2,0,0,0-6.17,1.34,14.69,14.69,0,0,0-4.94,3.79,17.2,17.2,0,0,0-3.25,5.94,26.76,26.76,0,0,0,0,15.42,18.28,18.28,0,0,0,3.08,6,14.15,14.15,0,0,0,4.74,3.87,13.65,13.65,0,0,0,6.17,1.39,16.57,16.57,0,0,0,6.8-1.35,13.93,13.93,0,0,0,5.1-3.84,17.21,17.21,0,0,0,3.21-6,28.08,28.08,0,0,0,0-15.46Zm-6.84,21a9,9,0,0,1-7.9,4.24,7.68,7.68,0,0,1-4.23-1.23,10.54,10.54,0,0,1-3.36-3.57,19.58,19.58,0,0,1-2.22-5.63,32.43,32.43,0,0,1-.79-7.49q0-8.31,2.89-12.64a9,9,0,0,1,7.87-4.32q4.82,0,7.71,4.75T429.74,115Q429.74,123.2,426.88,127.44Z"/><path d="M470.15,130.06c-.42-.07-.9-.19-1.43-.32a3.17,3.17,0,0,1-1.42-.78,3.09,3.09,0,0,1-.63-2.25V107.37q0-5.52-2.68-8.76a9.3,9.3,0,0,0-10.61-2.52,11.77,11.77,0,0,0-3.18,2.14,10.82,10.82,0,0,0-2.18,2.49c-.44.76-.77,1.14-1,1.14s-.32-.29-.32-.86V97.27q0-.87,0-1.38c0-.34-.17-.51-.44-.51s-.71.4-1.34,1.22a13.48,13.48,0,0,1-3,2.64,5.9,5.9,0,0,1-1.7.91,1,1,0,0,0-.83,1,.51.51,0,0,0,.48.55l1.06.16a2.53,2.53,0,0,1,1.11.43,1.8,1.8,0,0,1,.52,1.54v22.89a2.88,2.88,0,0,1-.64,2.17,3.6,3.6,0,0,1-1.42.83,12.1,12.1,0,0,1-1.42.35.71.71,0,0,0-.64.75c0,.37.1.6.28.67a2.3,2.3,0,0,0,.91.12,19.81,19.81,0,0,0,2.36-.15,21.39,21.39,0,0,1,2.74-.16,26.36,26.36,0,0,1,3.28.16,17.66,17.66,0,0,0,1.83.15,2.34,2.34,0,0,0,.91-.12c.17-.07.27-.3.27-.67a.7.7,0,0,0-.64-.75c-.41-.07-.89-.19-1.42-.32a3.17,3.17,0,0,1-1.42-.78,3,3,0,0,1-.63-2.25V112.27q0-6.85,1.9-10.3A6.59,6.59,0,0,1,455,98.54q4.13,0,5.72,3.08t1.59,9.23v15.86a2.93,2.93,0,0,1-.63,2.17,3.7,3.7,0,0,1-1.43.83,10.81,10.81,0,0,1-1.42.35.7.7,0,0,0-.63.75c0,.42.1.66.31.71a4.37,4.37,0,0,0,1,.08,17.46,17.46,0,0,0,2.09-.15,21.71,21.71,0,0,1,2.86-.16,26.46,26.46,0,0,1,3.28.16,17.52,17.52,0,0,0,1.82.15,2.3,2.3,0,0,0,.91-.12c.18-.07.28-.3.28-.67A.71.71,0,0,0,470.15,130.06Z"/><path d="M494.16,117a8.62,8.62,0,0,0-1.86-2.81,13.21,13.21,0,0,0-2.85-2.12q-1.67-1-3.72-2a18.8,18.8,0,0,1-4.74-3.12,5.71,5.71,0,0,1-1.59-4.3A5.8,5.8,0,0,1,481,98.41a5.25,5.25,0,0,1,3.87-1.61,6.2,6.2,0,0,1,3.16.87,7.16,7.16,0,0,1,2.54,2.61,7.34,7.34,0,0,1,1.11,2.73c0,.66.31,1,.78,1s.72-.53.72-1.58V99.18a6.76,6.76,0,0,0-.16-1.47,2.28,2.28,0,0,0-.83-1.21,5.05,5.05,0,0,0-2.06-.83,20,20,0,0,0-3.83-.29c-3.43,0-6.09.94-8,2.85a10,10,0,0,0-2.84,7.35,7.72,7.72,0,0,0,2.09,5.62,23.16,23.16,0,0,0,6.45,4.19,18.23,18.23,0,0,1,5.3,3.44,6.77,6.77,0,0,1,1.74,4.94,8.09,8.09,0,0,1-2,5.73,7,7,0,0,1-5.35,2.18,5.7,5.7,0,0,1-4.31-1.46,10.29,10.29,0,0,1-2.17-4.31c-.47-1.85-.78-3.18-.91-4s-.44-1.22-.91-1.22-.87.44-.87,1.34c0,1.85,0,3.34-.08,4.47s-.07,1.92-.07,2.33a2.27,2.27,0,0,0,.79,1.7,7.58,7.58,0,0,0,2,1.35,12,12,0,0,0,2.77.91,15.43,15.43,0,0,0,3.12.32c3.75,0,6.65-1.09,8.7-3.24s3.08-5.11,3.08-8.84A10.81,10.81,0,0,0,494.16,117Z"/><path d="M530.18,128.28a7.11,7.11,0,0,1-1.07-.08,1.68,1.68,0,0,1-1.06-.63,3.59,3.59,0,0,1-.48-2.22v-26a8.65,8.65,0,0,0-.15-2.1c-.1-.28-.45-.43-1-.43-.26,0-.7,0-1.32.08s-1.38.08-2.26.08a16.48,16.48,0,0,1-1.91-.08c-.47,0-.81-.08-1-.08a1.13,1.13,0,0,0-.59.12c-.13.08-.2.3-.2.68a.63.63,0,0,0,.63.7,9.7,9.7,0,0,1,1.43.32,3.27,3.27,0,0,1,1.42.87,3.09,3.09,0,0,1,.63,2.21v14.4c0,4.59-.63,8-1.91,10.32a6.55,6.55,0,0,1-6.2,3.45c-2.75,0-4.67-1-5.73-3.09s-1.58-5.15-1.58-9.25V99.33a6.51,6.51,0,0,0-.2-2.13c-.13-.26-.47-.4-1-.4a11.13,11.13,0,0,0-1.28.08,11.64,11.64,0,0,1-1.52.08c-1.1,0-2,0-2.56-.08l-1.07-.08a1.13,1.13,0,0,0-.59.12c-.14.08-.21.3-.21.68a.64.64,0,0,0,.64.7,9.6,9.6,0,0,1,1.42.32,3.27,3.27,0,0,1,1.42.87,3.09,3.09,0,0,1,.64,2.21v17.09a46.14,46.14,0,0,0,.24,4.82A12.21,12.21,0,0,0,505,128a8.45,8.45,0,0,0,3.27,3.72,9,9,0,0,0,4.85,1.35,8.38,8.38,0,0,0,3.58-.75,13.14,13.14,0,0,0,3.19-2.18,9.56,9.56,0,0,0,2.21-2.5c.42-.76.74-1.14,1-1.14s.23.32.23.95v3.71a7.08,7.08,0,0,0,.12,1.39.59.59,0,0,0,.6.52,2.46,2.46,0,0,0,1.49-.75,13.29,13.29,0,0,1,2.29-1.55c.79-.42,1.48-.75,2.05-1s.88-.57.88-1A.49.49,0,0,0,530.18,128.28Z"/><path d="M546.87,130.06c-.42-.07-.9-.19-1.43-.32A3.17,3.17,0,0,1,544,129a3.09,3.09,0,0,1-.63-2.25V78.6c0-1.15-.18-1.73-.55-1.73a3.39,3.39,0,0,0-1.43.75,12.91,12.91,0,0,1-3.08,1.46,18.85,18.85,0,0,1-2.21.56,1,1,0,0,0-1,1c0,.47.17.71.55.71s.46,0,.59,0a1.51,1.51,0,0,1,.28,0c1.63,0,2.45,1.19,2.45,3.56v41.86a2.74,2.74,0,0,1-.71,2.17,4.37,4.37,0,0,1-1.58.83,14.05,14.05,0,0,1-1.58.35c-.48.08-.72.34-.72.75s.1.6.32.67a2.93,2.93,0,0,0,1,.12,22,22,0,0,0,2.32-.15,26.34,26.34,0,0,1,3.1-.16,25.6,25.6,0,0,1,3.2.16,17.49,17.49,0,0,0,1.9.15,2.3,2.3,0,0,0,.91-.12c.18-.07.28-.3.28-.67A.71.71,0,0,0,546.87,130.06Z"/><path d="M568,127c-.16,0-.39.16-.71.48a13.79,13.79,0,0,1-1.15,1,12.22,12.22,0,0,1-1.55,1,3.89,3.89,0,0,1-1.89.47q-3.8,0-3.8-6V100.84a1.93,1.93,0,0,1,.2-1.07c.13-.19.43-.28.91-.28h5.93c.42,0,.7-.1.83-.31a2.09,2.09,0,0,0,.2-1v-.31a1.52,1.52,0,0,0-.15-.83c-.12-.13-.4-.2-.88-.2h-5.85c-.48,0-.78-.09-.91-.27a2,2,0,0,1-.2-1.07V90.15c0-.63-.11-.94-.31-.94-.37,0-.76.5-1.16,1.5a13.52,13.52,0,0,1-2.33,3.56,18.46,18.46,0,0,1-3,3c-.82.62-1.23,1.13-1.23,1.55s.4.71,1.19.71h1.18c.48,0,.78.09.91.28a2,2,0,0,1,.21,1.07l-.25,18.9v3.71q0,4.76,1.7,7.21a5.52,5.52,0,0,0,4.79,2.45,6.22,6.22,0,0,0,2.89-.72,12.4,12.4,0,0,0,2.45-1.62,8.78,8.78,0,0,0,1.66-1.81,2.94,2.94,0,0,0,.59-1.32C568.3,127.23,568.2,127,568,127Z"/><path d="M579.22,83a2.47,2.47,0,0,0-2-1.19A2.36,2.36,0,0,0,575.31,83a4.66,4.66,0,0,0-.84,2.77,4.34,4.34,0,0,0,.84,2.69,2.37,2.37,0,0,0,1.93,1.1,2.44,2.44,0,0,0,2-1.14,4.42,4.42,0,0,0,.83-2.65A4.61,4.61,0,0,0,579.22,83Zm4.07,47.09c-.45-.07-.95-.18-1.5-.31a3.3,3.3,0,0,1-1.5-.79,3,3,0,0,1-.67-2.26V97.11a4.49,4.49,0,0,0-.09-1.09c0-.22-.2-.33-.46-.33s-.83.35-1.55,1A18.88,18.88,0,0,1,574.24,99a6.59,6.59,0,0,1-1.94,1.18,1.14,1.14,0,0,0-.91,1.1c0,.38.13.6.4.67a3.24,3.24,0,0,0,1,.12c1.63,0,2.45,1,2.45,2.92v21.71a2.75,2.75,0,0,1-.75,2.21,3.78,3.78,0,0,1-1.62.82c-.58.13-1.12.25-1.62.32s-.75.34-.75.75.11.6.36.67a2.86,2.86,0,0,0,1,.12,21.86,21.86,0,0,0,2.26-.15,27.12,27.12,0,0,1,3.17-.16,32.18,32.18,0,0,1,3.63.16q1.38.15,1.86.15a3.38,3.38,0,0,0,.91-.08c.18-.05.28-.29.28-.71A.73.73,0,0,0,583.29,130.05Z"/><path d="M618.53,130.06c-.43-.07-.9-.19-1.43-.32a3.28,3.28,0,0,1-1.42-.78,3.09,3.09,0,0,1-.63-2.25V107.37c0-3.68-.9-6.6-2.68-8.76a9.3,9.3,0,0,0-10.61-2.52,11.66,11.66,0,0,0-3.19,2.14,11,11,0,0,0-2.17,2.49c-.45.76-.77,1.14-1,1.14s-.3-.29-.3-.86V97.27c0-.58,0-1-.05-1.38s-.17-.51-.43-.51-.71.4-1.34,1.22a13.72,13.72,0,0,1-3,2.64,6,6,0,0,1-1.7.91,1,1,0,0,0-.83,1,.51.51,0,0,0,.47.55l1.07.16a2.61,2.61,0,0,1,1.12.43,1.83,1.83,0,0,1,.51,1.54v22.89a2.93,2.93,0,0,1-.64,2.17,3.67,3.67,0,0,1-1.42.83,11.32,11.32,0,0,1-1.43.35.7.7,0,0,0-.63.75c0,.37.09.6.28.67a2.24,2.24,0,0,0,.91.12,20.37,20.37,0,0,0,2.37-.15,21,21,0,0,1,2.73-.16,26.36,26.36,0,0,1,3.28.16,17.73,17.73,0,0,0,1.82.15,2.27,2.27,0,0,0,.91-.12c.19-.07.28-.3.28-.67a.7.7,0,0,0-.63-.75c-.43-.07-.9-.19-1.43-.32a3.17,3.17,0,0,1-1.42-.78,3.08,3.08,0,0,1-.64-2.25V112.27q0-6.85,1.91-10.3a6.57,6.57,0,0,1,6.21-3.43q4.13,0,5.72,3.08t1.59,9.23v15.86a3,3,0,0,1-.63,2.17,3.7,3.7,0,0,1-1.43.83,10.92,10.92,0,0,1-1.43.35.71.71,0,0,0-.63.75c0,.42.11.66.32.71a4.31,4.31,0,0,0,1,.08,17.6,17.6,0,0,0,2.09-.15,21.76,21.76,0,0,1,2.85-.16,26.25,26.25,0,0,1,3.28.16,17.73,17.73,0,0,0,1.82.15,2.27,2.27,0,0,0,.91-.12c.19-.07.28-.3.28-.67A.7.7,0,0,0,618.53,130.06Z"/><path d="M650.72,101.47a1.33,1.33,0,0,0,.94-.24,1.22,1.22,0,0,0,.25-.87,3.15,3.15,0,0,0-.32-1.7,1.38,1.38,0,0,0-1.19-.43,3.62,3.62,0,0,0-.63,0l-.39,0-1.91.16-.35,0a4.3,4.3,0,0,1-.67,0,5.54,5.54,0,0,1-2.22-.47L641.86,97a25,25,0,0,0-2.77-1.11,10.52,10.52,0,0,0-3.4-.51,11.26,11.26,0,0,0-8.42,3.68,12.17,12.17,0,0,0-2.41,4,13.72,13.72,0,0,0-.87,5,11.86,11.86,0,0,0,1.06,5.26,15.82,15.82,0,0,0,2.37,3.6,12.86,12.86,0,0,0,2.42,2.13c.73.48,1.1.8,1.1,1s-.23.42-.7.63l-4.75,2.45c-1.16.58-1.74,1-1.74,1.34a2.16,2.16,0,0,0,.24.68,3.79,3.79,0,0,0,.87,1.14l2.93,3.4a3.52,3.52,0,0,1,.7,1c0,.36-.38.81-1.14,1.33a26.12,26.12,0,0,0-2.49,2,17.21,17.21,0,0,0-2.49,2.73,6,6,0,0,0-1.15,3.68,7.26,7.26,0,0,0,3.41,6.25Q628,149,634.54,149a21.22,21.22,0,0,0,6.78-1.07,17.77,17.77,0,0,0,5.39-2.89,13.58,13.58,0,0,0,3.53-4.19,10.54,10.54,0,0,0,1.27-5.07q0-9.48-13.36-9.48c-.91,0-1.74,0-2.54.07s-1.55.08-2.3.08a4.91,4.91,0,0,1-3.35-.95c-.72-.63-1.07-1.15-1.07-1.58,0-.58.54-1.21,1.62-1.9a14.25,14.25,0,0,1,5.81-1.42,12.83,12.83,0,0,0,8.59-3.8,12.18,12.18,0,0,0,3.12-8.7,14.16,14.16,0,0,0-.4-3.44,16.18,16.18,0,0,0-1.26-3.36l3.8.16Zm-21.51,30.84a6.84,6.84,0,0,1,2.84-1,27.89,27.89,0,0,1,5.22-.4c3.27,0,5.73.65,7.4,1.94a6.64,6.64,0,0,1,2.49,5.57,7.77,7.77,0,0,1-3.12,6.41q-3.13,2.44-8.59,2.45a9.83,9.83,0,0,1-7.12-2.45,8,8,0,0,1-2.52-5.93,7.47,7.47,0,0,1,1-3.68A9,9,0,0,1,629.21,132.31ZM641.3,116a6,6,0,0,1-5.22,3,6.16,6.16,0,0,1-5.26-3,14.17,14.17,0,0,1-2-8q0-5.19,2.06-8.17a6.13,6.13,0,0,1,5.21-3,6,6,0,0,1,5.22,3q2,3,2,8.17A14.29,14.29,0,0,1,641.3,116Z"/></svg>