<svg id="Layer_1" data-name="Layer 1" xmlns="http://www.w3.org/2000/svg" viewBox="0 0 1920 1080"><defs><style>.cls-1{fill:#00487c;}.cls-2{fill:#0060a6;}.cls-3{fill:#fff;}</style></defs><rect id="SVGID" class="cls-1" x="-17.19" y="-9.67" width="1954.38" height="1099.34"/><path class="cls-1" d="M1467.43,621.58c-13.65,13.66-34.66,12.3-48.47,0Q1364.27,573.07,1312.79,521c-10.35-10.51-20.71-21.09-30.84-31.74-20.33,58.3-41.19,116.45-55.82,176.47-8.41,34.67-14.33,70.08-20.11,105.28-2.55,16.05-3.75,24.16-5,40.74a349.81,349.81,0,0,0-.6,45.09c1,18.24,5.48,30.62,6.3,49,.9,20.18-9.3,38.72-27.23,48.17-19.06,10.06-38.42,3.38-57.7-1.65-13.36-3.38-26.64-6.75-40-10-140.31-34.06-286.32-43.07-430.23-35-18.61,1-28.67-17.49-34.37-34.37-8.33-24.54-.08-307.18,25.59-449.82-42,21.53-85.09,40.59-129.89,55.9-17.63,6-37.51-6.91-42.17-24-5.17-18.61,6.38-36.17,23.94-42.1,38.19-13.13,73.38-28.66,109.55-47.19C737.66,297.81,857.34,206.8,983.62,127c.67-.45,1.43-.9,2.1-1.35.15-.07.23-.07.3-.15,12.61-7.35,28.59-5.18,40.14,4.2a12.34,12.34,0,0,1,1.13,1c.08,0,.15.07.23.15q54.81,48.51,106.17,100.62c112.1,113.3,214.21,235.68,333.74,341.7C1481.39,585.41,1480,609.12,1467.43,621.58Z"/><path class="cls-1" d="M1026.16,129.66c-11.55-9.38-27.53-11.55-40.14-4.2C998.63,117.43,1015.36,120.13,1026.16,129.66Z"/><path class="cls-2" d="M1467.46,573.11c-119.55-106-221.65-228.42-333.78-341.73q-51.43-52-106.13-100.58a.89.89,0,0,0-.27-.19,11,11,0,0,0-1.1-1c-11.56-9.39-27.52-11.52-40.18-4.22a.7.7,0,0,1-.27.15c-.72.46-1.4.91-2.13,1.41-126.27,79.78-246,170.82-379.4,238.9C568,384.38,532.85,400,494.61,413c-17.52,6-29.08,23.53-23.94,42.15,4.67,17.07,24.55,30,42.19,24,44.82-15.32,88-34.36,129.89-55.92-25.7,142.63-34,425.26-25.58,449.84,5.73,16.84,15.73,35.35,34.32,34.32,143.91-8.09,290,1,430.26,35q20.07,4.86,40,10c19.31,5,38.66,11.67,57.74,1.6,17.9-9.43,28.13-27.94,27.22-48.13-.84-18.39-5.29-30.79-6.27-49a342.47,342.47,0,0,1,.57-45.08c1.29-16.61,2.47-24.67,5-40.71,5.74-35.2,11.67-70.63,20.11-105.3,14.63-60,35.47-118.22,55.76-176.49q15.28,16,30.91,31.74,51.42,52,106.13,100.58c13.83,12.28,34.85,13.65,48.5,0C1480,609.1,1481.37,585.42,1467.46,573.11ZM973.19,770.89q-2.91,40.18-5.78,80.47-33.07-4.56-66.41-7.72,11.29-94.42,22.54-189c8.63,1.41,17.38,2.36,26,3.31,10.3,1.14,20.6,1.86,30.94,2.28h.64Q977.1,715.58,973.19,770.89Zm195-154.34c-9,32.43-15.66,65.12-21.59,98.19-5.77,32.16-11.67,64.43-14.14,97a358.51,358.51,0,0,0,1.87,73.06q-17.11-4.4-34.29-8.56-32.22-7.86-64.78-13.91,7.65-106.68,15.29-213.29a56.34,56.34,0,0,0-2.7-23,51,51,0,0,0-32.47-31.67c-10.52-3.31-22.16-2.28-33.07-2.7q-15.27-.51-30.52-2.09c-13.53-1.4-27-5.66-40.67-6.61-31.48-2.21-53,22.35-54.25,52.15-1.56,35-7.94,70.32-12.09,105.1q-5.87,49.15-11.74,98.31-72.36-3.95-144.87-1.41c-11.13-152.85.76-308.55,33-457.48,65.45-38.85,128.63-82,191.43-124.19,28.89-19.38,57.85-38.73,87.12-57.51,80.89,74.09,154.25,155.24,229.1,235.22C1208.22,494.23,1185.49,554.52,1168.15,616.55Z"/><path class="cls-2" d="M1026.18,129.66c-11.56-9.39-27.52-11.52-40.18-4.22C998.66,117.45,1015.34,120.15,1026.18,129.66Z"/><polygon class="cls-3" points="934.41 484.54 947.24 468.68 947.24 484.61 934.41 484.54"/><path class="cls-3" d="M817,494.19V453.75h-9.85v49.79H840.9v-9.35Z"/><path class="cls-3" d="M846.51,453.75v49.79h9.67V453.75Z"/><path class="cls-3" d="M896.09,485.19A12.26,12.26,0,0,0,893.6,481a18,18,0,0,0-4.36-3.43,38.94,38.94,0,0,0-6.42-2.87c-2-.7-3.59-1.36-4.9-2a17.34,17.34,0,0,1-3.14-1.81A5.64,5.64,0,0,1,873.1,469a4.52,4.52,0,0,1-.51-2.15,4.19,4.19,0,0,1,.54-2,5.94,5.94,0,0,1,1.4-1.69,7.17,7.17,0,0,1,2.08-1.15,7.94,7.94,0,0,1,2.66-.43,13.79,13.79,0,0,1,5.41,1,13.06,13.06,0,0,1,4.18,2.76l6.73-6.79a21,21,0,0,0-7-4.36,27.41,27.41,0,0,0-9.65-1.49,18.71,18.71,0,0,0-6.39,1.06,16.46,16.46,0,0,0-5.18,2.95,13.9,13.9,0,0,0-3.48,4.58,13.55,13.55,0,0,0-1.29,5.86,13.34,13.34,0,0,0,1.16,5.73,14.31,14.31,0,0,0,3.05,4.25,18.7,18.7,0,0,0,4.43,3.08,50.56,50.56,0,0,0,5.26,2.28c2.08.74,3.79,1.41,5.11,2a16.54,16.54,0,0,1,3.12,1.78,4.5,4.5,0,0,1,2,3.93,4.05,4.05,0,0,1-.53,2.06,5.07,5.07,0,0,1-1.42,1.61,7.34,7.34,0,0,1-2.12,1.1,8.53,8.53,0,0,1-2.6.41,18.36,18.36,0,0,1-6.22-1,19.86,19.86,0,0,1-5.87-3.52l-6.85,6.92a39.62,39.62,0,0,0,4.34,3.09,22.94,22.94,0,0,0,4.36,2.08,24.17,24.17,0,0,0,4.86,1.19,40.84,40.84,0,0,0,5.83.37,18.15,18.15,0,0,0,6.6-1.15,16.82,16.82,0,0,0,5.17-3.08,14.32,14.32,0,0,0,3.4-4.46,12.12,12.12,0,0,0,1.21-5.33A16,16,0,0,0,896.09,485.19Z"/><path class="cls-3" d="M900.64,453.75v8.59h13.78v41.2h9.7v-41.2h16.17l7-8.59Z"/><path class="cls-3" d="M989.87,462v-8.28H957v49.79h9.48V481.48h23.12v-7.86H966.43V462Z"/><path class="cls-3" d="M1032.27,501c-.4-1-.83-2.15-1.27-3.52-.38-1.08-.72-2.06-1-3s-.61-1.72-.88-2.5-.53-1.5-.77-2.21-.52-1.4-.8-2.11a12.26,12.26,0,0,0-2.36-4,9.3,9.3,0,0,0-3.84-2.52,12.42,12.42,0,0,0,3.75-2,14.49,14.49,0,0,0,2.93-3.08,14.24,14.24,0,0,0,1.93-3.81,13.47,13.47,0,0,0,.68-4.23,14.43,14.43,0,0,0-1.12-5.68,13.81,13.81,0,0,0-3.11-4.54,14,14,0,0,0-4.73-3,15.93,15.93,0,0,0-5.91-1.09l-19.66.07v49.79h9.53V483.72h3.61a10.9,10.9,0,0,1,3.89.63,8.22,8.22,0,0,1,2.83,1.74,10.63,10.63,0,0,1,2,2.67,17.7,17.7,0,0,1,1.41,3.44l3.55,11.34h10.63A16.89,16.89,0,0,1,1032.27,501Zm-12-29.1a7.75,7.75,0,0,1-1.78,2.4,7.63,7.63,0,0,1-2.65,1.52,10,10,0,0,1-3.27.54h-7V460.78h7a9.08,9.08,0,0,1,3.27.59,8.25,8.25,0,0,1,2.65,1.65,8.35,8.35,0,0,1,1.78,2.51,7.61,7.61,0,0,1,.65,3.17A7.49,7.49,0,0,1,1020.31,471.85Z"/><path class="cls-3" d="M1072.43,461.71v-8h-32.91v49.79h32.91v-8.41H1049V481.42h23.12v-7.8H1049V461.71Z"/><path class="cls-3" d="M1112.81,461.71v-8h-32.9v49.79h32.9v-8.41h-23.42V481.42h23.12v-7.8h-23.12V461.71Z"/><polygon class="cls-3" points="923.81 503.54 947.24 503.54 947.24 493.83 924.12 493.83 923.81 503.54"/></svg>