<svg id="Layer_1" data-name="Layer 1" xmlns="http://www.w3.org/2000/svg" xmlns:xlink="http://www.w3.org/1999/xlink" viewBox="0 0 1920 1080"><defs><radialGradient id="radial-gradient" cx="961.14" cy="922.02" r="267.35" gradientTransform="translate(0 -128.21) scale(1 1.12)" gradientUnits="userSpaceOnUse"><stop offset="0"/><stop offset="0.3" stop-color="#020202"/><stop offset="0.43" stop-color="#0a0a0a"/><stop offset="0.54" stop-color="#161616"/><stop offset="0.63" stop-color="#292929"/><stop offset="0.7" stop-color="#414141"/><stop offset="0.77" stop-color="#5e5e5e"/><stop offset="0.84" stop-color="#818181"/><stop offset="0.9" stop-color="#a9a9a9"/><stop offset="0.96" stop-color="#d6d6d6"/><stop offset="1" stop-color="#fff"/></radialGradient><mask id="mask" x="696.35" y="664.04" width="520.39" height="545.39" maskUnits="userSpaceOnUse"><rect x="696.35" y="664.04" width="520.39" height="429.21" fill="url(#radial-gradient)"/></mask></defs><rect x="-10.81" y="-9.67" width="1941.61" height="1099.35" fill="#fff"/><path d="M351.18,638.26H1568.79A42.19,42.19,0,0,1,1611,680.45v408.81a0,0,0,0,1,0,0H309a0,0,0,0,1,0,0V680.45A42.19,42.19,0,0,1,351.18,638.26Z" fill="#fcfcfc" stroke="#e6e6e6" stroke-miterlimit="10"/><path d="M1029.9,856.07c.77-3.06,2.26-11.68,7.45-15.26C1037.91,846.52,1035.18,853.87,1029.9,856.07Zm5.19-27.69c1.28,5.19.43,12.52-4.12,16C1031.12,841.68,1030.63,832.68,1035.09,828.38Zm-4-11.7c1.89,4.44,2.44,11.42-.73,16.34C1029.35,829.19,1027.8,821.24,1031.1,816.68Zm-5.63-10.9c2.4,4,4.14,9.8,1.42,15.78C1025.83,818.09,1022.58,810.66,1025.47,805.78ZM991.1,898.86c-3.89,1.86-7.71,3.58-11.34,5.06C973,906.83,966,910,960.35,913c3.13,2.25,5.83,4.15,8.15,7.2l-.58.41a29.19,29.19,0,0,0-8.23-7.21c-3.47,2.51-6.46,4.59-8.64,7.47l-.58-.42a28.54,28.54,0,0,1,8.85-7.46,11.49,11.49,0,0,1-1.75-.85c-8.17-4.61-19.12-8.4-30-13.51a118.76,118.76,0,0,1-11.7-6.27c-28-17.34-34.39-46.09-22-76.34l.53.1c-12.45,30.11-6,59,21.78,75.74a98.89,98.89,0,0,0,12,6.21c10.53,5.1,21.49,8.85,29.73,13.48.61.34,1.2.68,1.78,1,5.23-3.15,11.83-5.9,19.81-9.28,3.63-1.24,7.45-3.18,11.43-5,39-18.62,46.73-49.26,33.18-82l.67-.17C1038.36,849.71,1029.91,880.28,991.1,898.86Zm23.42-100c6.69,4.36,9.81,12.71,9.14,15.77C1018.35,810.26,1015.52,801.21,1014.52,798.86Zm11.16,22.79c-5.38-1.37-8.09-5.44-11.5-11.23C1023.17,812.92,1024,817.86,1025.68,821.65Zm-9.59,57.87c-.41.57-.73,1-.86,1.21-2-4.33-1.37-7.86,1.34-15.89,3.41,5.1,3,9.16.86,12.56A22.86,22.86,0,0,1,1016.09,879.52ZM1028.68,834c-5.32-2-7.44-6.7-10-12.41C1027.61,824.87,1027.54,830.25,1028.68,834Zm-6.89,35.68c-2.37-4.39-1.68-10.63-1.32-14.78,2,2,3.81,4.28,3.93,6.6.89,3.94-1.48,8.61-1.68,9.2C1022.36,870.24,1022.48,869.82,1021.79,869.66Zm4.34-25.67c-2.79-3.31-4.27-9.64-4.67-11.28,8.45,4.45,7.49,10.11,7.92,14a24.71,24.71,0,0,1-2.39-1.84A8.93,8.93,0,0,1,1026.13,844Zm1.74,11.9c0,.22,0,.43-.07.63,0,.41-.08.79-.14,1.12-.11.66-.19,1.17.12,1.41-4.47-2.9-5-7.93-5.69-15a15.06,15.06,0,0,1,5.05,5.78,11.46,11.46,0,0,1,.77,5.44C1027.9,855.45,1027.89,855.67,1027.87,855.89Zm-17.43,17.36c3.46,9.16-2.11,12.62-4.85,15.57C1003.93,883.69,1006.24,880,1010.44,873.25Zm-15.77,22c-1.31-5.86,2.68-9.92,8.05-15.07.63,6.79-1.52,9.76-4.72,12.5C996.51,894,995.07,894.89,994.67,895.23Zm-7.5,2.91c-2.13,1.21-3.65,2.08-4.09,2.41-1.18-6.09,4-10.2,9.36-14.75C992.6,892.86,990.18,895.55,987.17,898.14Zm-15.94,7.37c-1.55-6.56,4.49-11.07,10.22-14.92C981,901,975.44,902.24,971.23,905.51Zm-33.55-14.7a52.88,52.88,0,0,1,4.7,3.39c6.06,5.06,6.25,8.54,5.53,11.54C943.73,902.5,938.19,901.73,937.68,890.81Zm-4.17,8a14.52,14.52,0,0,1-4-4.13,15.29,15.29,0,0,1-1.78-8c5,3.74,10.65,8.44,9.52,14.58A25.93,25.93,0,0,1,933.51,898.85Zm-15-16.89c5,4.61,9.11,9.33,8.41,14.68C921.71,893.36,917.23,889.76,918.55,882Zm-8-5.74c4.6,6,7,10.65,6,15C911.22,887.19,908.3,882.47,910.59,876.22Zm-6.45-7c2.31,4.39,4.8,10.65,3.18,15.3C901.64,878.75,901.44,873.43,904.14,869.27Zm-1.35-58.48a22.19,22.19,0,0,1-10.21,11.05C893.53,819.24,896.27,810.88,902.79,810.79Zm-4,10.06A21.19,21.19,0,0,1,889.85,833C891,827.64,893.28,821.59,898.77,820.85Zm-2.46,10.33c-.56,3.16-2.76,9.7-7.34,13.24C889.16,835.76,893,832.08,896.31,831.18Zm-.38,10.33c-.12,1-.67,2.45-1,4.06-.71,3.62-2.08,7.61-4.75,10.2C889.23,847.28,892.05,843.42,895.93,841.51Zm3.55,34.85c-3.37-5-4.42-11.05-.05-15.19C900.69,865.68,901.78,872.07,899.48,876.36Zm-3-24.81c.52,4.51.13,11.42-2.44,15.06C890.77,858.47,893.41,853.6,896.51,851.55Zm-1.72-37c-.28-4.2,2-10.42,8.79-16.09C902.22,802.78,898.65,812.22,894.79,814.56ZM892.55,804c2.5,10.82.17,11.83-1,17.23C887.79,816.18,889.69,809.58,892.55,804Zm-6.19,12.38c4.28,10,2.24,11.93,2,17.39C883.42,829.59,884.38,822.45,886.36,816.33ZM882,829.7c6.32,9.26,4.69,11.17,5.45,17C881.54,843.77,881.15,836.26,882,829.7Zm-1.95,14.23c8.52,8.12,6.88,10.33,9.25,15.61C882.69,858.3,880.57,850.64,880.08,843.93Zm14,27.75c-3.35.36-7.11-.85-10.65-7.39a29.41,29.41,0,0,1-2.32-5.72C891.46,864.41,890.23,866.93,894.09,871.68Zm7.68,10.58c-6.49,2.78-12.69-3.42-16.26-9.39C896.91,875.79,896.62,878.45,901.77,882.26Zm10.09,8.5c-2.77,2-6.64,3.1-13.22-.89a30.61,30.61,0,0,1-5.14-4C905.22,885.36,907.27,888.69,911.86,890.76Zm10.93,6.72c-2.08,2.28-5.42,4.23-12.86,1.65-2.43-.84-4.48-2-5.79-2.54a23.72,23.72,0,0,1,8.49-1.81C916.13,894.78,921.7,897.2,922.79,897.48Zm7.43,4.48a47.48,47.48,0,0,1,4.53,1.45,11.05,11.05,0,0,1-4.89,2.89,18.83,18.83,0,0,1-7.84,0,37,37,0,0,1-6-1.78,23.41,23.41,0,0,1,8-3.06A18.73,18.73,0,0,1,930.22,902Zm16,6.15c-1.63,2.45-4.29,4.92-12.11,4a41.38,41.38,0,0,1-6-1.21c2.51-1.7,5-3.31,7.56-3.92C939.37,906.13,945.44,907.94,946.24,908.11Zm36.12-.87a20.44,20.44,0,0,1,7.54,3.93,41.39,41.39,0,0,1-6,1.2c-2.43.27-5,.79-7.65-.5a8.61,8.61,0,0,1-4.45-3.53c.54-.09,2.26-.6,4.31-1A16.32,16.32,0,0,1,982.36,907.24Zm.36-3.52c.45-.17,2.45-.66,4.07-1.05,3.51-.69,7.61-1.3,13.91,3.16-4.24,1.09-9,2.22-13.5,1.16A7.66,7.66,0,0,1,982.72,903.72Zm10.3-4.88a69.62,69.62,0,0,1,7.09-2.07,19.48,19.48,0,0,1,11.23,1.65C1005.53,901.48,997.36,903.72,993,898.84Zm10.22-5.69c3.43-1.62,9.91-5.46,18-3.5C1016.2,893.74,1008.14,897.18,1003.24,893.15Zm9.43-7c3-2.13,9-7.33,16.65-7.28C1025.43,884,1018.23,889,1012.67,886.14Zm8-8.64c2.31-2.64,7.26-9.41,14.1-11C1032.49,872.26,1026.6,878.65,1020.65,877.5Zm5.84-10.21c1.63-2.86,4.82-10.85,10.85-13.58C1036.66,858.2,1032.94,866.58,1026.49,867.29Z" fill="#e99d09" fill-rule="evenodd"/><path d="M944.43,810.53a9.16,9.16,0,0,0,1.69-5.33,7.28,7.28,0,0,0-2.15-5.65,8.11,8.11,0,0,0-5.73-2,7.16,7.16,0,0,0-5.6,2.38,9.15,9.15,0,0,0-2.15,6.41v.4h-10v-2.11a17.84,17.84,0,0,1,2.26-8.92,15.91,15.91,0,0,1,6.41-6.29,19.81,19.81,0,0,1,9.61-2.27q8.82,0,13.66,4.47t4.84,12a16.62,16.62,0,0,1-2.54,9.26,40.38,40.38,0,0,1-7.85,8.37l-11.26,9.52h21.87v9h-37v-8l18.66-15.84A28.13,28.13,0,0,0,944.43,810.53Z"/><path d="M997.49,788.76v6.89l-22.38,44.11H963.77l22.24-42H960.49v-9Z"/><path d="M921.16,845.49l2.85,4.67,2.9-4.67h1.36l-3.62,6v3.63h-1.37v-3.63l-3.54-6Z"/><path d="M935.63,845.49v.92h-5v3.2h4.11v.91H930.6v3.66h5v.91h-6.41v-9.6Z"/><path d="M940,845.49h1.41l3.65,9.6H944l-1.07-2.74h-4.43l-1.07,2.74h-1.06Zm2.43,6-1.76-4.68-1.75,4.68Z"/><path d="M951.6,845.72a2.67,2.67,0,0,1,1.14,1,3,3,0,0,1,.4,1.57,2.84,2.84,0,0,1-.56,1.75,2.79,2.79,0,0,1-1.51,1l2.18,4h-1.33l-2-3.65h-2.44v3.65h-1.37v-9.6h3.77A2.46,2.46,0,0,1,951.6,845.72Zm-1.74,4.34a2.12,2.12,0,0,0,1.49-.5,1.87,1.87,0,0,0,0-2.65,2.08,2.08,0,0,0-1.47-.5h-2.37v3.65Z"/><path d="M956.19,853.47a2.82,2.82,0,0,0,1.83.58,2.75,2.75,0,0,0,1.62-.43,1.4,1.4,0,0,0,.61-1.21,1.22,1.22,0,0,0-.33-.9,2.05,2.05,0,0,0-.88-.5,13.27,13.27,0,0,0-1.45-.31,5.89,5.89,0,0,1-2.31-.82,2,2,0,0,1-.86-1.84,2.57,2.57,0,0,1,.42-1.45,2.62,2.62,0,0,1,1.17-1,4.1,4.1,0,0,1,1.72-.35,4.2,4.2,0,0,1,1.82.37,3,3,0,0,1,1.76,2.6h-1.19a2,2,0,0,0-.77-1.36,2.87,2.87,0,0,0-3.16-.09,1.39,1.39,0,0,0-.56,1.18,1.15,1.15,0,0,0,.33.87,2.16,2.16,0,0,0,.86.47,11,11,0,0,0,1.44.31,6,6,0,0,1,2.33.83,2.05,2.05,0,0,1,.87,1.85,2.63,2.63,0,0,1-.44,1.48,2.85,2.85,0,0,1-1.22,1,4.24,4.24,0,0,1-1.79.36,4.51,4.51,0,0,1-2-.41,3.13,3.13,0,0,1-1.31-1.15,3.43,3.43,0,0,1-.51-1.7h1.19A2.17,2.17,0,0,0,956.19,853.47Z"/><path d="M987.41,854.5a4.8,4.8,0,0,1-4.79,0,4.38,4.38,0,0,1-1.65-1.76,5.76,5.76,0,0,1,0-5.08,4.51,4.51,0,0,1,1.65-1.76,4.87,4.87,0,0,1,4.79,0,4.51,4.51,0,0,1,1.65,1.76,5.76,5.76,0,0,1,0,5.08A4.38,4.38,0,0,1,987.41,854.5Zm-4.16-1a3.42,3.42,0,0,0,3.53,0,3.24,3.24,0,0,0,1.2-1.36,4.37,4.37,0,0,0,.43-2,4.29,4.29,0,0,0-.43-2,3.24,3.24,0,0,0-1.2-1.36,3.37,3.37,0,0,0-3.53,0,3.24,3.24,0,0,0-1.2,1.36,4.29,4.29,0,0,0-.43,2,4.37,4.37,0,0,0,.43,2A3.24,3.24,0,0,0,983.25,853.54Z"/><path d="M997.35,845.49v.92h-5v3.2h4.12v.91h-4.12v4.57H991v-9.6Z"/><path d="M926,859.67v.91h-5v3.2h4.12v.92H921v3.65h5v.92h-6.4v-9.6Z"/><path d="M927.18,859.67h1.4L931,863.4l2.46-3.73h1.29l-3.06,4.69,3.27,4.91h-1.42l-2.63-3.95-2.65,3.95H927l3.27-4.91Z"/><path d="M941.48,860a2.68,2.68,0,0,1,1.12,1,3.3,3.3,0,0,1,0,3.13,2.71,2.71,0,0,1-1.12,1,3.71,3.71,0,0,1-1.68.36h-2.34v3.66h-1.37v-9.6h3.71A3.79,3.79,0,0,1,941.48,860Zm-1.68,4.21a2.16,2.16,0,0,0,1.49-.5,1.9,1.9,0,0,0,0-2.67,2.14,2.14,0,0,0-1.47-.49h-2.37v3.66Z"/><path d="M950.71,859.67v.91h-5v3.2h4.11v.92h-4.11v3.65h5v.92h-6.4v-9.6Z"/><path d="M957.72,860a2.67,2.67,0,0,1,1.14,1,3.08,3.08,0,0,1,.4,1.57,2.87,2.87,0,0,1-.56,1.76,2.78,2.78,0,0,1-1.51,1l2.18,3.92h-1.51l-2-3.66h-2.43v3.66h-1.37v-9.6H956A3,3,0,0,1,957.72,860Zm-1.91,4.26a2.14,2.14,0,0,0,1.48-.5,1.71,1.71,0,0,0,.56-1.34,1.69,1.69,0,0,0-.56-1.32,2.13,2.13,0,0,0-1.47-.5h-2.36v3.66Z"/><path d="M962.15,859.67v9.6h-1.38v-9.6Z"/><path d="M970.38,859.67v.91h-5.49l.46,3.2H969v.92h-3.66v3.65h5v.92H964v-9.6Z"/><path d="M971.29,859.67h1.42l5,7.43v-7.43h1.37v9.6H978l-5.34-7.44v7.44h-1.37Z"/><path d="M982.92,860.35a4.56,4.56,0,0,1,2.33-.59,4,4,0,0,1,2.57.83,3.66,3.66,0,0,1,1.31,2.28H988a2.63,2.63,0,0,0-1-1.51,3,3,0,0,0-1.79-.54,3,3,0,0,0-2.8,1.75,4.39,4.39,0,0,0-.39,1.9,4.44,4.44,0,0,0,.39,1.89,3,3,0,0,0,1.12,1.3,3.11,3.11,0,0,0,1.68.46,2.86,2.86,0,0,0,1.78-.54,2.63,2.63,0,0,0,1-1.51h1.15a3.59,3.59,0,0,1-1.29,2.27,3.91,3.91,0,0,1-2.57.84,4.56,4.56,0,0,1-2.33-.59,3.92,3.92,0,0,1-1.54-1.66,5.78,5.78,0,0,1,0-4.92A3.87,3.87,0,0,1,982.92,860.35Z"/><path d="M997.35,859.67v.91h-5.48l.45,3.2H996v.92h-3.66v3.65h5v.92H991v-9.6Z"/><g mask="url(#mask)"><g opacity="0.67"><path d="M787.27,847.11c-.19-1.54-.44-3.09-.69-4.6-.87-5.36-1.77-10.9-.07-16.48l.31-1,.64.85.36.43a2.73,2.73,0,0,1,.88,1.65c.11,7.44,0,13.52-.35,19.13Zm0-19.78c-1.18,4.76-.5,9.57.26,14.24.14-4.09.16-8.54.08-13.62A1.25,1.25,0,0,0,787.27,827.33Z" fill="#e99d09"/><path d="M862.21,895.36l-1.54-.36c-4.6-1.09-5.95-2.4-7.21-4.93-2.48-4.93-5.3-10.52-11.64-12.11l-4.68-1.17,4.83.1c8,.17,11.44,5.53,15.06,11.21a66.8,66.8,0,0,0,4.19,6ZM846.3,878.73c4,2.59,6.15,6.92,8.13,10.85,1,1.9,1.83,3,5,4-1.2-1.61-2.25-3.26-3.27-4.86C853.3,884.27,850.79,880.34,846.3,878.73Z" fill="#e99d09"/><path d="M871.84,906.34l-.42-.15-5.69-2-4.64-1.62-.77-.27.55-.61c.79-.89,1.42-1.59,2.11-2.38l1.56-1.76.35-.39,2.5,2.1c1.75,1.46,3.57,3,5.4,4.5l.34.29-.22.39c-.27.5-.55,1-.84,1.51Zm-9.62-4.53,3.87,1.36,5.26,1.84c.14-.23.27-.47.4-.7l-5-4.22-1.7-1.42L863.79,900Z" fill="#e99d09"/><path d="M889.11,711.68c-1.35,0-2.7-.7-3.65-3.29l-.08-.23.11-.21c2-3.89,5.43-5.26,10.07-4.06l.53.14-.15.53c-.34,1.21-.64,2.26-.94,3.34l-.81,2.83-.46-.05a5.06,5.06,0,0,0-2.09.44A8.11,8.11,0,0,1,889.11,711.68Zm-2.55-3.44c1.21,3,2.77,2.52,4.73,1.85a7.75,7.75,0,0,1,2.1-.51l.56-2,.8-2.79C890.93,704,888.31,705.07,886.56,708.24Z" fill="#e99d09"/><path d="M910.72,746.82l-2-1c-5.43-2.86-5.43-2.86-10.81-2.42l-1.39.11,6.78-7.26.38.55,2.9,4.15c.86,1.25,1.78,2.56,2.84,4.08Zm-9.21-4.76c2,0,3.18.4,5.77,1.73l-1.57-2.26-2.51-3.6-4,4.23C900.13,742.1,900.87,742.06,901.51,742.06Z" fill="#e99d09"/><path d="M897.5,712.54l.24-1.1c.35-1.55.7-3.1,1-4.53l.09-.41h.42c5.7-.22,5.79-.2,9.59,2.11l1.09.67-1.24.32c-3.45.9-6.92,1.8-10.36,2.72Zm2.23-5c-.25,1.12-.52,2.3-.78,3.48l8.25-2.17C904.76,707.41,904.16,707.39,899.73,707.55Z" fill="#e99d09"/><path d="M934.5,719c-1.5,0-2.85-1.06-4.92-3.29l-.84-.91H930c.66,0,1.34,0,2-.09,2.32-.16,4.72-.32,7,1.3l.62.43-.61.45C937.07,718.24,935.74,719,934.5,719Zm-3.3-3.36c2.57,2.63,3.54,2.69,6.49.63-1.77-.94-3.65-.82-5.63-.68Z" fill="#e99d09"/><path d="M935.53,712.09c-5.32,0-10.07-1.36-14.68-2.67a61.18,61.18,0,0,0-9.28-2.14l-.41,0-.06-.41c-.32-2.23-.59-4.09-.84-5.94l-.09-.64.65,0,.61,0c2.15.05,4.37.1,5.87,2.7s4.25,3.31,7.82,3.43c4,.14,8.34.8,12.44,4.7l.91.86-1.25.07C936.65,712.07,936.08,712.09,935.53,712.09Zm-23.41-5.84a64.66,64.66,0,0,1,9,2.13c4.61,1.31,9.36,2.66,14.65,2.62-3.3-2.7-6.71-3.37-10.72-3.51-3.4-.11-6.81-.67-8.72-4-1.19-2.06-2.93-2.11-4.94-2.15C911.63,702.89,911.86,704.46,912.12,706.25Z" fill="#e99d09"/><path d="M952.12,828.72l-5.55-3.43L936,818.76l-.6-.37.51-.48L941,813l5.57-5.36-.45,1.83c-1,3.93-.37,6,2.24,7.77,4,2.65,5.43,6.69,4,10.82ZM937.2,818.21c3.46,2.13,6.71,4.15,9.94,6.15l4.39,2.72c1-3.44-.39-6.66-3.74-8.9-2.58-1.72-3.52-3.88-3-7.22l-3,2.86Z" fill="#e99d09"/><path d="M941.94,761.67,932,759.34l-.11-.24c-1.31-2.86-2.48-5.4-3.71-8.11l-2.26-.27-6.84-.84-.84-.1.44-.72c2.28-3.7,2.65-3.66,11.38-1.7.41-.52.81-1.07,1.19-1.6a17.18,17.18,0,0,1,3.35-3.8c3.54-2.67,3.54-2.67,2.31-5.52-.33-.77-.75-1.74-1.2-3-2.68-7.32-7.53-7.65-13.66-8.08l-1.94-.1-.62,0v.35l-.79-.39c-4.68-2.37-8.74-4.78-10.9-10.27l-.19-.5.49-.2a16.55,16.55,0,0,0,2.59-1.47c2.41-1.56,5.14-3.32,9.12-.91l.51.31-3.89,5.26.49,0a3.66,3.66,0,0,0,.94,0l.6-.55c2.76-2.54,5.61-5.17,10.12-3.59a3.34,3.34,0,0,1,1.33,1.08c.1.12.2.23.31.34h.89l-.68.88c-.17.22-.39.48-.6.73s-.55.66-.73.9l.47.61c1.12,1.49,2.09,2.77,4.32,2.25a9.12,9.12,0,0,1,5.45.31,7.66,7.66,0,0,0,1.55.42c1.23.25,2.61.53,3.28,1.65a3.83,3.83,0,0,1,.14,3,10.65,10.65,0,0,0,1,.73,12.39,12.39,0,0,1,1.07.76l3.23,2.64c1.54,1.26,3.12,2.56,4.82,3.93l.38.31-1.42,2.13-2.19,3.29c1.9,3.3,4.88,5.61,8,8,1.26,1,2.57,2,3.8,3.07l.64.57-.78.34-8.53,3.72-.37.16-2.8-3.19-3.3-3.73c-2.07,1.81-1.29,3.24-.24,5.17.74,1.36,1.59,2.91,1.18,4.68l-.12.54-2.13-.55-6.17-1.62.81,2.76Zm-9.51-3,7.6,1.78-.16-.56c-.39-1.32-.71-2.39-1.08-3.68l-.26-.92.92.24,7.09,1.86,1,.26a6.69,6.69,0,0,0-1.16-3.36c-1.1-2-2.36-4.33.93-6.87l.4-.3.33.37,3.65,4.13,2.28,2.59,7.38-3.22c-1-.86-2.07-1.67-3.1-2.47-3.18-2.47-6.48-5-8.48-8.67l-.15-.29.18-.28c.89-1.32,1.62-2.43,2.38-3.56l.87-1.31c-1.56-1.26-3-2.45-4.44-3.62l-3.23-2.64c-.26-.21-.63-.46-1-.7-1.06-.71-1.7-1.13-1.51-1.75a3.08,3.08,0,0,0,0-2.37c-.43-.71-1.51-.93-2.57-1.15a8,8,0,0,1-1.78-.49,8.27,8.27,0,0,0-4.76-.24c-2.92.67-4.25-1.09-5.43-2.65-.21-.28-.42-.57-.64-.83-.39-.45,0-.92.94-2l.27-.33-.18-.2a2.65,2.65,0,0,0-.87-.78c-3.9-1.36-6.39.94-9,3.36l-.62.58c-.39.35-.93.31-1.74.25-.39,0-.88-.07-1.45-.07H914l4.43-6c-3.12-1.62-5.23-.26-7.46,1.18a20.36,20.36,0,0,1-2.26,1.34c1.88,4.39,5.19,6.62,9.05,8.64l2,.53c.7,0,1.4,0,2.1.1,6,.42,11.67.81,14.59,8.79.45,1.22.86,2.17,1.19,2.93,1.47,3.43,1.32,3.81-2.66,6.81a16.27,16.27,0,0,0-3.12,3.57c-.46.64-.94,1.29-1.44,1.91l-.22.26-.32-.07c-7.91-1.78-8.58-1.93-10.1.42l6,.73,2.87.35.12.28Zm11.49-33.15h0Zm-15.36-8.74v0Z" fill="#e99d09"/><path d="M1065.43,858.81a20.06,20.06,0,0,1-3.67-.39l-.7-.13.31-.64c.37-.79.71-1.65,1-2.48a15,15,0,0,1,3-5.48c1.13-1.09,2.94-1.3,5-1.55,1-.11,1.92-.23,2.9-.44l.76-.16-.11.78c-.77,5-2,7.77-4.08,9.25A7.54,7.54,0,0,1,1065.43,858.81Zm-2.79-1.34c3.13.51,5.21.26,6.69-.78,1.7-1.21,2.79-3.62,3.5-7.78-.75.13-1.5.22-2.22.31-1.9.22-3.54.41-4.4,1.25a13.91,13.91,0,0,0-2.79,5.09C1063.17,856.19,1062.92,856.84,1062.64,857.47Z" fill="#e99d09"/><path d="M1059.51,1086.53a8.5,8.5,0,0,1-3.28-.7l-.7-.3.51-.57c5.81-6.43,13.1-9.51,22.93-9.68l1.21,0-.79.92a21.8,21.8,0,0,1-10.6,6.74,16.92,16.92,0,0,0-3.2,1.53C1063.81,1085.43,1061.86,1086.53,1059.51,1086.53Zm-2.12-1.43c3,1,5.3-.28,7.67-1.61a17.69,17.69,0,0,1,3.41-1.61,21.14,21.14,0,0,0,9.25-5.48C1069,1076.78,1062.7,1079.5,1057.39,1085.1Z" fill="#e99d09"/><path d="M1081.93,870.38a31.67,31.67,0,0,1-6.88-1,38.69,38.69,0,0,0-5.08-.92l-.5-.05v-.5c0-.53,0-1.06,0-1.59v-.54h6.77l-1.12-.73-2.09-1.35-.39-.25.18-.42c1.17-2.66,2.79-5.41,7.16-4.86-.06-.58-.1-1.14-.14-1.68a12,12,0,0,0-.66-3.93c-2.93-6.8-1.68-10.57,5-14.93l.57-.38.24.65c2.41,6.89,2.44,7.2-.39,11.51l2.06,8.86c.74,3.18,1.5,6.42,2.28,9.79l.09.39-.35.2A13.22,13.22,0,0,1,1081.93,870.38Zm-11.19-3.06a43.65,43.65,0,0,1,4.72.89c4.2,1,8.17,1.86,12.47-.41l-2.18-9.39-2.17-9.31.13-.19c2.62-4,2.71-4.14.63-10.09-5.7,3.91-6.61,7.08-4,13.2a13,13,0,0,1,.76,4.29c.05.75.1,1.52.2,2.33l.1.75-.74-.15c-3.91-.76-5.36,1.25-6.48,3.7l1.7,1.1,2.67,1.72,1.54,1h-9.37Z" fill="#e99d09"/><path d="M1177.41,1209.43l-1.1-.22-14.92-3c-9-1.79-17.57-3.47-26.09-5.22-6-1.23-12.16-2.64-18.07-4-12.74-2.93-25.9-6-39-7.46-21.61-2.47-42.66-2.92-67.94-3.24-13.88-.19-27.94,4.18-43,13.35-.68.41-1.37.79-2.41,1.36l-2.24,1.23-.06-.85c-.08-1.22-.18-2.34-.27-3.39-.17-2-.31-3.67-.31-5.41,0-7.28,0-14.67.06-21.83.06-11.3.12-23,0-34.49-3.65.06-7.31,0-10.92-.09,0,17.19,0,35.37,0,57.14a47.49,47.49,0,0,1-.36,4.83c-.08.75-.17,1.48-.23,2.2l-.06.74-.68-.28c-3-1.23-5.91-2.55-8.72-3.82-6.13-2.78-11.92-5.41-18-6.82a176.37,176.37,0,0,0-36.23-4.78c-28.07-.55-57.73,3.27-96.16,12.38-11.65,2.77-23.62,5-35.19,7.26-4.52.86-9.19,1.75-13.77,2.66a11.62,11.62,0,0,1-2.67.09c-.61,0-1.35,0-2.27,0h-.71l.5-.83c1.27-2,2.48-4,3.65-6,2.41-4,4.69-7.7,7.06-11.38l6.5-10.11c13.7-21.33,27.86-43.37,42.07-64.87,2.23-3.39,6.39-6.35,9.88-7l7-1.39c8.73-1.72,17.74-3.49,26.65-5.17-26.29-16.75-48.89-39.18-67.18-66.69s-29.61-58.42-34.6-94.49-.49-72.4,13.33-108.38a223,223,0,0,1,35.71-61.58,8.12,8.12,0,0,1,3.7-2.78l1.05-.39-.35,1.07q-.23.71-.42,1.41a20.37,20.37,0,0,1-1,3c-1.65,3.53-3.42,7-4.94,9.92-3.14,6-2.82,12.62-2.51,19,.05,1,.1,2,.13,2.94,0,.22,0,.45,0,.68a4.33,4.33,0,0,0,.34,2.14c3.06,4.76,3.4,10.09,3.74,15.24.05.79.1,1.57.16,2.35l.17.11c.28-1,.57-2.12.92-3.44l.55-2.11.67.74c.44.48.83.85,1.15,1.15.64.61,1.06,1,1.15,1.59,1,5.3,1.89,10.72,2.79,16q1.15,6.7,2.33,13.39c.6,3.31,1.21,6.72-.34,10.37-1.72,4.08.52,8,2.93,11.23.52.71,1,1.44,1.55,2.17,3,4.26,6.1,8.66,11.85,10,1.6.37,3,2.55,3.79,4.29l.28.66c1.65,3.91,3.22,7.61,7.06,9.89a5,5,0,0,1,2.08,3.74c-.07,6.72,3.06,12.08,6.38,17.75.73,1.25,1.48,2.54,2.2,3.85,1-.66,1.56-1.34,1.6-2s-.31-1.08-1-1.64c-6.39-4.83-4.59-10.7-2.68-14.69.17-.36.36-.73.55-1.09a13,13,0,0,0,1.3-3.13c.48-2.15.33-5-3.12-6.54-1.42-.61-2.89-1.14-4.6-1.76l-2.76-1-.63-.24.36-.56,4.52-7,5.22-8.14c-4.46-2.55-6.51-.05-8.69,2.58-.32.4-.65.8-1,1.17l-.18.21-.27,0c-.61,0-1.23-.08-1.82-.1-3-.13-5.77-.26-7.92-3.47a14.86,14.86,0,0,1-2.29-11.61,111.8,111.8,0,0,1,6.1-17.79c.69-1.66,3.06-3,6.35-3.61s7.42-.37,9.2,1.51c1.51,1.6,3.11,2.65,4,2.6a.8.8,0,0,0,.62-.34c2.42-3.28,4.65-1.73,6.13-.71l.59.4a52.89,52.89,0,0,1,6,4.74c.75.65,1.53,1.32,2.29,2l.21.18v.27a28.79,28.79,0,0,1-.76,4.67c-.76,3.43-1.48,6.68.74,10.1a19.09,19.09,0,0,0,2.76-9.75c.24-8.14,2.52-11.17,10.16-13.52.51-.16,1.06-.27,1.58-.38a7.6,7.6,0,0,0,2.71-.91c3.39-2.28,6.16-4.53,5.83-8.91-.24-3.17,1.32-5.53,5.21-7.89l1.22-.74-.42,1.36c-.6,2-1,3.31-1.48,4.9.67-.6,1.31-1.19,1.94-1.77,2.3-2.13,4.29-4,6.69-5.08,2-.93,4.47-.89,6.84-.85.84,0,1.7,0,2.54,0-.18-2.91,1.22-4.74,4-5.18,3.5-.54,7.08-1,10.54-1.41l4.11-.52L917,820l0,.6c0,.14.33.49.51.7.46.53,1,1.12.75,1.81s-.83.95-2.06,1.21a24.42,24.42,0,0,0-2.55.71l-1.21.37.94.38a4.68,4.68,0,0,0,2,.58A48,48,0,0,0,920.7,825l1.71-.49-5.31-13.79.69-.08,4.73-.56-.12-.55a6.4,6.4,0,0,0-.22-.87l-.47-.14a11.18,11.18,0,0,0-4.39-.69,46.76,46.76,0,0,0-6.27,1.43c-1,.27-2,.55-3.09.81l-1.78.44,1.25-1.33c5-5.32,13.65-8.54,19.63-4.74,5.25,3.34,10.18,2.53,15.41,1.67a54.49,54.49,0,0,1,5.47-.71,2.39,2.39,0,0,0,1.15-.86,2.35,2.35,0,0,0,.65-1.21c-.12-1.29-1-3-1.78-3.24a13.55,13.55,0,0,0-2.83-.51,16.47,16.47,0,0,1-4-.84l-1.63-.62,4-1,3.87-1-.63-.52a11.71,11.71,0,0,1-2.74-2.8c-.18-.29-.38-.58-.57-.86-1.2-1.79-2.44-3.64-1.12-7.15,1-2.64.54-5.91,0-9.37-.19-1.34-.38-2.72-.5-4.11L936,774.08l-3.21,1.52-.26-.39c-.39-.6-.81-1.18-1.22-1.75-2.09-2.88-4.24-5.86-1.28-9.49-1.87-6.91-7.52-8.58-13.49-10.35l-.31-.09c-2.34,2.94-4.78,6-7.6,9.46.15,11.2-.11,11.59-10.48,14.64-.15.46-.29.93-.44,1.41-1,3.48-2.26,7.43-7.1,8.75l-.25.07-.2-.15c-5.66-3.92-3.22-8.29-1.07-12.14.22-.39.44-.78.65-1.17l-2.36-2.22c-2.09-1.95-4.06-3.79-6-5.74l-1.1-1.11a46.43,46.43,0,0,1-6.13-7.09,32.28,32.28,0,0,1-2.93-6.37c-.35-1-.72-1.94-1.12-2.88l-.13-.31.22-.26a21.43,21.43,0,0,1,10.16-6.75,46.19,46.19,0,0,0,5.26-2.17,48,48,0,0,1,5.43-2.24,12.58,12.58,0,0,1,4.58-.23l1.43.08-2-3.35h20.53c1.83-4.39,2.66-7.27,2.63-9.21-2.75-.23-4.81,1.19-7,2.7a19.26,19.26,0,0,1-4,2.34l-.8.35c-1.38.65-3.09,1.45-4.95-1.29l-.2-.3.2-.3,2-3.18.72-1.13-1.93.75-2.17.84-.18-.52c-1.79-5.06-2-5.52.09-7.92l-2.1-4.72-1.15.39-5.68,2,4.56,4.05L895,719l-5.69,3.42-6,3.61-.82.49V721.1s-12.89-.32-17.42-5.91l-1.48.52-6.9,2.42-.63.22-.09-.65c0-.3-.11-.61-.18-.91-.19-.76-.34-1.41,0-1.87,1.92-2.22,6.41-4.12,9.66-4a4,4,0,0,1,3.19,1.24c3,3.84,5.29,2.53,8.16.88l.89-.5c-1.82-2.38-2.84-4.2-2.43-5.73s2.14-2.54,4.79-3.63c3-1.23,5.64-2.22,8.18-3l.27-.09c1.82-.59,3.53-1.15,5.93.6,1.37,1,2.25,1.37,2.93,1.24.89-.17,1.72-1.23,2.94-3.13,1.83-2.87,2.11-2.85,6.75-2.64l.55,0,0,.56c0,.5-.07,1-.11,1.53s-.08,1.12-.12,1.76l2.69.14c0-.55-.05-1.1-.06-1.65,0-1.39,0-4.66,3-4.73,1.69,0,3.45,1.12,4.87,2l.06,0a4.29,4.29,0,0,1,1.36,1.86c0,.11.1.22.15.31a6.81,6.81,0,0,0,3.94-.13c2-.46,4.32-1,6.6,1.31l.58.58-.76.3-7.19,2.89-.4.16a27.31,27.31,0,0,0,6.77,1.36c3.47.4,7.06.81,10.12,3.15a.64.64,0,0,0,.28,0l2.94-1c1.61-.56,3.27-1.15,4.93-1.67a6.13,6.13,0,0,1,2.76,0c1.82.29,3.14.5,3.91-1.92.3-1,2.9-1,4-1,1.65.08,3.32.23,4.93.38,2.24.21,4.55.42,6.82.45a146.32,146.32,0,0,0,17.9-.79c-10.36-4.45-21.53-5.78-32.35-7.07A187.56,187.56,0,0,1,935,691.85l-2.72-.63,2.76-.44c55.36-8.68,116.87,8.61,164.51,46.25l20.72,18.58A214.42,214.42,0,0,1,1165,822.48l.34.82-.88-.06c-1-.07-2-.11-2.93-.14a36.69,36.69,0,0,1-6.3-.59c-3.16-.67-5.2.46-8,2.25a89.7,89.7,0,0,1-10.75,5.67c-1.66.79-3.38,1.6-5,2.44-1.28.65-2.54,1.37-3.88,2.13-.75.42-1.53.87-2.37,1.33l-.21.12-.23-.08a9.39,9.39,0,0,1-1-.44,5.32,5.32,0,0,0-2.91-.83,25.16,25.16,0,0,0-8,2.78,8.54,8.54,0,0,0-2.73,3.28c2,2.73.73,4.86-.37,6.74a9,9,0,0,0-1.22,2.65c1.31,2,3.2,1.91,5.37,1.85,1.81,0,3.69-.11,5.39,1l.07.16v14.18h6.85c1.57-4.46,5-7.47,10-9a10.81,10.81,0,0,0-.95-3c-.87-2.1-1.87-4.47.61-6.7l1-1c1.86-1.77,3.79-3.6,6-4,2.41-.41,3.86-.73,5.49-2.69,1.41-1.69,2.33-2.56,3.45-2.62,1.46-.07,3,1.35,5.73,4.06l.41.41-.44.38c-.58.52-1.16,1.13-1.71,1.72-1.28,1.36-2.61,2.77-4.26,3.26-5.51,1.65-6.15,5.24-5.39,10.51.09.68.22,1.34.37,2.11,0,.22.09.45.13.69l.49,0c4.43.3,9,.61,10.75,7.21l.24.91-.91-.25-11.61-3.16-1.76,3.42-1.79,3.49-.29.57-.51-.38-3-2.21-8.47,8.22-.3-.09-2.67-.78c-1.7-.49-3.17-.91-4.61-1.46l-2.16-.81a72.83,72.83,0,0,1-9.25-4,3.73,3.73,0,0,1-1.9-2.38,5.07,5.07,0,0,1,.79-4c.86-1.36,1.74-2.69,2.76-4.23.26-.4.8-1.31.8-1.31h-4.18c-.15.67-.29,1.35-.42,2-.35,1.71-.71,3.48-1.19,5.2-.61,2.15-1.39,3.36-2.52,3.93a4.84,4.84,0,0,1-3.94-.17c-2.09-.8-3.71-.18-5.44.48a11.16,11.16,0,0,1-2.91.83,21.88,21.88,0,0,0-5.42,1.53c-3.47,1.31-7.05,2.67-11,.55l-.08,0a3.57,3.57,0,0,1-1.73,2.11c-1.17.53-2.41,0-3.61-.5a5.86,5.86,0,0,0-2.16-.62l.69,2.61c.73,2.73,1.42,5.3,1.91,8a12.06,12.06,0,0,1-.4,5.56c-.61,1.92-1.47,3.09-2.63,3.57s-2.74.27-4.75-.77c-1.18-.6-2.36-1.26-3.5-1.91a61.79,61.79,0,0,0-5.54-2.88,13.33,13.33,0,0,0-3.7-.83l-.82-.11-3.15,6.68-5.91,12.5a16.85,16.85,0,0,1,3.69,2.9,12,12,0,0,0,5.13,3.39c5.15,1.45,9.13.4,13.75-3.64a45.55,45.55,0,0,1,6.22-4.58c1.84-1.13,3.73-2.09,5.72-3.1l2.47-1.27.16-.08.18,0,13.3,2,.31.05.11.28c0,.11.16.31.28.52a6.85,6.85,0,0,1,1.17,3.49c-.21,4.56.64,7.78,2.84,10.75a9.46,9.46,0,0,1,1,10.1,8,8,0,0,0,2.25-2.75l.75-1.25c1.52-2.46.81-4.24-.18-6.7l0-.11a44.72,44.72,0,0,1-2.83-10.62c-.14-1.08.58-2.14,1.51-3.48.45-.66,1-1.42,1.45-2.27l.54-1,.43,1c.93,2.18,1.93,4.24,2.89,6.23,2.07,4.27,4,8.3,4.72,12.52s.15,8.75-.45,13.47c-.22,1.82-.46,3.71-.62,5.62l2-.66,2.64-.85v-.23c.09-2.11.19-4.25.3-6.54l0-.53.54,0a6.5,6.5,0,0,0,2.37-.57c1.8-.65,4-1.47,6.11,1.76l.14.22-.09.25c-.23.66-.49,1.34-.75,2-.65,1.78-1.33,3.63-1.91,5.52-1.1,3.6-.11,6.38,2.93,8.27a62.81,62.81,0,0,0,6.07,3.15c1,.47,2,.94,3,1.45l.31.15v.34c-.09,5.81-4.07,9.32-7.93,12.72l-.32.29c-1.38,1.22-4.42.79-5.67.54-6.86-1.29-11.7-5.94-15.14-9.85l-.07-.08c-2.27-2.56-3.52-4-4.52-4s-2.44,1.73-4.95,4.82l-.3.38-.44-.23c-.48-.31-1-.59-1.59-.89a9.32,9.32,0,0,1-3.44-2.51c-2.38-3.33-4.57-6.89-6.7-10.33q-1.28-2.07-2.59-4.16l-.17-.26.15-.28,3.06-5.77,2.38-4.49-4.83-1.83c-5-1.88-9.66-3.66-14.36-5.33a7,7,0,0,0-3.51.11c-5.85,1.22-11,0-15.06-3.68-.94.45-1.85.93-2.73,1.4a24.06,24.06,0,0,1-6.48,2.68c-3.62.7-5.75,2.33-6.69,5.1-1.54,4.65-4.86,7.46-10.15,8.6-6.5,1.41-11.13,5.78-15.6,10-1.12,1-2.27,2.14-3.44,3.17s-1.6,3.06-2,4.58c-1.11,4.55-3,10.35-7.57,14.85-2.57,2.52-3.24,5.64-2.23,10.43.33,1.65.56,3.34.77,5a51,51,0,0,0,1.17,6.62,98,98,0,0,0,4.54,12.38,4,4,0,0,0,2.45,2.1,58,58,0,0,1,9.42,2.14c4,1.16,8.2,2.36,12.52,2.25.43,0,4.29-.06,5.44,1.62a24.32,24.32,0,0,1,1.64,3c1.21,2.47,2.35,4.81,5.37,5.75a.59.59,0,0,1,.39.39,9.6,9.6,0,0,1-.92,5.22,43.15,43.15,0,0,1-4.34,5.38c-.56.62-1.12,1.25-1.68,1.9,3.35,6.85,2.73,13.41-1.83,19.51a24.79,24.79,0,0,1-5.74,5.32c-3.25,2.24-5.91,4.47-5.49,9a10.43,10.43,0,0,1-1.72,6.26,12.47,12.47,0,0,0-2.5,7.66,5.82,5.82,0,0,1-1.31,3.1c-.17.25-.34.51-.49.77,8.72,2.84,18.07,2.27,27.8-1.68,1.32-.54,2.71-1,4.05-1.35,3.8-1.14,7.4-2.22,9.95-5.89,1.18-1.7,4.66-1.81,7.45-1.9l.43,0c5.64-.18,9.86-3,12.57-8.5,3.56-7.21,8-11.26,14.28-13.14a71.92,71.92,0,0,0,8.44-3.35c1.75-.78,3.57-1.6,5.4-2.3,7.92-3.06,13.88-8.71,20.21-15.28a10.35,10.35,0,0,0-4.73-.55c-2.29.08-4.65.16-6.18-2l-.09-.13V1029c-.81-12.34,1.92-23.65,4.8-35.63,1.43-5.94,2.91-12.08,4-18.44l.21-1.24.76,1c.68.9,1.3,1.6,1.8,2.16.94,1.06,1.51,1.69,1.45,2.46-.45,5.3-1.11,10.92-2,17.19a13.46,13.46,0,0,1-.79,2.79,9.51,9.51,0,0,0-.77,3.2,34.34,34.34,0,0,1-3.78,16.18,8.08,8.08,0,0,0-.6,2.86c0,.41-.08.83-.14,1.26l1,.2a9.4,9.4,0,0,0,2.51.3,56.6,56.6,0,0,0,27.5-9.45c5.78-3.76,7.33-8,5-13.84a11.42,11.42,0,0,0-1.59.49c-1.87.67-4.18,1.51-6.2-1.39l-.11-.15v-.19c.07-1.21.13-2.45.19-3.7.15-3,.3-6.1.52-9.19,0-.19,0-.38,0-.58.11-1.86.27-4.68,3.54-4.54a3.17,3.17,0,0,1,2.46,1c.88,1.07.64,2.68.41,4.24l0,.11a26,26,0,0,0-.19,4.65,7.55,7.55,0,0,0,.53,2.84c.36.79,1.23,1.07,2.23,1.4,1.69.55,3.81,1.24,3.65,4.8-.08,1.87,2.17,2.43,5.36,3,.72.14,1.4.27,2,.42a5.14,5.14,0,0,1,1.64.95c.34.26.72.55,1.22.87l.37.25-.17.41c-.52,1.26-1,2.58-1.49,3.85a62.32,62.32,0,0,1-3.57,8.3c-19.38,35.2-45.67,63.41-78.12,83.85l-.59.36c8.75,1.68,17.71,3.47,27.33,5.46,3.61.76,8.56,3.2,10.9,6.76,15.58,23.78,31.1,48.16,46.12,71.74l10.72,16.83a26.31,26.31,0,0,1,1.45,2.69c.38.74.84,1.67,1.47,2.89Zm-167.89-23.31h.87c25.18.32,46.15.77,67.69,3.25,13.11,1.51,26.23,4.56,38.93,7.51,5.88,1.36,12,2.77,18,4,8.46,1.75,17,3.44,25.94,5.23l13.75,2.74c-.39-.75-.7-1.37-1-1.9a27.57,27.57,0,0,0-1.39-2.6l-10.67-16.88c-14.93-23.63-30.38-48.07-45.87-71.89-2.06-3.17-6.67-5.57-10.16-6.31-10.06-2.1-19.39-4-28.52-5.73l-1.36-.26,2.92-1.83c32.13-20.4,58.16-48.54,77.35-83.67a61.92,61.92,0,0,0,3.49-8.17c.42-1.15.86-2.33,1.32-3.48l-.89-.66a4.21,4.21,0,0,0-1.26-.77c-.58-.15-1.24-.27-1.94-.41-2.82-.53-6.34-1.19-6.2-4.15.11-2.74-1.28-3.2-2.9-3.73-1.13-.38-2.3-.76-2.85-2a8.61,8.61,0,0,1-.64-3.28,27.6,27.6,0,0,1,.21-4.86v-.1c.2-1.32.41-2.7-.17-3.4a2.16,2.16,0,0,0-1.65-.6c-2-.09-2.27,1.28-2.41,3.53,0,.2,0,.4,0,.59-.21,3.08-.37,6.19-.51,9.19-.06,1.19-.12,2.36-.18,3.52,1.5,2.05,3,1.49,4.81.85a8.75,8.75,0,0,1,2.25-.61l.38,0,.15.36c2.76,6.5,1.1,11.46-5.21,15.6a57.24,57.24,0,0,1-27.88,9.64,9.79,9.79,0,0,1-2.79-.33c-.46-.09-.94-.19-1.46-.27l-.54-.09.09-.54c.1-.59.16-1.16.21-1.72a9.16,9.16,0,0,1,.71-3.26,33.61,33.61,0,0,0,3.64-15.72,10.74,10.74,0,0,1,.84-3.59,13.65,13.65,0,0,0,.73-2.57c.89-6.27,1.54-11.88,2-17.17,0-.31-.53-.93-1.17-1.66-.32-.36-.69-.77-1.09-1.26-1,6-2.41,11.76-3.74,17.36-2.84,11.87-5.52,23.08-4.77,35.23,1.19,1.56,3,1.49,5.15,1.42,1.89-.07,4-.14,5.91,1l.57.36-.46.48c-6.58,6.89-12.7,12.86-21,16.08-1.79.7-3.58,1.51-5.32,2.29a71.87,71.87,0,0,1-8.53,3.41c-6,1.79-10.15,5.68-13.54,12.61-2.88,5.86-7.4,8.93-13.43,9.13h-.44c-2.26.08-5.69.19-6.55,1.44-2.75,4-6.68,5.18-10.48,6.33-1.31.39-2.67.8-3.94,1.32-10.15,4.16-19.92,4.66-29,1.49l-.59-.2.29-.56c.26-.49.57-1,.86-1.42a5.18,5.18,0,0,0,1.13-2.49,14,14,0,0,1,2.66-8.3,9.5,9.5,0,0,0,1.54-5.57c-.47-5.1,2.53-7.64,5.92-10a23.79,23.79,0,0,0,5.47-5.1c4.34-5.85,4.86-12.15,1.55-18.74l-.16-.32.23-.28,1.92-2.19a42.94,42.94,0,0,0,4.23-5.26,9.78,9.78,0,0,0,.82-4.09c-3.24-1.14-4.49-3.72-5.71-6.23a22,22,0,0,0-1.56-2.87c-.54-.81-2.72-1.2-4.49-1.15-4.47.12-8.69-1.11-12.78-2.3a55.15,55.15,0,0,0-9.19-2.1,5,5,0,0,1-3.31-2.77,101.53,101.53,0,0,1-4.57-12.54,53.31,53.31,0,0,1-1.18-6.79c-.22-1.62-.43-3.29-.76-4.9-.72-3.46-1.08-7.88,2.53-11.45,4.34-4.3,6.09-9.68,7.23-14.37.4-1.66.94-3.94,2.3-5.15,1.14-1,2.29-2.1,3.39-3.15,4.56-4.34,9.27-8.82,16-10.3,4.92-1.07,7.88-3.58,9.31-7.9,1-3.15,3.5-5.06,7.47-5.84a22.9,22.9,0,0,0,6.14-2.58c1-.53,2-1.08,3.1-1.58l.33-.16.27.26c3.75,3.57,8.69,4.84,14.28,3.66a7.87,7.87,0,0,1,4.08-.07c4.68,1.68,9.36,3.46,14.31,5.35l5.37,2,.58.22-.29.55-2.66,5.05-2.9,5.5c.82,1.31,1.62,2.61,2.42,3.91,2.11,3.44,4.28,7,6.62,10.29a8.61,8.61,0,0,0,3,2.19c.42.22.85.45,1.26.69,2.68-3.35,4-4.87,5.46-4.9h0c1.47,0,2.75,1.46,5.27,4.34l.07.08c3.53,4,8,8.3,14.47,9.52,1.74.35,3.89.45,4.71-.29l.33-.29c3.58-3.18,7.28-6.47,7.51-11.61-.9-.45-1.78-.87-2.65-1.29a61.29,61.29,0,0,1-6.14-3.22c-3.45-2.15-4.61-5.44-3.38-9.52.59-1.93,1.27-3.79,1.92-5.6.23-.61.45-1.21.65-1.79-1.53-2.25-2.91-1.74-4.65-1.1a8.68,8.68,0,0,1-2.23.61c-.1,2.11-.19,4.1-.27,6l0,1-.35.12c-1,.32-2,.64-3,1l-2.8.9-.76.25.06-.81c.16-2.22.43-4.39.69-6.49.58-4.65,1.13-9,.46-13.19s-2.58-8-4.61-12.26c-.82-1.7-1.67-3.46-2.48-5.31-.32.52-.65,1-1,1.43-.78,1.15-1.41,2.06-1.32,2.73a44.1,44.1,0,0,0,2.75,10.38l0,.11c1,2.55,1.9,4.76.1,7.7-.3.47-.53.88-.73,1.23-1,1.68-1.34,2.31-4.59,4.62l-2.43,1.73,1.67-2.48c2.66-3.94,2.76-7.79.29-11.14s-3.27-6.63-3-11.47a6,6,0,0,0-1-2.92,3.42,3.42,0,0,1-.2-.36l-12.79-2q-1.15.62-2.31,1.2c-2,1-3.83,2-5.62,3.07a44.74,44.74,0,0,0-6.05,4.48c-4.83,4.26-9.22,5.42-14.67,3.87a12.88,12.88,0,0,1-5.55-3.65,14.19,14.19,0,0,0-3.87-3l-.5-.23.24-.5c2.08-4.44,4.06-8.67,6.1-13l3.48-7.45.42.08c.31.06.7.11,1.15.17a13.89,13.89,0,0,1,4,.91c1.94.86,3.8,1.92,5.61,2.94,1.12.64,2.28,1.3,3.44,1.9,1.68.87,2.93,1.11,3.82.73s1.5-1.31,2-2.91a11,11,0,0,0,.37-5c-.48-2.62-1.16-5.19-1.88-7.9-.28-1.05-.56-2.11-.83-3.18l-.12-.47.45-.17c1.1-.44,2.28.06,3.42.55s2,.85,2.73.51a3.08,3.08,0,0,0,1.32-2l.15-.46.48.1a3.68,3.68,0,0,1,.79.26c3.54,1.89,6.73.68,10.11-.6a22,22,0,0,1,5.67-1.61,10,10,0,0,0,2.61-.76c1.74-.67,3.72-1.43,6.18-.48a3.79,3.79,0,0,0,3,.21c.82-.41,1.44-1.45,2-3.27s.82-3.43,1.17-5.12c.16-.83.33-1.66.51-2.47l.09-.43h7l-.57.86-1.39,2.11c-1,1.58-1.93,2.93-2.81,4.32a4.18,4.18,0,0,0-.67,3.19,2.75,2.75,0,0,0,1.4,1.74,74.45,74.45,0,0,0,9.33,4l2.22.84c1.43.54,2.91,1,4.63,1.46l2.43.71,8.88-8.61.38.27,2.94,2.16,1.53-3,2-3.91.2-.4.44.11,11.36,3.1c-1.75-5.08-5.63-5.34-9.72-5.61l-.93-.07-.43,0-.08-.42c-.07-.4-.15-.77-.22-1.12-.15-.81-.29-1.5-.38-2.22-.73-5-.47-10,6.3-12,1.41-.42,2.6-1.69,3.87-3,.45-.48.91-1,1.39-1.43-2.4-2.37-3.68-3.47-4.61-3.43-.74,0-1.53.83-2.74,2.28-1.88,2.26-3.63,2.69-6.29,3.14-1.93.31-3.78,2.06-5.57,3.75l-1.09,1c-2,1.76-1.24,3.45-.34,5.6a10.43,10.43,0,0,1,1.08,4v.42l-.4.11c-5.22,1.54-8.61,4.49-10.08,8.77l-.13.37h-8.39V854.4a8.32,8.32,0,0,0-4.51-.68c-2.36.06-4.79.13-6.44-2.54l-.11-.17,0-.2a9.43,9.43,0,0,1,1.39-3.22c1.08-1.85,2-3.44.35-5.65a.8.8,0,0,1-.12-.69,8.93,8.93,0,0,1,3.29-4.06,26.17,26.17,0,0,1,8.31-2.9,6.2,6.2,0,0,1,3.57.93l.62.3,2.13-1.2c1.35-.77,2.62-1.5,3.92-2.16,1.67-.84,3.39-1.66,5.06-2.44a88.75,88.75,0,0,0,10.61-5.6c2.89-1.88,5.21-3.15,8.78-2.4a36,36,0,0,0,6.1.57l2.09.09a212.73,212.73,0,0,0-44.13-65.63l-20.64-18.5c-46.52-36.72-106.35-54-160.62-46.38,5.69,1.15,11.54,1.85,17.22,2.52,11.52,1.38,23.44,2.8,34.44,8l1.68.79-1.84.24a143,143,0,0,1-20,1c-2.31,0-4.64-.24-6.9-.45-1.6-.15-3.26-.3-4.88-.38a8.32,8.32,0,0,0-2.94.28c-1.06,3.22-3.29,2.86-5.08,2.58a5.19,5.19,0,0,0-2.27-.07c-1.64.52-3.29,1.1-4.89,1.66l-3,1a1.59,1.59,0,0,1-1.27-.18c-2.82-2.16-6.11-2.54-9.59-2.94a23.78,23.78,0,0,1-8.27-2l-1.07-.54,2.7-1.08,6.37-2.55c-1.63-1.22-3.19-.86-5-.46a7.41,7.41,0,0,1-4.77,0l-.15-.07-.09-.15a5.52,5.52,0,0,1-.3-.56,3.27,3.27,0,0,0-1-1.41l-.06,0c-1.35-.89-2.88-1.88-4.24-1.87s-2,1-2,3.64c0,.54,0,1.09.07,1.64l0,1.15-.59,0c-1.24,0-2.47-.12-3.85-.2l-.54,0,0-.54c.06-.87.11-1.61.16-2.31,0-.34,0-.66.07-1-3.74-.16-3.8-.06-5.23,2.17s-2.37,3.36-3.65,3.6c-1,.2-2.11-.22-3.77-1.42-2-1.43-3.21-1-5-.45l-.27.09c-2.51.81-5.16,1.79-8.1,3-2.7,1.1-3.9,1.94-4.16,2.9s.47,2.52,2.63,5.28l.41.52-.58.3c-.48.25-1,.52-1.43.79-2.92,1.68-5.94,3.41-9.54-1.15a3.1,3.1,0,0,0-2.36-.83c-2.88,0-7.06,1.67-8.78,3.64a4.07,4.07,0,0,0,.16.94l.09.36,6.3-2.21,2.21-.77.24.3c4.41,5.62,10,7.47,17.07,5.66l.68-.17v5.36l5.18-3.11,5.06-3-4.83-4.29.87-.31,6.55-2.26,2.09-.72L901.2,718l-.23.26c-1.8,2.07-1.87,2.15-.31,6.57l1.12-.44,3.47-1.35,1.54-.6-2.49,3.92-1.83,2.88c1.22,1.64,2.06,1.25,3.39.63a8.47,8.47,0,0,1,.87-.38,19.47,19.47,0,0,0,3.8-2.22c2.36-1.64,4.81-3.33,8.2-2.82l.42.06,0,.43c.19,2.18-.65,5.31-2.82,10.47l-.14.33H896.88l2,3h-1c-.87,0-1.68-.08-2.47-.13a11.61,11.61,0,0,0-4.19.19A46,46,0,0,0,886,741a48,48,0,0,1-5.39,2.22,20.31,20.31,0,0,0-9.44,6.17c.35.87.68,1.76,1,2.62a30.37,30.37,0,0,0,2.82,6.15,45.47,45.47,0,0,0,6,6.91l1.1,1.12c1.89,1.93,3.85,3.77,5.93,5.71l2.66,2.5.3.29-.19.36c-.27.51-.56,1-.85,1.55-2.09,3.73-4.06,7.26.52,10.58,4.07-1.23,5.11-4.65,6.11-7.95.18-.58.35-1.15.54-1.71l.09-.26.27-.08c5.13-1.51,7.7-2.27,8.89-3.91s1.15-4.43,1.13-9.95v-.19l.06-.15c3-3.68,5.5-6.83,8-9.9l.23-.28,1,.3c6.08,1.79,12.36,3.65,14.31,11.38l.07.27-.19.22c-2.67,3.08-1,5.41,1.15,8.36.33.45.66.92,1,1.4l2.36-1.12,6.48-3.08.73-.34,0,.8c.1,1.62.32,3.25.55,4.82.5,3.61,1,7-.11,9.91s-.19,4.38,1,6.16c.2.29.4.59.59.89a11.15,11.15,0,0,0,2.51,2.54c.47.39,1,.79,1.44,1.23l.74.68-1,.24-4.87,1.21-.26.07c.61.11,1.22.18,1.82.25a14.43,14.43,0,0,1,3,.57c1.36.47,2.38,2.74,2.51,4.16a3.26,3.26,0,0,1-.91,2,3.34,3.34,0,0,1-1.9,1.23c-1.79.12-3.61.42-5.37.71-5.19.85-10.56,1.73-16.15-1.83-5-3.15-12-1-16.78,3.14l1.06-.29a49.3,49.3,0,0,1,6.41-1.45,11.64,11.64,0,0,1,4.84.73l.58.17c.55.17.68.79.87,1.65.07.34.15.72.26,1.08l.19.62-.64.08-4.66.55,5.24,13.6-.58.16-2.27.64a48.5,48.5,0,0,1-5.4,1.36,5.13,5.13,0,0,1-2.64-.65c-.63-.26-1.42-.58-2.42-.92l-1.62-.55,1.64-.48c1.16-.34,2.05-.62,2.76-.84,1.18-.36,1.89-.58,2.64-.74,1.13-.23,1.26-.48,1.26-.48s-.35-.54-.54-.75a4.58,4.58,0,0,1-.6-.81l-3.67.46c-3.46.43-7,.88-10.51,1.41-2.38.38-3.37,1.86-3,4.55l.07.58-.58,0c-1.05.07-2.13,0-3.19,0-2.34-.05-4.56-.08-6.36.75-2.24,1-4.17,2.82-6.41,4.88-1.06,1-2.15,2-3.38,3l-1.4,1.17,1-3.27,1.13-3.73c-2.62,1.86-3.63,3.68-3.45,6.07.37,5-2.77,7.51-6.31,9.89a8.36,8.36,0,0,1-3.09,1.07c-.52.11-1,.22-1.49.36-7.22,2.22-9.15,4.8-9.39,12.51a20.05,20.05,0,0,1-3.37,11l-.42.65-.46-.62c-3.06-4.06-2.21-7.91-1.39-11.63a29.21,29.21,0,0,0,.72-4.23c-.7-.58-1.41-1.2-2.09-1.79a54.2,54.2,0,0,0-5.91-4.65c-.2-.12-.41-.27-.62-.42-1.53-1-2.85-2-4.64.47a1.88,1.88,0,0,1-1.43.77c-1.87.11-4.21-2.22-4.88-2.94-1.28-1.35-4.65-1.83-8.21-1.18-2.88.52-5,1.66-5.54,3a110.23,110.23,0,0,0-6,17.61,13.75,13.75,0,0,0,2.12,10.76c1.85,2.75,4.27,2.86,7.07,3l1.59.09c.26-.3.52-.62.78-.94,2.22-2.68,5-6,10.57-2.52l.46.29-.29.46-5.53,8.6-4.15,6.46,2.12.78c1.72.63,3.21,1.17,4.66,1.79,3.22,1.41,4.55,4.16,3.75,7.77a14.35,14.35,0,0,1-1.4,3.39c-.18.35-.37.71-.54,1.06-2.84,6-2.14,10,2.36,13.35a3,3,0,0,1,1.48,2.58c-.07,1.1-.95,2.15-2.62,3.1l-.48.28-.27-.49c-.79-1.46-1.63-2.92-2.45-4.32-3.39-5.8-6.59-11.29-6.52-18.3a4,4,0,0,0-1.55-2.8c-4.15-2.46-5.86-6.49-7.51-10.39l-.27-.65c-.7-1.63-2-3.41-3-3.66-6.15-1.42-9.37-6-12.49-10.41-.51-.73-1-1.45-1.54-2.15-2.59-3.51-5-7.71-3-12.3,1.42-3.35.87-6.46.28-9.75-.8-4.46-1.57-8.92-2.34-13.39-.9-5.23-1.83-10.64-2.79-16,0-.22-.38-.56-.83-1l-.52-.5,0,.21c-.43,1.61-.76,2.88-1.09,4.11l-.19.7-.62-.37-.31-.18c-.47-.25-1-.51-1-1-.06-.82-.12-1.65-.17-2.47-.34-5.24-.66-10.2-3.56-14.71a5.13,5.13,0,0,1-.52-2.72c0-.22,0-.44,0-.65,0-1-.09-2-.13-2.93-.32-6.51-.65-13.24,2.62-19.53,1.51-2.91,3.28-6.37,4.92-9.88a20,20,0,0,0,1-2.83c0-.09.05-.19.08-.28a7.55,7.55,0,0,0-2.18,2,221.93,221.93,0,0,0-35.52,61.25c-13.75,35.8-18.21,72.07-13.26,107.81s16.22,66.64,34.41,94c18.47,27.78,41.35,50.35,68,67.09l1.17.74-1.36.25c-9.34,1.75-18.82,3.62-28,5.43l-7,1.38c-3.23.63-7.1,3.38-9.18,6.55-14.21,21.49-28.36,43.52-42,64.83l-6.5,10.12c-2.36,3.67-4.63,7.4-7,11.35-1,1.67-2.06,3.38-3.15,5.15l1.35,0a11.17,11.17,0,0,0,2.42-.07c4.59-.91,9.27-1.8,13.79-2.67,11.57-2.2,23.54-4.48,35.17-7.25,38.56-9.14,68.32-13,96.5-12.42a176.86,176.86,0,0,1,36.49,4.82c6.19,1.43,12,4.08,18.22,6.89,2.59,1.17,5.26,2.38,8,3.52.05-.49.1-1,.16-1.49a46.19,46.19,0,0,0,.36-4.72c0-22,.08-57.74.08-57.74v-.1l.56,0c3.92.14,7.92.18,11.9.1h.54v.55c.13,11.71.07,23.62,0,35.14,0,7.16-.08,14.58-.07,21.87,0,1.7.14,3.38.31,5.33.07.81.15,1.67.21,2.57l.75-.41c1-.57,1.7-.94,2.36-1.34C981.89,1190.55,995.79,1186.12,1009.52,1186.12ZM955,703.32h0Z" fill="#e99d09"/><path d="M1147.48,944.29l-.36-.24a23.36,23.36,0,0,0-2.11-1.21c-1.7-.9-3.46-1.83-4.21-3.34-2.3-4.58-5.61-5.08-9.87-4.42-1,.16-2.13.22-3.26.28l-1.69.1-.55,0,0-.54c-.46-7.13,3.92-10.69,8.15-14.13,1.26-1,2.55-2.07,3.69-3.2l.35-.35.38.32c4,3.42,4.18,3.65,3.81,8.54l.15.09a2,2,0,0,0,.69.34,8.21,8.21,0,0,0,1.47-.05l.16,0c0-.38-.11-.75-.16-1.15l-.28-1.93-.08-.56.56-.06,5.31-.53,4.94-.51-.94,1-4.86,5.38c.15,1,.3,1.94.46,2.9.53,3.4,1,6.61,1.37,9.9.07.71-.6,1.23-1.53,2-.39.31-.84.66-1.24,1Zm-13.91-10.52c3,0,6.09,1.06,8.2,5.25.6,1.2,2.2,2.05,3.75,2.86.62.33,1.26.67,1.85,1,.34-.3.69-.57,1-.82a5.65,5.65,0,0,0,1.12-1c-.33-3.26-.83-6.44-1.37-9.82-.16-1-.33-2.1-.49-3.16l0-.26.18-.19,4.08-4.52-2.14.22-4.75.48c.08.51.14.95.2,1.36.09.61.16,1.15.25,1.73l.08.58-.59,0c-.24,0-.47,0-.7.06a9.58,9.58,0,0,1-1.7,0,2.88,2.88,0,0,1-1.14-.5,3.84,3.84,0,0,0-.39-.22l-.32-.17,0-.36c.36-4.61.37-4.77-3-7.65-1.07,1-2.26,2-3.4,2.92-4.09,3.33-8,6.47-7.79,12.67l1.16-.06c1.11-.06,2.16-.12,3.15-.27A18.8,18.8,0,0,1,1133.57,933.77Zm15.92,7.29h0Z" fill="#e99d09"/><path d="M1177.49,866.41l-1-1.48c-.54-.8-1.07-1.47-1.53-2.06a7,7,0,0,1-1.72-3h0c-.39-2.91-.53-5.81-.69-8.89q-.07-1.76-.18-3.57l-.15-2.38,1.16,2.08c3.33,6,4.1,9.26,4.1,17.56Zm-3.16-6.73a6.27,6.27,0,0,0,1.5,2.52c.18.23.37.47.56.73-.09-5.87-.73-9-2.79-13.16,0,.37,0,.75.05,1.12C1173.8,853.94,1173.94,856.82,1174.33,859.68Z" fill="#e99d09"/><path d="M1060.18,804.2l-.34-.07a9.49,9.49,0,0,1-5.95-5,9.63,9.63,0,0,1-1-7.84c.23-.6.91-.87,1.57-1.14.25-.1.51-.2.72-.31l.42-.23.28.39c2.46,3.42,5.91,4.33,9.83,5.09l.81.15-.46.69c-1.77,2.56-3.68,5.26-5.67,8ZM1055.27,791l-.41.16c-.33.14-.89.36-.95.52a8.57,8.57,0,0,0,.93,6.93,8.73,8.73,0,0,0,4.89,4.39c1.73-2.4,3.4-4.75,5-7C1061.12,795.24,1057.75,794.19,1055.27,791Z" fill="#e99d09"/><path d="M995.71,791.57l-.61-.37c-7.93-4.8-12.76-10.27-14.33-16.27a7.72,7.72,0,0,1,.22-3.56,9.84,9.84,0,0,0,.33-2.59,13,13,0,0,0-.62-2.89,14,14,0,0,1-.66-3.26,16.16,16.16,0,0,1,.61-4.25c.16-.71.33-1.44.47-2.22l.06-.35.34-.08,1.45-.36c1.15-.27,2.34-.56,3.52-.91l1.17-.32a9.32,9.32,0,0,0,3.53-1.46,3.61,3.61,0,0,0,.78-3.14c-.58-.89-1.16-1.37-1.7-1.4s-1.08.3-1.69,1a3.56,3.56,0,0,1-3.05,1.49c-1.27-.11-2.5-1.06-3.48-2.69l-.21-.35.34-.36c4.31-4.52,4.57-4.58,9.37-2.12l.47.24c1.4.75,2.35,1.26,3.66-.38l-.88-.68c-1.08-.85-2.2-1.72-3.36-2.46a33.42,33.42,0,0,0-3.2-1.74l-1.89-1-.53-.28.33-.5c.36-.54.76-1.06,1.15-1.56,1.49-1.94,2.9-3.77,2.12-6.59-1.19-4.31-4.16-6.82-6.9-8.72-4.09-2.82-8.95-3.65-13.64-4.45-1-.18-2.08-.35-3.11-.55a19.71,19.71,0,0,1-3.91-1.37c-.7-.3-1.42-.61-2.23-.93l-.9-.34.76-.59,2.81-2.17-1.2-1.8-1.21-1.8.78-.17c.26,0,.51-.13.75-.2a3.8,3.8,0,0,1,1.63-.26c1.7.23,3.43.48,5.09.73,2.69.41,5.48.83,8.22,1.11a11.37,11.37,0,0,0,3.33-.39l.95-.19L975,704.66l2.11.11c3,.14,6,.15,8.86.16,6.62,0,12.86,0,19,1.75a11.42,11.42,0,0,1,2.68,1.29c.45.26.91.54,1.36.76s1.15.63,1.7.95c2.28,1.35,4.25,2.52,7,.7a3.48,3.48,0,0,1,2.8-.59,5.32,5.32,0,0,1,3.11,2.83l.15.28c1,1.78,1.84,3.35,4.06,2.92l-.47-.94-1.18-2.33-.4-.79h.88c22.62.06,41.88,6.19,58.88,18.73l.81.59-.94.35-3.93,1.5-2.51,1a57.67,57.67,0,0,0,7.62,1.73c4,.73,8.16,1.48,11.82,3.6a17.88,17.88,0,0,1,4.25,3.36l.93,1-3.41-.18-3.51-.18c-2.62-.13-5.41-.27-8.16-.37a2.4,2.4,0,0,0-.37.62c-.66,1.73-2.14,2.31-3.56,2.86s-2.65,1-3.35,2.52l.66,1.38,1.5,3.09.4.85-5.12-.39c-.93,5-4.65,7.94-8.26,10.77-1.54,1.21-2.52,3.15-3.56,5.21-.47.93-1,1.89-1.5,2.77l-.07.11-.11.07c-6.58,4-14.43,4.79-23.32,2.37-5.41-1.46-9.74.07-14.33,1.69l-1.28.45c-3.29,1.14-5.87,1.76-9.14-.63a7.58,7.58,0,0,0-3.76-.84c-.65-.05-1.32-.1-2-.19-1.38,4.1-4.75,6-8,7.84s-6.41,3.61-7.53,7.5Zm-13.59-34.93c-.13.68-.27,1.32-.42,1.94a15.53,15.53,0,0,0-.58,3.95,12.28,12.28,0,0,0,.63,3,15,15,0,0,1,.66,3.14,10.88,10.88,0,0,1-.36,2.88,7,7,0,0,0-.24,3.06c1.47,5.56,5.93,10.69,13.27,15.25,1.39-3.86,4.65-5.7,7.82-7.48,3.33-1.88,6.49-3.65,7.64-7.64l.13-.47.47.08c.8.13,1.59.19,2.37.24a8.43,8.43,0,0,1,4.32,1c2.86,2.09,5,1.58,8.15.48l1.27-.45c4.54-1.6,9.24-3.26,15-1.71,8.54,2.33,16.06,1.59,22.35-2.18.5-.82,1-1.72,1.39-2.59,1-2.06,2.13-4.2,3.86-5.57,3.56-2.79,7.23-5.67,7.94-10.56l.07-.51,4.25.33-1.08-2.25-.88-1.83.09-.22c.86-2.08,2.56-2.74,4.06-3.33,1.31-.51,2.45-1,2.94-2.24,0-.14.55-1.36,1.3-1.32,2.79.1,5.63.24,8.3.37l3.51.18.63,0a16.29,16.29,0,0,0-3-2.18h0c-3.5-2-7.37-2.73-11.47-3.47a51.07,51.07,0,0,1-9.2-2.27l-1.33-.51,1.33-.51,3.89-1.48,3-1.14c-16.39-11.84-34.91-17.71-56.54-17.92.29.56.54,1.06.78,1.54s.51,1,.78,1.54l.29.57-.61.19c-3.56,1.13-4.9-1.31-6-3.28l-.15-.27a4.43,4.43,0,0,0-2.42-2.3,2.47,2.47,0,0,0-2,.44c-3.34,2.2-5.9.68-8.17-.67-.53-.31-1.08-.64-1.63-.91s-1-.53-1.43-.8a10.25,10.25,0,0,0-2.43-1.18c-6-1.68-12.19-1.7-18.73-1.71-2.22,0-4.49,0-6.83-.08l4.52,2.77-1.47.22c-.85.13-1.63.29-2.31.43a12.06,12.06,0,0,1-3.66.4c-2.77-.28-5.56-.7-8.27-1.11-1.66-.24-3.38-.5-5.07-.73a3.09,3.09,0,0,0-1.17.22l-.08,0,.34.51c.52.78,1,1.5,1.49,2.21l.28.42-.4.31-2.46,1.9,1.38.59a18.16,18.16,0,0,0,3.68,1.3c1,.2,2.06.37,3.09.55,4.81.82,9.78,1.67,14.08,4.63,2.9,2,6,4.67,7.33,9.32.92,3.35-.72,5.48-2.31,7.54-.25.33-.51.66-.76,1l1.33.67a32.2,32.2,0,0,1,3.29,1.81c1.2.76,2.34,1.65,3.44,2.51l1.3,1,.41.31-.29.43c-2,2.92-3.88,1.93-5.37,1.14l-.45-.24c-2.25-1.15-3.29-1.65-4.17-1.45s-1.91,1.25-3.69,3.11a3.59,3.59,0,0,0,2.42,1.82,2.6,2.6,0,0,0,2.14-1.13,3.23,3.23,0,0,1,2.58-1.37,3.46,3.46,0,0,1,2.54,1.9c.72,1.09,0,3.73-1,4.56a10.05,10.05,0,0,1-3.95,1.67c-.39.1-.77.2-1.14.32-1.2.36-2.41.65-3.58.93Zm106.36-13.88h0Z" fill="#e99d09"/><path d="M831.79,1086.8l-.72-.08a17.8,17.8,0,0,0-1.78-.08c-1.27,0-2.46,0-3.21-.69-4.27-3.84-6.39-8.39-6.31-13.52,0-1.33-.08-2.65-.19-4-.05-.65-.1-1.31-.14-2l0-.47.46-.09c3.4-.74,3.47-3.48,3.19-7.27-.29-3.95,1-9.18,2.35-12.38,1.78-4.23,3.43-8.8,5.06-14,1-3.12,1.91-6.31,2.8-9.41,1-3.62,2.11-7.36,3.31-11a9,9,0,0,0-1.89-9.64c-5-5.86-7.3-11.92-7.14-19.09.11-4.6-1.57-9.36-3.2-14l-.38-1.06c-1.18-3.38-2.41-6.87.86-10.62a4,4,0,0,0,.44-2.38,6.34,6.34,0,0,1,.5-2.94,30.67,30.67,0,0,1,5.67-7.54c8.61-8,9.39-11.17,6-24.05l-.85-3.21,1.83,2.77,1.39,2.09c.78,1.17,1.3,1.94,1.78,2.75s.86,1.55,1.33,2.46l.4.77,1.21-1.54c.93-1.16,1.8-2.26,2.67-3.37l.14-.17.21,0c2-.31,4.1-.62,6.24-1l4-.62.48-.07.13.47c.45,1.74-.54,3.23-1.42,4.54-1.13,1.7-1.82,2.88-.92,4.36l4.36-5.18,1.82-2.16.29.95c1.71,5.66,5.06,9.09,10.22,10.49,3.09.83,5,2.66,5.63,5.43a12.8,12.8,0,0,0,2.5,4.58c1.42,1.93,2.88,3.92,2.94,6.74,0,1,2.19,3,3.94,3.59,6.79,2.21,8.53,7.61,9.39,13.12a13.24,13.24,0,0,1,.12,1.66,8.46,8.46,0,0,0,.26,2.18,7,7,0,0,1,.39,2.57V975l-.19.15c-1.8,1.47-3.4,2.8-4.87,4.06-.8.69-1.85,1.59-2.88,2.51a95.55,95.55,0,0,0-9,8.94l-1.61,1.82c-3.26,3.61-4.93,5.46-3.11,10.64h0a17.64,17.64,0,0,0,8.56-2.42,136.78,136.78,0,0,0,19.33-13.78l.33-.28.35.27a3.42,3.42,0,0,1,1.48,1.93c.7,3.34,3,4.88,5.54,6.51a23.17,23.17,0,0,1,3.28,2.43,77.81,77.81,0,0,1,6.85,7.65c.93,1.13,1.8,2.2,2.69,3.23l.14.15v.21c-.1,5.89-1.39,9.65-7.65,11.42-4.07,1.14-9.17,3.79-10.41,10-.94,4.65-4.36,7.39-7.66,10-1,.78-2,1.6-2.91,2.44a2.21,2.21,0,0,1-2.89-.15H893a53.11,53.11,0,0,1-10.43,1h-2.85a23.53,23.53,0,0,0-1.5,2.82c-1.08,2.24-2,4.18-3.61,5.4a24,24,0,0,1-5.49,2.88,25,25,0,0,0-5.6,2.94c-1.07.82-3,.11-5.2-.72-.63-.24-1.29-.49-1.92-.69a13.49,13.49,0,0,1,.24,1.44c.23,2.24-.15,3.77-1.13,4.54a3.06,3.06,0,0,1-3.07.23c-6.19-2.18-9.4,1.5-12.8,5.39a23.94,23.94,0,0,1-3.18,2.9l-1.27,1,.11.28c.34.94.7,1.91,1.08,2.93l.14.39-.33.24c-1.84,1.32-3.63,2.59-5.62,4l.39,2.17c.23,1.24.47,2.57.75,4.14Zm-11.24-20c0,.51.07,1,.11,1.5.11,1.42.22,2.77.19,4.15-.08,4.87,1.87,9,6,12.7a4.62,4.62,0,0,0,2.49.41c.38,0,.77,0,1.17,0-.23-1.27-.43-2.39-.63-3.45l-.51-2.85.28-.2c2-1.39,3.75-2.65,5.56-3.94-.33-.88-.64-1.72-.94-2.54l-.36-1,.28-.24c.52-.46,1.05-.89,1.58-1.32a24.85,24.85,0,0,0,3-2.77c3.48-4,7.09-8.12,14-5.7a2.09,2.09,0,0,0,2-.06c.65-.51.9-1.78.72-3.58a16.68,16.68,0,0,0-.3-1.71c0-.2-.08-.37-.11-.52l-.15-.83.82.21a29.73,29.73,0,0,1,2.89,1c1.66.63,3.55,1.33,4.15.87a26,26,0,0,1,5.84-3.07,23.1,23.1,0,0,0,5.25-2.74c1.39-1.06,2.27-2.89,3.29-5,.51-1.08,1-2.18,1.7-3.32l.16-1h3.47a66.17,66.17,0,0,0,10.42,1h.34c.79-.28,1.78-.29,2.17-.65.95-.87,2-1.69,3-2.49,3.3-2.65,6.41-5.15,7.27-9.42,1.35-6.72,6.83-9.59,11.18-10.81,5.61-1.58,6.74-4.68,6.86-10.18-.85-1-1.68-2-2.57-3.09a76.07,76.07,0,0,0-6.75-7.55,23.2,23.2,0,0,0-3.13-2.31c-2.57-1.68-5.22-3.42-6-7.2a2.11,2.11,0,0,0-.74-1,138.93,138.93,0,0,1-19.14,13.6,18.72,18.72,0,0,1-9.51,2.56h-.37l-.12-.35c-2.24-6.06-.2-8.33,3.19-12.09.5-.56,1-1.15,1.6-1.8a96.48,96.48,0,0,1,9.06-9c1-.93,2.09-1.84,2.9-2.52,1.42-1.22,3-2.51,4.7-3.93a6.77,6.77,0,0,0-.35-2,9,9,0,0,1-.31-2.47,14.88,14.88,0,0,0-.11-1.53c-.81-5.16-2.42-10.22-8.65-12.25-1.87-.61-4.67-2.81-4.7-4.6-.05-2.48-1.35-4.25-2.72-6.12a13.93,13.93,0,0,1-2.69-5c-.55-2.38-2.14-3.9-4.86-4.64-5.18-1.4-8.76-4.86-10.66-10.27l-.55.65L856.43,932l-.42.5-.42-.51c-2-2.46-.69-4.44.48-6.19a5.61,5.61,0,0,0,1.34-3.19l-3.5.55-6,.92-2.54,3.21-2.25,2.83-.39-.73c-.29-.55-.54-1-.78-1.51-.47-.9-.87-1.67-1.31-2.41s-.8-1.29-1.39-2.17c2.57,10.83,1.16,14.43-7,22.06a29.6,29.6,0,0,0-5.46,7.28,5.45,5.45,0,0,0-.36,2.42,4.64,4.64,0,0,1-.72,3.08c-2.66,3.05-2,5.64-.64,9.55l.37,1.06c1.66,4.7,3.38,9.56,3.27,14.35-.16,6.89,2,12.72,6.87,18.37,2.84,3.28,3.47,6.48,2.1,10.68-1.19,3.62-2.26,7.35-3.3,11-.89,3.1-1.82,6.31-2.81,9.44-1.64,5.19-3.3,9.78-5.09,14.05-1.28,3.08-2.55,8.11-2.27,11.88C824.36,1061.53,824.67,1065.63,820.55,1066.8Z" fill="#e99d09"/></g></g><path d="M923.44,478.25q.69-2.4,3.19-1.68c1.66.48,2.27,1.52,1.8,3.12s-1.52,2.16-3.18,1.68S923,479.85,923.44,478.25Z" fill="#072e4b"/><path d="M936.79,483.72l1.27-10,3.18.4-1.27,10q-.5,3.94,3.7,4.48c2.8.35,4.36-.78,4.69-3.41l1.27-10,3.18.4-1.27,10q-.84,6.6-8.21,5.66T936.79,483.72Z" fill="#072e4b"/><path d="M958.49,475.74v14h7v3l-10,.06-.1-17.06Z" fill="#072e4b"/><path d="M981.83,489.79a14.86,14.86,0,0,1-5,1.39q-9.25,1.06-10.24-7.54-.93-8.13,8.31-9.2a14.88,14.88,0,0,1,5.13.22l.32,2.77a12.72,12.72,0,0,0-4.91-.37q-6.18.72-5.55,6.2.69,5.94,6.87,5.23a12.63,12.63,0,0,0,4.7-1.47Z" fill="#072e4b"/><path d="M988.93,480.26c-.42-1.61.2-2.63,1.87-3.08s2.73.14,3.16,1.75-.2,2.64-1.88,3.08S989.36,481.87,988.93,480.26Z" fill="#072e4b"/><path d="M1056.1,366a96.53,96.53,0,1,1-96.73-96.32A96.53,96.53,0,0,1,1056.1,366Z" fill="#0c3b54"/><path d="M845,377.06l-10.09.26-.08-3.2,10.08-.27q4-.11,3.86-4.33c-.07-2.82-1.44-4.19-4.08-4.12l-10.09.27-.08-3.2,10.08-.27q6.64-.18,6.84,7.25T845,377.06Z" fill="#072e4b"/><path d="M851.31,358.85l-16.46-2.32.45-3.17L848.57,346l-12-1.7.43-3.05,16.46,2.33-.45,3.17-13.52,7.3,12.24,1.73Z" fill="#072e4b"/><path d="M839.2,333.1l16.08,4.21-.81,3.1-16.08-4.21Z" fill="#072e4b"/><path d="M846.43,312.7l12.77,13.06L858,329l-18.11.78,1.37-3.56,13.8-.4-9.94-9.57Z" fill="#072e4b"/><path d="M854.2,299l2.3,1.31-4.29,7.52,3.63,2.07,4.09-7.16,2.39,1.37-4.1,7.19,3.78,2.16,4.39-7.7,2.32,1.33-5.94,10.42-14.44-8.23Z" fill="#072e4b"/><path d="M870.15,305.28,857,295.11l4.81-6.2q3.24-4.19,6.76-1.46c1.58,1.23,2.06,3.33,1.41,6.31l9,.07L876.58,297l-8.94-.28-1.11-.86c1.47-2.73,1.51-4.64.1-5.73-1-.75-1.89-.56-2.77.58l-2.69,3.46,11,8.51Z" fill="#072e4b"/><path d="M879.22,292.47l-1.93-2a17.22,17.22,0,0,0,4.87-3.41q2.87-2.76,1.08-4.6-1.29-1.33-3,.36l-2,1.88c-2.55,2.46-4.89,2.57-7,.34-2.36-2.45-1.74-5.43,1.89-8.92a17.92,17.92,0,0,1,4.52-3.24l1.93,2a16.39,16.39,0,0,0-4.6,3.15c-2.08,2-2.56,3.61-1.43,4.78.86.89,1.79.85,2.8-.13l2-1.88q4.07-3.92,7.29-.57Q889.18,284,884,289A19.55,19.55,0,0,1,879.22,292.47Z" fill="#072e4b"/><path d="M883.39,267.44l10.27,13.06-2.52,2-10.27-13.06Z" fill="#072e4b"/><path d="M900.48,256.43l6.43,12.37,6.09-3.16,1.23,2.37-8.93,4.64-7.66-14.75Z" fill="#072e4b"/><path d="M918.27,266.23l-3.1,1.08,1.49-18.1,3.25-1.13,12.52,13.25-3.25,1.13-3.35-3.64-5.42,1.88.16-2.89,3.29-1.14-4.61-5Z" fill="#072e4b"/><path d="M934.07,261l-2.66-16.4,3.16-.51,10.95,10.49-1.94-12,3-.49,2.66,16.4-3.16.51-11-10.74,2,12.2Z" fill="#072e4b"/><path d="M965.49,257.67c-.63.59-2.38.88-4.47.88q-9.15,0-9.14-8.68,0-8.19,9.32-8.17a30.8,30.8,0,0,1,5.29.82v2.78a10.84,10.84,0,0,0-4.49-.93q-5.81,0-5.8,5.51c0,4,1.81,6,5.45,6a7.05,7.05,0,0,0,1.85-.28v-4.83h2Z" fill="#072e4b"/><path d="M969.9,252.18l1.61-10,3.16.51-1.61,9.95q-.63,3.93,3.54,4.6t4.81-3.25l1.61-9.95,3.16.51-1.61,10q-1.05,6.57-8.39,5.38T969.9,252.18Z" fill="#072e4b"/><path d="M988.29,262.32l-3.11-1.06,12.28-13.38,3.26,1.1,1.77,18.15L999.23,266l-.42-4.92-5.43-1.84,1.9-2.18,3.29,1.11-.57-6.78Z" fill="#072e4b"/><path d="M1016.51,273.74a13.54,13.54,0,0,1-5-1.66q-8.09-4.27-4-11.93,3.83-7.24,12.05-2.9a14.86,14.86,0,0,1,4.11,3.09l-1.3,2.47a12.58,12.58,0,0,0-3.84-3.08q-5.51-2.91-8.08,2-2.8,5.3,2.4,8a8.17,8.17,0,0,0,1.88.68l2.26-4.28,2.83,1.5Z" fill="#072e4b"/><path d="M1037.67,269.41l-1.56,2.14-7-5.08-2.46,3.38,6.67,4.85-1.62,2.22-6.69-4.86-2.57,3.53,7.17,5.2L1028,283l-9.71-7.05,9.77-13.44Z" fill="#072e4b"/><path d="M1047.22,302a14.92,14.92,0,0,1-3.9-3.34q-6-7.11.6-12.7,6.25-5.3,12.26,1.81a14.7,14.7,0,0,1,2.66,4.4l-2.13,1.8a12.4,12.4,0,0,0-2.41-4.29q-4-4.75-8.23-1.18c-3,2.57-3.23,5.45-.55,8.61a12.32,12.32,0,0,0,3.83,3.09Z" fill="#072e4b"/><path d="M1068.55,306l-2.26,1.39-4.53-7.37-3.56,2.19,4.32,7-2.35,1.44-4.34-7.05-3.71,2.28,4.64,7.55-2.27,1.4-6.29-10.22,14.15-8.71Z" fill="#072e4b"/><path d="M1055.86,317.05l15.22-6.66,1.29,2.93-7.44,13.21,11.1-4.85,1.23,2.82L1062,331.16l-1.28-2.93,7.66-13.32-11.32,5Z" fill="#072e4b"/><path d="M1081.94,340.78l-2.57.7-1.32-4.77-13.44,3.7-.85-3.09,13.44-3.7-1.31-4.78,2.57-.71Z" fill="#072e4b"/><path d="M1084.3,356l-2.62.38-1.23-8.57-4.14.6,1.17,8.15-2.72.4-1.18-8.2-4.31.62,1.25,8.77-2.64.38-1.71-11.88,16.45-2.36Z" fill="#072e4b"/><path d="M1068.47,360.76l16-.07,0,7.86c0,3.52-1.5,5.3-4.54,5.31q-3.11,0-5.14-4.1l-7.35,5.5,0-3.21,7.8-5.29h1.52q.84,4.59,3.72,4.58c1.33,0,2-.72,2-2.16l0-5.41-14,.05Z" fill="#072e4b"/><path d="M958.51,424.52a46.66,46.66,0,0,0-6.48-2.58,43.5,43.5,0,0,0-8.79-1.16,93.42,93.42,0,0,0-23.27,3c-3.91.93-7.88,1.62-11.83,2.4a8,8,0,0,1-1.16,0c.93-1.52,1.73-2.87,2.58-4.19,3.88-6,7.76-12.1,11.72-18.1a4.08,4.08,0,0,1,2.3-1.64c6.1-1.2,12.2-2.44,18.35-3.28,4.31-.59,8.72-.88,13,.71,2.52.94,3.75,2.5,3.75,5.13q0,9,0,18C958.65,423.41,958.55,424,958.51,424.52Z" fill="#fff" fill-rule="evenodd"/><path d="M961.68,424.77c-.06-.83-.14-1.47-.14-2.11,0-5.56.1-11.13,0-16.69-.11-4.24.94-5.72,5.5-6.82s9.06-.63,13.55.12c5.25.87,10.48,1.87,15.69,3a4.38,4.38,0,0,1,2.55,1.58c4.64,7.09,9.18,14.25,13.73,21.4.17.26.29.55.7,1.34-3.6-.72-6.76-1.33-9.91-2-4.6-.94-9.15-2.24-13.8-2.77a163.75,163.75,0,0,0-16.44-.78,19.46,19.46,0,0,0-10.45,3.24C962.39,424.39,962.16,424.51,961.68,424.77Z" fill="#fff" fill-rule="evenodd"/><path d="M954.77,436.19c-2.93-4.16-7.2-4.95-11.75-5.12-5.82-.21-11.49.83-17.19,1.81-7,1.22-14,2.21-21.06,3.27a4.73,4.73,0,0,1-2.21-.23c1.54-.25,3.08-.47,4.61-.76,4.39-.83,8.79-1.63,13.16-2.56,7.23-1.53,14.34-3.79,21.82-3.67,3.1.05,6.19.44,9.73.71a45.15,45.15,0,0,0-5.62-1.49,54.18,54.18,0,0,0-16.42.7c-5.62,1-11.22,2.13-16.84,3.13a24.38,24.38,0,0,1-5.92.36l9.56-2.1c4.48-1,9-2,13.44-3a55.18,55.18,0,0,1,16-1.24c2.19.18,4.34.8,6.6.86-2.41-.6-4.82-1.67-7.24-1.7a120.18,120.18,0,0,0-15.76.73c-5.6.67-11.12,2-16.68,3a28.2,28.2,0,0,1-5.12.36c5.94-1.36,11.86-2.8,17.81-4.05s12.12-2.4,18.33-2.19c4.65.15,9.11,1,12.91,4,1.19.94,2.5,1.72,3.76,2.58l-.9.63a47,47,0,0,1,4.68-4.16c3.28-2.25,7.12-2.91,11-3.06a65.24,65.24,0,0,1,16.35,1.75Q1002,427,1012,429.18l-.06.41c-2.51-.4-5-.76-7.54-1.23-9.52-1.78-19-4.05-28.79-3.26a68.32,68.32,0,0,0-8.29,1.66l.12.62c.42-.11.84-.2,1.25-.32,6.15-1.85,12.32-1.4,18.48-.19,5.76,1.14,11.49,2.4,17.24,3.61a71.2,71.2,0,0,1,8.44,2.18c-1.72-.19-3.45-.27-5.15-.58-4.67-.86-9.32-1.88-14-2.69-6.75-1.18-13.54-2.16-20.41-1.2a16.58,16.58,0,0,0-4.75,1.69,25.49,25.49,0,0,1,11.16-.85c5.43.7,10.82,1.72,16.21,2.73,5.65,1.06,11.28,2.27,16.92,3.39,1.52.31,3.06.51,4.59.75,0,.14,0,.27,0,.41-2.62-.21-5.26-.26-7.84-.68q-8.44-1.35-16.86-3A64.33,64.33,0,0,0,975,431.19c-2.8.23-5.64.81-7.63,3-1.34,1.46-2.36,2-4.37,1.09C960.3,434.06,957.49,434.62,954.77,436.19Z" fill="#aabecf" fill-rule="evenodd"/><path d="M940.49,453.76v-10h-1v-1.17l3-1.18v12.35Z" fill="#fff"/><path d="M955.14,446.25q0,4.65-6,7.73l-1.1-1.74a9.21,9.21,0,0,0,4.22-3.34,5.4,5.4,0,0,1-2.14.44c-3,0-4.57-1.25-4.57-3.76q0-4,4.91-4C953.59,441.56,955.14,443.12,955.14,446.25Zm-4.75-2.94c-1.7,0-2.55.76-2.55,2.27q0,2,2.37,2a8.12,8.12,0,0,0,2.56-.41,2.18,2.18,0,0,0,.15-.88C952.92,444.31,952.08,443.31,950.39,443.31Z" fill="#fff"/><path d="M966.2,446.25q0,4.65-6,7.73l-1.1-1.74a9.23,9.23,0,0,0,4.21-3.34,5.36,5.36,0,0,1-2.14.44q-4.56,0-4.56-3.76,0-4,4.9-4Q966.2,441.56,966.2,446.25Zm-4.76-2.94c-1.7,0-2.55.76-2.55,2.27q0,2,2.37,2a8.07,8.07,0,0,0,2.56-.41,2,2,0,0,0,.16-.88C964,444.31,963.13,443.31,961.44,443.31Z" fill="#fff"/><path d="M968.32,441.76h7.17v2h-5.18l-.21,2.61a4.45,4.45,0,0,1,1.45-.18q4.69,0,4.7,3.68,0,3.86-4.88,3.85a17.76,17.76,0,0,1-3.88-.5v-1.84a16,16,0,0,0,4,.59c1.65,0,2.48-.7,2.48-2.1s-.8-1.92-2.39-1.92a15.72,15.72,0,0,0-3.66.41Z" fill="#fff"/><path d="M949.19,303.63c0-.19,0-.38,0-.57,0-.46.05-1,.61-1a2.21,2.21,0,0,1,1.11.47c.19.12.27.4.35.52.86.36,1.68-.59,2.54.27l-2.12.84c1.37.69,3.05.22,4.33,1.19a.25.25,0,0,0,.19,0c.63-.21,1.26-.44,1.9-.64s1.36.49,1.69-.54c0-.12.55-.15.84-.14.94.05,1.89.19,2.83.2a35.31,35.31,0,0,0,4.81-.24c-4.17-1.94-8.8-1.65-13.15-2.65,20.52-3.19,45.5,8.37,55.35,31.41a16.79,16.79,0,0,1-2.2-.17,2.48,2.48,0,0,0-2,.55,39.91,39.91,0,0,1-3.8,1.94c-.48.24-.94.51-1.51.83-.22-.08-.64-.37-1-.31a6.32,6.32,0,0,0-2,.68c-.33.18-.79.85-.72.94.69.91-.27,1.46-.4,2.22.63,1,1.8.2,2.67.77v3.54h2a3.73,3.73,0,0,1,2.65-2.31c0-.92-1-1.73-.14-2.53.54-.49,1.12-1.14,1.76-1.24a2.07,2.07,0,0,0,1.51-.75c.77-.93.93-.85,2.18.39-.5.44-.92,1.09-1.5,1.26-1.58.47-1.69,1.57-1.5,2.88,0,.26.09.52.15.84,1.2.09,2.45.06,2.91,1.78l-3.13-.84-1,1.89-.87-.64-2.23,2.16c-.75-.23-1.33-.37-1.88-.58a23.83,23.83,0,0,1-2.95-1.23,1,1,0,0,1-.23-1.45c.31-.5.65-1,1.06-1.63h-1.16c-.13.6-.23,1.22-.4,1.82-.24.82-.6,1.12-1.39.82s-1.42.24-2.08.3c-1.3.13-2.5,1.25-3.9.51l-.16,0c-.42,1.26-1.29.07-1.89.3.24.91.5,1.77.66,2.65a2.74,2.74,0,0,1-.09,1.27c-.28.86-.75,1-1.6.6s-1.43-.83-2.19-1.16a5.1,5.1,0,0,0-1.22-.24c-.79,1.66-1.51,3.16-2.28,4.79.89.41,1.24,1.28,2.26,1.57a3.4,3.4,0,0,0,3.44-.9,11.06,11.06,0,0,1,1.49-1.08c.62-.38,1.3-.69,2-1l3.21.49a2,2,0,0,1,.34.91A3.84,3.84,0,0,0,994,356a2.24,2.24,0,0,1-.06,2.81,2.94,2.94,0,0,0,1.25-1.36,1.65,1.65,0,0,0,0-1.74,10.49,10.49,0,0,1-.68-2.51c0-.32.36-.7.7-1.3a21.48,21.48,0,0,1,1.83,4.46,21.67,21.67,0,0,1-.27,4.73l1.4-.45c0-.55,0-1.11.08-1.71.67,0,1.29-.77,1.94.23-.2.55-.45,1.17-.65,1.82a1.7,1.7,0,0,0,.77,2.12c.67.41,1.41.72,2.2,1.11,0,1.37-1,2.2-2,3a1.76,1.76,0,0,1-1.26.11,6.48,6.48,0,0,1-3.58-2.32c-1.23-1.38-1.22-1.38-2.51.2-.39-.25-.92-.42-1.18-.78-.8-1.11-1.49-2.29-2.24-3.46.43-.8.86-1.6,1.38-2.59-1.71-.64-3.24-1.22-4.77-1.76a1.8,1.8,0,0,0-.92,0,3.86,3.86,0,0,1-3.58-.91,11.09,11.09,0,0,1-2.28,1,2,2,0,0,0-1.71,1.31,2.91,2.91,0,0,1-2.36,2c-2,.43-3.24,1.94-4.66,3.18a2.37,2.37,0,0,0-.51,1.16,7,7,0,0,1-1.79,3.5,2.6,2.6,0,0,0-.58,2.61c.19.92.23,1.88.47,2.78a24.18,24.18,0,0,0,1.1,3,1.09,1.09,0,0,0,.7.58c1.8.2,3.46,1.1,5.32,1.05.41,0,1,.07,1.2.33.52.77.66,1.81,1.76,2.15a2.07,2.07,0,0,1-.2,1.15,18,18,0,0,1-1.5,1.79,4.08,4.08,0,0,1-.39,4.61,5.56,5.56,0,0,1-1.36,1.24c-.82.56-1.48,1.13-1.37,2.27a2.38,2.38,0,0,1-.4,1.41,3.22,3.22,0,0,0-.63,1.91c0,.32-.31.65-.49,1a9.71,9.71,0,0,0,7-.36c1.2-.48,2.57-.53,3.44-1.78.27-.37,1.18-.38,1.8-.4a3.48,3.48,0,0,0,3.15-2.1,5.37,5.37,0,0,1,3.37-3.08c1.15-.34,2.22-.93,3.35-1.36a14.31,14.31,0,0,0,5-3.81c-.93-.57-2.14.19-2.75-.65-.29-4.42,1.37-8.38,2.12-12.9.44.57.77.81.76,1-.12,1.37-.29,2.74-.49,4.11a11.5,11.5,0,0,0-.38,1.45,8,8,0,0,1-.89,3.81,4.07,4.07,0,0,0-.21,1.15,5.17,5.17,0,0,0,1,.15,14,14,0,0,0,6.7-2.29,2.58,2.58,0,0,0,1.22-3.56c-.59.05-1.26.71-1.86-.15.06-1,.1-2,.18-3.08,0-.49,0-1.14.72-1.11s.65.61.57,1.14a6.07,6.07,0,0,0-.05,1.13,2,2,0,0,0,.14.73c.28.61,1.46.19,1.41,1.43,0,.74,1.15.77,1.88,1a3.76,3.76,0,0,1,.65.42,28.08,28.08,0,0,1-1.22,2.89,54.22,54.22,0,0,1-92.9,4,52.87,52.87,0,0,1-8.33-22.53A51,51,0,0,1,910.76,335a52.84,52.84,0,0,1,8.59-14.68,1.84,1.84,0,0,1,.84-.63,9.07,9.07,0,0,1-.35,1c-.38.8-.78,1.59-1.19,2.37-.89,1.69-.65,3.51-.58,5.3a1.61,1.61,0,0,0,.1.74,8.43,8.43,0,0,1,.92,4.17c0,.07.19.14.28.2-.54,1.7,0,3.37.17,5,.1-1.52.11-3,.09-4.57,0-.15-.19-.3-.3-.45.11-.38.21-.75.35-1.3.3.32.5.44.53.59.42,2.33.81,4.68,1.23,7a4,4,0,0,1-.07,2.41,2.83,2.83,0,0,0,.72,2.81c.88,1.18,1.63,2.57,3.31,3,.33.08.66.58.82.95a4.81,4.81,0,0,0,1.82,2.58,1,1,0,0,1,.44.78c0,2.06,1.19,3.6,2.15,5.35.58-.33.8-.74.26-1.14-1.28-1-1.21-2.09-.6-3.35a5.28,5.28,0,0,0,.45-1,1.37,1.37,0,0,0-.83-1.71c-.51-.22-1-.4-1.78-.67l2.43-3.74c-1.44-.88-2,.15-2.62.86-.87-.08-1.67.06-2.25-.8a3.35,3.35,0,0,1-.53-2.67,25.48,25.48,0,0,1,1.46-4.23c.36-.86,2.85-1.18,3.53-.47.42.44,1.05.9,1.33.53.58-.78,1-.29,1.44,0a20.83,20.83,0,0,1,2,1.59c-.07,1.27-.86,2.47.13,3.77a4.68,4.68,0,0,0,.79-2.56c.06-1.9.57-2.56,2.36-3.11a4,4,0,0,0,1.07-.33c.79-.53,1.55-1.11,1.46-2.24-.05-.73.33-1.25,1.2-1.77-.2.64-.31,1-.49,1.6a13.18,13.18,0,0,1,2.39-1.91,7.17,7.17,0,0,1,2.35-.2,1,1,0,0,1,.84-1.23c1.17-.18,2.35-.31,3.53-.46,0,.25.76.58-.09.76-.29.06-.56.16-1.29.37.66.22.93.41,1.15.37a17.27,17.27,0,0,0,1.84-.48l-1.27-3.27,1.29-.15c-.08-.26-.1-.54-.19-.57a3.42,3.42,0,0,0-1.25-.21c-.73.1-1.44.34-2.27.54,1.22-1.29,3.22-2,4.57-1.11,1.76,1.11,3.41.36,5.11.25a.85.85,0,0,0,.56-.64,1.16,1.16,0,0,0-.52-.88c-.48-.16-1.05-.1-1.65-.32l1.73-.43a5.46,5.46,0,0,1-1-.92c-.33-.53-.74-.91-.39-1.81s0-2.2-.12-3.46l-2.23,1.05c-.6-.9-1.43-1.61-.57-2.59-.47-1.84-2-2.22-3.52-2.67l-1.92,2.36c0,2.7,0,2.7-2.5,3.44-.31.92-.47,2.06-1.75,2.41-1.44-1-.56-2.07,0-3.1-.74-.69-1.43-1.31-2.08-2a13.2,13.2,0,0,1-1.73-1.94,13.55,13.55,0,0,1-1-2.19,4.94,4.94,0,0,1,2.39-1.57c.88-.28,1.69-.78,2.58-1.06a6.3,6.3,0,0,1,1.64,0l-.49-.81h4.81a5.74,5.74,0,0,0,.67-2.47l.75,0c1.48.1,2.74.2,3.41,2,.54,1.47.86,1.31-.31,2.18a7.66,7.66,0,0,0-1.12,1.33c-2.18-.48-2.18-.48-2.69.33l2.27.28.93,2,2.11.49c-.14-.49-.24-.81-.36-1.22l2.09.54c.22-.94-1.25-1.61-.08-2.51l1.49,1.68,2.06-.89c-1-.91-2.27-1.58-2.92-2.76l.85-1.26L957.65,310c-.2-.15-.59-.36-.56-.45.32-1.07-.65-.9-1.12-1.11a2.06,2.06,0,0,0-1.23-.06c-.74.17-1-.39-1.33-.79,0,0,.26-.35.4-.54.9,1,1.15,1,2.14.31-.69-.48-1.45-.25-2.18-.27-.13-.11-.23-.29-.38-.34-1.1-.38-1.76.33-2.46,1-.09.08-.3,0-.68,0l1-1.34c-1.22-.73-1.86.23-2.71.58a4.6,4.6,0,0,0,2.62,2.41c-1.21-.21-1.91.82-2.88,1.19-.42.16-.78.5-1.23-.17l.87-1.37-1.23.48c-.45-1.26-.45-1.26,0-1.83l-.61-1.35,2.56-.67c-.89-.54-.89-.54-2.24-.49-.09.38-.18.79-.28,1.19l-2,.68,1.13,1-2.82,1.68v-1.35a3.8,3.8,0,0,1-4.26-1.39l-2.11.73c0-.23-.14-.48-.06-.56.63-.73,2.43-1.27,2.89-.68.93,1.17,1.66.48,2.49,0-1-1.25-.93-1.61.42-2.16.65-.26,1.3-.51,2-.72a1.29,1.29,0,0,1,1.38.1c.79.57,1,.39,1.61-.49.4-.62.4-.62,1.51-.57,0,.28,0,.56-.07.92l1,0c.07.46.13.91.21,1.46,1.94.23,3.83,1.26,6.17,1.13a4.09,4.09,0,0,0-2.92-1.08,2.14,2.14,0,0,1-2-.89C950.31,303.58,949.75,303.65,949.19,303.63Zm-18.66,90a14.09,14.09,0,0,0,1.13-1c.86-1,1.67-1.89,3.23-1.34.66.23.92-.2.84-1,0-.22-.08-.43-.1-.55.67.18,1.51.65,1.81.42.84-.63,1.9-.8,2.68-1.4.54-.41.76-1.22,1.24-2.05,1,0,2.15,0,3.28,0,.23,0,.55,0,.69-.12,1-.88,2.23-1.54,2.52-3a3.34,3.34,0,0,1,2.6-2.51c1.47-.41,1.73-1.27,1.76-2.63a30.38,30.38,0,0,0-2.3-2.62c-.75-.71-1.9-1-2.16-2.23-.07-.3-.54-.52-.83-.76l-1.32-1.08h-2.12a3.06,3.06,0,0,1,1.22-.66c.81-.21,1.2-.62.92-1.51a7.12,7.12,0,0,1-.1-.94c-.21-1.38-.65-2.57-2.17-3.07-.43-.13-1-.64-1.05-1,0-1.15-1.07-1.71-1.31-2.71a1.61,1.61,0,0,0-1.26-1.22,3.53,3.53,0,0,1-2.56-2.62l-1.45,1.72c-.75-.91.67-1.48.45-2.33l-2.48.38-1.07,1.35c-.21-.4-.34-.68-.5-1s-.37-.55-.77-1.16c.86,3.2.6,4-1.47,5.94a7.2,7.2,0,0,0-1.35,1.79c-.2.37,0,1-.24,1.3-.72.82-.5,1.55-.18,2.44a11,11,0,0,1,.87,3.67,6.45,6.45,0,0,0,1.69,4.53,2.28,2.28,0,0,1,.48,2.45c-.53,1.63-.95,3.3-1.47,4.93-.36,1.14-.77,2.28-1.23,3.38a7.31,7.31,0,0,0-.56,2.93c.07.84.1,1.69-.87,1.89,0,.51.09,1,.08,1.47a4.06,4.06,0,0,0,1.48,3.16c.22.19.68.1,1.13.15-.11-.64-.2-1.11-.29-1.6l1.43-1C930.73,394.17,930.63,393.88,930.53,393.61ZM986.19,321a6.72,6.72,0,0,1,1.25-2,4.19,4.19,0,0,0,2-2.64l1.13.09-.54-1.14c.36-.87,1.4-.59,1.69-1.35,0-.09.13-.23.19-.23,1.07,0,2.13.1,3.34.16-1.65-1.77-3.94-1.4-6-2.19l1.89-.72A23.08,23.08,0,0,0,977,306.57c.19.39.32.65.47.93-.79.26-1-.3-1.33-.79s-.71-.84-1.23-.5c-.92.6-1.54,0-2.24-.39a5.38,5.38,0,0,0-1-.48c-2.11-.6-4.28-.34-6.7-.46l1.21.74a6.65,6.65,0,0,1-1.41.2c-1.07-.11-2.14-.3-3.22-.44a1.62,1.62,0,0,0-.53.11l.55.81-.78.6a9.41,9.41,0,0,0,1.46.54,10.34,10.34,0,0,1,4.1,1.24,3.86,3.86,0,0,1,1.72,2.17c.25.94-.39,1.46-.81,2.08.49.26.88.43,1.24.66s.76.56,1.13.84c-.46.67-.83.39-1.24.18-1.11-.57-1.11-.56-2.12.5.36.6.89.82,1.37.27s.84-.17,1,.11a1,1,0,0,1-.22.93,3.16,3.16,0,0,1-1.18.45c-.41.13-.84.22-1.21.31a9.17,9.17,0,0,0-.26,1.54c0,.49.29,1,.32,1.48s-.26,1-.14,1.46a6.83,6.83,0,0,0,3.4,3.85c.57-2,3.2-1.79,3.78-3.82.61.1,1.21,0,1.56.29a2,2,0,0,0,2.09.14,6.08,6.08,0,0,1,3.85-.52A6.91,6.91,0,0,0,986.19,321Zm3.21,22.72h-1.95c0,.13,0,.26,0,.39,1.45.12,2.87.94,4.44.06-.37-1.6-.72-3.07-1.06-4.56.69-1,.69-1,.11-2.71-1.57,1-1.82,1.88-1.15,3.44A5.76,5.76,0,0,1,990,342c-1.06-.21-1.45.37-1.75,1.07Zm-1-14.78c-.12-.81-.21-1.39-.28-1.88-1.56-.54-3.2-.3-4.2-1.68-.17.09-.44.15-.49.28a2.45,2.45,0,0,0,1.66,2.94C986,328.79,987,328.85,988.36,329Zm-33.24,3.2,3.74,2.32A2,2,0,0,0,958,332c-.67-.45-.85-1-.6-2Zm29,64.49c1.27.53,2-.43,3-.71a5.23,5.23,0,0,0,2.5-1.59A7,7,0,0,0,984.12,396.67Zm4.12-57.26c-.74.16-1.49.1-1.85.44a6.46,6.46,0,0,0-1,1.89C987.22,342.08,987.92,341.54,988.24,339.41Zm-51.37,11.16c-1.48-1.83-2-4.06-4.55-4.11,1.58.39,2.27,1.73,2.9,3C935.51,350,935.81,350.32,936.87,350.57Zm8.37-45.9a1.79,1.79,0,0,0-2.28.92c.48,1.3,1.32.4,1.88.47C945,305.56,945.1,305.17,945.24,304.67ZM937,352.41l2.49.87.21-.36-1.81-1.51ZM945.84,314a3.3,3.3,0,0,1,2.68.6l-1.39-2Z" fill="#aabecf" fill-rule="evenodd"/><path d="M1003.73,356.26c1,.82,1,.82.87,2a1,1,0,0,0,.32.16,3.54,3.54,0,0,0,.56,0c0-.27-.07-.51-.13-.88l2.14-.22-1.21,1.34c.16,1.08.34,2.11.45,3.15,0,.15-.34.34-.63.62-.51-.34-1.25-.57-1.49-1.05a2.07,2.07,0,0,0-2.52-1.14c-.36.06-.73.06-1.18.09C1000.77,358.18,1002.54,357.44,1003.73,356.26Z" fill="#aabecf" fill-rule="evenodd"/><path d="M1012.25,339.19a7,7,0,0,1,1,4.18c-.38-.57-.72-.85-.76-1.18C1012.33,341.23,1012.32,340.25,1012.25,339.19Z" fill="#aabecf" fill-rule="evenodd"/><path d="M980.88,301.46a3.1,3.1,0,0,1,1-2,22,22,0,0,1,5.3-4.5,29,29,0,0,1,6.12-2.94c4-1.33,9.51-1.85,11.83,2.55s.88,8.26-.62,12.61c-2.73,7.93-8.15,14.4-13.33,20.84-5.51,6.85-11.19,13.47-17.3,19.78-3.56,3.67-7.19,7.26-10.86,10.81-2.49,2.4-5,4.77-7.59,7.08-4,3.57-8.05,8-12.7,10.69a4.36,4.36,0,0,1-2.23.6c-.59-1.6.1-2,1.14-3.22,2-2.28,4.67-4.16,6.91-6.17C954.78,362,960.49,356,966.3,350c9-9.26,17.88-18.85,24.35-30.13a74.63,74.63,0,0,0,5.22-10.57,21,21,0,0,0,1.51-9c-.45-5.69-5.71-.23-7.72,1.11-2.17,1.46-6.51,3.92-8.47.86A1.92,1.92,0,0,1,980.88,301.46Z" fill="#ce763a"/><circle cx="960" cy="366.14" r="135.53" fill="none" stroke="#072e4b" stroke-miterlimit="10" stroke-width="0.5"/><circle cx="960" cy="366.14" r="99.91" fill="none" stroke="#072e4b" stroke-miterlimit="10" stroke-width="0.5"/></svg>